<svg width="143" height="40" viewBox="0 0 143 40" fill="none" xmlns="http://www.w3.org/2000/svg">
<rect width="143" height="40" rx="4" fill="#020E14"/>
<path d="M42.9263 24.3817C42.8529 24.2667 42.7336 24.19 42.5997 24.1717C40.8382 23.9385 39.5968 22.3024 39.8269 20.5173C39.9894 19.2564 40.8607 18.2063 42.0586 17.8277C42.3018 17.7486 42.4359 17.4848 42.3579 17.2382C42.3458 17.1999 42.3288 17.1632 42.3074 17.1292C41.4991 15.6508 40.0618 14.634 38.4137 14.3749C37.5833 14.415 36.7648 14.5927 35.9909 14.9008C35.4352 15.1275 34.8483 15.2663 34.2509 15.3123C33.6534 15.2663 33.0666 15.1275 32.5108 14.9008C31.7369 14.5927 30.9185 14.415 30.088 14.3749C28.3608 14.3749 25 16.8564 25 21.4061C25 25.7298 28.112 31.2497 30.5505 31.2497C31.481 31.2582 32.4002 31.0436 33.2333 30.6235C33.547 30.4481 33.8938 30.342 34.2509 30.3122C34.608 30.342 34.9548 30.4481 35.2685 30.6235C36.1016 31.0436 37.0208 31.2582 37.9513 31.2497C39.8847 31.2497 42.067 27.886 42.981 24.7689C43.0192 24.6379 42.9993 24.4965 42.9263 24.3817Z" fill="white"/>
<path d="M33.7902 14.375C36.5989 14.3718 38.8751 12.0652 38.8781 9.21876C38.8781 8.95988 38.6711 8.75 38.4156 8.75C35.6069 8.75312 33.3307 11.0598 33.3276 13.9062C33.3276 14.1651 33.5347 14.375 33.7902 14.375Z" fill="white"/>
<path d="M58.642 16.088C57.872 16.088 57.1753 15.9193 56.552 15.582C55.936 15.2373 55.452 14.768 55.1 14.174C54.748 13.5727 54.572 12.898 54.572 12.15C54.572 11.402 54.748 10.731 55.1 10.137C55.452 9.53567 55.9397 9.06633 56.563 8.729C57.1863 8.38433 57.883 8.212 58.653 8.212C59.2543 8.212 59.8043 8.31467 60.303 8.52C60.8017 8.718 61.227 9.015 61.579 9.411L60.864 10.104C60.2847 9.49533 59.5623 9.191 58.697 9.191C58.125 9.191 57.608 9.31933 57.146 9.576C56.684 9.83267 56.321 10.1883 56.057 10.643C55.8003 11.0903 55.672 11.5927 55.672 12.15C55.672 12.7073 55.8003 13.2133 56.057 13.668C56.321 14.1153 56.684 14.4673 57.146 14.724C57.608 14.9807 58.125 15.109 58.697 15.109C59.555 15.109 60.2773 14.801 60.864 14.185L61.579 14.878C61.227 15.274 60.798 15.5747 60.292 15.78C59.7933 15.9853 59.2433 16.088 58.642 16.088ZM65.1845 13.536H63.9745V16H62.9185V10.17H63.9745V12.634H65.2065L67.0985 10.17H68.2315L66.0205 12.975L68.3855 16H67.1425L65.1845 13.536ZM71.7964 16.066C71.217 16.066 70.6964 15.9377 70.2344 15.681C69.7724 15.4243 69.4094 15.0723 69.1454 14.625C68.8887 14.1703 68.7604 13.657 68.7604 13.085C68.7604 12.513 68.8887 12.0033 69.1454 11.556C69.4094 11.1013 69.7724 10.7493 70.2344 10.5C70.6964 10.2433 71.217 10.115 71.7964 10.115C72.3757 10.115 72.8927 10.2433 73.3474 10.5C73.8094 10.7493 74.1687 11.1013 74.4254 11.556C74.6894 12.0033 74.8214 12.513 74.8214 13.085C74.8214 13.657 74.6894 14.1703 74.4254 14.625C74.1687 15.0723 73.8094 15.4243 73.3474 15.681C72.8927 15.9377 72.3757 16.066 71.7964 16.066ZM71.7964 15.142C72.1704 15.142 72.504 15.0577 72.7974 14.889C73.098 14.713 73.3327 14.471 73.5014 14.163C73.67 13.8477 73.7544 13.4883 73.7544 13.085C73.7544 12.6817 73.67 12.326 73.5014 12.018C73.3327 11.7027 73.098 11.4607 72.7974 11.292C72.504 11.1233 72.1704 11.039 71.7964 11.039C71.4224 11.039 71.085 11.1233 70.7844 11.292C70.491 11.4607 70.2564 11.7027 70.0804 12.018C69.9117 12.326 69.8274 12.6817 69.8274 13.085C69.8274 13.4883 69.9117 13.8477 70.0804 14.163C70.2564 14.471 70.491 14.713 70.7844 14.889C71.085 15.0577 71.4224 15.142 71.7964 15.142ZM79.4372 10.115C80.0019 10.115 80.5079 10.2397 80.9552 10.489C81.4026 10.7383 81.7509 11.0867 82.0002 11.534C82.2569 11.9813 82.3852 12.4983 82.3852 13.085C82.3852 13.6717 82.2569 14.1923 82.0002 14.647C81.7509 15.0943 81.4026 15.4427 80.9552 15.692C80.5079 15.9413 80.0019 16.066 79.4372 16.066C79.0192 16.066 78.6342 15.9853 78.2822 15.824C77.9376 15.6627 77.6442 15.428 77.4022 15.12V18.134H76.3462V10.17H77.3582V11.094C77.5929 10.7713 77.8899 10.5293 78.2492 10.368C78.6086 10.1993 79.0046 10.115 79.4372 10.115ZM79.3492 15.142C79.7232 15.142 80.0569 15.0577 80.3502 14.889C80.6509 14.713 80.8856 14.471 81.0542 14.163C81.2302 13.8477 81.3182 13.4883 81.3182 13.085C81.3182 12.6817 81.2302 12.326 81.0542 12.018C80.8856 11.7027 80.6509 11.4607 80.3502 11.292C80.0569 11.1233 79.7232 11.039 79.3492 11.039C78.9826 11.039 78.6489 11.127 78.3482 11.303C78.0549 11.4717 77.8202 11.71 77.6442 12.018C77.4756 12.326 77.3912 12.6817 77.3912 13.085C77.3912 13.4883 77.4756 13.8477 77.6442 14.163C77.8129 14.471 78.0476 14.713 78.3482 14.889C78.6489 15.0577 78.9826 15.142 79.3492 15.142ZM86.4165 16.066C85.8372 16.066 85.3165 15.9377 84.8545 15.681C84.3925 15.4243 84.0295 15.0723 83.7655 14.625C83.5088 14.1703 83.3805 13.657 83.3805 13.085C83.3805 12.513 83.5088 12.0033 83.7655 11.556C84.0295 11.1013 84.3925 10.7493 84.8545 10.5C85.3165 10.2433 85.8372 10.115 86.4165 10.115C86.9958 10.115 87.5128 10.2433 87.9675 10.5C88.4295 10.7493 88.7888 11.1013 89.0455 11.556C89.3095 12.0033 89.4415 12.513 89.4415 13.085C89.4415 13.657 89.3095 14.1703 89.0455 14.625C88.7888 15.0723 88.4295 15.4243 87.9675 15.681C87.5128 15.9377 86.9958 16.066 86.4165 16.066ZM86.4165 15.142C86.7905 15.142 87.1242 15.0577 87.4175 14.889C87.7182 14.713 87.9528 14.471 88.1215 14.163C88.2902 13.8477 88.3745 13.4883 88.3745 13.085C88.3745 12.6817 88.2902 12.326 88.1215 12.018C87.9528 11.7027 87.7182 11.4607 87.4175 11.292C87.1242 11.1233 86.7905 11.039 86.4165 11.039C86.0425 11.039 85.7052 11.1233 85.4045 11.292C85.1112 11.4607 84.8765 11.7027 84.7005 12.018C84.5318 12.326 84.4475 12.6817 84.4475 13.085C84.4475 13.4883 84.5318 13.8477 84.7005 14.163C84.8765 14.471 85.1112 14.713 85.4045 14.889C85.7052 15.0577 86.0425 15.142 86.4165 15.142Z" fill="white"/>
<path d="M61.3002 27.2743H56.6798L55.7689 29.4248H54L58.1584 20.1327H59.8481L64.0196 29.4248H62.2243L61.3002 27.2743ZM60.7326 25.9204L58.99 21.8584L57.2607 25.9204H60.7326Z" fill="white"/>
<path d="M68.944 22.2566C69.6304 22.2566 70.2421 22.4071 70.7789 22.708C71.3246 23.0088 71.7514 23.4336 72.0594 23.9823C72.3675 24.531 72.5215 25.1637 72.5215 25.8805C72.5215 26.5973 72.3675 27.2345 72.0594 27.792C71.7514 28.3407 71.3246 28.7655 70.7789 29.0664C70.2421 29.3673 69.6304 29.5177 68.944 29.5177C67.9935 29.5177 67.241 29.1991 66.6866 28.5619V32H65.0364V22.3363H66.6074V23.2655C66.8802 22.9292 67.2146 22.677 67.6107 22.5088C68.0155 22.3407 68.4599 22.2566 68.944 22.2566ZM68.7592 28.0973C69.3664 28.0973 69.8637 27.8938 70.2509 27.4867C70.6469 27.0796 70.8449 26.5442 70.8449 25.8805C70.8449 25.2168 70.6469 24.6814 70.2509 24.2743C69.8637 23.8673 69.3664 23.6637 68.7592 23.6637C68.3631 23.6637 68.0067 23.7566 67.6899 23.9425C67.373 24.1195 67.1222 24.3761 66.9374 24.7124C66.7526 25.0487 66.6602 25.4381 66.6602 25.8805C66.6602 26.323 66.7526 26.7124 66.9374 27.0487C67.1222 27.385 67.373 27.646 67.6899 27.8319C68.0067 28.0088 68.3631 28.0973 68.7592 28.0973Z" fill="white"/>
<path d="M77.994 22.2566C78.6804 22.2566 79.2921 22.4071 79.8289 22.708C80.3746 23.0088 80.8014 23.4336 81.1094 23.9823C81.4174 24.531 81.5715 25.1637 81.5715 25.8805C81.5715 26.5973 81.4174 27.2345 81.1094 27.792C80.8014 28.3407 80.3746 28.7655 79.8289 29.0664C79.2921 29.3673 78.6804 29.5177 77.994 29.5177C77.0435 29.5177 76.291 29.1991 75.7366 28.5619V32H74.0864V22.3363H75.6574V23.2655C75.9302 22.9292 76.2646 22.677 76.6606 22.5088C77.0655 22.3407 77.5099 22.2566 77.994 22.2566ZM77.8091 28.0973C78.4164 28.0973 78.9136 27.8938 79.3009 27.4867C79.6969 27.0796 79.8949 26.5442 79.8949 25.8805C79.8949 25.2168 79.6969 24.6814 79.3009 24.2743C78.9136 23.8673 78.4164 23.6637 77.8091 23.6637C77.4131 23.6637 77.0567 23.7566 76.7399 23.9425C76.423 24.1195 76.1722 24.3761 75.9874 24.7124C75.8026 25.0487 75.7102 25.4381 75.7102 25.8805C75.7102 26.323 75.8026 26.7124 75.9874 27.0487C76.1722 27.385 76.423 27.646 76.7399 27.8319C77.0567 28.0088 77.4131 28.0973 77.8091 28.0973Z" fill="white"/>
<path d="M89.8078 29.5575C89.095 29.5575 88.4041 29.4558 87.7352 29.2522C87.0752 29.0487 86.5515 28.7788 86.1643 28.4425L86.7584 27.1018C87.1368 27.4027 87.5988 27.6504 88.1445 27.8451C88.6989 28.031 89.2534 28.1239 89.8078 28.1239C90.4943 28.1239 91.0047 28.0133 91.3391 27.792C91.6824 27.5708 91.854 27.2788 91.854 26.9159C91.854 26.6504 91.7572 26.4336 91.5636 26.2655C91.3788 26.0885 91.1411 25.9513 90.8507 25.854C90.5603 25.7566 90.1643 25.646 89.6626 25.5221C88.9585 25.354 88.3865 25.1858 87.9465 25.0177C87.5152 24.8496 87.1412 24.5885 86.8244 24.2345C86.5163 23.8717 86.3623 23.385 86.3623 22.7743C86.3623 22.2611 86.4987 21.7965 86.7716 21.3805C87.0532 20.9558 87.4712 20.6195 88.0257 20.3717C88.5889 20.1239 89.2754 20 90.085 20C90.6483 20 91.2027 20.0708 91.7484 20.2124C92.294 20.354 92.7649 20.5575 93.1609 20.823L92.6197 22.1637C92.2148 21.9248 91.7924 21.7434 91.3524 21.6195C90.9123 21.4956 90.4855 21.4336 90.0718 21.4336C89.3942 21.4336 88.8881 21.5487 88.5537 21.7788C88.2281 22.0088 88.0653 22.3142 88.0653 22.6947C88.0653 22.9602 88.1577 23.177 88.3425 23.3451C88.5361 23.5133 88.7781 23.646 89.0686 23.7434C89.359 23.8407 89.755 23.9513 90.2567 24.0752C90.9431 24.2345 91.5064 24.4027 91.9464 24.5796C92.3864 24.7478 92.7605 25.0088 93.0685 25.3628C93.3853 25.7168 93.5437 26.1947 93.5437 26.7965C93.5437 27.3097 93.4029 27.7743 93.1213 28.1903C92.8485 28.6062 92.4304 28.9381 91.8672 29.1858C91.3039 29.4336 90.6175 29.5575 89.8078 29.5575Z" fill="white"/>
<path d="M99.3246 29.0398C99.131 29.1991 98.8934 29.3186 98.6117 29.3982C98.3389 29.4779 98.0485 29.5177 97.7405 29.5177C96.966 29.5177 96.3675 29.3142 95.9451 28.9071C95.5227 28.5 95.3114 27.9071 95.3114 27.1283V23.7168H94.1498V22.3894H95.3114V20.7699H96.9616V22.3894H98.8493V23.7168H96.9616V27.0885C96.9616 27.4336 97.0452 27.6991 97.2124 27.885C97.3796 28.0619 97.6216 28.1504 97.9385 28.1504C98.3081 28.1504 98.6161 28.0531 98.8625 27.8584L99.3246 29.0398Z" fill="white"/>
<path d="M103.618 29.5177C102.905 29.5177 102.263 29.3628 101.691 29.0531C101.119 28.7434 100.67 28.3142 100.344 27.7655C100.028 27.208 99.8691 26.5796 99.8691 25.8805C99.8691 25.1814 100.028 24.5575 100.344 24.0088C100.67 23.4602 101.119 23.031 101.691 22.7212C102.263 22.4115 102.905 22.2566 103.618 22.2566C104.34 22.2566 104.987 22.4115 105.559 22.7212C106.131 23.031 106.575 23.4602 106.892 24.0088C107.218 24.5575 107.381 25.1814 107.381 25.8805C107.381 26.5796 107.218 27.208 106.892 27.7655C106.575 28.3142 106.131 28.7434 105.559 29.0531C104.987 29.3628 104.34 29.5177 103.618 29.5177ZM103.618 28.0973C104.226 28.0973 104.727 27.8938 105.123 27.4867C105.519 27.0796 105.717 26.5442 105.717 25.8805C105.717 25.2168 105.519 24.6814 105.123 24.2743C104.727 23.8673 104.226 23.6637 103.618 23.6637C103.011 23.6637 102.509 23.8673 102.113 24.2743C101.726 24.6814 101.532 25.2168 101.532 25.8805C101.532 26.5442 101.726 27.0796 102.113 27.4867C102.509 27.8938 103.011 28.0973 103.618 28.0973Z" fill="white"/>
<path d="M110.529 23.3717C111.005 22.6283 111.841 22.2566 113.038 22.2566V23.8363C112.897 23.8097 112.769 23.7965 112.655 23.7965C112.012 23.7965 111.511 23.9867 111.15 24.3673C110.789 24.7389 110.609 25.2788 110.609 25.9867V29.4248H108.959V22.3363H110.529V23.3717Z" fill="white"/>
<path d="M121 25.9204C121 26.0354 120.991 26.1991 120.974 26.4115H115.442C115.539 26.9336 115.79 27.3496 116.195 27.6593C116.608 27.9602 117.119 28.1106 117.726 28.1106C118.501 28.1106 119.139 27.854 119.64 27.3407L120.525 28.3628C120.208 28.7434 119.808 29.031 119.323 29.2257C118.839 29.4204 118.294 29.5177 117.687 29.5177C116.912 29.5177 116.23 29.3628 115.64 29.0531C115.051 28.7434 114.593 28.3142 114.267 27.7655C113.951 27.208 113.792 26.5796 113.792 25.8805C113.792 25.1903 113.946 24.5708 114.254 24.0221C114.571 23.4646 115.007 23.031 115.561 22.7212C116.116 22.4115 116.74 22.2566 117.436 22.2566C118.122 22.2566 118.734 22.4115 119.271 22.7212C119.816 23.0221 120.239 23.4513 120.538 24.0088C120.846 24.5575 121 25.1947 121 25.9204ZM117.436 23.5841C116.908 23.5841 116.459 23.7434 116.089 24.0619C115.728 24.3717 115.508 24.7876 115.429 25.3097H119.429C119.359 24.7965 119.143 24.3805 118.782 24.0619C118.421 23.7434 117.973 23.5841 117.436 23.5841Z" fill="white"/>
</svg>
