<svg width="84" height="26" viewBox="0 0 84 26" fill="none" xmlns="http://www.w3.org/2000/svg">
<path d="M23.1076 3.05446C24.4425 1.5949 26.3728 0.74808 28.3364 0.526048C30.2796 0.341115 32.2393 0.629647 34.0412 1.36598C35.622 1.97528 37.006 2.95463 38.2864 4.02693C37.2572 5.35052 36.2192 6.6655 35.1846 7.98565C34.5348 7.49339 33.9446 6.92024 33.2368 6.50543C32.0565 5.78598 30.7251 5.19217 29.3042 5.2352C28.5823 5.27995 27.8183 5.40732 27.2439 5.8772C26.911 6.13124 26.669 6.48232 26.5529 6.87982C26.4367 7.27732 26.4524 7.7007 26.5976 8.08892C26.7732 8.51405 27.1596 8.80837 27.5495 9.04073C28.5246 9.5831 29.5496 10.0343 30.611 10.3884C32.4148 11.0614 34.2555 11.7223 35.845 12.817C36.8005 13.5192 37.6506 14.4298 38.0564 15.5485C38.7062 17.2393 38.7024 19.1047 38.0458 20.793C37.3766 22.6122 35.7976 24.0012 34.0254 24.7775C31.2784 25.9496 28.0747 25.8687 25.2926 24.8498C24.127 24.4004 23.0378 23.78 22.0625 23.0098C21.3347 22.4245 20.6595 21.779 20.0444 21.0804C21.151 19.7671 22.2716 18.4642 23.3816 17.1561C23.7048 17.5399 24.0121 17.9358 24.3336 18.3213C25.758 20.0081 28.022 21.0047 30.2649 20.8257C31.0553 20.7585 31.8791 20.5847 32.5237 20.1096C33.5898 19.3592 33.5898 17.5606 32.4991 16.8394C31.1818 15.953 29.6291 15.5175 28.1555 14.9564C26.7767 14.4298 25.3997 13.8497 24.1913 13.0012C23.3915 12.4399 22.7104 11.7321 22.1855 10.9168C21.6135 9.93696 21.3058 8.83041 21.2915 7.70165C21.2518 5.97918 21.904 4.31033 23.1076 3.05446Z" fill="white"/>
<path d="M0.472896 0.667249C2.16607 0.667249 3.85983 0.667249 5.55417 0.667249C5.55417 4.1492 5.55417 7.62943 5.55417 11.1114C8.5102 7.63459 11.4381 4.13715 14.4029 0.665527C16.6019 0.665527 18.7939 0.665527 21 0.665527C15.965 6.47624 10.9299 12.2841 5.89491 18.089C5.77372 18.2612 5.55241 18.392 5.56647 18.6175C5.56647 20.8877 5.56647 23.1562 5.56647 25.4264C3.87329 25.4264 2.17953 25.4264 0.48519 25.4264C0.473481 17.174 0.469383 8.92089 0.472896 0.667249Z" fill="white"/>
<path d="M39.8496 5.39557C39.8496 3.82069 39.8496 2.24408 39.8496 0.66748C46.1551 0.66748 52.4606 0.66748 58.7661 0.66748C58.7661 2.24408 58.7661 3.82011 58.7661 5.39557C56.4459 5.39557 54.1239 5.39557 51.8055 5.39557C51.7984 12.0737 51.7984 18.7502 51.8055 25.425C50.1111 25.425 48.4168 25.425 46.7224 25.425C46.7154 18.7491 46.7154 12.0726 46.7224 5.39557C44.4268 5.39385 42.1382 5.40245 39.8496 5.39557Z" fill="white"/>
<path d="M60.3886 0.725632C62.3862 0.725632 64.3838 0.725632 66.3814 0.725632C68.2942 3.47952 70.1963 6.23341 72.1126 8.9873C74.013 6.23341 75.9093 3.47952 77.8016 0.725632C79.7494 0.703256 81.6973 0.725632 83.6469 0.717026C77.8706 8.9787 72.0821 17.2318 66.2813 25.4762C64.279 25.4848 62.2767 25.4762 60.2744 25.4762C63.1292 21.3454 65.9874 17.2146 68.8492 13.0837C66.0407 8.97353 63.2023 4.85475 60.3886 0.725632Z" fill="white"/>
<path d="M10.145 19.3301C12.2527 19.3301 14.3604 19.3301 16.4681 19.3301C17.9774 21.3657 19.4885 23.399 21.0013 25.4299C18.8937 25.4299 16.7754 25.4386 14.6642 25.4299C13.1596 23.3944 11.6532 21.3611 10.145 19.3301Z" fill="white"/>
<path d="M73.5938 19.3867C75.6242 19.3867 77.6563 19.3867 79.6867 19.3867C81.1094 21.4143 82.5251 23.4487 83.9337 25.49H77.8583C76.4286 23.4579 75.0071 21.4234 73.5938 19.3867Z" fill="white"/>
</svg>
