<svg width="103" height="32" viewBox="0 0 103 32" fill="none" xmlns="http://www.w3.org/2000/svg">
<path d="M28.3342 3.7593C29.971 1.96292 32.3379 0.920675 34.7457 0.647405C37.1284 0.419795 39.5313 0.774912 41.7408 1.68117C43.6792 2.43108 45.3763 3.63643 46.9463 4.95618C45.6842 6.58522 44.4114 8.20366 43.1429 9.82845C42.346 9.2226 41.6224 8.51718 40.7544 8.00665C39.3072 7.12117 37.6747 6.39033 35.9324 6.44328C35.0472 6.49836 34.1103 6.65512 33.4061 7.23344C32.9979 7.5461 32.7012 7.9782 32.5587 8.46743C32.4163 8.95666 32.4355 9.47775 32.6135 9.95555C32.8289 10.4788 33.3027 10.841 33.7808 11.127C34.9764 11.7945 36.2333 12.3499 37.5347 12.7857C39.7465 13.614 42.0036 14.4274 43.9527 15.7747C45.1243 16.639 46.1667 17.7597 46.6642 19.1366C47.461 21.2176 47.4564 23.5134 46.6512 25.5913C45.8307 27.8304 43.8945 29.54 41.7215 30.4953C38.3531 31.938 34.4248 31.8384 31.0133 30.5843C29.5841 30.0313 28.2486 29.2677 27.0527 28.3198C26.1602 27.5994 25.3323 26.8049 24.5781 25.9451C25.9349 24.3287 27.309 22.7251 28.6701 21.1152C29.0664 21.5876 29.4433 22.0748 29.8374 22.5493C31.5841 24.6253 34.3602 25.8519 37.1104 25.6315C38.0796 25.5489 39.0897 25.335 39.8801 24.7503C41.1873 23.8267 41.1873 21.613 39.8499 20.7254C38.2346 19.6344 36.3308 19.0985 34.5238 18.4079C32.8332 17.7597 31.1447 17.0458 29.663 16.0014C28.6823 15.3106 27.8471 14.4394 27.2035 13.436C26.5021 12.2301 26.1248 10.8682 26.1072 9.47892C26.0586 7.35896 26.8583 5.30498 28.3342 3.7593Z" fill="black"/>
<path d="M0.579616 0.82118C2.65577 0.82118 4.73264 0.82118 6.81023 0.82118C6.81023 5.10666 6.81023 9.39002 6.81023 13.6755C10.4349 9.39637 14.0251 5.09183 17.6605 0.819061C20.3569 0.819061 23.0447 0.819061 25.7497 0.819061C19.5758 7.9707 13.4019 15.1188 7.22804 22.2634C7.07944 22.4752 6.80807 22.6362 6.8253 22.9137C6.8253 25.7079 6.8253 28.4999 6.8253 31.294C4.74915 31.294 2.67228 31.294 0.594692 31.294C0.580334 21.1371 0.575309 10.9795 0.579616 0.82118Z" fill="black"/>
<path d="M48.8633 6.64043C48.8633 4.70211 48.8633 2.76168 48.8633 0.821243C56.595 0.821243 64.3267 0.821243 72.0585 0.821243C72.0585 2.76168 72.0585 4.7014 72.0585 6.64043C69.2134 6.64043 66.3663 6.64043 63.5234 6.64043C63.5148 14.8597 63.5148 23.0769 63.5234 31.292C61.4458 31.292 59.3682 31.292 57.2907 31.292C57.282 23.0755 57.282 14.8583 57.2907 6.64043C54.4758 6.63831 51.6695 6.6489 48.8633 6.64043Z" fill="black"/>
<path d="M74.0472 0.893109C76.4967 0.893109 78.9461 0.893109 81.3956 0.893109C83.741 4.28251 86.0734 7.67192 88.4231 11.0613C90.7534 7.67192 93.0786 4.28251 95.3989 0.893109C97.7873 0.86557 100.176 0.893109 102.566 0.882517C95.4836 11.0507 88.3857 21.2083 81.2728 31.3554C78.8176 31.366 76.3624 31.3554 73.9072 31.3554C77.4077 26.2713 80.9124 21.1872 84.4215 16.1031C80.9778 11.0444 77.4974 5.9751 74.0472 0.893109Z" fill="black"/>
<path d="M12.4395 23.7906C15.0239 23.7906 17.6083 23.7906 20.1927 23.7906C22.0435 26.296 23.8963 28.7985 25.7514 31.2982C23.167 31.2982 20.5696 31.3088 17.9809 31.2982C16.1359 28.7928 14.2888 26.2903 12.4395 23.7906Z" fill="#0029FF"/>
<path d="M90.2393 23.8605C92.7289 23.8605 95.2207 23.8605 97.7104 23.8605C99.4549 26.3559 101.191 28.8598 102.918 31.3722H95.4684C93.7153 28.8711 91.9723 26.3672 90.2393 23.8605Z" fill="#0029FF"/>
</svg>
