<svg width="143" height="40" viewBox="0 0 143 40" fill="none" xmlns="http://www.w3.org/2000/svg">
<rect width="143" height="40" rx="4" fill="#020E14"/>
<path d="M29.8557 19.9983L19.846 30C19.3395 29.7342 19 29.25 19 28.6208V11.3792C19 10.75 19.3395 10.2658 19.846 10L29.8557 19.9983Z" fill="white"/>
<path d="M22.0931 10.5082L33.0462 16.8057L30.7013 19.154L22.0931 10.5082Z" fill="white"/>
<path d="M30.7013 20.85L33.0462 23.1983L22.0931 29.4958L30.7013 20.85Z" fill="white"/>
<path d="M36.4795 21.1892C37.1815 20.6309 37.1815 19.3725 36.4329 18.8142L34.1354 17.4825L31.572 20.0025L34.1354 22.5225L36.4795 21.1892Z" fill="white"/>
<path d="M52.642 15.588C51.872 15.588 51.1753 15.4193 50.552 15.082C49.936 14.7373 49.452 14.268 49.1 13.674C48.748 13.0727 48.572 12.398 48.572 11.65C48.572 10.902 48.748 10.231 49.1 9.637C49.452 9.03567 49.9397 8.56633 50.563 8.229C51.1863 7.88433 51.883 7.712 52.653 7.712C53.2543 7.712 53.8043 7.81467 54.303 8.02C54.8017 8.218 55.227 8.515 55.579 8.911L54.864 9.604C54.2847 8.99533 53.5623 8.691 52.697 8.691C52.125 8.691 51.608 8.81933 51.146 9.076C50.684 9.33267 50.321 9.68833 50.057 10.143C49.8003 10.5903 49.672 11.0927 49.672 11.65C49.672 12.2073 49.8003 12.7133 50.057 13.168C50.321 13.6153 50.684 13.9673 51.146 14.224C51.608 14.4807 52.125 14.609 52.697 14.609C53.555 14.609 54.2773 14.301 54.864 13.685L55.579 14.378C55.227 14.774 54.798 15.0747 54.292 15.28C53.7933 15.4853 53.2433 15.588 52.642 15.588ZM59.1845 13.036H57.9745V15.5H56.9185V9.67H57.9745V12.134H59.2065L61.0985 9.67H62.2315L60.0205 12.475L62.3855 15.5H61.1425L59.1845 13.036ZM65.7964 15.566C65.217 15.566 64.6964 15.4377 64.2344 15.181C63.7724 14.9243 63.4094 14.5723 63.1454 14.125C62.8887 13.6703 62.7604 13.157 62.7604 12.585C62.7604 12.013 62.8887 11.5033 63.1454 11.056C63.4094 10.6013 63.7724 10.2493 64.2344 10C64.6964 9.74333 65.217 9.615 65.7964 9.615C66.3757 9.615 66.8927 9.74333 67.3474 10C67.8094 10.2493 68.1687 10.6013 68.4254 11.056C68.6894 11.5033 68.8214 12.013 68.8214 12.585C68.8214 13.157 68.6894 13.6703 68.4254 14.125C68.1687 14.5723 67.8094 14.9243 67.3474 15.181C66.8927 15.4377 66.3757 15.566 65.7964 15.566ZM65.7964 14.642C66.1704 14.642 66.504 14.5577 66.7974 14.389C67.098 14.213 67.3327 13.971 67.5014 13.663C67.67 13.3477 67.7544 12.9883 67.7544 12.585C67.7544 12.1817 67.67 11.826 67.5014 11.518C67.3327 11.2027 67.098 10.9607 66.7974 10.792C66.504 10.6233 66.1704 10.539 65.7964 10.539C65.4224 10.539 65.085 10.6233 64.7844 10.792C64.491 10.9607 64.2564 11.2027 64.0804 11.518C63.9117 11.826 63.8274 12.1817 63.8274 12.585C63.8274 12.9883 63.9117 13.3477 64.0804 13.663C64.2564 13.971 64.491 14.213 64.7844 14.389C65.085 14.5577 65.4224 14.642 65.7964 14.642ZM73.4372 9.615C74.0019 9.615 74.5079 9.73967 74.9552 9.989C75.4026 10.2383 75.7509 10.5867 76.0002 11.034C76.2569 11.4813 76.3852 11.9983 76.3852 12.585C76.3852 13.1717 76.2569 13.6923 76.0002 14.147C75.7509 14.5943 75.4026 14.9427 74.9552 15.192C74.5079 15.4413 74.0019 15.566 73.4372 15.566C73.0192 15.566 72.6342 15.4853 72.2822 15.324C71.9376 15.1627 71.6442 14.928 71.4022 14.62V17.634H70.3462V9.67H71.3582V10.594C71.5929 10.2713 71.8899 10.0293 72.2492 9.868C72.6086 9.69933 73.0046 9.615 73.4372 9.615ZM73.3492 14.642C73.7232 14.642 74.0569 14.5577 74.3502 14.389C74.6509 14.213 74.8856 13.971 75.0542 13.663C75.2302 13.3477 75.3182 12.9883 75.3182 12.585C75.3182 12.1817 75.2302 11.826 75.0542 11.518C74.8856 11.2027 74.6509 10.9607 74.3502 10.792C74.0569 10.6233 73.7232 10.539 73.3492 10.539C72.9826 10.539 72.6489 10.627 72.3482 10.803C72.0549 10.9717 71.8202 11.21 71.6442 11.518C71.4756 11.826 71.3912 12.1817 71.3912 12.585C71.3912 12.9883 71.4756 13.3477 71.6442 13.663C71.8129 13.971 72.0476 14.213 72.3482 14.389C72.6489 14.5577 72.9826 14.642 73.3492 14.642ZM80.4165 15.566C79.8372 15.566 79.3165 15.4377 78.8545 15.181C78.3925 14.9243 78.0295 14.5723 77.7655 14.125C77.5088 13.6703 77.3805 13.157 77.3805 12.585C77.3805 12.013 77.5088 11.5033 77.7655 11.056C78.0295 10.6013 78.3925 10.2493 78.8545 10C79.3165 9.74333 79.8372 9.615 80.4165 9.615C80.9958 9.615 81.5128 9.74333 81.9675 10C82.4295 10.2493 82.7888 10.6013 83.0455 11.056C83.3095 11.5033 83.4415 12.013 83.4415 12.585C83.4415 13.157 83.3095 13.6703 83.0455 14.125C82.7888 14.5723 82.4295 14.9243 81.9675 15.181C81.5128 15.4377 80.9958 15.566 80.4165 15.566ZM80.4165 14.642C80.7905 14.642 81.1242 14.5577 81.4175 14.389C81.7182 14.213 81.9528 13.971 82.1215 13.663C82.2902 13.3477 82.3745 12.9883 82.3745 12.585C82.3745 12.1817 82.2902 11.826 82.1215 11.518C81.9528 11.2027 81.7182 10.9607 81.4175 10.792C81.1242 10.6233 80.7905 10.539 80.4165 10.539C80.0425 10.539 79.7052 10.6233 79.4045 10.792C79.1112 10.9607 78.8765 11.2027 78.7005 11.518C78.5318 11.826 78.4475 12.1817 78.4475 12.585C78.4475 12.9883 78.5318 13.3477 78.7005 13.663C78.8765 13.971 79.1112 14.213 79.4045 14.389C79.7052 14.5577 80.0425 14.642 80.4165 14.642Z" fill="white"/>
<path d="M54.8451 24.7937H56.4398V28.64C55.973 29.0352 55.4285 29.3385 54.8063 29.5498C54.184 29.7612 53.5444 29.8669 52.8875 29.8669C51.9628 29.8669 51.1287 29.6555 50.3854 29.2328C49.6421 28.8008 49.0587 28.208 48.6352 27.4544C48.2117 26.7008 48 25.8507 48 24.904C48 23.9574 48.2117 23.1073 48.6352 22.3537C49.0587 21.6 49.6421 21.0118 50.3854 20.5891C51.1374 20.1571 51.98 19.9411 52.9135 19.9411C53.674 19.9411 54.3655 20.0744 54.9877 20.3409C55.61 20.6075 56.1329 20.9981 56.5564 21.5127L55.4934 22.6156C54.8019 21.8803 53.9679 21.5127 52.9913 21.5127C52.3517 21.5127 51.7812 21.6552 51.28 21.9401C50.7873 22.225 50.3984 22.6248 50.1132 23.1394C49.8366 23.6541 49.6983 24.2423 49.6983 24.904C49.6983 25.5474 49.8366 26.1264 50.1132 26.641C50.3984 27.1557 50.7873 27.5601 51.28 27.8542C51.7812 28.1483 52.3474 28.2953 52.9783 28.2953C53.687 28.2953 54.3093 28.1299 54.8451 27.799V24.7937Z" fill="white"/>
<path d="M61.6185 29.8256C60.9184 29.8256 60.2875 29.6647 59.7257 29.3431C59.1639 29.0214 58.7231 28.5756 58.4033 28.0058C58.0922 27.4268 57.9366 26.7743 57.9366 26.0483C57.9366 25.3222 58.0922 24.6743 58.4033 24.1045C58.7231 23.5346 59.1639 23.0889 59.7257 22.7672C60.2875 22.4456 60.9184 22.2847 61.6185 22.2847C62.3272 22.2847 62.9624 22.4456 63.5242 22.7672C64.086 23.0889 64.5225 23.5346 64.8336 24.1045C65.1534 24.6743 65.3133 25.3222 65.3133 26.0483C65.3133 26.7743 65.1534 27.4268 64.8336 28.0058C64.5225 28.5756 64.086 29.0214 63.5242 29.3431C62.9624 29.6647 62.3272 29.8256 61.6185 29.8256ZM61.6185 28.3505C62.2148 28.3505 62.7075 28.1391 63.0964 27.7163C63.4853 27.2936 63.6798 26.7375 63.6798 26.0483C63.6798 25.359 63.4853 24.8029 63.0964 24.3802C62.7075 23.9574 62.2148 23.746 61.6185 23.746C61.0221 23.746 60.5295 23.9574 60.1405 24.3802C59.7603 24.8029 59.5701 25.359 59.5701 26.0483C59.5701 26.7375 59.7603 27.2936 60.1405 27.7163C60.5295 28.1391 61.0221 28.3505 61.6185 28.3505Z" fill="white"/>
<path d="M69.9744 29.8256C69.2743 29.8256 68.6434 29.6647 68.0816 29.3431C67.5198 29.0214 67.079 28.5756 66.7592 28.0058C66.4481 27.4268 66.2925 26.7743 66.2925 26.0483C66.2925 25.3222 66.4481 24.6743 66.7592 24.1045C67.079 23.5346 67.5198 23.0889 68.0816 22.7672C68.6434 22.4456 69.2743 22.2847 69.9744 22.2847C70.6831 22.2847 71.3183 22.4456 71.8801 22.7672C72.4419 23.0889 72.8784 23.5346 73.1895 24.1045C73.5093 24.6743 73.6692 25.3222 73.6692 26.0483C73.6692 26.7743 73.5093 27.4268 73.1895 28.0058C72.8784 28.5756 72.4419 29.0214 71.8801 29.3431C71.3183 29.6647 70.6831 29.8256 69.9744 29.8256ZM69.9744 28.3505C70.5707 28.3505 71.0634 28.1391 71.4523 27.7163C71.8412 27.2936 72.0357 26.7375 72.0357 26.0483C72.0357 25.359 71.8412 24.8029 71.4523 24.3802C71.0634 23.9574 70.5707 23.746 69.9744 23.746C69.378 23.746 68.8854 23.9574 68.4964 24.3802C68.1161 24.8029 67.926 25.359 67.926 26.0483C67.926 26.7375 68.1161 27.2936 68.4964 27.7163C68.8854 28.1391 69.378 28.3505 69.9744 28.3505Z" fill="white"/>
<path d="M82.0899 22.3674V28.6124C82.0899 31.2041 80.8453 32.5 78.3562 32.5C77.6907 32.5 77.0597 32.4081 76.4634 32.2243C75.867 32.0497 75.3744 31.7923 74.9855 31.4523L75.7115 30.1564C76.014 30.4229 76.3942 30.6343 76.8523 30.7906C77.319 30.956 77.7901 31.0387 78.2654 31.0387C79.026 31.0387 79.5835 30.8549 79.9378 30.4873C80.2922 30.1197 80.4694 29.559 80.4694 28.8054V28.4194C80.1928 28.7411 79.8557 28.9846 79.4581 29.1501C79.0606 29.3155 78.6241 29.3982 78.1487 29.3982C77.4919 29.3982 76.8955 29.2511 76.3597 28.9571C75.8325 28.6538 75.4133 28.231 75.1021 27.6888C74.7996 27.1465 74.6484 26.5262 74.6484 25.8277C74.6484 25.1292 74.7996 24.5134 75.1021 23.9804C75.4133 23.4381 75.8325 23.02 76.3597 22.7259C76.8955 22.4318 77.4919 22.2847 78.1487 22.2847C78.65 22.2847 79.1038 22.372 79.51 22.5467C79.9249 22.7213 80.2706 22.9878 80.5471 23.3462V22.3674H82.0899ZM78.3951 27.9369C79.0087 27.9369 79.51 27.7439 79.8989 27.3579C80.2965 26.9627 80.4953 26.4526 80.4953 25.8277C80.4953 25.2119 80.2965 24.711 79.8989 24.325C79.51 23.939 79.0087 23.746 78.3951 23.746C77.7728 23.746 77.2629 23.939 76.8653 24.325C76.4764 24.711 76.2819 25.2119 76.2819 25.8277C76.2819 26.4526 76.4764 26.9627 76.8653 27.3579C77.2629 27.7439 77.7728 27.9369 78.3951 27.9369Z" fill="white"/>
<path d="M84.2204 19.5H85.8409V29.7291H84.2204V19.5Z" fill="white"/>
<path d="M94.4759 26.0896C94.4759 26.2091 94.4673 26.3791 94.45 26.5997H89.018C89.1131 27.1419 89.3594 27.5739 89.757 27.8955C90.1632 28.208 90.6645 28.3643 91.2608 28.3643C92.0214 28.3643 92.648 28.0977 93.1406 27.5647L94.0092 28.6262C93.6981 29.0214 93.3048 29.3201 92.8295 29.5223C92.3541 29.7245 91.8183 29.8256 91.2219 29.8256C90.4613 29.8256 89.7915 29.6647 89.2125 29.3431C88.6334 29.0214 88.184 28.5756 87.8642 28.0058C87.553 27.4268 87.3974 26.7743 87.3974 26.0483C87.3974 25.3314 87.5487 24.6881 87.8512 24.1182C88.1623 23.5392 88.5902 23.0889 89.1347 22.7672C89.6792 22.4456 90.2928 22.2847 90.9756 22.2847C91.6497 22.2847 92.2504 22.4456 92.7776 22.7672C93.3135 23.0797 93.7283 23.5255 94.0222 24.1045C94.3247 24.6743 94.4759 25.336 94.4759 26.0896ZM90.9756 23.6633C90.457 23.6633 90.0162 23.8287 89.6532 24.1596C89.2989 24.4813 89.0828 24.9132 89.005 25.4555H92.9332C92.8641 24.9224 92.6523 24.4905 92.298 24.1596C91.9436 23.8287 91.5028 23.6633 90.9756 23.6633Z" fill="white"/>
<path d="M103.505 20.079C104.291 20.079 104.974 20.2169 105.553 20.4926C106.141 20.7683 106.59 21.1635 106.901 21.6782C107.213 22.1928 107.368 22.804 107.368 23.5117C107.368 24.2101 107.213 24.8213 106.901 25.3452C106.59 25.8598 106.141 26.255 105.553 26.5308C104.974 26.8065 104.291 26.9443 103.505 26.9443H101.456V29.7291H99.771V20.079H103.505ZM103.427 25.4279C104.162 25.4279 104.719 25.2625 105.099 24.9316C105.48 24.6007 105.67 24.1274 105.67 23.5117C105.67 22.8959 105.48 22.4226 105.099 22.0917C104.719 21.7609 104.162 21.5954 103.427 21.5954H101.456V25.4279H103.427Z" fill="white"/>
<path d="M109.022 19.5H110.643V29.7291H109.022V19.5Z" fill="white"/>
<path d="M115.414 22.2847C116.434 22.2847 117.212 22.5467 117.748 23.0705C118.292 23.5852 118.565 24.3664 118.565 25.4141V29.7291H117.035V28.833C116.836 29.1546 116.551 29.4028 116.179 29.5774C115.816 29.7428 115.375 29.8256 114.857 29.8256C114.338 29.8256 113.885 29.7337 113.496 29.5498C113.107 29.3568 112.804 29.0949 112.588 28.7641C112.381 28.424 112.277 28.0426 112.277 27.6198C112.277 26.9581 112.506 26.4297 112.964 26.0345C113.431 25.6301 114.161 25.4279 115.155 25.4279H116.944V25.3176C116.944 24.8029 116.797 24.4077 116.503 24.132C116.218 23.8563 115.79 23.7185 115.22 23.7185C114.831 23.7185 114.446 23.7828 114.066 23.9115C113.694 24.0401 113.379 24.2193 113.12 24.4491L112.484 23.1946C112.847 22.9005 113.284 22.6753 113.794 22.5191C114.304 22.3628 114.844 22.2847 115.414 22.2847ZM115.194 28.571C115.6 28.571 115.959 28.4746 116.27 28.2815C116.59 28.0794 116.815 27.7944 116.944 27.4268V26.5721H115.272C114.338 26.5721 113.872 26.8984 113.872 27.5509C113.872 27.8634 113.988 28.1115 114.222 28.2953C114.455 28.4791 114.779 28.571 115.194 28.571Z" fill="white"/>
<path d="M127 22.3674L123.759 30.3218C123.456 31.1214 123.089 31.682 122.657 32.0037C122.225 32.3346 121.702 32.5 121.088 32.5C120.743 32.5 120.401 32.4403 120.064 32.3208C119.727 32.2013 119.45 32.0359 119.234 31.8245L119.883 30.5562C120.038 30.7124 120.22 30.8365 120.427 30.9284C120.643 31.0203 120.859 31.0663 121.075 31.0663C121.361 31.0663 121.594 30.9882 121.775 30.8319C121.966 30.6757 122.138 30.4138 122.294 30.0461L122.411 29.7566L119.39 22.3674H121.075L123.253 27.8128L125.444 22.3674H127Z" fill="white"/>
</svg>
