<svg width="1485" height="1350" viewBox="0 0 1485 1350" fill="none" xmlns="http://www.w3.org/2000/svg">
<path d="M1276.71 1247.11C1528.18 1428.87 1917.12 1368.94 1985.66 1071.09C2027.08 891.1 2023.27 712.863 1974.61 553.775C1925.94 394.687 1834.09 260.183 1708 163.389C1581.92 66.5956 1425.91 10.8195 1255.21 1.50451C1084.51 -7.81048 904.951 29.6539 734.049 110.241C563.148 190.828 406.746 311.785 280.108 461.307C153.47 610.829 60.9222 783.808 11.4974 963.361C-62.2259 1231.19 248.513 1373.92 518.786 1253.19L665.089 1187.84C865.865 1098.15 1099.12 1118.74 1268.4 1241.1L1276.71 1247.11Z" fill="url(#paint0_radial)"/>
<defs>
<radialGradient id="paint0_radial" cx="0" cy="0" r="1" gradientUnits="userSpaceOnUse" gradientTransform="translate(992.417 1041.62) rotate(122.54) scale(1125.23 925.252)">
<stop stop-color="#A06BFF"/>
<stop offset="1" stop-color="#B184FF" stop-opacity="0.23"/>
</radialGradient>
</defs>
</svg>
