<svg width="1223" height="807" viewBox="0 0 1223 807" fill="none" xmlns="http://www.w3.org/2000/svg">
<path d="M1276.76 963.641C1528.23 1145.4 1917.17 1085.47 1985.71 787.623V787.623C2027.13 607.633 2023.32 429.396 1974.66 270.308C1925.99 111.22 1834.14 -23.2844 1708.05 -120.078C1581.97 -216.872 1425.96 -272.648 1255.26 -281.963C1084.56 -291.278 904.999 -253.813 734.097 -173.226C563.195 -92.6388 406.793 28.3182 280.156 177.84C153.518 327.362 60.9701 500.341 11.5453 679.894V679.894C-62.178 947.721 248.561 1090.45 518.834 969.722L665.137 904.368C865.912 814.682 1099.17 835.276 1268.45 957.635L1276.76 963.641Z" fill="url(#paint0_radial)"/>
<defs>
<radialGradient id="paint0_radial" cx="0" cy="0" r="1" gradientUnits="userSpaceOnUse" gradientTransform="translate(992.464 758.151) rotate(122.54) scale(1125.23 925.252)">
<stop stop-color="#A06BFF"/>
<stop offset="1" stop-color="#B184FF" stop-opacity="0.23"/>
</radialGradient>
</defs>
</svg>
