<svg width="233" height="101" viewBox="0 0 233 101" fill="none" xmlns="http://www.w3.org/2000/svg">
<mask id="mask0" mask-type="alpha" maskUnits="userSpaceOnUse" x="0" y="15" width="70" height="43">
<path d="M35.1319 57.4805C54.2586 57.4805 69.7638 48.1084 69.7638 36.5474C69.7638 24.9863 54.2586 15.6143 35.1319 15.6143C16.0052 15.6143 0.5 24.9863 0.5 36.5474C0.5 48.1084 16.0052 57.4805 35.1319 57.4805Z" fill="url(#paint0_radial)"/>
</mask>
<g mask="url(#mask0)">
<g filter="url(#filter0_f)">
<path d="M39.7613 48.5871C49.5031 48.5871 57.4005 44.9979 57.4005 40.5704C57.4005 36.1429 49.5031 32.5537 39.7613 32.5537C30.0194 32.5537 22.1221 36.1429 22.1221 40.5704C22.1221 44.9979 30.0194 48.5871 39.7613 48.5871Z" fill="#020E14"/>
</g>
<path d="M62.054 31.3403L62.0649 35.6256C62.0758 39.8341 59.3205 44.0537 53.7881 47.2649C42.7996 53.6435 25.0371 53.6544 14.1248 47.2649C8.7013 44.0975 5.98957 39.9437 5.97867 35.779L5.96777 31.4938C5.97866 35.6475 8.69042 39.8013 14.1139 42.9796C25.0262 49.3582 42.7887 49.3582 53.7772 42.9796C59.2987 39.7684 62.0649 35.5489 62.054 31.3403Z" fill="url(#paint1_linear)"/>
<path d="M14.2314 19.8552C25.22 13.4766 42.9716 13.4766 53.8948 19.8552C64.8071 26.2338 64.7526 36.5908 53.7641 42.9693C42.7755 49.3479 25.0131 49.3589 14.1007 42.9693C3.18843 36.5908 3.2429 26.2338 14.2314 19.8552Z" fill="#F2F4F8"/>
<path d="M53.8955 19.8557C53.8955 19.8557 54.2222 20.0639 54.8538 20.4585C55.1588 20.6667 55.5617 20.8859 55.9865 21.2037C56.4112 21.5325 56.8904 21.9161 57.4349 22.3326C57.9359 22.8039 58.5022 23.319 59.0576 23.9327C59.5803 24.5793 60.1793 25.2588 60.6367 26.1137C61.6168 27.7577 62.3465 29.9496 62.096 32.3608C61.8673 34.75 60.6912 37.2269 58.818 39.2106C56.9775 41.2162 54.538 42.904 51.9025 44.1644C46.5444 46.74 40.2169 47.9674 33.9222 48.0222C27.6275 47.9784 21.2892 46.7619 15.9419 44.1754C13.2847 42.8931 10.8887 41.2162 9.03735 39.1887C7.18596 37.1721 6.04246 34.6952 5.85732 32.295C5.6504 29.8839 6.41273 27.7029 7.41466 26.0699C7.88295 25.215 8.49282 24.5465 9.01557 23.8998C9.59277 23.297 10.1482 22.771 10.66 22.3107C11.2046 21.8942 11.6946 21.5106 12.1194 21.1818C12.555 20.864 12.947 20.6448 13.2629 20.4475C13.8836 20.053 14.2212 19.8447 14.2212 19.8447C14.2212 19.8447 13.8945 20.0639 13.2738 20.4694C12.9688 20.6777 12.5768 20.9078 12.152 21.2256C11.7382 21.5654 11.259 21.949 10.7254 22.3764C10.2353 22.8477 9.6799 23.3847 9.12448 23.9875C8.62351 24.6451 8.02454 25.3136 7.57803 26.1685C6.63055 27.8015 5.93355 29.9277 6.14047 32.2621C6.3365 34.5856 7.45822 36.9967 9.28783 38.9476C11.0957 40.9094 13.4698 42.5533 16.1162 43.8027C21.409 46.3125 27.6928 47.4743 33.9222 47.4852C40.1516 47.4743 46.4355 46.3016 51.7174 43.8027C54.3855 42.5424 56.727 40.9313 58.5675 38.9695C60.4189 37.0296 61.5733 34.6404 61.802 32.3169C62.0525 29.9825 61.3882 27.8453 60.4625 26.2014C60.0268 25.3465 59.4496 24.667 58.9378 24.0094C58.3933 23.3957 57.8378 22.8696 57.3587 22.3874C56.825 21.949 56.3458 21.5654 55.9429 21.2366C55.5182 20.9078 55.1261 20.6777 54.8212 20.4694C54.2222 20.0749 53.8955 19.8557 53.8955 19.8557Z" fill="#F1F2F2"/>
<path d="M28.0198 24.0315C28.6732 23.6589 29.49 23.363 30.4375 23.2205C33.3126 22.7712 36.2639 23.7685 37.0263 25.4454C37.4074 26.2893 37.1678 27.1332 36.4708 27.8346C34.8046 29.5005 35.0768 30.0046 35.7085 30.5964C36.7213 30.9691 37.5817 31.1225 40.4459 30.1581C41.6439 29.7525 43.1141 29.621 44.5516 29.8402C47.4267 30.2896 49.1257 32.0102 48.3415 33.6871C48.0802 34.2351 47.5901 34.7173 46.9367 35.1009C45.6189 35.8681 43.6477 36.2188 41.7201 35.9119C40.2825 35.6818 39.139 35.1447 38.4529 34.4433C36.8084 32.7774 35.9263 32.6569 34.7392 32.6788C34.4343 32.7774 34.1729 32.8651 33.9333 33.0076C33.3561 33.3473 33.0076 33.9172 33.0076 35.2982C33.0076 36.1092 32.474 36.9092 31.4176 37.523C29.3049 38.7505 25.8852 38.7505 23.7942 37.523C21.6924 36.2955 21.7032 34.3008 23.816 33.0733C24.8724 32.4596 26.2555 32.1527 27.6386 32.1527C30.0019 32.1527 30.982 31.9554 31.5701 31.6157C31.7988 31.4842 31.973 31.3198 32.1255 31.1444C32.1691 30.454 31.973 29.9389 29.1197 28.9744C27.9218 28.5689 26.9961 27.9003 26.6149 27.0674C26.0921 25.9385 26.6911 24.7987 28.0198 24.0315Z" fill="url(#paint2_linear)"/>
</g>
<mask id="mask1" mask-type="alpha" maskUnits="userSpaceOnUse" x="69" y="59" width="71" height="42">
<path d="M104.551 101C123.678 101 139.183 91.6275 139.183 80.0664C139.183 68.5054 123.678 59.1333 104.551 59.1333C85.4242 59.1333 69.9189 68.5054 69.9189 80.0664C69.9189 91.6275 85.4242 101 104.551 101Z" fill="url(#paint3_radial)"/>
</mask>
<g mask="url(#mask1)">
<g filter="url(#filter1_f)">
<path d="M106.905 91.2004C116.647 91.2004 124.544 87.6112 124.544 83.1837C124.544 78.7562 116.647 75.167 106.905 75.167C97.163 75.167 89.2656 78.7562 89.2656 83.1837C89.2656 87.6112 97.163 91.2004 106.905 91.2004Z" fill="#020E14"/>
</g>
<path d="M131.082 76.4395L131.093 80.7247C131.104 84.9333 128.349 89.1528 122.816 92.364C111.828 98.7426 94.0654 98.7535 83.1531 92.364C77.7296 89.1966 75.0179 85.0429 75.007 80.8782L74.9961 76.5929C75.007 80.7466 77.7187 84.9004 83.1422 88.0787C94.0545 94.4573 111.817 94.4573 122.806 88.0787C128.338 84.8675 131.093 80.648 131.082 76.4395Z" fill="url(#paint4_linear)"/>
<path d="M83.2736 64.9646C94.2622 58.586 112.014 58.586 122.937 64.9646C133.849 71.3432 133.795 81.7001 122.806 88.0787C111.818 94.4573 94.0553 94.4682 83.1429 88.0787C72.2197 81.7001 72.2851 71.3432 83.2736 64.9646Z" fill="#F2F4F8"/>
<path d="M122.936 64.9651C122.936 64.9651 123.262 65.1733 123.894 65.5678C124.199 65.7761 124.602 65.9953 125.027 66.3131C125.451 66.6419 125.93 67.0255 126.475 67.442C126.976 67.9132 127.542 68.4283 128.098 69.0421C128.62 69.6887 129.219 70.3682 129.677 71.2231C130.657 72.867 131.387 75.059 131.136 77.4701C130.907 79.8594 129.731 82.3363 127.858 84.32C126.018 86.3256 123.578 88.0134 120.943 89.2738C115.584 91.8493 109.257 93.0768 102.962 93.1316C96.6675 93.0878 90.3293 91.8713 84.982 89.2848C82.3247 88.0025 79.9288 86.3256 78.0774 84.2981C76.226 82.2815 75.0825 79.8046 74.8974 77.4044C74.6904 74.9932 75.4528 72.8122 76.4547 71.1792C76.923 70.3244 77.5329 69.6558 78.0556 69.0092C78.6328 68.4064 79.1882 67.8804 79.7001 67.42C80.2446 67.0036 80.7347 66.62 81.1594 66.2912C81.595 65.9734 81.9871 65.7542 82.3029 65.5569C82.9237 65.1623 83.2613 64.9541 83.2613 64.9541C83.2613 64.9541 82.9346 65.1733 82.3138 65.5788C82.0089 65.787 81.6168 66.0172 81.1921 66.335C80.7782 66.6748 80.2991 67.0584 79.7654 67.4858C79.2754 67.9571 78.7199 68.4941 78.1645 69.0969C77.6636 69.7545 77.0646 70.423 76.6181 71.2779C75.6706 72.9109 74.9736 75.0371 75.1805 77.3715C75.3765 79.695 76.4983 82.1061 78.3279 84.0569C80.1357 86.0187 82.5098 87.6627 85.1562 88.9121C90.449 91.4219 96.7329 92.5836 102.962 92.5946C109.192 92.5836 115.476 91.4109 120.757 88.9121C123.426 87.6517 125.767 86.0407 127.608 84.0789C129.459 82.139 130.613 79.7498 130.842 77.4263C131.093 75.0919 130.428 72.9547 129.503 71.3108C129.067 70.4559 128.49 69.7764 127.978 69.1188C127.433 68.5051 126.878 67.979 126.399 67.4968C125.865 67.0584 125.386 66.6748 124.983 66.346C124.558 66.0172 124.166 65.787 123.861 65.5788C123.262 65.1842 122.936 64.9651 122.936 64.9651Z" fill="#F1F2F2"/>
<path d="M112.176 73.1631C110.901 73.2289 109.192 73.6563 107.057 74.4344C108.255 73.2727 108.832 72.3082 108.789 71.5411C108.745 70.7739 108.288 70.1382 107.406 69.6231C106.578 69.1409 105.532 68.823 104.302 68.6915C103.06 68.5491 101.819 68.6258 100.577 68.9217C99.6297 69.1409 98.4317 69.6341 96.9941 70.3903L94.9576 69.2066L93.0953 70.2916L95.0992 71.4534L93.5527 72.3521L91.5489 71.1904L89.6866 72.2754L91.6904 73.4371L86.8877 76.2318L87.3887 76.5168C88.2055 76.0346 88.848 75.7606 89.3163 75.6729C89.7737 75.5852 90.1875 75.5743 90.5687 75.651C90.939 75.7277 91.6251 76.0455 92.6052 76.6264L104.4 83.4762C105.391 84.0462 105.946 84.4407 106.077 84.6599C106.208 84.8791 106.197 85.1202 106.055 85.3832C105.914 85.6463 105.423 86.0189 104.585 86.5121L105.086 86.7971L109.889 84.0023L111.892 85.1641L113.755 84.0791L111.751 82.9173L113.297 82.0186L115.301 83.1803L117.163 82.0953L115.116 80.9007C117.153 79.5855 118.351 78.3032 118.59 77.0538C118.786 75.8921 118.209 74.9167 116.837 74.1166C115.541 73.3823 113.983 73.0535 112.176 73.1631ZM94.6636 72.911C95.9595 72.1438 97.0377 71.6616 97.8981 71.4753C98.7584 71.289 99.597 71.2561 100.436 71.3657C101.263 71.4863 102.08 71.7712 102.886 72.2315C103.692 72.7028 104.204 73.185 104.389 73.6673C104.585 74.1495 104.52 74.6536 104.204 75.1687C103.888 75.6839 103.093 76.3086 101.819 77.0538L94.6636 72.911ZM113.798 78.4238C114.071 78.9608 114.071 79.4979 113.787 80.0239C113.504 80.561 113.003 81.0322 112.284 81.4487C111.805 81.7227 111.326 81.8652 110.836 81.8652C110.346 81.8652 109.867 81.7227 109.388 81.4487L108.701 81.0541L102.875 77.6676C104.236 76.8566 105.402 76.3414 106.36 76.1003C107.318 75.8592 108.331 75.8263 109.398 75.9798C110.466 76.1442 111.424 76.473 112.284 76.9661C113.003 77.4045 113.515 77.8868 113.798 78.4238Z" fill="url(#paint5_linear)"/>
</g>
<mask id="mask2" mask-type="alpha" maskUnits="userSpaceOnUse" x="93" y="0" width="71" height="42">
<path d="M128.448 41.8661C147.575 41.8661 163.08 32.4941 163.08 20.9331C163.08 9.37207 147.575 0 128.448 0C109.322 0 93.8164 9.37207 93.8164 20.9331C93.8164 32.4941 109.322 41.8661 128.448 41.8661Z" fill="url(#paint6_radial)"/>
</mask>
<g mask="url(#mask2)">
<g filter="url(#filter2_f)">
<path d="M129.665 30.9221C139.406 30.9221 147.304 27.3329 147.304 22.9054C147.304 18.4779 139.406 14.8887 129.665 14.8887C119.923 14.8887 112.025 18.4779 112.025 22.9054C112.025 27.3329 119.923 30.9221 129.665 30.9221Z" fill="#020E14"/>
</g>
<path d="M155.263 16.4946L155.274 20.7799C155.285 24.9884 152.53 29.2079 146.997 32.4192C136.009 38.7977 118.246 38.8087 107.334 32.4192C101.91 29.2518 99.1985 25.0981 99.1876 20.9334L99.1768 16.6481C99.1876 20.8018 101.899 24.9556 107.323 28.1339C118.235 34.5125 135.998 34.5125 146.986 28.1339C152.519 24.9227 155.274 20.7032 155.263 16.4946Z" fill="url(#paint7_linear)"/>
<path d="M107.453 5.00903C118.442 -1.36955 136.193 -1.36955 147.117 5.00903C158.029 11.3876 157.975 21.7446 146.986 28.1231C135.997 34.5017 118.235 34.5127 107.323 28.1231C96.3994 21.7446 96.4648 11.3986 107.453 5.00903Z" fill="#F2F4F8"/>
<path d="M147.115 5.00951C147.115 5.00951 147.442 5.21773 148.074 5.61228C148.379 5.82051 148.781 6.0397 149.206 6.35753C149.631 6.68632 150.11 7.06991 150.655 7.48638C151.156 7.95765 151.722 8.47275 152.277 9.08649C152.8 9.73312 153.399 10.4126 153.856 11.2675C154.837 12.9115 155.566 15.1034 155.316 17.5145C155.087 19.9037 153.911 22.3806 152.038 24.3644C150.197 26.37 147.758 28.0578 145.122 29.3182C139.764 31.8937 133.437 33.1212 127.142 33.176C120.847 33.1322 114.509 31.9156 109.162 29.3291C106.504 28.0468 104.108 26.37 102.257 24.3424C100.406 22.3259 99.2622 19.849 99.077 17.4488C98.8701 15.0376 99.6325 12.8567 100.634 11.2237C101.103 10.3688 101.713 9.70024 102.235 9.05361C102.813 8.45083 103.368 7.92478 103.88 7.46447C104.424 7.048 104.914 6.66442 105.339 6.33562C105.775 6.01779 106.167 5.79858 106.483 5.60131C107.103 5.20676 107.441 4.99854 107.441 4.99854C107.441 4.99854 107.114 5.21774 106.494 5.62325C106.189 5.83148 105.797 6.06164 105.372 6.37947C104.958 6.71922 104.479 7.1028 103.945 7.53023C103.455 8.0015 102.9 8.53853 102.344 9.14131C101.843 9.7989 101.244 10.4674 100.798 11.3223C99.8503 12.9553 99.1533 15.0815 99.3602 17.4159C99.5562 19.7394 100.678 22.1505 102.508 24.1123C104.315 26.0741 106.69 27.718 109.336 28.9675C114.629 31.4772 120.913 32.639 127.142 32.6499C133.371 32.639 139.655 31.4663 144.937 28.9675C147.605 27.7071 149.947 26.096 151.787 24.1342C153.639 22.1943 154.793 19.8051 155.022 17.4816C155.272 15.1472 154.608 13.0101 153.682 11.3661C153.247 10.5113 152.669 9.83177 152.158 9.17419C151.613 8.56044 151.058 8.03437 150.578 7.55214C150.045 7.11375 149.566 6.73017 149.163 6.40138C148.738 6.07259 148.346 5.84242 148.041 5.63418C147.442 5.22867 147.115 5.00951 147.115 5.00951Z" fill="#F1F2F2"/>
<path d="M114.65 8.35107L136.66 12.0774L126.303 15.168L114.65 8.35107ZM137.313 12.6363L127.163 15.6722L130.866 17.8422L137.313 12.6363ZM138.162 13.6775L132.107 18.5546L140.885 23.6837L138.162 13.6775ZM113.833 8.8333L120.139 21.6562L125.497 15.6503L113.833 8.8333ZM126.346 16.1434L121.064 22.0726L130.049 18.3135L126.346 16.1434ZM131.291 19.0368L122.905 22.5549L140.068 24.1769L131.291 19.0368Z" fill="url(#paint8_linear)"/>
</g>
<mask id="mask3" mask-type="alpha" maskUnits="userSpaceOnUse" x="163" y="47" width="70" height="43">
<path d="M197.868 89.5468C216.995 89.5468 232.5 80.1748 232.5 68.6138C232.5 57.0527 216.995 47.6807 197.868 47.6807C178.742 47.6807 163.236 57.0527 163.236 68.6138C163.236 80.1748 178.742 89.5468 197.868 89.5468Z" fill="url(#paint9_radial)"/>
</mask>
<g mask="url(#mask3)">
<g filter="url(#filter3_f)">
<path d="M200.22 80.8928C209.962 80.8928 217.859 77.3036 217.859 72.8761C217.859 68.4486 209.962 64.8594 200.22 64.8594C190.478 64.8594 182.581 68.4486 182.581 72.8761C182.581 77.3036 190.478 80.8928 200.22 80.8928Z" fill="#020E14"/>
</g>
<path d="M224.202 64.7676L224.213 69.0528C224.224 73.2614 221.469 77.4809 215.936 80.6921C204.948 87.0706 187.186 87.0816 176.273 80.6921C170.85 77.5247 168.138 73.371 168.127 69.2063L168.116 64.921C168.127 69.0748 170.839 73.2285 176.262 76.4068C187.175 82.7854 204.937 82.7854 215.926 76.4068C221.458 73.1956 224.213 68.9871 224.202 64.7676Z" fill="url(#paint10_linear)"/>
<path d="M176.392 53.2927C187.38 46.9141 205.132 46.9141 216.055 53.2927C226.967 59.6713 226.913 70.0282 215.924 76.4068C204.936 82.7854 187.173 82.7963 176.261 76.4068C165.338 70.0282 165.403 59.6713 176.392 53.2927Z" fill="#F2F4F8"/>
<path d="M216.055 53.2927C216.055 53.2927 216.381 53.5009 217.013 53.8955C217.318 54.1037 217.721 54.3229 218.146 54.6408C218.57 54.9695 219.05 55.3531 219.594 55.7696C220.095 56.2409 220.661 56.756 221.217 57.3697C221.74 58.0163 222.339 58.6958 222.796 59.5507C223.776 61.1947 224.506 63.3866 224.255 65.7978C224.027 68.187 222.85 70.6639 220.977 72.6476C219.137 74.6532 216.697 76.341 214.062 77.6014C208.704 80.1769 202.376 81.4044 196.081 81.4592C189.787 81.4154 183.448 80.1988 178.101 77.6123C175.444 76.3301 173.048 74.6532 171.197 72.6257C169.345 70.6091 168.202 68.1322 168.016 65.732C167.81 63.3209 168.572 61.1399 169.574 59.5069C170.042 58.652 170.652 57.9835 171.175 57.3368C171.752 56.7341 172.307 56.208 172.819 55.7477C173.364 55.3312 173.854 54.9476 174.279 54.6188C174.714 54.301 175.106 54.0818 175.422 53.8845C176.043 53.49 176.38 53.2817 176.38 53.2817C176.38 53.2817 176.054 53.5009 175.433 53.9064C175.128 54.1147 174.736 54.3448 174.311 54.6627C173.897 55.0024 173.418 55.386 172.885 55.8134C172.394 56.2847 171.839 56.8217 171.284 57.4245C170.783 58.0821 170.184 58.7507 169.737 59.6055C168.79 61.2385 168.093 63.3647 168.3 65.6991C168.496 68.0226 169.617 70.4337 171.447 72.3955C173.255 74.3573 175.629 76.0013 178.275 77.2507C183.568 79.7605 189.852 80.9222 196.081 80.9331C202.311 80.9222 208.595 79.7495 213.877 77.2507C216.545 75.9903 218.886 74.3792 220.727 72.4174C222.578 70.4776 223.733 68.0883 223.961 65.7649C224.212 63.4305 223.547 61.2933 222.622 59.6493C222.186 58.7945 221.609 58.115 221.097 57.4574C220.552 56.8436 219.997 56.3176 219.518 55.8354C218.984 55.397 218.505 55.0134 218.102 54.6846C217.677 54.3558 217.285 54.1256 216.98 53.9174C216.381 53.5119 216.055 53.2927 216.055 53.2927Z" fill="#F1F2F2"/>
<path d="M193.413 64.6809L196.125 67.1906L186.966 72.5061L184.254 69.9963L193.413 64.6809ZM183.296 63.3438L186.008 65.8536L199.49 58.0173L206.351 64.3521L192.869 72.1883L195.58 74.698L210.544 66.007C211.796 65.2836 212.014 64.1548 211.078 63.278L202.888 55.7158C201.603 54.5322 198.76 54.3458 197.062 55.3432L183.296 63.3438Z" fill="url(#paint11_linear)"/>
</g>
<defs>
<filter id="filter0_f" x="12.1221" y="22.5537" width="55.2784" height="36.0334" filterUnits="userSpaceOnUse" color-interpolation-filters="sRGB">
<feFlood flood-opacity="0" result="BackgroundImageFix"/>
<feBlend mode="normal" in="SourceGraphic" in2="BackgroundImageFix" result="shape"/>
<feGaussianBlur stdDeviation="5" result="effect1_foregroundBlur"/>
</filter>
<filter id="filter1_f" x="79.2656" y="65.167" width="55.2784" height="36.0334" filterUnits="userSpaceOnUse" color-interpolation-filters="sRGB">
<feFlood flood-opacity="0" result="BackgroundImageFix"/>
<feBlend mode="normal" in="SourceGraphic" in2="BackgroundImageFix" result="shape"/>
<feGaussianBlur stdDeviation="5" result="effect1_foregroundBlur"/>
</filter>
<filter id="filter2_f" x="102.025" y="4.88867" width="55.2784" height="36.0334" filterUnits="userSpaceOnUse" color-interpolation-filters="sRGB">
<feFlood flood-opacity="0" result="BackgroundImageFix"/>
<feBlend mode="normal" in="SourceGraphic" in2="BackgroundImageFix" result="shape"/>
<feGaussianBlur stdDeviation="5" result="effect1_foregroundBlur"/>
</filter>
<filter id="filter3_f" x="172.581" y="54.8594" width="55.2784" height="36.0334" filterUnits="userSpaceOnUse" color-interpolation-filters="sRGB">
<feFlood flood-opacity="0" result="BackgroundImageFix"/>
<feBlend mode="normal" in="SourceGraphic" in2="BackgroundImageFix" result="shape"/>
<feGaussianBlur stdDeviation="5" result="effect1_foregroundBlur"/>
</filter>
<radialGradient id="paint0_radial" cx="0" cy="0" r="1" gradientUnits="userSpaceOnUse" gradientTransform="translate(35.1357 36.5455) scale(34.6322 20.9358)">
<stop stop-color="white"/>
<stop offset="0.3695" stop-color="#FDFDFD"/>
<stop offset="0.504" stop-color="#F6F6F6"/>
<stop offset="0.6" stop-color="#EAEAEA"/>
<stop offset="0.6779" stop-color="#D9D9D9"/>
<stop offset="0.7446" stop-color="#C3C3C3"/>
<stop offset="0.8038" stop-color="#A8A8A8"/>
<stop offset="0.8573" stop-color="#888888"/>
<stop offset="0.9066" stop-color="#626262"/>
<stop offset="0.9524" stop-color="#373737"/>
<stop offset="0.9931" stop-color="#090909"/>
<stop offset="1"/>
</radialGradient>
<linearGradient id="paint1_linear" x1="5.95743" y1="41.6911" x2="62.0621" y2="41.6911" gradientUnits="userSpaceOnUse">
<stop stop-color="#F5F7FA"/>
<stop offset="1" stop-color="#C3CFE2"/>
</linearGradient>
<linearGradient id="paint2_linear" x1="22.217" y1="30.7733" x2="48.5288" y2="30.7733" gradientUnits="userSpaceOnUse">
<stop stop-color="#0295FF"/>
<stop offset="1" stop-color="#4048FF"/>
</linearGradient>
<radialGradient id="paint3_radial" cx="0" cy="0" r="1" gradientUnits="userSpaceOnUse" gradientTransform="translate(104.555 80.065) scale(34.6323 20.9358)">
<stop stop-color="white"/>
<stop offset="0.3695" stop-color="#FDFDFD"/>
<stop offset="0.504" stop-color="#F6F6F6"/>
<stop offset="0.6" stop-color="#EAEAEA"/>
<stop offset="0.6779" stop-color="#D9D9D9"/>
<stop offset="0.7446" stop-color="#C3C3C3"/>
<stop offset="0.8038" stop-color="#A8A8A8"/>
<stop offset="0.8573" stop-color="#888888"/>
<stop offset="0.9066" stop-color="#626262"/>
<stop offset="0.9524" stop-color="#373737"/>
<stop offset="0.9931" stop-color="#090909"/>
<stop offset="1"/>
</radialGradient>
<linearGradient id="paint4_linear" x1="74.9933" y1="86.7964" x2="131.098" y2="86.7964" gradientUnits="userSpaceOnUse">
<stop stop-color="#F5F7FA"/>
<stop offset="1" stop-color="#C3CFE2"/>
</linearGradient>
<linearGradient id="paint5_linear" x1="86.8785" y1="77.7038" x2="118.623" y2="77.7038" gradientUnits="userSpaceOnUse">
<stop stop-color="#0295FF"/>
<stop offset="1" stop-color="#4048FF"/>
</linearGradient>
<radialGradient id="paint6_radial" cx="0" cy="0" r="1" gradientUnits="userSpaceOnUse" gradientTransform="translate(128.452 20.9329) scale(34.6322 20.9357)">
<stop stop-color="white"/>
<stop offset="0.3695" stop-color="#FDFDFD"/>
<stop offset="0.504" stop-color="#F6F6F6"/>
<stop offset="0.6" stop-color="#EAEAEA"/>
<stop offset="0.6779" stop-color="#D9D9D9"/>
<stop offset="0.7446" stop-color="#C3C3C3"/>
<stop offset="0.8038" stop-color="#A8A8A8"/>
<stop offset="0.8573" stop-color="#888888"/>
<stop offset="0.9066" stop-color="#626262"/>
<stop offset="0.9524" stop-color="#373737"/>
<stop offset="0.9931" stop-color="#090909"/>
<stop offset="1"/>
</radialGradient>
<linearGradient id="paint7_linear" x1="99.1743" y1="26.8464" x2="155.279" y2="26.8464" gradientUnits="userSpaceOnUse">
<stop stop-color="#F5F7FA"/>
<stop offset="1" stop-color="#C3CFE2"/>
</linearGradient>
<linearGradient id="paint8_linear" x1="113.825" y1="16.259" x2="140.881" y2="16.259" gradientUnits="userSpaceOnUse">
<stop stop-color="#0295FF"/>
<stop offset="1" stop-color="#4048FF"/>
</linearGradient>
<radialGradient id="paint9_radial" cx="0" cy="0" r="1" gradientUnits="userSpaceOnUse" gradientTransform="translate(197.873 68.6129) scale(34.6323 20.9358)">
<stop stop-color="white"/>
<stop offset="0.3695" stop-color="#FDFDFD"/>
<stop offset="0.504" stop-color="#F6F6F6"/>
<stop offset="0.6" stop-color="#EAEAEA"/>
<stop offset="0.6779" stop-color="#D9D9D9"/>
<stop offset="0.7446" stop-color="#C3C3C3"/>
<stop offset="0.8038" stop-color="#A8A8A8"/>
<stop offset="0.8573" stop-color="#888888"/>
<stop offset="0.9066" stop-color="#626262"/>
<stop offset="0.9524" stop-color="#373737"/>
<stop offset="0.9931" stop-color="#090909"/>
<stop offset="1"/>
</radialGradient>
<linearGradient id="paint10_linear" x1="168.113" y1="75.1271" x2="224.218" y2="75.1271" gradientUnits="userSpaceOnUse">
<stop stop-color="#F5F7FA"/>
<stop offset="1" stop-color="#C3CFE2"/>
</linearGradient>
<linearGradient id="paint11_linear" x1="183.288" y1="64.6918" x2="211.651" y2="64.6918" gradientUnits="userSpaceOnUse">
<stop stop-color="#0295FF"/>
<stop offset="1" stop-color="#4048FF"/>
</linearGradient>
</defs>
</svg>
