<svg width="220" height="144" viewBox="0 0 220 144" fill="none" xmlns="http://www.w3.org/2000/svg">
<g opacity="0.5">
<path d="M273.928 -12.162L269.918 -14.292L229.838 9.73804C229.818 10.618 229.808 11.1381 229.798 12.0181C230.438 12.3981 231.068 12.788 231.678 13.178C232.918 13.958 234.098 14.7581 235.238 15.5781C236.398 16.4081 237.508 17.258 238.568 18.118C239.628 18.978 240.638 19.858 241.598 20.748C241.618 20.768 241.638 20.788 241.658 20.798C242.658 21.728 243.608 22.6781 244.488 23.6381C245.398 24.6181 246.258 25.6281 247.048 26.6381C262.218 45.9481 256.048 69.7181 228.158 86.5181C201.408 102.638 162.038 107.888 127.928 101.808C127.418 100.628 127.268 100.278 126.768 99.098L149.898 85.168L145.888 83.038C145.888 83.038 140.928 86.028 118.188 99.728C118.588 100.858 118.738 101.258 119.138 102.398C119.658 102.518 120.188 102.638 120.708 102.748C157.508 110.838 201.568 105.728 230.988 88.0081C260.408 70.2881 266.618 45.108 249.988 24.858C249.168 23.858 248.288 22.868 247.358 21.898C246.488 20.978 245.558 20.078 244.578 19.188C244.548 19.158 244.508 19.128 244.478 19.088C243.488 18.188 242.448 17.298 241.358 16.428C240.288 15.568 239.168 14.728 237.998 13.908C237.388 13.478 236.758 13.048 236.128 12.618C236.188 11.768 236.218 11.248 236.278 10.398L273.928 -12.162Z" stroke="url(#paint0_linear)" stroke-width="0.6284" stroke-miterlimit="10"/>
<path d="M269.938 13.848L266.308 16.038C291.248 41.418 284.958 74.548 246.918 97.468C208.878 120.388 150.788 126.048 104.378 113.588C102.648 113.128 100.948 112.638 99.2576 112.128C97.5976 111.628 95.9576 111.098 94.3376 110.548C92.7476 110.008 91.1675 109.448 89.6075 108.858C88.0675 108.278 86.5576 107.678 85.0576 107.048C83.5876 106.428 82.1376 105.798 80.6976 105.128C80.0576 104.838 79.4175 104.538 78.7875 104.228C78.7175 103.278 78.6876 102.778 78.6176 101.828L94.6476 92.168C117.678 78.298 125.808 73.398 125.808 73.398L121.798 71.2681C121.798 71.2681 113.658 76.168 90.6376 90.038L70.9175 101.918C70.9475 102.778 70.9575 103.268 70.9775 104.128L70.9976 104.138C71.6676 104.498 72.3476 104.838 73.0276 105.188C74.3976 105.888 75.7976 106.558 77.2076 107.218C78.6376 107.878 80.0876 108.518 81.5576 109.138C83.0476 109.768 84.5476 110.378 86.0776 110.958C87.6276 111.548 89.1876 112.128 90.7676 112.668C92.3776 113.228 94.0076 113.758 95.6576 114.268C97.3276 114.788 99.0175 115.288 100.728 115.758C149.268 129.208 210.508 123.438 250.488 99.358C290.478 75.288 296.768 40.368 269.938 13.848Z" stroke="url(#paint1_linear)" stroke-width="0.6284" stroke-miterlimit="10"/>
<path d="M229.518 -20.872L233.718 -23.402C175.898 -41.312 100.678 -35.062 52.1479 -5.82202C-5.08207 28.658 -3.52208 82.038 55.6379 113.408C114.798 144.788 209.148 142.268 266.378 107.798C314.898 78.568 321.158 35.738 285.858 4.258L281.658 6.78797C314.698 36.958 308.428 77.698 262.168 105.558C207.188 138.678 116.548 141.088 59.7179 110.948C2.87794 80.808 1.37789 29.528 56.3579 -3.59204C102.628 -31.462 174.138 -37.592 229.518 -20.872Z" stroke="url(#paint2_linear)" stroke-width="0.6284" stroke-miterlimit="10"/>
<path d="M217.788 -14.802C169.248 -28.252 108.008 -22.482 68.0281 1.59796C28.0481 25.678 21.758 60.598 48.598 87.118C49.538 88.048 50.518 88.968 51.548 89.878C52.548 90.778 53.598 91.658 54.688 92.528C55.758 93.388 56.868 94.228 58.008 95.068C59.138 95.898 60.308 96.708 61.508 97.508C62.018 97.848 62.528 98.188 63.058 98.518C64.778 98.518 65.6681 98.508 67.3881 98.508L86.858 86.778C109.878 72.908 117.798 68.138 117.798 68.138L113.788 66.008C113.788 66.008 106.298 70.528 83.298 84.378L67.3281 93.998C65.5481 93.978 64.6881 93.968 62.9081 93.948C62.4381 93.618 61.9781 93.288 61.5281 92.948C60.3881 92.108 59.298 91.258 58.238 90.388C57.158 89.508 56.1281 88.6179 55.1381 87.7079C54.1181 86.7879 53.158 85.858 52.238 84.918C27.298 59.538 33.588 26.408 71.628 3.48798C109.668 -19.432 167.758 -25.082 214.168 -12.632L217.788 -14.802Z" stroke="url(#paint3_linear)" stroke-width="0.6284" stroke-miterlimit="10"/>
<path d="M137.858 78.788C137.858 78.788 131.008 82.918 108.058 96.738L101.858 100.468C102.078 101.508 102.178 101.978 102.408 103.018C102.998 103.218 103.598 103.408 104.198 103.598C105.858 104.128 107.538 104.628 109.248 105.108C110.978 105.598 112.748 106.048 114.518 106.478C154.968 116.188 204.308 110.868 236.978 91.188C269.648 71.508 275.898 43.3381 256.178 21.1381C255.308 20.1681 254.398 19.198 253.428 18.248C252.478 17.318 251.488 16.398 250.448 15.498C249.858 14.978 249.238 14.468 248.618 13.958C248.738 13.178 248.818 12.648 248.938 11.868L276.048 -4.46198C283.788 -9.12197 280.078 -6.87199 281.698 -7.85199L277.688 -9.98193C276.038 -8.98193 279.818 -11.282 272.468 -6.85199L242.618 11.1281C242.528 11.9381 242.468 12.468 242.378 13.278C243.018 13.748 243.638 14.2181 244.238 14.6981C245.348 15.5581 246.398 16.448 247.398 17.338C248.428 18.248 249.408 19.178 250.338 20.118C251.288 21.078 252.188 22.058 253.028 23.038C271.168 44.248 264.928 70.8981 233.918 89.5781C202.908 108.258 156.258 113.468 117.658 104.588C115.868 104.178 114.088 103.738 112.328 103.258C111.748 103.098 111.178 102.938 110.608 102.778C110.318 101.698 110.198 101.258 109.898 100.178L112.988 98.3181C135.858 84.5381 141.868 80.918 141.868 80.918L137.858 78.788Z" stroke="url(#paint4_linear)" stroke-width="0.6284" stroke-miterlimit="10"/>
<path d="M264.938 -15.9821L260.928 -18.1121L224.228 4.0379C222.738 4.1279 221.818 4.17794 220.328 4.26794C219.538 3.93794 218.738 3.6079 217.938 3.2879C216.408 2.6779 214.848 2.10792 213.268 1.55792C211.658 0.997922 210.028 0.467896 208.378 -0.0321045C206.688 -0.542104 204.968 -1.03206 203.238 -1.48206C201.458 -1.94206 199.658 -2.37209 197.848 -2.77209C161.048 -10.8621 116.988 -5.7521 87.5681 11.9679C58.1481 29.6879 51.9381 54.8679 68.5681 75.1179L71.5081 73.3479C56.3281 54.0379 62.5081 30.2679 90.3881 13.4679C118.268 -3.3321 159.848 -8.32207 194.908 -0.992065C196.748 -0.602065 198.568 -0.192056 200.358 0.267944C202.108 0.707944 203.838 1.17793 205.548 1.68793C207.218 2.17793 208.858 2.70793 210.478 3.25793C212.068 3.79793 213.638 4.36791 215.178 4.97791C216.688 5.56791 218.178 6.18789 219.638 6.83789C220.368 7.15789 221.088 7.48794 221.808 7.82794C223.358 7.75794 224.278 7.7279 225.828 7.6579L264.938 -15.9821Z" stroke="url(#paint5_linear)" stroke-width="0.6284" stroke-miterlimit="10"/>
<path d="M221.558 -16.0721L225.468 -18.4221C172.458 -34.0021 104.498 -28.0021 60.4176 -1.44211C7.59761 30.3779 9.04765 79.6379 63.6477 108.598C118.238 137.548 205.318 135.238 258.128 103.418C302.208 76.8579 308.488 38.1479 277.608 9.23788L273.698 11.5879C302.508 39.2879 296.228 76.0579 254.238 101.358C203.498 131.928 119.848 134.158 67.3977 106.338C14.9477 78.5179 13.5576 31.1979 64.2976 0.627895C106.288 -24.6721 170.818 -30.5621 221.558 -16.0721Z" stroke="url(#paint6_linear)" stroke-width="0.6284" stroke-miterlimit="10"/>
<path d="M288.838 -2.04205L284.828 -4.172L255.198 13.638C255.058 14.398 254.958 14.918 254.808 15.678C255.468 16.268 256.238 16.968 256.618 17.328C257.598 18.268 258.538 19.218 259.418 20.178C280.798 43.408 274.528 73.168 240.148 93.878C205.758 114.598 153.618 120.028 111.248 109.438C109.488 108.998 107.748 108.538 106.028 108.038C104.338 107.558 102.668 107.048 101.018 106.508C99.3984 105.978 97.8083 105.428 96.2283 104.848C95.6083 104.618 94.9984 104.388 94.3884 104.158C94.2284 103.148 94.1483 102.668 93.9883 101.658L103.348 96.018C126.338 82.168 133.838 77.6479 133.838 77.6479L129.828 75.518C129.828 75.518 121.908 80.288 98.8884 94.158L86.2584 101.768C86.3684 102.748 86.4283 103.238 86.5383 104.218C87.1583 104.488 87.7883 104.748 88.4183 105.008C89.9183 105.628 91.4483 106.228 92.9883 106.798C94.5583 107.378 96.1384 107.938 97.7484 108.468C99.3784 109.018 101.038 109.528 102.708 110.028C104.418 110.528 106.138 111.008 107.868 111.458C152.228 122.948 207.288 117.408 243.458 95.618C279.638 73.828 285.918 42.418 262.798 18.128C262.228 17.528 261.648 16.938 261.038 16.358C261.208 15.628 261.318 15.108 261.488 14.378L288.838 -2.04205Z" stroke="url(#paint7_linear)" stroke-width="0.6284" stroke-miterlimit="10"/>
<path d="M245.938 -22.672L241.928 -24.802L217.378 -10.012C216.098 -9.87202 215.198 -9.77202 213.918 -9.63202C212.838 -9.93202 211.758 -10.232 210.668 -10.512C166.308 -22.012 111.258 -16.472 75.0781 5.328C38.8981 27.118 32.618 58.528 55.738 82.828C56.638 83.778 57.5981 84.7179 58.5881 85.6479C59.5681 86.5579 60.5881 87.458 61.6581 88.348C62.0481 88.678 62.448 88.998 62.848 89.328C64.688 89.378 65.528 89.398 67.368 89.448L79.978 81.848C102.928 68.018 109.778 63.8979 109.778 63.8979L105.768 61.768C105.768 61.768 99.7581 65.388 76.8881 79.168L67.538 84.798C65.638 84.718 64.828 84.678 62.928 84.598C62.588 84.278 62.2481 83.9679 61.9081 83.6479C60.9281 82.7079 59.988 81.758 59.108 80.798C37.728 57.568 43.9981 27.808 78.3881 7.09796C112.778 -13.622 164.918 -19.052 207.298 -8.46204C209.048 -8.02204 210.798 -7.55201 212.508 -7.06201C213.528 -6.77201 214.548 -6.46204 215.558 -6.15204C216.888 -6.28204 217.798 -6.37201 219.118 -6.50201L245.938 -22.672Z" stroke="url(#paint8_linear)" stroke-width="0.6284" stroke-miterlimit="10"/>
<path d="M256.078 -19.8619L252.068 -21.9919L220.858 -3.02197C219.478 -2.90197 218.568 -2.82198 217.188 -2.71198C216.248 -3.03198 215.308 -3.34197 214.348 -3.64197C212.688 -4.17197 211.008 -4.67198 209.298 -5.15198C207.568 -5.64198 205.798 -6.09197 204.028 -6.52197C163.578 -16.232 114.228 -10.9119 81.568 8.76807C48.898 28.4481 42.648 56.6181 62.368 78.8181C62.628 79.1181 62.898 79.408 63.168 79.708C65.158 79.848 65.898 79.898 67.898 80.028L74.048 76.3181C96.788 62.6181 101.748 59.6281 101.748 59.6281L97.738 57.498C97.738 57.498 94.028 59.7281 71.488 73.3181L68.518 75.108C66.448 74.928 65.768 74.868 63.698 74.678C47.838 53.858 54.688 28.4181 84.618 10.3881C115.628 -8.29194 162.278 -13.5019 200.878 -4.62195C202.668 -4.21195 204.448 -3.77199 206.208 -3.29199C207.918 -2.83199 209.618 -2.33195 211.298 -1.81195C212.938 -1.30195 214.558 -0.761965 216.158 -0.201965C217.038 0.108035 217.908 0.428057 218.778 0.758057C220.208 0.658057 221.128 0.588037 222.558 0.488037L256.078 -19.8619Z" stroke="url(#paint9_linear)" stroke-width="0.6284" stroke-miterlimit="10"/>
<path d="M7.09801 48.0081C6.85801 50.6581 6.84803 53.3281 7.05803 56.0081L12.928 55.868C12.718 53.248 12.7181 50.638 12.9581 48.058L7.09801 48.0081Z" fill="#1E3D90"/>
<path d="M15.358 37.418C14.428 40.028 13.7181 42.678 13.2181 45.358L19.0281 45.7079C19.5081 43.0879 20.198 40.498 21.108 37.948L15.358 37.418Z" fill="#1E3D90"/>
<path d="M30.2081 28.5081C28.7081 31.0381 27.4081 33.6281 26.3181 36.2681L31.978 37.038C33.038 34.468 34.2981 31.938 35.7681 29.468L30.2081 28.5081Z" fill="#1E3D90"/>
<path d="M46.2081 21.728C44.1981 24.158 42.3881 26.648 40.7581 29.208L46.1981 30.348C47.7781 27.848 49.5381 25.418 51.5081 23.048L46.2081 21.728Z" fill="#1E3D90"/>
<path d="M62.858 16.068C60.308 18.338 57.948 20.678 55.748 23.108L60.858 24.6479C62.998 22.2779 65.298 19.988 67.788 17.778L62.858 16.068Z" fill="#1E3D90"/>
<path d="M104.628 52.238L93.3781 59.0181L98.668 61.8181L109.918 55.038L104.628 52.238Z" fill="#1E3D90"/>
<path d="M112.688 56.5081L101.438 63.288L106.728 66.098L117.978 59.3181L112.688 56.5081Z" fill="#1E3D90"/>
<path d="M120.748 60.788L109.498 67.558L114.788 70.368L126.038 63.588L120.748 60.788Z" fill="#1E3D90"/>
<path d="M128.808 65.058L117.548 71.838L122.848 74.638L134.098 67.868L128.808 65.058Z" fill="#1E3D90"/>
<path d="M136.868 69.328L125.608 76.108L130.898 78.918L142.158 72.138L136.868 69.328Z" fill="#1E3D90"/>
<path d="M144.918 73.6079L133.668 80.3879L138.958 83.1879L150.218 76.4079L144.918 73.6079Z" fill="#1E3D90"/>
<path d="M152.978 77.8779L141.728 84.6579L147.018 87.4679L158.268 80.6879L152.978 77.8779Z" fill="#1E3D90"/>
<path d="M296.158 6.55797C330.068 39.518 322.448 83.138 272.598 113.168C212.148 149.588 112.478 152.238 49.978 119.098C-12.522 85.9579 -14.1719 29.5579 46.2781 -6.85207C96.0281 -36.8221 172.338 -43.9221 232.628 -27.0321" stroke="#1E3D90" stroke-width="2.7621" stroke-linecap="round" stroke-linejoin="round" stroke-dasharray="4.73 4.73"/>
</g>
<path d="M172.84 36.0346L172.861 40.2354L170.336 37.5527L170.315 33.3518L172.84 36.0346Z" fill="#053E87"/>
<path d="M197.245 33.3518L197.266 37.5527L194.72 40.2354L194.7 36.0346L197.245 33.3518Z" fill="#053E87"/>
<path d="M192.564 38.9042L192.585 43.105C192.585 41.7948 191.723 40.4639 190.019 39.4656C186.591 37.4484 181.008 37.4484 177.539 39.4656C175.794 40.4847 174.932 41.8156 174.932 43.1466L174.912 38.9457C174.912 37.6148 175.774 36.2839 177.518 35.2649C180.967 33.2476 186.55 33.2476 189.998 35.2649C191.723 36.2839 192.564 37.594 192.564 38.9042Z" fill="#053E87"/>
<path d="M172.512 41.4206L172.532 45.6213L167.524 44.7687L167.503 40.568L172.512 41.4206Z" fill="#3654D6"/>
<path d="M199.976 40.568L199.996 44.7687L194.988 45.6213L194.967 41.4206L199.976 40.568Z" fill="#053E87"/>
<path d="M172.82 41.8378L172.841 46.0385C172.738 45.8929 172.635 45.7681 172.553 45.6226L172.533 41.4219C172.615 41.5674 172.697 41.6922 172.82 41.8378Z" fill="#3654D6"/>
<path d="M194.967 41.4219L194.988 45.6226C194.906 45.7681 194.803 45.9137 194.7 46.0385L194.68 41.8378C194.782 41.6922 194.885 41.5674 194.967 41.4219Z" fill="#053E87"/>
<path d="M179.49 45.5172L179.511 49.718C179.264 49.6556 179.038 49.614 178.792 49.5516L178.771 45.3508C179.018 45.4132 179.244 45.4756 179.49 45.5172Z" fill="#3654D6"/>
<path d="M188.666 45.3508L188.686 49.5516C188.44 49.614 188.214 49.6764 187.968 49.718L187.947 45.5172C188.194 45.4756 188.44 45.4132 188.666 45.3508Z" fill="#3654D6"/>
<path d="M178.772 45.3508L178.793 49.5516L174.215 51.0282V46.8273L178.772 45.3508Z" fill="#3654D6"/>
<path d="M174.215 46.828V51.0288L170.274 48.6997L170.253 44.4989L174.215 46.828Z" fill="#6F89FF"/>
<path d="M193.203 46.8273L193.223 51.0282L188.687 49.5516L188.667 45.3508L193.203 46.8273Z" fill="#3654D6"/>
<path d="M197.184 44.4989L197.205 48.6997L193.223 51.0288L193.202 46.828L197.184 44.4989Z" fill="#6F89FF"/>
<path d="M180.907 48.4717V52.6725L179.491 49.7194V45.5186L180.907 48.4717Z" fill="#053E87"/>
<path d="M187.948 45.5186L187.969 49.7194L186.511 52.6725V48.4717L187.948 45.5186Z" fill="#053E87"/>
<path d="M186.511 48.4705V52.6713H180.907V48.4705H186.511Z" fill="#6F89FF"/>
<path d="M197.249 33.3521L194.704 36.0348C194.807 36.1804 194.909 36.3052 194.992 36.4507L200 37.2826L199.979 40.5683L194.971 41.4002C194.889 41.5457 194.786 41.6913 194.684 41.8161L197.208 44.478L193.226 46.8072L188.69 45.3307C188.444 45.3931 188.218 45.4554 187.972 45.497L186.535 48.4293H180.931L179.515 45.497C179.268 45.4346 179.043 45.3931 178.796 45.3307L174.239 46.8072L170.298 44.478L172.844 41.8161C172.741 41.6705 172.638 41.5457 172.556 41.4002L167.548 40.5683L167.568 37.2826L172.577 36.4507C172.659 36.3052 172.762 36.1596 172.864 36.0348L170.34 33.3729L174.322 31.0437L178.858 32.5202C179.104 32.4578 179.33 32.3955 179.576 32.3539L181.013 29.4216H186.617L188.033 32.3539C188.279 32.4163 188.505 32.4578 188.752 32.5202L193.308 31.0229L197.249 33.3521ZM189.983 42.5856C193.432 40.5683 193.452 37.2826 190.024 35.2653C186.596 33.2481 181.013 33.2481 177.544 35.2653C174.096 37.2826 174.075 40.5683 177.503 42.5856C180.931 44.6028 186.514 44.6236 189.983 42.5856Z" fill="url(#paint10_linear)"/>
<path d="M148.927 25.3239L148.947 28.6929L146.915 26.5509V23.1819L148.927 25.3239Z" fill="#053E87"/>
<path d="M168.489 23.1819V26.5509L166.457 28.6929V25.3239L168.489 23.1819Z" fill="#053E87"/>
<path d="M164.752 27.6326V31.0016C164.752 29.9409 164.075 28.9011 162.699 28.0901C159.949 26.468 155.474 26.468 152.703 28.0901C151.307 28.9011 150.609 29.9826 150.609 31.0432V27.6742C150.609 26.6136 151.307 25.5322 152.703 24.7211C155.474 23.099 159.949 23.099 162.699 24.7211C164.054 25.5322 164.732 26.572 164.752 27.6326Z" fill="#053E87"/>
<path d="M148.681 29.6493V32.9975L144.678 32.332L144.657 28.963L148.681 29.6493Z" fill="#3654D6"/>
<path d="M170.686 28.963V32.332L166.663 32.9975V29.6493L170.686 28.963Z" fill="#053E87"/>
<path d="M148.907 29.9824V33.3514C148.824 33.2474 148.742 33.1226 148.66 33.0186V29.6497C148.742 29.7536 148.824 29.8576 148.907 29.9824Z" fill="#3654D6"/>
<path d="M166.662 29.6497V33.0186C166.6 33.1226 166.518 33.2474 166.416 33.3514V29.9824C166.518 29.8576 166.58 29.7536 166.662 29.6497Z" fill="#053E87"/>
<path d="M154.262 32.9346V36.3035C154.077 36.2619 153.872 36.2203 153.687 36.1579V32.7891C153.872 32.8514 154.057 32.8931 154.262 32.9346Z" fill="#3654D6"/>
<path d="M161.612 32.7891V36.1579C161.427 36.1995 161.222 36.2619 161.037 36.3035V32.9346C161.222 32.8931 161.427 32.8514 161.612 32.7891Z" fill="#3654D6"/>
<path d="M153.69 32.7891V36.1579L150.036 37.3433V33.9744L153.69 32.7891Z" fill="#3654D6"/>
<path d="M150.036 33.975V37.3439L146.875 35.493V32.1241L150.036 33.975Z" fill="#6F89FF"/>
<path d="M165.246 33.9744L165.267 37.3433L161.633 36.1579L161.613 32.7891L165.246 33.9744Z" fill="#3654D6"/>
<path d="M168.448 32.1241V35.4723L165.266 37.3439L165.246 33.975L168.448 32.1241Z" fill="#6F89FF"/>
<path d="M155.393 35.2844V38.6533L154.264 36.3034V32.9346L155.393 35.2844Z" fill="#053E87"/>
<path d="M161.036 32.9346L161.057 36.3034L159.887 38.6533V35.2844L161.036 32.9346Z" fill="#053E87"/>
<path d="M159.886 35.2849V38.654H155.391V35.2849H159.886Z" fill="#6F89FF"/>
<path d="M168.489 23.1818L166.457 25.3238C166.539 25.4278 166.621 25.5526 166.683 25.6566L170.685 26.322L170.665 28.9631L166.641 29.6286C166.58 29.7326 166.498 29.8573 166.395 29.9613L168.407 32.1033L165.225 33.975L161.592 32.7896C161.407 32.8312 161.202 32.8936 161.017 32.9352L159.868 35.2851H155.372L154.244 32.9352C154.059 32.8936 153.854 32.852 153.669 32.7896L150.015 33.975L146.854 32.1033L148.907 29.9613C148.825 29.8573 148.742 29.7326 148.66 29.6286L144.658 28.9631L144.678 26.322L148.701 25.6566C148.783 25.5526 148.845 25.4278 148.948 25.3238L146.936 23.1818L150.118 21.3102L153.751 22.4955C153.936 22.4539 154.141 22.3916 154.326 22.35L155.475 20H159.97L161.099 22.35C161.284 22.3916 161.489 22.4331 161.674 22.4955L165.328 21.3102L168.489 23.1818ZM162.659 30.5852C165.43 28.9631 165.451 26.3428 162.7 24.7207C159.95 23.0986 155.475 23.0986 152.704 24.7207C149.933 26.3428 149.912 28.9631 152.663 30.5852C155.414 32.2073 159.888 32.2073 162.659 30.5852Z" fill="url(#paint11_linear)"/>
<path d="M136.529 45.6821L136.549 50.8188L133.47 47.5538L133.45 42.4171L136.529 45.6821Z" fill="#053E87"/>
<path d="M166.331 42.4171L166.351 47.5538L163.252 50.8188L163.231 45.6821L166.331 42.4171Z" fill="#053E87"/>
<path d="M160.624 49.198L160.644 54.3347C160.644 52.7334 159.598 51.1321 157.504 49.9052C153.317 47.4304 146.502 47.4304 142.273 49.9052C140.159 51.1529 139.092 52.775 139.092 54.3971L139.071 49.2604C139.071 47.6383 140.118 45.9954 142.253 44.7684C146.481 42.2937 153.296 42.2937 157.483 44.7684C159.577 45.9954 160.624 47.5967 160.624 49.198Z" fill="#053E87"/>
<path d="M136.137 52.276V57.3918L130.041 56.3728L130.021 51.2362L136.137 52.276Z" fill="#3654D6"/>
<path d="M169.678 51.2362L169.698 56.3728L163.561 57.3918V52.276L169.678 51.2362Z" fill="#053E87"/>
<path d="M136.486 52.7747L136.507 57.9112C136.383 57.7448 136.26 57.5785 136.137 57.3913L136.117 52.2548C136.24 52.4419 136.363 52.6083 136.486 52.7747Z" fill="#3654D6"/>
<path d="M163.561 52.276L163.582 57.4128C163.479 57.5792 163.356 57.7663 163.212 57.9327L163.192 52.7959C163.315 52.6087 163.438 52.4424 163.561 52.276Z" fill="#053E87"/>
<path d="M144.655 57.2876L144.676 62.4242C144.388 62.3618 144.101 62.2786 143.814 62.2162L143.793 57.0796C144.06 57.142 144.347 57.2044 144.655 57.2876Z" fill="#3654D6"/>
<path d="M155.862 57.0583L155.883 62.1951C155.595 62.2783 155.308 62.3407 155 62.4031L154.979 57.2663C155.267 57.2247 155.575 57.1415 155.862 57.0583Z" fill="#3654D6"/>
<path d="M143.773 57.0583L143.793 62.1951L138.21 64.0044V58.8884L143.773 57.0583Z" fill="#3654D6"/>
<path d="M138.209 58.8888V64.0047L133.386 61.1764V56.0398L138.209 58.8888Z" fill="#6F89FF"/>
<path d="M161.406 58.8884L161.427 64.0044L155.864 62.1951V57.0583L161.406 58.8884Z" fill="#3654D6"/>
<path d="M166.27 56.0398V61.1764L161.426 64.0047L161.405 58.8888L166.27 56.0398Z" fill="#6F89FF"/>
<path d="M146.382 60.8638V66.0004L144.657 62.4026V57.2869L146.382 60.8638Z" fill="#053E87"/>
<path d="M154.98 57.2869L155.001 62.4026L153.235 66.0004L153.215 60.8638L154.98 57.2869Z" fill="#053E87"/>
<path d="M153.214 60.8635L153.235 66.0002H146.379V60.8635H153.214Z" fill="#6F89FF"/>
<path d="M166.332 42.4184L163.212 45.6833C163.335 45.8497 163.458 46.0161 163.561 46.2032L169.677 47.2223L169.657 51.2359L163.54 52.2549C163.437 52.4213 163.314 52.6084 163.171 52.7748L166.249 56.0398L161.385 58.8889L155.843 57.0796C155.555 57.1628 155.268 57.2252 154.96 57.2876L153.195 60.8853H146.339L144.615 57.2876C144.327 57.2252 144.04 57.142 143.753 57.0796L138.19 58.8889L133.366 56.0398L136.486 52.7748C136.363 52.6084 136.24 52.4421 136.117 52.2549L130 51.2359L130.021 47.2223L136.137 46.2032C136.24 46.0369 136.363 45.8497 136.507 45.6833L133.428 42.4184L138.293 39.5693L143.835 41.3786C144.122 41.2954 144.409 41.233 144.717 41.1706L146.483 37.5729H153.338L155.063 41.1706C155.35 41.233 155.658 41.3162 155.945 41.3786L161.508 39.5693L166.332 42.4184ZM157.444 53.7107C161.672 51.2359 161.693 47.2431 157.485 44.7684C153.297 42.2936 146.483 42.2936 142.254 44.7684C138.026 47.2431 138.005 51.2359 142.213 53.7107C146.401 56.1646 153.236 56.1646 157.444 53.7107Z" fill="url(#paint12_linear)"/>
<defs>
<linearGradient id="paint0_linear" x1="119.461" y1="43.2634" x2="272.663" y2="47.969" gradientUnits="userSpaceOnUse">
<stop stop-color="#5940E7"/>
<stop offset="1" stop-color="#1BAFF8"/>
</linearGradient>
<linearGradient id="paint1_linear" x1="71.7081" y1="64.0609" x2="285.8" y2="70.6368" gradientUnits="userSpaceOnUse">
<stop stop-color="#5940E7"/>
<stop offset="1" stop-color="#1BAFF8"/>
</linearGradient>
<linearGradient id="paint2_linear" x1="10.0579" y1="46.4187" x2="308.352" y2="55.5809" gradientUnits="userSpaceOnUse">
<stop stop-color="#5940E7"/>
<stop offset="1" stop-color="#1BAFF8"/>
</linearGradient>
<linearGradient id="paint3_linear" x1="32.4475" y1="35.7947" x2="216.789" y2="41.4568" gradientUnits="userSpaceOnUse">
<stop stop-color="#5940E7"/>
<stop offset="1" stop-color="#1BAFF8"/>
</linearGradient>
<linearGradient id="paint4_linear" x1="103.076" y1="47.1625" x2="280.413" y2="52.6095" gradientUnits="userSpaceOnUse">
<stop stop-color="#5940E7"/>
<stop offset="1" stop-color="#1BAFF8"/>
</linearGradient>
<linearGradient id="paint5_linear" x1="59.9185" y1="25.3161" x2="264.052" y2="31.5861" gradientUnits="userSpaceOnUse">
<stop stop-color="#5940E7"/>
<stop offset="1" stop-color="#1BAFF8"/>
</linearGradient>
<linearGradient id="paint6_linear" x1="21.5348" y1="46.7701" x2="296.873" y2="55.2272" gradientUnits="userSpaceOnUse">
<stop stop-color="#5940E7"/>
<stop offset="1" stop-color="#1BAFF8"/>
</linearGradient>
<linearGradient id="paint7_linear" x1="87.3781" y1="52.5408" x2="287.553" y2="58.6892" gradientUnits="userSpaceOnUse">
<stop stop-color="#5940E7"/>
<stop offset="1" stop-color="#1BAFF8"/>
</linearGradient>
<linearGradient id="paint8_linear" x1="42.4467" y1="28.8789" x2="244.737" y2="35.0923" gradientUnits="userSpaceOnUse">
<stop stop-color="#5940E7"/>
<stop offset="1" stop-color="#1BAFF8"/>
</linearGradient>
<linearGradient id="paint9_linear" x1="51.5735" y1="25.6897" x2="255.058" y2="31.9397" gradientUnits="userSpaceOnUse">
<stop stop-color="#5940E7"/>
<stop offset="1" stop-color="#1BAFF8"/>
</linearGradient>
<linearGradient id="paint10_linear" x1="167.515" y1="38.9332" x2="200.007" y2="38.9332" gradientUnits="userSpaceOnUse">
<stop stop-color="#546FEA"/>
<stop offset="1" stop-color="#064BA2"/>
</linearGradient>
<linearGradient id="paint11_linear" x1="144.664" y1="27.6525" x2="170.694" y2="27.6525" gradientUnits="userSpaceOnUse">
<stop stop-color="#546FEA"/>
<stop offset="1" stop-color="#064BA2"/>
</linearGradient>
<linearGradient id="paint12_linear" x1="130.022" y1="49.2349" x2="169.7" y2="49.2349" gradientUnits="userSpaceOnUse">
<stop stop-color="#546FEA"/>
<stop offset="1" stop-color="#064BA2"/>
</linearGradient>
</defs>
</svg>
