<svg width="42" height="60" viewBox="0 0 42 60" fill="none" xmlns="http://www.w3.org/2000/svg">
<path d="M21.6991 38.6238C23.1641 37.7866 25.4663 37.9959 27.1406 38.833L42.0001 39.4609C42.0001 39.4609 42.0001 41.5538 42.0001 42.1817C42.0001 42.6002 41.7908 43.2281 41.163 43.4374L15.2111 58.5062C13.7461 59.3434 11.4439 59.1341 9.76958 58.2969L1.60731 53.4833C0.770154 53.0647 0.351562 52.2275 0.351562 51.809C0.351562 51.3904 0.351562 48.8789 0.351562 48.8789L21.6991 38.6238Z" fill="url(#paint0_linear)"/>
<path d="M0.351939 48.4603C0.561228 48.8789 0.979806 49.0882 1.39838 49.5068L9.56065 54.3204C11.235 55.1576 13.5372 55.3669 15.0022 54.5297L40.954 39.4609C41.1633 39.2516 41.3727 39.0423 41.5819 38.833C42.0005 39.6702 41.7912 40.5073 40.954 40.9259L15.0022 55.9947C13.5372 56.8319 11.235 56.6226 9.56065 55.7855L1.39838 50.9718C0.142649 50.3439 -0.275929 49.2975 0.351939 48.4603Z" fill="#3531A1"/>
<path d="M21.6991 34.2287C23.1641 33.3916 25.4663 33.6009 27.1406 34.438L42.0001 35.0659C42.0001 35.0659 42.0001 37.1588 42.0001 37.7866C42.0001 38.2052 41.7908 38.8331 41.163 39.0424L15.2111 54.1112C13.7461 54.9484 11.4439 54.7391 9.76958 53.9019L1.60731 49.0883C0.770154 48.6697 0.351562 47.8325 0.351562 47.4139C0.351562 46.9954 0.351562 44.4839 0.351562 44.4839L21.6991 34.2287Z" fill="url(#paint1_linear)"/>
<path d="M0.351939 44.0653C0.561228 44.4839 0.979806 44.6932 1.39838 45.1117L9.56065 49.9254C11.235 50.7626 13.5372 50.9718 15.0022 50.1347L40.954 35.0658C41.1633 34.8566 41.3727 34.6473 41.5819 34.438C42.0005 35.2751 41.7912 36.1123 40.954 36.5309L15.0022 51.5997C13.5372 52.4369 11.235 52.2276 9.56065 51.3904L1.39838 46.5768C0.142649 45.9489 -0.275929 44.9024 0.351939 44.0653Z" fill="#3531A1"/>
<path d="M21.6991 30.0427C23.1641 29.2055 25.4663 29.4148 27.1406 30.252L42.0001 30.8798C42.0001 30.8798 42.0001 32.9727 42.0001 33.6006C42.0001 34.0192 41.7908 34.6471 41.163 34.8563L15.2111 49.9252C13.7461 50.7623 11.4439 50.553 9.76958 49.7159L1.60731 44.9022C0.770154 44.4837 0.351562 43.6465 0.351562 43.2279C0.351562 42.8093 0.351562 40.2979 0.351562 40.2979L21.6991 30.0427Z" fill="url(#paint2_linear)"/>
<path d="M0.351939 39.6693C0.561228 40.0879 0.979806 40.2972 1.39838 40.7157L9.56065 45.5294C11.235 46.3665 13.5372 46.5758 15.0022 45.7387L40.954 30.6699C41.1633 30.4606 41.3727 30.2513 41.5819 30.042C42.0005 30.8791 41.7912 31.7163 40.954 32.1349L15.0022 47.2037C13.5372 48.0409 11.235 47.8316 9.56065 46.9944L1.39838 42.1808C0.142649 41.5529 -0.275929 40.5065 0.351939 39.6693Z" fill="#3531A1"/>
<path d="M21.6991 25.6477C23.1641 24.8105 25.4663 25.0198 27.1406 25.857L42.0001 26.4848C42.0001 26.4848 42.0001 28.5777 42.0001 29.2056C42.0001 29.6242 41.7908 30.252 41.163 30.4613L15.2111 45.5302C13.7461 46.3673 11.4439 46.158 9.76958 45.3209L1.60731 40.5072C0.770154 40.0886 0.351562 39.2515 0.351562 38.8329C0.351562 38.4143 0.351562 35.9029 0.351562 35.9029L21.6991 25.6477Z" fill="url(#paint3_linear)"/>
<path d="M0.351939 35.2758C0.561228 35.6943 0.979806 35.9036 1.39838 36.3222L9.56065 41.1358C11.235 41.973 13.5372 42.1823 15.0022 41.3451L40.954 26.2763C41.1633 26.067 41.3727 25.8577 41.5819 25.6484C42.0005 26.4856 41.7912 27.3228 40.954 27.7413L15.0022 42.8102C13.5372 43.6473 11.235 43.438 9.56065 42.6009L1.39838 37.7872C0.142649 37.1594 -0.275929 36.1129 0.351939 35.2758Z" fill="#3531A1"/>
<path d="M21.6991 21.2522C23.1641 20.415 25.4663 20.6243 27.1406 21.4615L42.0001 22.0893C42.0001 22.0893 42.0001 24.1822 42.0001 24.8101C42.0001 25.2287 41.7908 25.8565 41.163 26.0658L15.2111 41.1347C13.7461 41.9718 11.4439 41.7625 9.76958 40.9254L1.60731 36.1117C0.770154 35.6931 0.351562 34.856 0.351562 34.4374C0.351562 34.0188 0.351562 31.5073 0.351562 31.5073L21.6991 21.2522Z" fill="url(#paint4_linear)"/>
<path d="M0.351939 30.8788C0.561228 31.2973 0.979806 31.5066 1.39838 31.9252L9.56065 36.7389C11.235 37.576 13.5372 37.7853 15.0022 36.9482L40.954 21.8793C41.1633 21.67 41.3727 21.4608 41.5819 21.2515C42.0005 22.0886 41.7912 22.9258 40.954 23.3444L15.0022 38.4132C13.5372 39.2504 11.235 39.041 9.56065 38.2039L1.39838 33.3902C0.142649 32.7624 -0.275929 31.7159 0.351939 30.8788Z" fill="#3531A1"/>
<path d="M21.6991 16.8567C23.1641 16.0195 25.4663 16.2288 27.1406 17.066L42.0001 17.6938C42.0001 17.6938 42.0001 19.7867 42.0001 20.4146C42.0001 20.8332 41.7908 21.461 41.163 21.6703L15.2111 36.7391C13.7461 37.5763 11.4439 37.367 9.76958 36.5299L1.60731 31.7162C0.770154 31.2976 0.351562 30.4605 0.351562 30.0419C0.351562 29.6233 0.351562 27.1118 0.351562 27.1118L21.6991 16.8567Z" fill="url(#paint5_linear)"/>
<path d="M0.351939 26.4847C0.561228 26.9033 0.979806 27.1126 1.39838 27.5312L9.56065 32.3448C11.235 33.182 13.5372 33.3913 15.0022 32.5541L40.954 17.4853C41.1633 17.276 41.3727 17.0667 41.5819 16.8574C42.0005 17.6946 41.7912 18.5317 40.954 18.9503L15.0022 34.0191C13.5372 34.8563 11.235 34.647 9.56065 33.8098L1.39838 28.9962C0.142649 28.3683 -0.275929 27.3219 0.351939 26.4847Z" fill="#3531A1"/>
<path d="M21.6991 12.4631C23.1641 11.626 25.4663 11.8352 27.1406 12.6724L42.0001 13.3003C42.0001 13.3003 42.0001 15.3932 42.0001 16.021C42.0001 16.4396 41.7908 17.0675 41.163 17.2768L15.2111 32.3456C13.7461 33.1827 11.4439 32.9735 9.76958 32.1363L1.60731 27.3226C0.770154 26.9041 0.351562 26.0669 0.351562 25.6483C0.351562 25.2297 0.351562 22.7183 0.351562 22.7183L21.6991 12.4631Z" fill="url(#paint6_linear)"/>
<path d="M0.351939 22.0912C0.561228 22.5097 0.979806 22.719 1.39838 23.1376L9.56065 27.9513C11.235 28.7884 13.5372 28.9977 15.0022 28.1606L40.954 13.0917C41.1633 12.8824 41.3727 12.6732 41.5819 12.4639C42.0005 13.301 41.7912 14.1382 40.954 14.5568L15.0022 29.6256C13.5372 30.4627 11.235 30.2535 9.56065 29.4163L1.39838 24.6026C0.142649 23.9748 -0.275929 22.9283 0.351939 22.0912Z" fill="#3531A1"/>
<path d="M26.9313 4.92893C28.3963 4.09177 30.6985 4.30106 32.3729 5.13822L42.0001 8.90541C42.0001 8.90541 42.0001 10.9983 42.0001 11.6262C42.0001 12.0448 41.7908 12.6726 41.163 12.8819L15.2111 27.9507C13.7461 28.7879 11.4439 28.5786 9.76958 27.7414L1.60731 22.9278C0.770154 22.5092 0.351562 21.6721 0.351562 21.2535C0.351562 20.8349 0.351562 18.3234 0.351562 18.3234L26.9313 4.92893Z" fill="url(#paint7_linear)"/>
<path d="M26.9313 2.20725C28.3963 1.37009 30.6985 1.57938 32.3729 2.41654L42.0001 7.43948C42.0001 7.43948 42.0001 8.27663 42.0001 8.9045C42.0001 9.32308 41.7908 9.95096 41.163 10.1602L15.2111 25.2291C13.7461 26.0662 11.4439 25.8569 9.76958 25.0198L1.60731 20.2061C0.770154 19.7875 0.351562 19.1597 0.351562 18.5318C0.351562 18.1132 0.351562 17.0668 0.351562 17.0668L26.9313 2.20725Z" fill="url(#paint8_linear)"/>
<path d="M1.39828 18.7411L9.56055 23.5547C11.2349 24.3919 13.5371 24.6012 15.0021 23.764L40.9539 8.69521C42.419 7.85806 42.2097 6.60232 40.5354 5.55587L32.3731 0.74223C30.6988 -0.0949265 28.3966 -0.304229 26.9316 0.532928L0.979712 15.6018C-0.485313 16.4389 -0.27603 17.9039 1.39828 18.7411ZM0.770442 17.0668C0.770442 16.6482 1.18899 16.4389 1.39828 16.4389L27.3501 1.37009C27.7687 1.1608 28.6059 0.951517 29.2338 0.951517C30.2802 0.951517 31.1174 1.1608 31.9545 1.57937L34.8846 9.32309C35.5124 9.74166 41.1632 7.0209 41.1632 7.43948C41.1632 7.85806 40.7447 8.06735 40.5354 8.06735L14.5835 23.1362C14.165 23.3455 13.3278 23.5547 12.6999 23.5547C11.6534 23.5547 10.8163 23.3455 9.97916 22.9269L1.81689 18.1132C1.18902 17.6947 0.770442 17.2761 0.770442 17.0668Z" fill="#F7F7FB"/>
<path d="M1.39835 16.2296L27.3502 1.16076C27.7688 0.95147 28.606 0.742188 29.2339 0.742188C30.2803 0.742188 31.1174 0.951467 31.9546 1.37005L34.8846 9.11376C35.5125 9.53234 41.1633 6.81157 41.1633 7.23015C41.1633 7.64873 40.7448 7.85801 40.5355 7.85801L14.5836 22.9268C14.165 23.1361 13.3278 23.3454 12.7 23.3454C11.6535 23.3454 10.8164 23.1361 9.97922 22.7176L1.81695 17.9039C1.18909 17.4853 0.770508 17.0667 0.770508 16.8575C0.770508 16.6482 1.18906 16.4389 1.39835 16.2296Z" fill="white"/>
<path d="M1.39814 16.2296L27.35 1.16076C27.7686 0.95147 28.6058 0.742188 29.2337 0.742188C30.2801 0.742188 31.1172 0.951467 31.9544 1.37005L40.1167 6.1837C40.7445 6.60228 41.1631 7.02086 41.1631 7.23015C41.1631 7.43944 40.9538 7.85801 40.7446 7.85801C40.5353 7.85801 35.303 10.5788 35.0937 10.5788L32.1637 2.83508C31.5358 2.4165 30.4893 2.20721 29.4429 2.20721C28.6057 2.20721 27.9779 2.41649 27.5593 2.62578L1.60744 17.6946C1.18886 17.4853 1.18887 17.0667 1.18887 16.8575C0.770292 16.6482 1.18885 16.4389 1.39814 16.2296Z" fill="url(#paint9_linear)"/>
<path d="M27.1413 2.8346C27.5599 2.62531 28.3971 2.41602 29.0249 2.41602C30.0714 2.41602 30.9085 2.62531 31.7457 3.04389L39.9079 7.85753C40.1172 7.85753 40.1172 8.06684 40.3265 8.06684L14.3747 23.1357C13.9561 23.3449 13.119 23.5542 12.4911 23.5542C11.4446 23.5542 10.6074 23.3449 9.77029 22.9264L1.60803 18.1127C1.39874 18.1127 1.39874 17.9034 1.18945 17.9034L27.1413 2.8346Z" fill="#3531A1"/>
<path d="M26.5136 49.7156C26.7229 49.5063 26.7229 49.7156 26.5136 49.7156L26.7229 51.3899C26.7229 51.5992 26.7229 51.5992 26.5136 51.5992L22.7464 53.6921C22.7464 53.6921 22.5371 53.6921 22.5371 53.4828V51.8085C22.5371 51.5992 22.5371 51.5992 22.7464 51.5992L26.5136 49.7156Z" fill="url(#paint10_linear)"/>
<path d="M21.9101 52.4368C21.9101 52.2275 21.9101 52.4368 21.9101 52.4368L22.1194 54.1111C22.1194 54.3204 22.1194 54.3204 21.9101 54.3204L18.1429 56.4133C18.1429 56.4133 17.9336 56.4133 17.9336 56.204V54.5297C17.9336 54.3204 17.9336 54.3204 18.1429 54.3204L21.9101 52.4368Z" fill="url(#paint11_linear)"/>
<path d="M31.3262 42.5999C31.3262 42.3906 31.3262 42.5999 31.3262 42.5999L31.5354 44.2742C31.5354 44.4834 31.5354 44.4834 31.3262 44.4834L27.5589 46.5763C27.5589 46.5763 27.3496 46.5763 27.3496 46.3671V44.6927C27.3496 44.4835 27.3496 44.4834 27.5589 44.4834L31.3262 42.5999Z" fill="url(#paint12_linear)"/>
<path d="M33.2099 23.7637C33.4192 23.7637 33.4192 23.7637 33.2099 23.7637L33.4192 25.438C33.4192 25.6473 33.4192 25.6473 33.2099 25.6473L29.4426 27.7402C29.4426 27.7402 29.2334 27.7402 29.2334 27.5309V26.2751C29.2334 26.0658 29.2333 26.0659 29.4426 26.0659L33.2099 23.7637Z" fill="url(#paint13_linear)"/>
<path d="M27.1416 27.3223C27.3509 27.3223 27.3509 27.3223 27.1416 27.3223L27.3508 28.9966C27.3508 29.2059 27.3509 29.2059 27.1416 29.2059L23.3743 31.2988C23.3743 31.2988 23.165 31.2988 23.165 31.0895V29.4152C23.165 29.2059 23.1651 29.2059 23.3743 29.2059L27.1416 27.3223Z" fill="url(#paint14_linear)"/>
<path d="M1.39872 38.2056L5.16597 40.2985L5.37521 40.5078V42.1821C5.37521 42.3914 5.37526 42.3914 5.16597 42.3914L1.39872 40.2985L1.18945 40.0892L1.39872 38.2056C1.39872 38.2056 1.18943 38.2056 1.39872 38.2056Z" fill="url(#paint15_linear)"/>
<path d="M4.5384 35.6934L8.30565 37.7863L8.51489 37.9955V39.6699C8.51489 39.8791 8.51494 39.8791 8.30565 39.8791L4.5384 37.7863L4.3291 37.577L4.5384 35.6934C4.32911 35.6934 4.32911 35.6934 4.5384 35.6934Z" fill="url(#paint16_linear)"/>
<path d="M1.39872 25.2297L5.16597 27.3226L5.37521 27.5319V29.2062C5.37521 29.4155 5.37526 29.4155 5.16597 29.4155L1.39872 27.3226L1.18945 27.1133L1.39872 25.2297C1.39872 25.0204 1.18943 25.2297 1.39872 25.2297Z" fill="url(#paint17_linear)"/>
<path d="M5.16536 53.4829L8.93254 55.5758L9.14184 55.7851V57.4594C9.14184 57.6687 9.14183 57.6687 8.93254 57.6687L5.16536 55.5758L4.95605 55.3665L5.16536 53.4829C4.95607 53.4829 4.95607 53.4829 5.16536 53.4829Z" fill="url(#paint18_linear)"/>
<path d="M5.16536 49.0879L8.93254 51.1808L9.14184 51.3901V53.0644C9.14184 53.2737 9.14183 53.2737 8.93254 53.2737L5.16536 51.1808L4.95605 50.9715L5.16536 49.0879C4.95607 49.0879 4.95607 49.0879 5.16536 49.0879Z" fill="url(#paint19_linear)"/>
<path d="M27.1416 18.5317C27.3509 18.5317 27.3509 18.5317 27.1416 18.5317L27.3508 20.206C27.3508 20.4153 27.3509 20.4153 27.1416 20.4153L23.3743 22.5082C23.3743 22.5082 23.165 22.5082 23.165 22.2989V20.6246C23.165 20.4153 23.1651 20.4153 23.3743 20.4153L27.1416 18.5317Z" fill="url(#paint20_linear)"/>
<path d="M40.7449 10.7886L40.9541 12.4629C40.9541 12.6722 40.9542 12.6722 40.7449 12.6722L31.7454 17.9044C31.7454 17.9044 31.5361 17.9044 31.5361 17.6951V16.0208C31.5361 15.8115 31.5361 15.8115 31.7454 15.8115L40.7449 10.7886Z" fill="url(#paint21_linear)"/>
<defs>
<linearGradient id="paint0_linear" x1="-0.00946136" y1="48.7374" x2="41.781" y2="48.7374" gradientUnits="userSpaceOnUse">
<stop stop-color="#5752D0"/>
<stop offset="1" stop-color="#7F7CF9"/>
</linearGradient>
<linearGradient id="paint1_linear" x1="-0.00946136" y1="44.3412" x2="41.781" y2="44.3412" gradientUnits="userSpaceOnUse">
<stop stop-color="#5752D0"/>
<stop offset="1" stop-color="#7F7CF9"/>
</linearGradient>
<linearGradient id="paint2_linear" x1="-0.00946136" y1="39.9548" x2="41.781" y2="39.9548" gradientUnits="userSpaceOnUse">
<stop stop-color="#5752D0"/>
<stop offset="1" stop-color="#7F7CF9"/>
</linearGradient>
<linearGradient id="paint3_linear" x1="-0.00946136" y1="35.5741" x2="41.781" y2="35.5741" gradientUnits="userSpaceOnUse">
<stop stop-color="#5752D0"/>
<stop offset="1" stop-color="#7F7CF9"/>
</linearGradient>
<linearGradient id="paint4_linear" x1="-0.00946136" y1="31.1865" x2="41.781" y2="31.1865" gradientUnits="userSpaceOnUse">
<stop stop-color="#5752D0"/>
<stop offset="1" stop-color="#7F7CF9"/>
</linearGradient>
<linearGradient id="paint5_linear" x1="-0.00946136" y1="26.7918" x2="41.781" y2="26.7918" gradientUnits="userSpaceOnUse">
<stop stop-color="#5752D0"/>
<stop offset="1" stop-color="#7F7CF9"/>
</linearGradient>
<linearGradient id="paint6_linear" x1="-0.00946136" y1="22.4073" x2="41.781" y2="22.4073" gradientUnits="userSpaceOnUse">
<stop stop-color="#5752D0"/>
<stop offset="1" stop-color="#7F7CF9"/>
</linearGradient>
<linearGradient id="paint7_linear" x1="-0.00946136" y1="16.5028" x2="41.781" y2="16.5028" gradientUnits="userSpaceOnUse">
<stop stop-color="#5752D0"/>
<stop offset="1" stop-color="#7F7CF9"/>
</linearGradient>
<linearGradient id="paint8_linear" x1="-0.0134378" y1="13.7058" x2="41.781" y2="13.7058" gradientUnits="userSpaceOnUse">
<stop offset="8e-08" stop-color="#C8D6F9"/>
<stop offset="1" stop-color="#BAC1E8"/>
</linearGradient>
<linearGradient id="paint9_linear" x1="0.742871" y1="9.36888" x2="41.0271" y2="9.36888" gradientUnits="userSpaceOnUse">
<stop offset="8e-08" stop-color="#C8D6F9"/>
<stop offset="1" stop-color="#BAC1E8"/>
</linearGradient>
<linearGradient id="paint10_linear" x1="26.7128" y1="51.7312" x2="22.6598" y2="51.7312" gradientUnits="userSpaceOnUse">
<stop stop-color="#FF6279"/>
<stop offset="1" stop-color="#FFAD60"/>
</linearGradient>
<linearGradient id="paint11_linear" x1="21.9965" y1="54.4357" x2="17.9415" y2="54.4357" gradientUnits="userSpaceOnUse">
<stop stop-color="#FF6279"/>
<stop offset="1" stop-color="#FFAD60"/>
</linearGradient>
<linearGradient id="paint12_linear" x1="31.3878" y1="44.5942" x2="27.335" y2="44.5942" gradientUnits="userSpaceOnUse">
<stop stop-color="#FF6279"/>
<stop offset="1" stop-color="#FFAD60"/>
</linearGradient>
<linearGradient id="paint13_linear" x1="33.4625" y1="25.8725" x2="29.4096" y2="25.8725" gradientUnits="userSpaceOnUse">
<stop stop-color="#FF6279"/>
<stop offset="1" stop-color="#FFAD60"/>
</linearGradient>
<linearGradient id="paint14_linear" x1="27.3362" y1="29.4009" x2="23.2833" y2="29.4009" gradientUnits="userSpaceOnUse">
<stop stop-color="#FF6279"/>
<stop offset="1" stop-color="#FFAD60"/>
</linearGradient>
<linearGradient id="paint15_linear" x1="5.33188" y1="40.3807" x2="1.27903" y2="40.3807" gradientUnits="userSpaceOnUse">
<stop stop-color="#FF6279"/>
<stop offset="1" stop-color="#FFAD60"/>
</linearGradient>
<linearGradient id="paint16_linear" x1="8.40836" y1="37.7842" x2="4.35526" y2="37.7842" gradientUnits="userSpaceOnUse">
<stop stop-color="#FF6279"/>
<stop offset="1" stop-color="#FFAD60"/>
</linearGradient>
<linearGradient id="paint17_linear" x1="5.33188" y1="27.2245" x2="1.27903" y2="27.2245" gradientUnits="userSpaceOnUse">
<stop stop-color="#FF6279"/>
<stop offset="1" stop-color="#FFAD60"/>
</linearGradient>
<linearGradient id="paint18_linear" x1="9.00413" y1="55.6648" x2="4.94915" y2="55.6648" gradientUnits="userSpaceOnUse">
<stop stop-color="#FF6279"/>
<stop offset="1" stop-color="#FFAD60"/>
</linearGradient>
<linearGradient id="paint19_linear" x1="9.00413" y1="51.2787" x2="4.94915" y2="51.2787" gradientUnits="userSpaceOnUse">
<stop stop-color="#FF6279"/>
<stop offset="1" stop-color="#FFAD60"/>
</linearGradient>
<linearGradient id="paint20_linear" x1="27.3362" y1="20.6763" x2="23.2833" y2="20.6763" gradientUnits="userSpaceOnUse">
<stop stop-color="#FF6279"/>
<stop offset="1" stop-color="#FFAD60"/>
</linearGradient>
<linearGradient id="paint21_linear" x1="40.821" y1="14.3858" x2="31.5378" y2="14.3858" gradientUnits="userSpaceOnUse">
<stop stop-color="#FF6279"/>
<stop offset="1" stop-color="#FFAD60"/>
</linearGradient>
</defs>
</svg>
