<svg width="83" height="51" viewBox="0 0 83 51" fill="none" xmlns="http://www.w3.org/2000/svg">
<mask id="mask0" mask-type="alpha" maskUnits="userSpaceOnUse" x="44" y="8" width="39" height="23">
<path d="M63.4314 30.9894C73.9414 30.9894 82.4615 25.872 82.4615 19.5594C82.4615 13.2468 73.9414 8.12939 63.4314 8.12939C52.9214 8.12939 44.4014 13.2468 44.4014 19.5594C44.4014 25.872 52.9214 30.9894 63.4314 30.9894Z" fill="url(#paint0_radial)"/>
</mask>
<g mask="url(#mask0)">
<path d="M78.1658 17.1357L78.1718 19.4756C78.1778 21.7736 76.6638 24.0775 73.6238 25.8309C67.5856 29.3138 57.8252 29.3198 51.8289 25.8309C48.8487 24.1015 47.3586 21.8334 47.3527 19.5594L47.3467 17.2195C47.3527 19.4876 48.8428 21.7556 51.8229 23.4911C57.8192 26.9739 67.5796 26.9739 73.6178 23.4911C76.6578 21.7377 78.1718 19.4337 78.1658 17.1357Z" fill="url(#paint1_linear)"/>
<path d="M51.8959 10.8641C57.934 7.38124 67.6884 7.38124 73.6907 10.8641C79.687 14.347 79.657 20.0021 73.6189 23.485C67.5807 26.9679 57.8203 26.9738 51.8241 23.485C45.8218 20.0021 45.8577 14.353 51.8959 10.8641Z" fill="#F2F4F8"/>
<path d="M73.6889 10.8644C73.6889 10.8644 73.8684 10.9781 74.2155 11.1935C74.3831 11.3072 74.6045 11.4269 74.8379 11.6004C75.0713 11.78 75.3346 11.9894 75.6338 12.2168C75.9091 12.4742 76.2203 12.7554 76.5255 13.0905C76.8127 13.4436 77.1418 13.8146 77.3932 14.2814C77.9318 15.1791 78.3327 16.3759 78.1951 17.6924C78.0694 18.997 77.4231 20.3495 76.3938 21.4326C75.3825 22.5278 74.042 23.4493 72.5938 24.1375C69.6495 25.5439 66.1726 26.2141 62.7137 26.244C59.2548 26.2201 55.7719 25.5558 52.8336 24.1435C51.3735 23.4434 50.0569 22.5278 49.0396 21.4207C48.0223 20.3196 47.3939 18.9671 47.2922 17.6565C47.1785 16.34 47.5974 15.1491 48.1479 14.2575C48.4052 13.7907 48.7404 13.4256 49.0276 13.0726C49.3448 12.7434 49.65 12.4562 49.9312 12.2049C50.2305 11.9775 50.4997 11.768 50.7331 11.5885C50.9725 11.4149 51.1879 11.2952 51.3615 11.1875C51.7026 10.9721 51.8881 10.8584 51.8881 10.8584C51.8881 10.8584 51.7086 10.9781 51.3675 11.1995C51.1999 11.3132 50.9845 11.4389 50.7511 11.6124C50.5237 11.7979 50.2604 12.0074 49.9671 12.2408C49.6978 12.4981 49.3926 12.7913 49.0875 13.1205C48.8122 13.4795 48.483 13.8446 48.2377 14.3113C47.717 15.203 47.3341 16.3639 47.4478 17.6386C47.5555 18.9073 48.1719 20.2238 49.1772 21.295C50.1706 22.3662 51.4752 23.2638 52.9294 23.946C55.8377 25.3164 59.2907 25.9508 62.7137 25.9568C66.1367 25.9508 69.5897 25.3105 72.492 23.946C73.9582 23.2578 75.2448 22.3782 76.2562 21.307C77.2735 20.2477 77.9078 18.9432 78.0335 17.6745C78.1711 16.3998 77.8061 15.2329 77.2974 14.3353C77.0581 13.8685 76.7409 13.4975 76.4596 13.1384C76.1604 12.8033 75.8552 12.516 75.5919 12.2527C75.2987 12.0134 75.0354 11.8039 74.814 11.6244C74.5806 11.4449 74.3651 11.3192 74.1976 11.2055C73.8684 10.9841 73.6889 10.8644 73.6889 10.8644Z" fill="#F1F2F2"/>
<path d="M55.8492 12.6895L67.9435 14.7241L62.2524 16.4117L55.8492 12.6895ZM68.3025 15.0293L62.7252 16.687L64.7598 17.8719L68.3025 15.0293ZM68.7693 15.5978L65.442 18.2608L70.2654 21.0615L68.7693 15.5978ZM55.4004 12.9528L58.8653 19.9544L61.8096 16.675L55.4004 12.9528ZM62.2763 16.9443L59.374 20.1818L64.311 18.1292L62.2763 16.9443ZM64.9932 18.5241L60.3853 20.4451L69.8166 21.3308L64.9932 18.5241Z" fill="url(#paint2_linear)"/>
</g>
<mask id="mask1" mask-type="alpha" maskUnits="userSpaceOnUse" x="15" y="28" width="39" height="24">
<path d="M34.0408 51.0002C44.5508 51.0002 53.0709 45.8828 53.0709 39.5702C53.0709 33.2575 44.5508 28.1401 34.0408 28.1401C23.5308 28.1401 15.0107 33.2575 15.0107 39.5702C15.0107 45.8828 23.5308 51.0002 34.0408 51.0002Z" fill="url(#paint3_radial)"/>
</mask>
<g mask="url(#mask1)">
<path d="M48.6189 37.5898L48.6249 39.9297C48.6309 42.2277 47.1169 44.5316 44.0769 46.2851C38.0387 49.7679 28.2783 49.7739 22.282 46.2851C19.3019 44.5556 17.8118 42.2875 17.8058 40.0135L17.7998 37.6736C17.8058 39.9417 19.2959 42.2097 22.2761 43.9452C28.2723 47.4281 38.0327 47.4281 44.0709 43.9452C47.1109 42.1918 48.6249 39.8878 48.6189 37.5898Z" fill="url(#paint4_linear)"/>
<path d="M22.348 31.3241C28.3862 27.8412 38.1406 27.8412 44.1428 31.3241C50.1391 34.8069 50.1091 40.4621 44.071 43.945C38.0328 47.4278 28.2725 47.4338 22.2762 43.945C16.274 40.4621 16.3099 34.8069 22.348 31.3241Z" fill="#F2F4F8"/>
<path d="M44.142 31.3239C44.142 31.3239 44.3216 31.4376 44.6686 31.653C44.8362 31.7667 45.0576 31.8864 45.291 32.0599C45.5244 32.2395 45.7877 32.4489 46.0869 32.6763C46.3622 32.9336 46.6734 33.2149 46.9786 33.55C47.2658 33.9031 47.595 34.2741 47.8463 34.7409C48.3849 35.6385 48.7858 36.8354 48.6482 38.1519C48.5225 39.4565 47.8762 40.809 46.8469 41.8921C45.8356 42.9873 44.4951 43.9088 43.0469 44.597C40.1026 46.0034 36.6257 46.6736 33.1668 46.7035C29.7079 46.6796 26.225 46.0153 23.2867 44.603C21.8266 43.9029 20.51 42.9873 19.4927 41.8802C18.4754 40.779 17.847 39.4266 17.7453 38.116C17.6316 36.7995 18.0505 35.6086 18.601 34.717C18.8584 34.2502 19.1935 33.8851 19.4807 33.5321C19.7979 33.2029 20.1031 32.9157 20.3844 32.6643C20.6836 32.4369 20.9529 32.2275 21.1863 32.048C21.4256 31.8744 21.6411 31.7547 21.8146 31.647C22.1557 31.4316 22.3412 31.3179 22.3412 31.3179C22.3412 31.3179 22.1617 31.4376 21.8206 31.659C21.653 31.7727 21.4376 31.8983 21.2042 32.0719C20.9768 32.2574 20.7135 32.4669 20.4203 32.7002C20.151 32.9576 19.8458 33.2508 19.5406 33.5799C19.2653 33.939 18.9362 34.304 18.6908 34.7708C18.1702 35.6625 17.7872 36.8234 17.9009 38.0981C18.0086 39.3668 18.625 40.6833 19.6303 41.7485C20.6237 42.8197 21.9283 43.7173 23.3825 44.3995C26.2909 45.77 29.7438 46.4043 33.1668 46.4103C36.5898 46.4043 40.0428 45.764 42.9452 44.3995C44.4113 43.7114 45.6979 42.8317 46.7093 41.7605C47.7266 40.7013 48.361 39.3967 48.4866 38.128C48.6243 36.8534 48.2592 35.6864 47.7506 34.7888C47.5112 34.322 47.194 33.951 46.9128 33.5919C46.6135 33.2568 46.3083 32.9695 46.045 32.7062C45.7518 32.4669 45.4885 32.2574 45.2671 32.0779C45.0337 31.8984 44.8183 31.7727 44.6507 31.659C44.3216 31.4435 44.142 31.3239 44.142 31.3239Z" fill="#F1F2F2"/>
<path d="M38.2296 35.8003C37.5294 35.8362 36.5899 36.0696 35.4169 36.4945C36.0752 35.8602 36.3924 35.3335 36.3684 34.9146C36.3445 34.4957 36.0931 34.1487 35.6084 33.8674C35.1536 33.6041 34.5791 33.4305 33.9029 33.3587C33.2207 33.2809 32.5385 33.3228 31.8563 33.4844C31.3356 33.6041 30.6774 33.8734 29.8874 34.2863L28.7684 33.64L27.745 34.2324L28.8461 34.8668L27.9964 35.3575L26.8953 34.7232L25.872 35.3156L26.9731 35.9499L24.334 37.4759L24.6093 37.6315C25.0581 37.3682 25.4112 37.2186 25.6685 37.1707C25.9198 37.1229 26.1472 37.1169 26.3567 37.1588C26.5602 37.2007 26.9372 37.3742 27.4757 37.6914L33.9568 41.4316C34.5013 41.7427 34.8065 41.9582 34.8783 42.0779C34.9501 42.1976 34.9442 42.3292 34.8664 42.4728C34.7886 42.6164 34.5193 42.8199 34.0585 43.0892L34.3338 43.2448L36.9728 41.7188L38.074 42.3531L39.0973 41.7607L37.9962 41.1264L38.8459 40.6357L39.947 41.27L40.9704 40.6775L39.8453 40.0252C40.9644 39.3071 41.6227 38.607 41.7543 37.9248C41.862 37.2904 41.5449 36.7578 40.7908 36.321C40.0787 35.92 39.2229 35.7405 38.2296 35.8003ZM28.6068 35.6627C29.3189 35.2438 29.9114 34.9805 30.3841 34.8787C30.8569 34.777 31.3177 34.7591 31.7785 34.8189C32.2333 34.8847 32.6821 35.0403 33.1249 35.2917C33.5678 35.549 33.849 35.8123 33.9508 36.0756C34.0585 36.3389 34.0226 36.6142 33.849 36.8954C33.6755 37.1767 33.2386 37.5178 32.5385 37.9248L28.6068 35.6627ZM39.1212 38.6728C39.2708 38.966 39.2708 39.2593 39.1152 39.5465C38.9596 39.8397 38.6844 40.0971 38.2894 40.3245C38.0261 40.4741 37.7628 40.5519 37.4935 40.5519C37.2242 40.5519 36.9609 40.4741 36.6976 40.3245L36.3206 40.109L33.1189 38.2599C33.867 37.817 34.5073 37.5358 35.0339 37.4041C35.5606 37.2725 36.1171 37.2545 36.7035 37.3383C37.29 37.4281 37.8166 37.6076 38.2894 37.8769C38.6844 38.1162 38.9656 38.3796 39.1212 38.6728Z" fill="url(#paint5_linear)"/>
</g>
<mask id="mask2" mask-type="alpha" maskUnits="userSpaceOnUse" x="0" y="0" width="39" height="23">
<path d="M19.0301 22.86C29.5401 22.86 38.0601 17.7426 38.0601 11.43C38.0601 5.11739 29.5401 0 19.0301 0C8.52004 0 0 5.11739 0 11.43C0 17.7426 8.52004 22.86 19.0301 22.86Z" fill="url(#paint6_radial)"/>
</mask>
<g mask="url(#mask2)">
<path d="M33.824 8.58789L33.83 10.9278C33.836 13.2257 32.322 15.5297 29.2819 17.2831C23.2438 20.766 13.4834 20.7719 7.48712 17.2831C4.50694 15.5536 3.01686 13.2856 3.01087 11.0115L3.00488 8.67167C3.01087 10.9397 4.50096 13.2078 7.48114 14.9432C13.4774 18.4261 23.2378 18.4261 29.276 14.9432C32.31 13.1898 33.83 10.8859 33.824 8.58789Z" fill="url(#paint7_linear)"/>
<path d="M7.54694 2.31625C13.5851 -1.16661 23.3395 -1.16661 29.3417 2.31625C35.338 5.79911 35.3081 11.4543 29.2699 14.9371C23.2318 18.42 13.4714 18.426 7.47513 14.9371C1.47886 11.4543 1.50879 5.79911 7.54694 2.31625Z" fill="#F2F4F8"/>
<path d="M29.3412 2.31653C29.3412 2.31653 29.5208 2.43023 29.8678 2.64567C30.0354 2.75937 30.2568 2.87905 30.4902 3.05259C30.7236 3.23212 30.9869 3.44158 31.2861 3.66899C31.5614 3.92631 31.8726 4.20757 32.1778 4.54269C32.465 4.89576 32.7942 5.26679 33.0455 5.73357C33.5841 6.63121 33.985 7.82807 33.8474 9.14462C33.7217 10.4492 33.0754 11.8016 32.0461 12.8848C31.0348 13.9799 29.6943 14.9015 28.2461 15.5897C25.3018 16.996 21.825 17.6663 18.366 17.6962C14.9071 17.6722 11.4242 17.008 8.48596 15.5957C7.02579 14.8955 5.70925 13.9799 4.69192 12.8728C3.67459 11.7717 3.04624 10.4193 2.94451 9.10871C2.8308 7.79217 3.2497 6.60129 3.80026 5.70963C4.05758 5.24285 4.3927 4.87781 4.67995 4.52474C4.99712 4.1956 5.30231 3.90836 5.58357 3.65701C5.88279 3.42961 6.15209 3.22016 6.38548 3.04063C6.62485 2.86709 6.84028 2.7474 7.01382 2.63969C7.35492 2.42425 7.54044 2.31055 7.54044 2.31055C7.54044 2.31055 7.36091 2.43023 7.01981 2.65165C6.85225 2.76535 6.63682 2.89102 6.40343 3.06457C6.17603 3.25008 5.91272 3.45953 5.61949 3.69292C5.35019 3.95024 5.04499 4.24348 4.73979 4.57261C4.46452 4.93167 4.13538 5.29672 3.89003 5.76349C3.36939 6.65515 2.98639 7.81611 3.10009 9.09076C3.20781 10.3594 3.82419 11.676 4.82956 12.7412C5.82295 13.8124 7.12753 14.71 8.58171 15.3922C11.4901 16.7626 14.943 17.397 18.366 17.403C21.789 17.397 25.242 16.7567 28.1444 15.3922C29.6105 14.704 30.8971 13.8243 31.9085 12.7532C32.9258 11.6939 33.5602 10.3893 33.6858 9.12068C33.8235 7.84602 33.4584 6.67909 32.9498 5.78144C32.7104 5.31467 32.3932 4.94364 32.112 4.58458C31.8127 4.24946 31.5075 3.96221 31.2442 3.6989C30.951 3.45953 30.6877 3.25008 30.4663 3.07056C30.2329 2.89103 30.0175 2.76535 29.8499 2.65165C29.5208 2.43621 29.3412 2.31653 29.3412 2.31653Z" fill="#F1F2F2"/>
<path d="M15.1229 4.5959C15.4819 4.39244 15.9308 4.23087 16.4514 4.15307C18.0313 3.90771 19.653 4.45228 20.0719 5.36788C20.2814 5.82867 20.1497 6.28946 19.7667 6.67245C18.8511 7.58207 19.0007 7.85735 19.3478 8.1805C19.9043 8.38397 20.3771 8.46775 21.951 7.94113C22.6093 7.71971 23.4171 7.6479 24.2071 7.76758C25.7869 8.01294 26.7205 8.95247 26.2896 9.86807C26.146 10.1673 25.8767 10.4306 25.5176 10.64C24.7935 11.0589 23.7104 11.2505 22.6511 11.0829C21.8612 10.9572 21.2329 10.664 20.8559 10.281C19.9522 9.37137 19.4675 9.30555 18.8152 9.31751C18.6476 9.37137 18.504 9.41925 18.3724 9.49705C18.0552 9.68256 17.8637 9.99374 17.8637 10.7478C17.8637 11.1906 17.5705 11.6275 16.99 11.9626C15.829 12.6328 13.95 12.6328 12.801 11.9626C11.646 11.2923 11.652 10.2032 12.8129 9.53295C13.3934 9.19783 14.1534 9.03027 14.9134 9.03027C16.212 9.03027 16.7506 8.92255 17.0738 8.73704C17.1994 8.66522 17.2952 8.57546 17.379 8.47972C17.4029 8.10271 17.2952 7.82145 15.7273 7.29483C15.069 7.07341 14.5604 6.70836 14.3509 6.25356C14.0637 5.63717 14.3928 5.0148 15.1229 4.5959Z" fill="url(#paint8_linear)"/>
</g>
<defs>
<radialGradient id="paint0_radial" cx="0" cy="0" r="1" gradientUnits="userSpaceOnUse" gradientTransform="translate(63.4337 19.5593) scale(19.0302 11.4314)">
<stop stop-color="white"/>
<stop offset="0.3695" stop-color="#FDFDFD"/>
<stop offset="0.504" stop-color="#F6F6F6"/>
<stop offset="0.6" stop-color="#EAEAEA"/>
<stop offset="0.6779" stop-color="#D9D9D9"/>
<stop offset="0.7446" stop-color="#C3C3C3"/>
<stop offset="0.8038" stop-color="#A8A8A8"/>
<stop offset="0.8573" stop-color="#888888"/>
<stop offset="0.9066" stop-color="#626262"/>
<stop offset="0.9524" stop-color="#373737"/>
<stop offset="0.9931" stop-color="#090909"/>
<stop offset="1"/>
</radialGradient>
<linearGradient id="paint1_linear" x1="47.3453" y1="22.7881" x2="78.1746" y2="22.7881" gradientUnits="userSpaceOnUse">
<stop stop-color="#F5F7FA"/>
<stop offset="1" stop-color="#C3CFE2"/>
</linearGradient>
<linearGradient id="paint2_linear" x1="55.3996" y1="17.0085" x2="70.2629" y2="17.0085" gradientUnits="userSpaceOnUse">
<stop stop-color="#B999F7"/>
<stop offset="1" stop-color="#5522CC"/>
</linearGradient>
<radialGradient id="paint3_radial" cx="0" cy="0" r="1" gradientUnits="userSpaceOnUse" gradientTransform="translate(34.0429 39.5694) scale(19.0303 11.4315)">
<stop stop-color="white"/>
<stop offset="0.3695" stop-color="#FDFDFD"/>
<stop offset="0.504" stop-color="#F6F6F6"/>
<stop offset="0.6" stop-color="#EAEAEA"/>
<stop offset="0.6779" stop-color="#D9D9D9"/>
<stop offset="0.7446" stop-color="#C3C3C3"/>
<stop offset="0.8038" stop-color="#A8A8A8"/>
<stop offset="0.8573" stop-color="#888888"/>
<stop offset="0.9066" stop-color="#626262"/>
<stop offset="0.9524" stop-color="#373737"/>
<stop offset="0.9931" stop-color="#090909"/>
<stop offset="1"/>
</radialGradient>
<linearGradient id="paint4_linear" x1="17.7982" y1="43.245" x2="48.6275" y2="43.245" gradientUnits="userSpaceOnUse">
<stop stop-color="#F5F7FA"/>
<stop offset="1" stop-color="#C3CFE2"/>
</linearGradient>
<linearGradient id="paint5_linear" x1="24.3336" y1="38.2829" x2="41.7769" y2="38.2829" gradientUnits="userSpaceOnUse">
<stop stop-color="#B999F7"/>
<stop offset="1" stop-color="#5522CC"/>
</linearGradient>
<radialGradient id="paint6_radial" cx="0" cy="0" r="1" gradientUnits="userSpaceOnUse" gradientTransform="translate(19.0322 11.429) scale(19.0302 11.4315)">
<stop stop-color="white"/>
<stop offset="0.3695" stop-color="#FDFDFD"/>
<stop offset="0.504" stop-color="#F6F6F6"/>
<stop offset="0.6" stop-color="#EAEAEA"/>
<stop offset="0.6779" stop-color="#D9D9D9"/>
<stop offset="0.7446" stop-color="#C3C3C3"/>
<stop offset="0.8038" stop-color="#A8A8A8"/>
<stop offset="0.8573" stop-color="#888888"/>
<stop offset="0.9066" stop-color="#626262"/>
<stop offset="0.9524" stop-color="#373737"/>
<stop offset="0.9931" stop-color="#090909"/>
<stop offset="1"/>
</radialGradient>
<linearGradient id="paint7_linear" x1="2.9992" y1="14.2397" x2="33.8284" y2="14.2397" gradientUnits="userSpaceOnUse">
<stop stop-color="#F5F7FA"/>
<stop offset="1" stop-color="#C3CFE2"/>
</linearGradient>
<linearGradient id="paint8_linear" x1="11.9343" y1="8.27709" x2="26.3925" y2="8.27709" gradientUnits="userSpaceOnUse">
<stop stop-color="#B999F7"/>
<stop offset="1" stop-color="#5522CC"/>
</linearGradient>
</defs>
</svg>
