<svg width="339" height="148" viewBox="0 0 339 148" fill="none" xmlns="http://www.w3.org/2000/svg">
<mask id="mask0" mask-type="alpha" maskUnits="userSpaceOnUse" x="0" y="22" width="102" height="62">
<path d="M50.5297 83.8669C78.4365 83.8669 101.059 70.1926 101.059 53.3244C101.059 36.4563 78.4365 22.782 50.5297 22.782C22.6229 22.782 0 36.4563 0 53.3244C0 70.1926 22.6229 83.8669 50.5297 83.8669Z" fill="url(#paint0_radial)"/>
</mask>
<g mask="url(#mask0)">
<g filter="url(#filter0_f)">
<path d="M57.2843 70.8914C71.4982 70.8914 83.0208 65.6546 83.0208 59.1947C83.0208 52.7347 71.4982 47.4979 57.2843 47.4979C43.0705 47.4979 31.5479 52.7347 31.5479 59.1947C31.5479 65.6546 43.0705 70.8914 57.2843 70.8914Z" fill="#020E14"/>
</g>
<path d="M89.8102 45.7272L89.8261 51.9796C89.842 58.1201 85.8219 64.2766 77.7499 68.9619C61.717 78.2686 35.8007 78.2845 19.879 68.9619C11.9659 64.3405 8.00933 58.28 7.99344 52.2035L7.97754 45.951C7.99343 52.0116 11.95 58.0721 19.8632 62.7095C35.7848 72.0161 61.7011 72.0161 77.734 62.7095C85.7901 58.0241 89.8261 51.8677 89.8102 45.7272Z" fill="url(#paint1_linear)"/>
<path d="M20.0345 28.9698C36.0674 19.6631 61.9678 19.6631 77.9054 28.9698C93.827 38.2765 93.7475 53.3878 77.7147 62.6945C61.6818 72.0011 35.7655 72.0171 19.8439 62.6945C3.92223 53.3878 4.00169 38.2765 20.0345 28.9698Z" fill="#F2F4F8"/>
<path d="M77.9074 28.9704C77.9074 28.9704 78.3841 29.2743 79.3057 29.85C79.7506 30.1538 80.3385 30.4736 80.9582 30.9373C81.5779 31.417 82.2771 31.9767 83.0716 32.5844C83.8025 33.272 84.6288 34.0236 85.4392 34.919C86.2019 35.8625 87.0758 36.8539 87.7432 38.1012C89.1733 40.4998 90.2379 43.698 89.8724 47.216C89.5388 50.702 87.8226 54.3159 85.0896 57.2103C82.4042 60.1366 78.8449 62.5992 74.9995 64.4381C67.1817 68.196 57.9497 69.9869 48.7654 70.0669C39.5811 70.0029 30.3332 68.2279 22.5313 64.4541C18.6542 62.5832 15.1584 60.1366 12.4571 57.1783C9.75586 54.236 8.08742 50.622 7.8173 47.1201C7.51539 43.6021 8.62767 40.4199 10.0895 38.0372C10.7728 36.79 11.6626 35.8145 12.4253 34.8711C13.2675 33.9916 14.0779 33.224 14.8247 32.5524C15.6192 31.9448 16.3343 31.3851 16.954 30.9054C17.5896 30.4416 18.1616 30.1218 18.6224 29.834C19.5281 29.2583 20.0207 28.9545 20.0207 28.9545C20.0207 28.9545 19.544 29.2743 18.6383 29.8659C18.1934 30.1698 17.6213 30.5056 17.0016 30.9693C16.3978 31.465 15.6987 32.0247 14.9201 32.6483C14.205 33.336 13.3946 34.1195 12.5843 34.999C11.8533 35.9584 10.9794 36.9339 10.3279 38.1812C8.94548 40.5638 7.92852 43.666 8.23042 47.0721C8.51644 50.4621 10.1531 53.9801 12.8226 56.8265C15.4603 59.6888 18.9243 62.0875 22.7855 63.9104C30.508 67.5723 39.6764 69.2673 48.7654 69.2833C57.8544 69.2673 67.0229 67.5563 74.7294 63.9104C78.6224 62.0715 82.0387 59.7208 84.7241 56.8585C87.4254 54.0281 89.1097 50.5421 89.4434 47.152C89.8089 43.746 88.8396 40.6278 87.489 38.2292C86.8534 36.9819 86.0112 35.9904 85.2644 35.031C84.4699 34.1355 83.6595 33.3679 82.9604 32.6643C82.1818 32.0247 81.4826 31.465 80.8947 30.9853C80.275 30.5056 79.7029 30.1698 79.258 29.8659C78.3841 29.2903 77.9074 28.9704 77.9074 28.9704Z" fill="#F1F2F2"/>
<path d="M40.1527 35.0632C41.1061 34.5195 42.2978 34.0878 43.6802 33.8799C47.8752 33.2243 52.1813 34.6795 53.2936 37.1261C53.8498 38.3574 53.5002 39.5886 52.4832 40.612C50.0521 43.0427 50.4493 43.7782 51.3709 44.6417C52.8487 45.1854 54.104 45.4093 58.283 44.0021C60.0309 43.4105 62.1761 43.2186 64.2735 43.5384C68.4685 44.194 70.9473 46.7045 69.8032 49.1511C69.4218 49.9507 68.7068 50.6543 67.7534 51.214C65.8307 52.3333 62.9547 52.845 60.1422 52.3973C58.0447 52.0615 56.3763 51.2779 55.3752 50.2545C52.9758 47.8239 51.6887 47.648 49.9567 47.68C49.5118 47.8239 49.1305 47.9518 48.7809 48.1597C47.9387 48.6554 47.4303 49.4869 47.4303 51.5018C47.4303 52.6851 46.6517 53.8524 45.1103 54.7479C42.0277 56.5389 37.0383 56.5389 33.9874 54.7479C30.9207 52.957 30.9366 50.0466 34.0192 48.2557C35.5605 47.3602 37.5785 46.9124 39.5966 46.9124C43.0447 46.9124 44.4748 46.6246 45.3328 46.1289C45.6665 45.937 45.9207 45.6971 46.1432 45.4413C46.2067 44.4339 45.9207 43.6823 41.7576 42.2751C40.0097 41.6834 38.6591 40.708 38.1029 39.4927C37.3402 37.8456 38.2141 36.1826 40.1527 35.0632Z" fill="url(#paint2_linear)"/>
</g>
<mask id="mask1" mask-type="alpha" maskUnits="userSpaceOnUse" x="101" y="86" width="102" height="62">
<path d="M151.816 147.363C179.723 147.363 202.346 133.689 202.346 116.821C202.346 99.9528 179.723 86.2784 151.816 86.2784C123.909 86.2784 101.286 99.9528 101.286 116.821C101.286 133.689 123.909 147.363 151.816 147.363Z" fill="url(#paint3_radial)"/>
</mask>
<g mask="url(#mask1)">
<g filter="url(#filter1_f)">
<path d="M155.25 133.066C169.464 133.066 180.987 127.829 180.987 121.369C180.987 114.909 169.464 109.672 155.25 109.672C141.036 109.672 129.514 114.909 129.514 121.369C129.514 127.829 141.036 133.066 155.25 133.066Z" fill="#020E14"/>
</g>
<path d="M190.526 111.53L190.542 117.782C190.558 123.923 186.538 130.079 178.466 134.764C162.433 144.071 136.516 144.087 120.595 134.764C112.682 130.143 108.725 124.083 108.709 118.006L108.693 111.754C108.709 117.814 112.666 123.875 120.579 128.512C136.501 137.819 162.417 137.819 178.45 128.512C186.522 123.827 190.542 117.67 190.526 111.53Z" fill="url(#paint4_linear)"/>
<path d="M120.771 94.7869C136.804 85.4802 162.704 85.4802 178.642 94.7869C194.563 104.094 194.484 119.205 178.451 128.512C162.418 137.818 136.502 137.834 120.58 128.512C104.643 119.205 104.738 104.094 120.771 94.7869Z" fill="#F2F4F8"/>
<path d="M178.64 94.788C178.64 94.788 179.117 95.0918 180.038 95.6675C180.483 95.9713 181.071 96.2911 181.691 96.7548C182.31 97.2346 183.01 97.7942 183.804 98.4019C184.535 99.0895 185.361 99.8411 186.172 100.737C186.934 101.68 187.808 102.671 188.476 103.919C189.906 106.317 190.97 109.516 190.605 113.033C190.271 116.519 188.555 120.133 185.822 123.028C183.137 125.954 179.577 128.417 175.732 130.256C167.914 134.013 158.682 135.804 149.498 135.884C140.314 135.82 131.066 134.045 123.264 130.272C119.387 128.401 115.891 125.954 113.19 122.996C110.488 120.053 108.82 116.44 108.55 112.938C108.248 109.42 109.36 106.237 110.822 103.855C111.505 102.607 112.395 101.632 113.158 100.689C114 99.8091 114.81 99.0415 115.557 98.3699C116.352 97.7623 117.067 97.2026 117.686 96.7229C118.322 96.2591 118.894 95.9393 119.355 95.6515C120.261 95.0758 120.753 94.772 120.753 94.772C120.753 94.772 120.276 95.0918 119.371 95.6834C118.926 95.9873 118.354 96.3231 117.734 96.7868C117.13 97.2825 116.431 97.8422 115.652 98.4659C114.937 99.1535 114.127 99.937 113.317 100.817C112.586 101.776 111.712 102.751 111.06 103.999C109.678 106.381 108.661 109.484 108.963 112.89C109.249 116.28 110.886 119.798 113.555 122.644C116.193 125.506 119.657 127.905 123.518 129.728C131.24 133.39 140.409 135.085 149.498 135.101C158.587 135.085 167.755 133.374 175.462 129.728C179.355 127.889 182.771 125.538 185.457 122.676C188.158 119.846 189.842 116.36 190.176 112.97C190.541 109.563 189.572 106.445 188.221 104.047C187.586 102.799 186.744 101.808 185.997 100.848C185.202 99.953 184.392 99.1854 183.693 98.4818C182.914 97.8422 182.215 97.2825 181.627 96.8028C181.007 96.3231 180.435 95.9873 179.99 95.6834C179.117 95.1078 178.64 94.788 178.64 94.788Z" fill="#F1F2F2"/>
<path d="M162.94 106.749C161.081 106.845 158.586 107.468 155.472 108.604C157.22 106.909 158.062 105.501 157.998 104.382C157.935 103.263 157.268 102.335 155.98 101.584C154.773 100.88 153.247 100.416 151.452 100.224C149.64 100.017 147.829 100.128 146.018 100.56C144.635 100.88 142.887 101.6 140.79 102.703L137.818 100.976L135.101 102.559L138.025 104.254L135.769 105.565L132.845 103.87L130.128 105.453L133.051 107.148L126.044 111.226L126.775 111.642C127.967 110.938 128.904 110.538 129.587 110.411C130.255 110.283 130.859 110.267 131.415 110.379C131.955 110.491 132.956 110.954 134.386 111.802L151.595 121.796C153.041 122.628 153.851 123.203 154.042 123.523C154.233 123.843 154.217 124.195 154.01 124.578C153.804 124.962 153.089 125.506 151.865 126.226L152.596 126.641L159.603 122.564L162.527 124.259L165.244 122.676L162.321 120.98L164.577 119.669L167.501 121.364L170.218 119.781L167.231 118.038C170.202 116.119 171.95 114.248 172.299 112.425C172.585 110.73 171.743 109.307 169.741 108.14C167.85 107.068 165.578 106.589 162.94 106.749ZM137.389 106.381C139.28 105.261 140.853 104.558 142.109 104.286C143.364 104.014 144.587 103.966 145.811 104.126C147.019 104.302 148.21 104.718 149.386 105.389C150.562 106.077 151.309 106.781 151.579 107.484C151.865 108.188 151.77 108.923 151.309 109.675C150.848 110.427 149.688 111.338 147.829 112.425L137.389 106.381ZM165.308 114.424C165.705 115.208 165.705 115.991 165.292 116.759C164.879 117.542 164.148 118.23 163.099 118.838C162.4 119.237 161.701 119.445 160.986 119.445C160.271 119.445 159.572 119.237 158.872 118.838L157.871 118.262L149.37 113.321C151.357 112.138 153.057 111.386 154.455 111.034C155.853 110.682 157.331 110.634 158.888 110.858C160.446 111.098 161.844 111.578 163.099 112.297C164.148 112.937 164.895 113.641 165.308 114.424Z" fill="url(#paint5_linear)"/>
</g>
<mask id="mask2" mask-type="alpha" maskUnits="userSpaceOnUse" x="136" y="0" width="102" height="62">
<path d="M186.683 61.0848C214.59 61.0848 237.213 47.4105 237.213 30.5424C237.213 13.6743 214.59 0 186.683 0C158.776 0 136.153 13.6743 136.153 30.5424C136.153 47.4105 158.776 61.0848 186.683 61.0848Z" fill="url(#paint6_radial)"/>
</mask>
<g mask="url(#mask2)">
<g filter="url(#filter2_f)">
<path d="M188.457 45.1169C202.671 45.1169 214.194 39.8801 214.194 33.4201C214.194 26.9602 202.671 21.7233 188.457 21.7233C174.243 21.7233 162.721 26.9602 162.721 33.4201C162.721 39.8801 174.243 45.1169 188.457 45.1169Z" fill="#020E14"/>
</g>
<path d="M225.807 24.0665L225.823 30.3189C225.839 36.4594 221.819 42.6158 213.747 47.3012C197.714 56.6078 171.798 56.6238 155.876 47.3012C147.963 42.6798 144.006 36.6193 143.99 30.5428L143.975 24.2904C143.99 30.3509 147.947 36.4114 155.86 41.0487C171.782 50.3554 197.698 50.3554 213.731 41.0487C221.803 36.3634 225.823 30.2069 225.807 24.0665Z" fill="url(#paint7_linear)"/>
<path d="M156.05 7.30849C172.083 -1.99817 197.984 -1.99817 213.921 7.30849C229.843 16.6152 229.763 31.7265 213.73 41.0331C197.698 50.3398 171.781 50.3558 155.86 41.0331C139.922 31.7265 140.017 16.6311 156.05 7.30849Z" fill="#F2F4F8"/>
<path d="M213.919 7.30916C213.919 7.30916 214.396 7.61296 215.317 8.18863C215.762 8.49246 216.35 8.81226 216.97 9.276C217.59 9.75572 218.289 10.3154 219.083 10.923C219.814 11.6107 220.641 12.3622 221.451 13.2577C222.214 14.2011 223.088 15.1926 223.755 16.4399C225.185 18.8385 226.25 22.0366 225.884 25.5546C225.55 29.0406 223.834 32.6545 221.101 35.5489C218.416 38.4752 214.857 40.9378 211.011 42.7767C203.193 46.5346 193.962 48.3255 184.777 48.4055C175.593 48.3415 166.345 46.5665 158.543 42.7927C154.666 40.9218 151.17 38.4752 148.469 35.5169C145.768 32.5746 144.099 28.9607 143.829 25.4587C143.527 21.9407 144.639 18.7585 146.101 16.3759C146.785 15.1286 147.674 14.1532 148.437 13.2097C149.279 12.3302 150.09 11.5627 150.836 10.8911C151.631 10.2834 152.346 9.72376 152.966 9.24403C153.601 8.7803 154.173 8.46046 154.634 8.17263C155.54 7.59696 156.032 7.29315 156.032 7.29315C156.032 7.29315 155.556 7.61298 154.65 8.20464C154.205 8.50846 153.633 8.84427 153.013 9.30801C152.41 9.80372 151.71 10.3634 150.932 10.987C150.217 11.6746 149.406 12.4582 148.596 13.3377C147.865 14.2971 146.991 15.2725 146.34 16.5198C144.957 18.9025 143.94 22.0047 144.242 25.4107C144.528 28.8008 146.165 32.3188 148.834 35.1811C151.472 38.0435 154.936 40.4421 158.797 42.265C166.52 45.9269 175.688 47.6219 184.777 47.6379C193.866 47.6219 203.035 45.9109 210.741 42.265C214.634 40.4261 218.05 38.0754 220.736 35.2131C223.437 32.3827 225.121 28.8967 225.455 25.5066C225.821 22.1006 224.851 18.9824 223.501 16.5838C222.865 15.3365 222.023 14.3451 221.276 13.3856C220.482 12.4902 219.671 11.7226 218.972 11.019C218.193 10.3794 217.494 9.8197 216.906 9.33997C216.287 8.86025 215.715 8.52442 215.27 8.2206C214.396 7.62894 213.919 7.30916 213.919 7.30916Z" fill="#F1F2F2"/>
<path d="M166.55 12.1846L198.664 17.6215L183.552 22.1309L166.55 12.1846ZM199.617 18.437L184.808 22.8665L190.21 26.0327L199.617 18.437ZM200.856 19.9561L192.022 27.0721L204.829 34.5557L200.856 19.9561ZM165.358 12.8882L174.559 31.5974L182.376 22.8345L165.358 12.8882ZM183.616 23.5541L175.909 32.2051L189.018 26.7203L183.616 23.5541ZM190.83 27.7757L178.595 32.9087L203.637 35.2753L190.83 27.7757Z" fill="url(#paint8_linear)"/>
</g>
<mask id="mask3" mask-type="alpha" maskUnits="userSpaceOnUse" x="237" y="69" width="102" height="62">
<path d="M287.97 130.653C315.877 130.653 338.5 116.979 338.5 100.111C338.5 83.2428 315.877 69.5685 287.97 69.5685C260.063 69.5685 237.44 83.2428 237.44 100.111C237.44 116.979 260.063 130.653 287.97 130.653Z" fill="url(#paint9_radial)"/>
</mask>
<g mask="url(#mask3)">
<g filter="url(#filter3_f)">
<path d="M291.402 118.027C305.615 118.027 317.138 112.79 317.138 106.33C317.138 99.8698 305.615 94.6329 291.402 94.6329C277.188 94.6329 265.665 99.8698 265.665 106.33C265.665 112.79 277.188 118.027 291.402 118.027Z" fill="#020E14"/>
</g>
<path d="M326.393 94.499L326.409 100.751C326.425 106.892 322.405 113.048 314.333 117.734C298.3 127.04 272.384 127.056 256.462 117.734C248.549 113.112 244.592 107.052 244.576 100.975L244.561 94.7229C244.576 100.783 248.533 106.844 256.446 111.481C272.368 120.788 298.284 120.788 314.317 111.481C322.389 106.796 326.409 100.655 326.393 94.499Z" fill="url(#paint10_linear)"/>
<path d="M256.634 77.7567C272.667 68.45 298.568 68.45 314.505 77.7567C330.427 87.0633 330.347 102.175 314.314 111.481C298.282 120.788 272.365 120.804 256.444 111.481C240.506 102.175 240.601 87.0633 256.634 77.7567Z" fill="#F2F4F8"/>
<path d="M314.505 77.7566C314.505 77.7566 314.982 78.0604 315.903 78.6361C316.348 78.9399 316.936 79.2597 317.556 79.7235C318.176 80.2032 318.875 80.7629 319.669 81.3705C320.4 82.0581 321.226 82.8097 322.037 83.7052C322.8 84.6486 323.674 85.6401 324.341 86.8873C325.771 89.286 326.836 92.4841 326.47 96.0021C326.136 99.4881 324.42 103.102 321.687 105.996C319.002 108.923 315.443 111.385 311.597 113.224C303.779 116.982 294.547 118.773 285.363 118.853C276.179 118.789 266.931 117.014 259.129 113.24C255.252 111.369 251.756 108.923 249.055 105.964C246.353 103.022 244.685 99.4081 244.415 95.9062C244.113 92.3882 245.225 89.206 246.687 86.8234C247.37 85.5761 248.26 84.6007 249.023 83.6572C249.865 82.7777 250.676 82.0101 251.422 81.3385C252.217 80.7309 252.932 80.1712 253.552 79.6915C254.187 79.2277 254.759 78.9079 255.22 78.6201C256.126 78.0444 256.618 77.7406 256.618 77.7406C256.618 77.7406 256.142 78.0604 255.236 78.6521C254.791 78.9559 254.219 79.2917 253.599 79.7554C252.995 80.2511 252.296 80.8108 251.518 81.4345C250.803 82.1221 249.992 82.9056 249.182 83.7851C248.451 84.7446 247.577 85.72 246.926 86.9673C245.543 89.3499 244.526 92.4521 244.828 95.8582C245.114 99.2482 246.751 102.766 249.42 105.629C252.058 108.491 255.522 110.89 259.383 112.712C267.106 116.374 276.274 118.069 285.363 118.085C294.452 118.069 303.621 116.358 311.327 112.712C315.22 110.874 318.636 108.523 321.322 105.661C324.023 102.83 325.707 99.3442 326.041 95.9541C326.407 92.5481 325.437 89.4299 324.087 87.0313C323.451 85.784 322.609 84.7925 321.862 83.8331C321.068 82.9376 320.257 82.1701 319.558 81.4665C318.779 80.8268 318.08 80.2671 317.492 79.7874C316.873 79.3077 316.301 78.9719 315.856 78.6681C314.982 78.0764 314.505 77.7566 314.505 77.7566Z" fill="#F1F2F2"/>
<path d="M281.47 94.3721L285.426 98.034L272.063 105.79L268.106 102.128L281.47 94.3721ZM266.708 92.4213L270.665 96.0832L290.336 84.6497L300.347 93.8924L280.675 105.326L284.632 108.988L306.464 96.307C308.292 95.2516 308.609 93.6046 307.243 92.3253L295.294 81.2917C293.419 79.5647 289.272 79.2928 286.793 80.748L266.708 92.4213Z" fill="url(#paint11_linear)"/>
</g>
<defs>
<filter id="filter0_f" x="21.5479" y="37.4979" width="71.473" height="43.3936" filterUnits="userSpaceOnUse" color-interpolation-filters="sRGB">
<feFlood flood-opacity="0" result="BackgroundImageFix"/>
<feBlend mode="normal" in="SourceGraphic" in2="BackgroundImageFix" result="shape"/>
<feGaussianBlur stdDeviation="5" result="effect1_foregroundBlur"/>
</filter>
<filter id="filter1_f" x="119.514" y="99.6724" width="71.473" height="43.3936" filterUnits="userSpaceOnUse" color-interpolation-filters="sRGB">
<feFlood flood-opacity="0" result="BackgroundImageFix"/>
<feBlend mode="normal" in="SourceGraphic" in2="BackgroundImageFix" result="shape"/>
<feGaussianBlur stdDeviation="5" result="effect1_foregroundBlur"/>
</filter>
<filter id="filter2_f" x="152.721" y="11.7233" width="71.473" height="43.3936" filterUnits="userSpaceOnUse" color-interpolation-filters="sRGB">
<feFlood flood-opacity="0" result="BackgroundImageFix"/>
<feBlend mode="normal" in="SourceGraphic" in2="BackgroundImageFix" result="shape"/>
<feGaussianBlur stdDeviation="5" result="effect1_foregroundBlur"/>
</filter>
<filter id="filter3_f" x="255.665" y="84.6329" width="71.473" height="43.3936" filterUnits="userSpaceOnUse" color-interpolation-filters="sRGB">
<feFlood flood-opacity="0" result="BackgroundImageFix"/>
<feBlend mode="normal" in="SourceGraphic" in2="BackgroundImageFix" result="shape"/>
<feGaussianBlur stdDeviation="5" result="effect1_foregroundBlur"/>
</filter>
<radialGradient id="paint0_radial" cx="0" cy="0" r="1" gradientUnits="userSpaceOnUse" gradientTransform="translate(50.5353 53.3217) scale(50.5302 30.5464)">
<stop stop-color="white"/>
<stop offset="0.3695" stop-color="#FDFDFD"/>
<stop offset="0.504" stop-color="#F6F6F6"/>
<stop offset="0.6" stop-color="#EAEAEA"/>
<stop offset="0.6779" stop-color="#D9D9D9"/>
<stop offset="0.7446" stop-color="#C3C3C3"/>
<stop offset="0.8038" stop-color="#A8A8A8"/>
<stop offset="0.8573" stop-color="#888888"/>
<stop offset="0.9066" stop-color="#626262"/>
<stop offset="0.9524" stop-color="#373737"/>
<stop offset="0.9931" stop-color="#090909"/>
<stop offset="1"/>
</radialGradient>
<linearGradient id="paint1_linear" x1="7.96244" y1="60.8294" x2="89.822" y2="60.8294" gradientUnits="userSpaceOnUse">
<stop stop-color="#F5F7FA"/>
<stop offset="1" stop-color="#C3CFE2"/>
</linearGradient>
<linearGradient id="paint2_linear" x1="31.6861" y1="44.8998" x2="70.0763" y2="44.8998" gradientUnits="userSpaceOnUse">
<stop stop-color="#0295FF"/>
<stop offset="1" stop-color="#4048FF"/>
</linearGradient>
<radialGradient id="paint3_radial" cx="0" cy="0" r="1" gradientUnits="userSpaceOnUse" gradientTransform="translate(151.821 116.819) scale(50.5302 30.5464)">
<stop stop-color="white"/>
<stop offset="0.3695" stop-color="#FDFDFD"/>
<stop offset="0.504" stop-color="#F6F6F6"/>
<stop offset="0.6" stop-color="#EAEAEA"/>
<stop offset="0.6779" stop-color="#D9D9D9"/>
<stop offset="0.7446" stop-color="#C3C3C3"/>
<stop offset="0.8038" stop-color="#A8A8A8"/>
<stop offset="0.8573" stop-color="#888888"/>
<stop offset="0.9066" stop-color="#626262"/>
<stop offset="0.9524" stop-color="#373737"/>
<stop offset="0.9931" stop-color="#090909"/>
<stop offset="1"/>
</radialGradient>
<linearGradient id="paint4_linear" x1="108.689" y1="126.641" x2="190.549" y2="126.641" gradientUnits="userSpaceOnUse">
<stop stop-color="#F5F7FA"/>
<stop offset="1" stop-color="#C3CFE2"/>
</linearGradient>
<linearGradient id="paint5_linear" x1="126.03" y1="113.374" x2="172.347" y2="113.374" gradientUnits="userSpaceOnUse">
<stop stop-color="#0295FF"/>
<stop offset="1" stop-color="#4048FF"/>
</linearGradient>
<radialGradient id="paint6_radial" cx="0" cy="0" r="1" gradientUnits="userSpaceOnUse" gradientTransform="translate(186.689 30.5422) scale(50.5302 30.5463)">
<stop stop-color="white"/>
<stop offset="0.3695" stop-color="#FDFDFD"/>
<stop offset="0.504" stop-color="#F6F6F6"/>
<stop offset="0.6" stop-color="#EAEAEA"/>
<stop offset="0.6779" stop-color="#D9D9D9"/>
<stop offset="0.7446" stop-color="#C3C3C3"/>
<stop offset="0.8038" stop-color="#A8A8A8"/>
<stop offset="0.8573" stop-color="#888888"/>
<stop offset="0.9066" stop-color="#626262"/>
<stop offset="0.9524" stop-color="#373737"/>
<stop offset="0.9931" stop-color="#090909"/>
<stop offset="1"/>
</radialGradient>
<linearGradient id="paint7_linear" x1="143.971" y1="39.1703" x2="225.831" y2="39.1703" gradientUnits="userSpaceOnUse">
<stop stop-color="#F5F7FA"/>
<stop offset="1" stop-color="#C3CFE2"/>
</linearGradient>
<linearGradient id="paint8_linear" x1="165.347" y1="23.7227" x2="204.823" y2="23.7227" gradientUnits="userSpaceOnUse">
<stop stop-color="#0295FF"/>
<stop offset="1" stop-color="#4048FF"/>
</linearGradient>
<radialGradient id="paint9_radial" cx="0" cy="0" r="1" gradientUnits="userSpaceOnUse" gradientTransform="translate(287.977 100.11) scale(50.5302 30.5463)">
<stop stop-color="white"/>
<stop offset="0.3695" stop-color="#FDFDFD"/>
<stop offset="0.504" stop-color="#F6F6F6"/>
<stop offset="0.6" stop-color="#EAEAEA"/>
<stop offset="0.6779" stop-color="#D9D9D9"/>
<stop offset="0.7446" stop-color="#C3C3C3"/>
<stop offset="0.8038" stop-color="#A8A8A8"/>
<stop offset="0.8573" stop-color="#888888"/>
<stop offset="0.9066" stop-color="#626262"/>
<stop offset="0.9524" stop-color="#373737"/>
<stop offset="0.9931" stop-color="#090909"/>
<stop offset="1"/>
</radialGradient>
<linearGradient id="paint10_linear" x1="244.556" y1="109.614" x2="326.416" y2="109.614" gradientUnits="userSpaceOnUse">
<stop stop-color="#F5F7FA"/>
<stop offset="1" stop-color="#C3CFE2"/>
</linearGradient>
<linearGradient id="paint11_linear" x1="266.696" y1="94.3881" x2="308.08" y2="94.3881" gradientUnits="userSpaceOnUse">
<stop stop-color="#0295FF"/>
<stop offset="1" stop-color="#4048FF"/>
</linearGradient>
</defs>
</svg>
