<svg width="46" height="65" viewBox="0 0 46 65" fill="none" xmlns="http://www.w3.org/2000/svg">
<path d="M45.9126 49.1289C45.9126 49.4094 45.7256 49.6899 45.3516 49.9023L24.3415 62.0308C23.602 62.4557 22.4121 62.4557 21.6727 62.0308L0.79854 49.9023C0.433072 49.6899 0.254593 49.4094 0.246094 49.1374L0.254575 50.9817C0.254575 51.2622 0.44158 51.5342 0.807047 51.7467L21.6812 63.8751C22.4121 64.3001 23.6106 64.3001 24.35 63.8751L45.3601 51.7467C45.7341 51.5342 45.9211 51.2537 45.9211 50.9732L45.9126 49.1289Z" fill="url(#paint0_linear)"/>
<path d="M21.8158 36.2352C22.5553 35.8103 23.7452 35.8103 24.4846 36.2352L45.3588 48.3637C46.0898 48.7886 46.0898 49.4771 45.3503 49.9105L24.3401 62.039C23.6007 62.4639 22.4108 62.4639 21.6714 62.039L0.797141 49.9105C0.0662037 49.4856 0.066212 48.7971 0.805649 48.3637L21.8158 36.2352Z" fill="url(#paint1_linear)"/>
<path d="M45.3506 49.9106C45.3506 49.9106 42.6054 51.551 38.4833 54.0073C36.418 55.2227 34.0042 56.6421 31.4119 58.1634C30.1115 58.9199 28.7771 59.6933 27.4172 60.4837C26.7373 60.8832 26.0489 61.2742 25.3604 61.6821L24.315 62.2856C23.907 62.4811 23.4906 62.5661 23.0656 62.5746C22.6407 62.5831 22.2157 62.5151 21.8077 62.3451C21.3997 62.1496 21.1023 61.9456 20.7453 61.7416C20.0569 61.3422 19.3769 60.9427 18.697 60.5432C17.3371 59.7443 16.0027 58.9624 14.7023 58.2059C12.1186 56.6761 9.71328 55.2567 7.64797 54.0328C3.53433 51.5595 0.789062 49.9106 0.789062 49.9106C0.789062 49.9106 3.57683 51.4745 7.75846 53.8288C9.84078 55.0187 12.2716 56.4041 14.8808 57.8915C16.1812 58.6394 17.5241 59.4128 18.884 60.2033C19.5639 60.5942 20.2524 60.9937 20.9408 61.3932C21.2808 61.5801 21.6463 61.8181 21.9607 61.9626C22.2922 62.1071 22.6746 62.1581 23.0486 62.1496C23.4226 62.1496 23.805 62.0646 24.1195 61.9201L25.1564 61.3337C25.8448 60.9342 26.5333 60.5432 27.2218 60.1523C28.5901 59.3703 29.933 58.5969 31.2334 57.849C33.8427 56.3701 36.2735 54.9847 38.3643 53.8033C42.5544 51.466 45.3506 49.9106 45.3506 49.9106Z" fill="#F1F2F2"/>
<path d="M45.9127 43.1709C45.9127 43.4514 45.7257 43.7318 45.3517 43.9443L24.3415 56.0728C23.6021 56.4977 22.4122 56.4977 21.6728 56.0728L0.798541 43.9443C0.433073 43.7318 0.254593 43.4514 0.246094 43.1794L0.254575 45.0237C0.254575 45.3042 0.44158 45.5762 0.807049 45.7887L21.6813 57.9171C22.4122 58.3421 23.6106 58.3421 24.35 57.9171L45.3602 45.7887C45.7342 45.5762 45.9212 45.2957 45.9212 45.0152L45.9127 43.1709Z" fill="url(#paint2_linear)"/>
<path d="M21.8167 30.2772C22.5561 29.8523 23.746 29.8523 24.4855 30.2772L45.3596 42.4056C46.0905 42.8306 46.0905 43.5191 45.3511 43.9525L24.341 56.0809C23.6016 56.5059 22.4117 56.5059 21.6722 56.0809L0.798115 43.9525C0.0671811 43.5276 0.0671894 42.8391 0.806623 42.4056L21.8167 30.2772Z" fill="url(#paint3_linear)"/>
<path d="M45.3526 43.9526C45.3526 43.9526 42.6074 45.593 38.4853 48.0493C36.42 49.2647 34.0062 50.684 31.4139 52.2054C30.1135 52.9618 28.7791 53.7353 27.4192 54.5257C26.7393 54.9252 26.0509 55.3161 25.3624 55.7241L24.317 56.3275C23.909 56.523 23.4926 56.608 23.0676 56.6165C22.6426 56.625 22.2176 56.557 21.8097 56.387C21.4017 56.1915 21.1042 55.9876 20.7473 55.7836C20.0588 55.3841 19.3789 54.9847 18.699 54.5852C17.3391 53.7863 16.0047 53.0043 14.7043 52.2479C12.1205 50.718 9.71525 49.2987 7.64993 48.0748C3.53628 45.6015 0.791016 43.9526 0.791016 43.9526C0.791016 43.9526 3.57878 45.5165 7.76042 47.8708C9.84274 49.0607 12.2735 50.4461 14.8828 51.9334C16.1832 52.6814 17.5261 53.4548 18.886 54.2452C19.5659 54.6362 20.2543 55.0356 20.9428 55.4351C21.2828 55.6221 21.6482 55.8601 21.9627 56.0046C22.2942 56.149 22.6766 56.2 23.0506 56.1915C23.4246 56.1915 23.807 56.1065 24.1215 55.9621L25.1584 55.3756C25.8468 54.9762 26.5353 54.5852 27.2238 54.1942C28.5921 53.4123 29.935 52.6389 31.2354 51.8909C33.8447 50.4121 36.2755 49.0267 38.3663 47.8453C42.5564 45.508 45.3526 43.9526 45.3526 43.9526Z" fill="#F1F2F2"/>
<path d="M45.9127 37.2217C45.9127 37.5022 45.7257 37.7826 45.3517 37.9951L24.3415 50.1235C23.6021 50.5485 22.4122 50.5485 21.6728 50.1235L0.798541 37.9951C0.433073 37.7826 0.254593 37.5021 0.246094 37.2302L0.254575 39.0745C0.254575 39.355 0.44158 39.627 0.807049 39.8394L21.6813 51.9678C22.4122 52.3928 23.6106 52.3928 24.35 51.9678L45.3602 39.8394C45.7342 39.627 45.9212 39.3465 45.9212 39.066L45.9127 37.2217Z" fill="url(#paint4_linear)"/>
<path d="M21.8167 24.3192C22.5561 23.8942 23.746 23.8942 24.4855 24.3192L45.3596 36.4476C46.0905 36.8726 46.0905 37.561 45.3511 37.9945L24.341 50.1229C23.6016 50.5479 22.4117 50.5479 21.6722 50.1229L0.798115 37.9945C0.0671811 37.5695 0.0671894 36.8811 0.806623 36.4476L21.8167 24.3192Z" fill="url(#paint5_linear)"/>
<path d="M45.3526 37.9946C45.3526 37.9946 42.6074 39.635 38.4853 42.0913C36.42 43.3067 34.0062 44.726 31.4139 46.2474C30.1135 47.0038 28.7791 47.7773 27.4192 48.5677C26.7393 48.9672 26.0509 49.3581 25.3624 49.7661L24.317 50.3696C23.909 50.565 23.4926 50.65 23.0676 50.6585C22.6426 50.667 22.2176 50.599 21.8097 50.429C21.4017 50.2336 21.1042 50.0296 20.7473 49.8256C20.0588 49.4261 19.3789 49.0267 18.699 48.6272C17.3391 47.8283 16.0047 47.0463 14.7043 46.2899C12.1205 44.76 9.71525 43.3407 7.64993 42.1168C3.53628 39.6435 0.791016 37.9946 0.791016 37.9946C0.791016 37.9946 3.57878 39.5585 7.76042 41.9128C9.84274 43.1027 12.2735 44.4881 14.8828 45.9754C16.1832 46.7234 17.5261 47.4968 18.886 48.2872C19.5659 48.6782 20.2543 49.0777 20.9428 49.4771C21.2828 49.6641 21.6482 49.9021 21.9627 50.0466C22.2942 50.1911 22.6766 50.2421 23.0506 50.2336C23.4246 50.2336 23.807 50.1486 24.1215 50.0041L25.1584 49.4176C25.8468 49.0182 26.5353 48.6272 27.2238 48.2362C28.5921 47.4543 29.935 46.6809 31.2354 45.9329C33.8447 44.4541 36.2755 43.0687 38.3663 41.8873C42.5564 39.5585 45.3526 37.9946 45.3526 37.9946Z" fill="#F1F2F2"/>
<path d="M45.9127 31.2637C45.9127 31.5441 45.7257 31.8246 45.3517 32.0371L24.3415 44.1655C23.6021 44.5905 22.4122 44.5905 21.6728 44.1655L0.798541 32.0371C0.433073 31.8246 0.254593 31.5442 0.246094 31.2722L0.254575 33.1165C0.254575 33.397 0.44158 33.669 0.807049 33.8814L21.6813 46.0099C22.4122 46.4348 23.6106 46.4348 24.35 46.0099L45.3602 33.8814C45.7342 33.669 45.9212 33.3885 45.9212 33.108L45.9127 31.2637Z" fill="url(#paint6_linear)"/>
<path d="M21.8167 18.37C22.5561 17.945 23.746 17.945 24.4855 18.37L45.3596 30.4984C46.0905 30.9234 46.0905 31.6118 45.3511 32.0453L24.341 44.1737C23.6016 44.5987 22.4117 44.5987 21.6722 44.1737L0.798115 32.0453C0.0671811 31.6203 0.0671894 30.9319 0.806623 30.4984L21.8167 18.37Z" fill="url(#paint7_linear)"/>
<path d="M45.3526 32.0454C45.3526 32.0454 42.6074 33.6858 38.4853 36.1421C36.42 37.3574 34.0062 38.7768 31.4139 40.2982C30.1135 41.0546 28.7791 41.828 27.4192 42.6185C26.7393 43.0179 26.0509 43.4089 25.3624 43.8169L24.317 44.4203C23.909 44.6158 23.4926 44.7008 23.0676 44.7093C22.6426 44.7178 22.2176 44.6498 21.8097 44.4798C21.4017 44.2843 21.1042 44.0804 20.7473 43.8764C20.0588 43.4769 19.3789 43.0774 18.699 42.678C17.3391 41.879 16.0047 41.0971 14.7043 40.3407C12.1205 38.8108 9.71525 37.3914 7.64993 36.1675C3.53628 33.6943 0.791016 32.0454 0.791016 32.0454C0.791016 32.0454 3.57878 33.6093 7.76042 35.9636C9.84274 37.1535 12.2735 38.5388 14.8828 40.0262C16.1832 40.7741 17.5261 41.5476 18.886 42.338C19.5659 42.729 20.2543 43.1284 20.9428 43.5279C21.2828 43.7149 21.6482 43.9529 21.9627 44.0973C22.2942 44.2418 22.6766 44.2928 23.0506 44.2843C23.4246 44.2843 23.807 44.1993 24.1215 44.0548L25.1584 43.4684C25.8468 43.0689 26.5353 42.678 27.2238 42.287C28.5921 41.5051 29.935 40.7316 31.2354 39.9837C33.8447 38.5048 36.2755 37.1195 38.3663 35.9381C42.5564 33.6008 45.3526 32.0454 45.3526 32.0454Z" fill="#F1F2F2"/>
<path d="M45.9127 25.3135C45.9127 25.594 45.7257 25.8744 45.3517 26.0869L24.3415 38.2153C23.6021 38.6403 22.4122 38.6403 21.6728 38.2153L0.798541 26.0869C0.433073 25.8744 0.254593 25.594 0.246094 25.322L0.254575 27.1663C0.254575 27.4468 0.44158 27.7188 0.807049 27.9312L21.6813 40.0597C22.4122 40.4846 23.6106 40.4846 24.35 40.0597L45.3602 27.9312C45.7342 27.7188 45.9212 27.4383 45.9212 27.1578L45.9127 25.3135Z" fill="url(#paint8_linear)"/>
<path d="M21.8167 12.412C22.5561 11.987 23.746 11.987 24.4855 12.412L45.3596 24.5404C46.0905 24.9654 46.0905 25.6538 45.3511 26.0873L24.341 38.2157C23.6016 38.6407 22.4117 38.6407 21.6722 38.2157L0.798115 26.0873C0.0671811 25.6623 0.0671894 24.9739 0.806623 24.5404L21.8167 12.412Z" fill="url(#paint9_linear)"/>
<path d="M45.3526 26.0874C45.3526 26.0874 42.6074 27.7278 38.4853 30.184C36.42 31.3994 34.0062 32.8188 31.4139 34.3402C30.1135 35.0966 28.7791 35.87 27.4192 36.6605C26.7393 37.0599 26.0509 37.4509 25.3624 37.8589L24.317 38.4623C23.909 38.6578 23.4926 38.7428 23.0676 38.7513C22.6426 38.7598 22.2176 38.6918 21.8097 38.5218C21.4017 38.3263 21.1042 38.1223 20.7473 37.9184C20.0588 37.5189 19.3789 37.1194 18.699 36.72C17.3391 35.921 16.0047 35.1391 14.7043 34.3827C12.1205 32.8528 9.71525 31.4334 7.64993 30.2095C3.53628 27.7363 0.791016 26.0874 0.791016 26.0874C0.791016 26.0874 3.57878 27.6513 7.76042 30.0056C9.84274 31.1955 12.2735 32.5808 14.8828 34.0682C16.1832 34.8161 17.5261 35.5896 18.886 36.38C19.5659 36.771 20.2543 37.1704 20.9428 37.5699C21.2828 37.7569 21.6482 37.9949 21.9627 38.1393C22.2942 38.2838 22.6766 38.3348 23.0506 38.3263C23.4246 38.3263 23.807 38.2413 24.1215 38.0968L25.1584 37.5104C25.8468 37.1109 26.5353 36.72 27.2238 36.329C28.5921 35.5471 29.935 34.7736 31.2354 34.0257C33.8447 32.5468 36.2755 31.1615 38.3663 29.9801C42.5564 27.6428 45.3526 26.0874 45.3526 26.0874Z" fill="#F1F2F2"/>
<g opacity="0.5">
<g opacity="0.5">
<path opacity="0.5" d="M22.3446 18.7781C22.778 18.5316 23.475 18.5316 23.8999 18.7781L36.1133 25.875C36.5468 26.1215 36.5383 26.5294 36.1048 26.7759L23.8065 33.8728C23.373 34.1193 22.676 34.1193 22.2511 33.8728L10.0377 26.7759C9.60421 26.5294 9.61272 26.1215 10.0462 25.875L22.3446 18.7781Z" fill="url(#paint10_linear)"/>
</g>
<g opacity="0.5">
<path opacity="0.5" d="M22.3449 19.7981C22.7784 19.5517 23.4753 19.5517 23.9003 19.7981L36.1138 26.895C36.5472 27.1415 36.5387 27.5494 36.1053 27.7959L23.8153 34.8928C23.3819 35.1393 22.6849 35.1393 22.2599 34.8928L10.0465 27.7959C9.613 27.5494 9.62151 27.1415 10.055 26.895L22.3449 19.7981Z" fill="url(#paint11_linear)"/>
</g>
<g opacity="0.5">
<path opacity="0.5" d="M22.3446 20.8094C22.778 20.5629 23.475 20.5629 23.8999 20.8094L36.1133 27.9063C36.5468 28.1527 36.5383 28.5607 36.1048 28.8072L23.8065 35.9041C23.373 36.1505 22.676 36.1505 22.2511 35.9041L10.0377 28.8072C9.60421 28.5607 9.61272 28.1527 10.0462 27.9063L22.3446 20.8094Z" fill="url(#paint12_linear)"/>
</g>
<g opacity="0.5">
<path opacity="0.5" d="M22.3446 21.8294C22.778 21.5829 23.475 21.5829 23.8999 21.8294L36.1133 28.9262C36.5468 29.1727 36.5383 29.5807 36.1048 29.8272L23.8065 36.924C23.373 37.1705 22.676 37.1705 22.2511 36.924L10.0377 29.8272C9.60421 29.5807 9.61272 29.1727 10.0462 28.9262L22.3446 21.8294Z" fill="url(#paint13_linear)"/>
</g>
<g opacity="0.5">
<path opacity="0.5" d="M22.3446 22.8494C22.778 22.6029 23.475 22.6029 23.8999 22.8494L36.1133 29.9463C36.5468 30.1927 36.5383 30.6007 36.1048 30.8472L23.8065 37.9441C23.373 38.1905 22.676 38.1905 22.2511 37.9441L10.0377 30.8472C9.60421 30.6007 9.61272 30.1927 10.0462 29.9463L22.3446 22.8494Z" fill="url(#paint14_linear)"/>
</g>
<g opacity="0.5">
<path opacity="0.5" d="M22.3446 23.8694C22.778 23.623 23.475 23.623 23.8999 23.8694L36.1133 30.9663C36.5468 31.2128 36.5383 31.6207 36.1048 31.8672L23.8065 38.9641C23.373 39.2106 22.676 39.2106 22.2511 38.9641L10.0377 31.8672C9.60421 31.6207 9.61272 31.2128 10.0462 30.9663L22.3446 23.8694Z" fill="url(#paint15_linear)"/>
</g>
<g opacity="0.5">
<path opacity="0.5" d="M22.3446 24.8807C22.778 24.6342 23.475 24.6342 23.8999 24.8807L36.1133 31.9776C36.5468 32.224 36.5383 32.632 36.1048 32.8785L23.8065 39.9754C23.373 40.2218 22.676 40.2218 22.2511 39.9754L10.0377 32.8785C9.60421 32.632 9.61272 32.224 10.0462 31.9776L22.3446 24.8807Z" fill="url(#paint16_linear)"/>
</g>
<g opacity="0.5">
<path opacity="0.5" d="M22.3446 25.9007C22.778 25.6542 23.475 25.6542 23.8999 25.9007L36.1133 32.9976C36.5468 33.244 36.5383 33.652 36.1048 33.8985L23.8065 40.9953C23.373 41.2418 22.676 41.2418 22.2511 40.9953L10.0377 33.8985C9.60421 33.652 9.61272 33.244 10.0462 32.9976L22.3446 25.9007Z" fill="url(#paint17_linear)"/>
</g>
</g>
<mask id="mask0" mask-type="alpha" maskUnits="userSpaceOnUse" x="9" y="-28" width="28" height="62">
<path d="M36.4358 -20.2678C36.4358 -20.4293 36.3253 -20.5908 36.1128 -20.7183L23.8994 -27.8151C23.4659 -28.0616 22.769 -28.0616 22.344 -27.8151L10.0456 -20.7183C9.83315 -20.5908 9.72266 -20.4293 9.72266 -20.2678V-20.2593V25.3052V25.3137C9.72266 25.4752 9.83315 25.6367 10.0456 25.7641L22.2591 32.861C22.6925 33.1075 23.3895 33.1075 23.8144 32.861L36.1128 25.7641C36.3253 25.6367 36.4358 25.4752 36.4358 25.3137V-20.2678Z" fill="url(#paint18_linear)"/>
</mask>
<g mask="url(#mask0)">
</g>
<defs>
<linearGradient id="paint0_linear" x1="0.248474" y1="56.6664" x2="45.9138" y2="56.6664" gradientUnits="userSpaceOnUse">
<stop stop-color="#F5F7FA"/>
<stop offset="1" stop-color="#B5C6E2"/>
</linearGradient>
<linearGradient id="paint1_linear" x1="0.247157" y1="49.1351" x2="45.9073" y2="49.1351" gradientUnits="userSpaceOnUse">
<stop stop-color="#F5F7FA"/>
<stop offset="1" stop-color="#CFDCF0"/>
</linearGradient>
<linearGradient id="paint2_linear" x1="0.248474" y1="50.7114" x2="45.9139" y2="50.7114" gradientUnits="userSpaceOnUse">
<stop stop-color="#F5F7FA"/>
<stop offset="1" stop-color="#B5C6E2"/>
</linearGradient>
<linearGradient id="paint3_linear" x1="0.248134" y1="43.1801" x2="45.908" y2="43.1801" gradientUnits="userSpaceOnUse">
<stop stop-color="#F5F7FA"/>
<stop offset="1" stop-color="#CFDCF0"/>
</linearGradient>
<linearGradient id="paint4_linear" x1="0.248474" y1="44.7568" x2="45.9139" y2="44.7568" gradientUnits="userSpaceOnUse">
<stop stop-color="#F5F7FA"/>
<stop offset="1" stop-color="#B5C6E2"/>
</linearGradient>
<linearGradient id="paint5_linear" x1="0.248134" y1="37.2251" x2="45.908" y2="37.2251" gradientUnits="userSpaceOnUse">
<stop stop-color="#F5F7FA"/>
<stop offset="1" stop-color="#CFDCF0"/>
</linearGradient>
<linearGradient id="paint6_linear" x1="0.248474" y1="38.8018" x2="45.9139" y2="38.8018" gradientUnits="userSpaceOnUse">
<stop stop-color="#F5F7FA"/>
<stop offset="1" stop-color="#B5C6E2"/>
</linearGradient>
<linearGradient id="paint7_linear" x1="0.248134" y1="31.2705" x2="45.908" y2="31.2705" gradientUnits="userSpaceOnUse">
<stop stop-color="#E2EEFF"/>
<stop offset="1" stop-color="#CFDCF0"/>
</linearGradient>
<linearGradient id="paint8_linear" x1="0.248474" y1="32.8462" x2="45.9139" y2="32.8462" gradientUnits="userSpaceOnUse">
<stop stop-color="#F5F7FA"/>
<stop offset="1" stop-color="#B5C6E2"/>
</linearGradient>
<linearGradient id="paint9_linear" x1="0.248134" y1="25.3156" x2="45.908" y2="25.3156" gradientUnits="userSpaceOnUse">
<stop stop-color="#CDE1FF"/>
<stop offset="1" stop-color="#CFDCF0"/>
</linearGradient>
<linearGradient id="paint10_linear" x1="18.0693" y1="20.7905" x2="27.5104" y2="31.221" gradientUnits="userSpaceOnUse">
<stop stop-color="#F5F7FA"/>
<stop offset="1" stop-color="#B5C6E2"/>
</linearGradient>
<linearGradient id="paint11_linear" x1="18.0696" y1="21.8082" x2="27.5108" y2="32.2388" gradientUnits="userSpaceOnUse">
<stop stop-color="#F5F7FA"/>
<stop offset="1" stop-color="#B5C6E2"/>
</linearGradient>
<linearGradient id="paint12_linear" x1="18.0693" y1="22.8256" x2="27.5104" y2="33.2562" gradientUnits="userSpaceOnUse">
<stop stop-color="#F5F7FA"/>
<stop offset="1" stop-color="#B5C6E2"/>
</linearGradient>
<linearGradient id="paint13_linear" x1="18.0693" y1="23.8434" x2="27.5104" y2="34.2739" gradientUnits="userSpaceOnUse">
<stop stop-color="#F5F7FA"/>
<stop offset="1" stop-color="#B5C6E2"/>
</linearGradient>
<linearGradient id="paint14_linear" x1="18.0693" y1="24.8611" x2="27.5104" y2="35.2916" gradientUnits="userSpaceOnUse">
<stop stop-color="#F5F7FA"/>
<stop offset="1" stop-color="#B5C6E2"/>
</linearGradient>
<linearGradient id="paint15_linear" x1="18.0693" y1="25.8788" x2="27.5104" y2="36.3093" gradientUnits="userSpaceOnUse">
<stop stop-color="#F5F7FA"/>
<stop offset="1" stop-color="#B5C6E2"/>
</linearGradient>
<linearGradient id="paint16_linear" x1="18.0693" y1="26.8963" x2="27.5104" y2="37.3268" gradientUnits="userSpaceOnUse">
<stop stop-color="#F5F7FA"/>
<stop offset="1" stop-color="#B5C6E2"/>
</linearGradient>
<linearGradient id="paint17_linear" x1="18.0693" y1="27.914" x2="27.5104" y2="38.3445" gradientUnits="userSpaceOnUse">
<stop stop-color="#F5F7FA"/>
<stop offset="1" stop-color="#B5C6E2"/>
</linearGradient>
<linearGradient id="paint18_linear" x1="23.0811" y1="32.7623" x2="23.0811" y2="-28.0348" gradientUnits="userSpaceOnUse">
<stop stop-color="white"/>
<stop offset="1"/>
</linearGradient>
</defs>
</svg>
