<svg width="374" height="215" viewBox="0 0 374 215" fill="none" xmlns="http://www.w3.org/2000/svg">
<rect width="374" height="215" fill="url(#paint0_linear)"/>
<path d="M0 0H374V215H0V0Z" fill="url(#paint1_radial)"/>
<path d="M0.5 0.5H373.5V214.5H0.5V0.5Z" stroke="url(#paint2_linear)" stroke-opacity="0.4"/>
<mask id="mask0" mask-type="alpha" maskUnits="userSpaceOnUse" x="16" y="0" width="343" height="215">
<path d="M16 24C16 10.7452 26.7452 0 40 0H335C348.255 0 359 10.7452 359 24V191C359 204.255 348.255 215 335 215H40C26.7452 215 16 204.255 16 191V24Z" fill="url(#paint3_radial)"/>
<path d="M40 0.5H335C347.979 0.5 358.5 11.0213 358.5 24V191C358.5 203.979 347.979 214.5 335 214.5H40C27.0213 214.5 16.5 203.979 16.5 191V24C16.5 11.0213 27.0213 0.5 40 0.5Z" stroke="url(#paint4_linear)" stroke-opacity="0.4"/>
</mask>
<g mask="url(#mask0)">
<path d="M57.559 49.2182C58.9722 49.2182 60.1179 48.05 60.1179 46.6091C60.1179 45.1681 58.9722 44 57.559 44C56.1457 44 55 45.1681 55 46.6091C55 48.05 56.1457 49.2182 57.559 49.2182Z" fill="white"/>
<path d="M60.559 33.2182C61.9722 33.2182 63.1179 32.05 63.1179 30.6091C63.1179 29.1681 61.9722 28 60.559 28C59.1457 28 58 29.1681 58 30.6091C58 32.05 59.1457 33.2182 60.559 33.2182Z" fill="white"/>
<path d="M72.559 69.2182C73.9722 69.2182 75.1179 68.05 75.1179 66.6091C75.1179 65.1681 73.9722 64 72.559 64C71.1457 64 70 65.1681 70 66.6091C70 68.05 71.1457 69.2182 72.559 69.2182Z" fill="white"/>
<path d="M82.559 48.2182C83.9722 48.2182 85.1179 47.05 85.1179 45.6091C85.1179 44.1681 83.9722 43 82.559 43C81.1457 43 80 44.1681 80 45.6091C80 47.05 81.1457 48.2182 82.559 48.2182Z" fill="white"/>
<path d="M94.559 73.2182C95.9722 73.2182 97.1179 72.05 97.1179 70.6091C97.1179 69.1681 95.9722 68 94.559 68C93.1457 68 92 69.1681 92 70.6091C92 72.05 93.1457 73.2182 94.559 73.2182Z" fill="white"/>
<path d="M110.559 40.2182C111.972 40.2182 113.118 39.05 113.118 37.6091C113.118 36.1681 111.972 35 110.559 35C109.146 35 108 36.1681 108 37.6091C108 39.05 109.146 40.2182 110.559 40.2182Z" fill="white"/>
<path d="M90.559 31.2182C91.9722 31.2182 93.1179 30.05 93.1179 28.6091C93.1179 27.1681 91.9722 26 90.559 26C89.1457 26 88 27.1681 88 28.6091C88 30.05 89.1457 31.2182 90.559 31.2182Z" fill="white"/>
<path d="M135.896 244.019L215.736 197.969" stroke="#E6E7E8" stroke-width="0.9715" stroke-linecap="round"/>
<path d="M13.8816 205.702L195.449 102.338" stroke="#E6E7E8" stroke-width="0.9715" stroke-linecap="round"/>
<path d="M259.796 114.406L238.963 102.338" stroke="#E6E7E8" stroke-width="0.9715" stroke-linecap="round"/>
<path d="M186.788 196.448L156.892 213.463L135.925 201.051" stroke="#E6E7E8" stroke-width="0.9715" stroke-linecap="round"/>
<path d="M323.56 176.744L234.407 227.224" stroke="#E6E7E8" stroke-width="0.9715" stroke-linecap="round"/>
<path d="M364.212 200.438L276.505 250.058" stroke="#E6E7E8" stroke-width="0.9715" stroke-linecap="round"/>
<path d="M284.621 154.254L205.967 198.792" stroke="#E6E7E8" stroke-width="0.9715" stroke-linecap="round"/>
<path d="M246.054 131.746L177.525 170.351" stroke="#E6E7E8" stroke-width="0.9715" stroke-linecap="round"/>
<path d="M11.5941 204.486C12.7616 203.816 14.6469 203.816 15.8048 204.486C16.9628 205.156 16.9532 206.247 15.7953 206.927C14.6277 207.596 12.7425 207.596 11.5845 206.927C10.4266 206.247 10.4266 205.156 11.5941 204.486Z" fill="#E6E7E8"/>
<path d="M133.667 199.577C134.834 198.907 136.719 198.907 137.877 199.577C139.035 200.247 139.026 201.338 137.868 202.017C136.7 202.687 134.815 202.687 133.657 202.017C132.489 201.338 132.499 200.247 133.667 199.577Z" fill="#E6E7E8"/>
<path d="M193.276 101.219C194.444 100.549 196.329 100.549 197.487 101.219C198.645 101.889 198.635 102.98 197.477 103.659C196.31 104.329 194.425 104.329 193.267 103.659C192.109 102.989 192.118 101.898 193.276 101.219Z" fill="#E6E7E8"/>
<path d="M236.867 101.123C238.034 100.453 239.919 100.453 241.077 101.123C242.235 101.793 242.226 102.884 241.068 103.563C239.9 104.233 238.015 104.233 236.857 103.563C235.69 102.884 235.699 101.793 236.867 101.123Z" fill="#E6E7E8"/>
<path d="M243.958 130.474C245.125 129.804 247.011 129.804 248.169 130.474C249.327 131.143 249.317 132.234 248.159 132.914C246.992 133.584 245.106 133.584 243.948 132.914C242.79 132.234 242.79 131.143 243.958 130.474Z" fill="#E6E7E8"/>
<path d="M282.486 153.097C283.653 152.427 285.538 152.427 286.696 153.097C287.854 153.767 287.845 154.857 286.687 155.537C285.519 156.207 283.634 156.207 282.476 155.537C281.309 154.857 281.318 153.767 282.486 153.097Z" fill="#E6E7E8"/>
<path d="M321.397 175.538C322.564 174.868 324.45 174.868 325.608 175.538C326.765 176.207 326.756 177.298 325.598 177.978C324.43 178.648 322.545 178.648 321.387 177.978C320.229 177.308 320.229 176.217 321.397 175.538Z" fill="#E6E7E8"/>
<g opacity="0.33" filter="url(#filter0_f)">
<path d="M218.145 78.167C218.978 77.6885 220.318 77.6885 221.15 78.167L244.653 91.8231C245.476 92.3015 245.476 93.0767 244.644 93.5648L220.987 107.221C220.155 107.699 218.815 107.699 217.982 107.221L194.479 93.5648C193.656 93.0863 193.656 92.3111 194.489 91.8231L218.145 78.167Z" fill="#020E14"/>
</g>
<path d="M244.178 89.4375C244.178 89.7533 243.968 90.0691 243.547 90.3084L219.89 103.964C219.058 104.443 217.718 104.443 216.885 103.964L193.382 90.3084C192.97 90.0691 192.769 89.7533 192.76 89.4471L192.769 91.5237C192.769 91.8395 192.98 92.1458 193.391 92.385L216.895 106.041C217.718 106.52 219.067 106.52 219.9 106.041L243.556 92.385C243.977 92.1458 244.188 91.83 244.188 91.5141L244.178 89.4375Z" fill="url(#paint5_linear)"/>
<path d="M217.046 74.9111C217.879 74.4326 219.218 74.4326 220.051 74.9111L243.554 88.5672C244.377 89.0457 244.377 89.8208 243.545 90.3089L219.888 103.965C219.056 104.443 217.716 104.443 216.883 103.965L193.38 90.3089C192.557 89.8304 192.557 89.0553 193.39 88.5672L217.046 74.9111Z" fill="url(#paint6_linear)"/>
<path d="M243.547 90.3091C243.547 90.3091 240.456 92.156 235.815 94.9217C233.489 96.2902 230.771 97.8883 227.852 99.6013C226.388 100.453 224.886 101.324 223.355 102.214C222.589 102.664 221.814 103.104 221.039 103.563L219.862 104.243C219.402 104.463 218.933 104.558 218.455 104.568C217.976 104.578 217.498 104.501 217.039 104.31C216.579 104.09 216.244 103.86 215.842 103.63C215.067 103.18 214.302 102.731 213.536 102.281C212.005 101.381 210.502 100.501 209.038 99.6492C206.129 97.9266 203.421 96.3285 201.095 94.9504C196.464 92.1656 193.373 90.3091 193.373 90.3091C193.373 90.3091 196.511 92.0699 201.22 94.7208C203.564 96.0605 206.301 97.6204 209.239 99.2951C210.703 100.137 212.215 101.008 213.747 101.898C214.512 102.338 215.287 102.788 216.062 103.238C216.445 103.448 216.857 103.716 217.211 103.879C217.584 104.042 218.015 104.099 218.436 104.09C218.857 104.09 219.288 103.994 219.642 103.831L220.809 103.171C221.584 102.721 222.359 102.281 223.135 101.841C224.675 100.96 226.187 100.089 227.652 99.2473C230.589 97.5821 233.326 96.0222 235.681 94.692C240.408 92.0699 243.547 90.3091 243.547 90.3091Z" fill="#F1F2F2"/>
<path d="M244.178 82.73C244.178 83.0458 243.968 83.3616 243.547 83.6008L219.89 97.2569C219.058 97.7354 217.718 97.7354 216.885 97.2569L193.382 83.6008C192.97 83.3616 192.769 83.0458 192.76 82.7395L192.769 84.8162C192.769 85.132 192.98 85.4382 193.391 85.6775L216.895 99.3335C217.718 99.812 219.067 99.812 219.9 99.3335L243.556 85.6775C243.977 85.4382 244.188 85.1224 244.188 84.8066L244.178 82.73Z" fill="url(#paint7_linear)"/>
<path d="M217.047 68.2124C217.879 67.7339 219.219 67.7339 220.052 68.2124L243.555 81.8685C244.378 82.347 244.378 83.1221 243.545 83.6102L219.889 97.2662C219.056 97.7447 217.717 97.7447 216.884 97.2662L193.381 83.6102C192.558 83.1317 192.558 82.3565 193.39 81.8685L217.047 68.2124Z" fill="url(#paint8_linear)"/>
<path d="M243.547 83.6104C243.547 83.6104 240.456 85.4573 235.815 88.223C233.489 89.5915 230.771 91.1896 227.852 92.9026C226.388 93.7543 224.886 94.6252 223.355 95.5152C222.589 95.9649 221.814 96.4052 221.039 96.8645L219.862 97.544C219.402 97.7641 218.933 97.8598 218.455 97.8693C217.976 97.8789 217.498 97.8023 217.039 97.6109C216.579 97.3908 216.244 97.1612 215.842 96.9315C215.067 96.4817 214.302 96.0319 213.536 95.5822C212.005 94.6826 210.502 93.8022 209.038 92.9505C206.129 91.2279 203.421 89.6297 201.095 88.2517C196.464 85.4669 193.373 83.6104 193.373 83.6104C193.373 83.6104 196.511 85.3712 201.22 88.022C203.564 89.3618 206.301 90.9217 209.239 92.5964C210.703 93.4385 212.215 94.3094 213.747 95.1994C214.512 95.6396 215.287 96.0894 216.062 96.5391C216.445 96.7497 216.857 97.0176 217.211 97.1803C217.584 97.343 218.015 97.4004 218.436 97.3908C218.857 97.3908 219.288 97.2951 219.642 97.1325L220.809 96.4721C221.584 96.0224 222.359 95.5821 223.135 95.1419C224.675 94.2615 226.187 93.3907 227.651 92.5485C230.589 90.8834 233.326 89.3235 235.681 87.9933C240.408 85.3616 243.547 83.6104 243.547 83.6104Z" fill="#F1F2F2"/>
<path d="M244.178 76.0308C244.178 76.3466 243.968 76.6624 243.547 76.9016L219.89 90.5577C219.058 91.0362 217.718 91.0362 216.885 90.5577L193.382 76.9016C192.97 76.6624 192.769 76.3466 192.76 76.0403L192.769 78.117C192.769 78.4328 192.98 78.739 193.391 78.9783L216.895 92.6344C217.718 93.1128 219.067 93.1128 219.9 92.6344L243.556 78.9783C243.977 78.739 244.188 78.4232 244.188 78.1074L244.178 76.0308Z" fill="url(#paint9_linear)"/>
<path d="M217.047 61.5039C217.879 61.0254 219.219 61.0254 220.052 61.5039L243.555 75.16C244.378 75.6385 244.378 76.4136 243.545 76.9017L219.889 90.5577C219.056 91.0362 217.717 91.0362 216.884 90.5577L193.381 76.9017C192.558 76.4232 192.558 75.648 193.39 75.16L217.047 61.5039Z" fill="url(#paint10_linear)"/>
<path d="M243.547 76.9019C243.547 76.9019 240.456 78.7488 235.815 81.5145C233.489 82.883 230.771 84.4811 227.852 86.1941C226.388 87.0458 224.886 87.9167 223.355 88.8067C222.589 89.2565 221.814 89.6967 221.039 90.156L219.862 90.8355C219.402 91.0556 218.933 91.1513 218.455 91.1608C217.976 91.1704 217.498 91.0939 217.039 90.9025C216.579 90.6824 216.244 90.4527 215.842 90.223C215.067 89.7732 214.302 89.3234 213.536 88.8737C212.005 87.9741 210.502 87.0937 209.038 86.242C206.129 84.5194 203.421 82.9213 201.095 81.5432C196.464 78.7584 193.373 76.9019 193.373 76.9019C193.373 76.9019 196.511 78.6627 201.22 81.3135C203.564 82.6533 206.301 84.2132 209.239 85.8879C210.703 86.73 212.215 87.6009 213.747 88.4909C214.512 88.9311 215.287 89.3809 216.062 89.8306C216.445 90.0412 216.857 90.3091 217.211 90.4718C217.584 90.6345 218.015 90.6919 218.436 90.6824C218.857 90.6824 219.288 90.5867 219.642 90.424L220.809 89.7637C221.584 89.3139 222.359 88.8737 223.135 88.4335C224.675 87.553 226.187 86.6822 227.651 85.84C230.589 84.1749 233.326 82.615 235.681 81.2848C240.408 78.6627 243.547 76.9019 243.547 76.9019Z" fill="#F1F2F2"/>
<g opacity="0.5">
<g opacity="0.5">
<path opacity="0.5" d="M217.641 68.6715C218.129 68.394 218.914 68.394 219.392 68.6715L233.144 76.6623C233.632 76.9398 233.623 77.3992 233.135 77.6767L219.287 85.6674C218.799 85.945 218.014 85.945 217.536 85.6674L203.784 77.6767C203.296 77.3992 203.306 76.9398 203.794 76.6623L217.641 68.6715Z" fill="url(#paint11_linear)"/>
</g>
<g opacity="0.5">
<path opacity="0.5" d="M217.641 69.82C218.129 69.5424 218.914 69.5424 219.392 69.82L233.144 77.8107C233.632 78.0883 233.623 78.5476 233.135 78.8251L219.287 86.8159C218.799 87.0934 218.014 87.0934 217.536 86.8159L203.784 78.8251C203.296 78.5476 203.306 78.0883 203.794 77.8107L217.641 69.82Z" fill="url(#paint12_linear)"/>
</g>
<g opacity="0.5">
<path opacity="0.5" d="M217.641 70.9684C218.129 70.6909 218.914 70.6909 219.392 70.9684L233.144 78.9592C233.632 79.2367 233.623 79.696 233.135 79.9736L219.287 87.9643C218.799 88.2419 218.014 88.2419 217.536 87.9643L203.784 79.9736C203.296 79.696 203.306 79.2367 203.794 78.9592L217.641 70.9684Z" fill="url(#paint13_linear)"/>
</g>
<g opacity="0.5">
<path opacity="0.5" d="M217.641 72.1071C218.129 71.8295 218.914 71.8295 219.392 72.1071L233.144 80.0978C233.632 80.3754 233.623 80.8347 233.135 81.1122L219.287 89.103C218.799 89.3805 218.014 89.3805 217.536 89.103L203.784 81.1122C203.296 80.8347 203.306 80.3754 203.794 80.0978L217.641 72.1071Z" fill="url(#paint14_linear)"/>
</g>
<g opacity="0.5">
<path opacity="0.5" d="M217.641 73.2555C218.129 72.978 218.914 72.978 219.392 73.2555L233.144 81.2463C233.632 81.5238 233.623 81.9831 233.135 82.2607L219.287 90.2514C218.799 90.529 218.014 90.529 217.536 90.2514L203.784 82.2607C203.296 81.9831 203.306 81.5238 203.794 81.2463L217.641 73.2555Z" fill="url(#paint15_linear)"/>
</g>
<g opacity="0.5">
<path opacity="0.5" d="M217.641 74.4039C218.129 74.1264 218.914 74.1264 219.392 74.4039L233.144 82.3947C233.632 82.6722 233.623 83.1316 233.135 83.4091L219.287 91.3999C218.799 91.6774 218.014 91.6774 217.536 91.3999L203.784 83.4091C203.296 83.1316 203.306 82.6722 203.794 82.3947L217.641 74.4039Z" fill="url(#paint16_linear)"/>
</g>
<g opacity="0.5">
<path opacity="0.5" d="M217.641 75.5421C218.129 75.2646 218.914 75.2646 219.392 75.5421L233.144 83.5329C233.632 83.8104 233.623 84.2698 233.135 84.5473L219.287 92.5381C218.799 92.8156 218.014 92.8156 217.536 92.5381L203.784 84.5473C203.296 84.2698 203.306 83.8104 203.794 83.5329L217.641 75.5421Z" fill="url(#paint17_linear)"/>
</g>
<g opacity="0.5">
<path opacity="0.5" d="M217.641 76.6911C218.129 76.4135 218.914 76.4135 219.392 76.6911L233.144 84.6818C233.632 84.9593 233.623 85.4187 233.135 85.6962L219.287 93.687C218.799 93.9645 218.014 93.9645 217.536 93.687L203.784 85.6962C203.296 85.4187 203.306 84.9593 203.794 84.6818L217.641 76.6911Z" fill="url(#paint18_linear)"/>
</g>
</g>
<mask id="mask1" mask-type="alpha" maskUnits="userSpaceOnUse" x="203" y="16" width="31" height="69">
<path d="M233.508 24.7081C233.508 24.5262 233.384 24.3444 233.144 24.2009L219.393 16.2101C218.905 15.9326 218.12 15.9326 217.641 16.2101L203.794 24.2009C203.555 24.3444 203.43 24.5262 203.43 24.7081V24.7176V76.0212V76.0308C203.43 76.2126 203.555 76.3945 203.794 76.538L217.546 84.5288C218.034 84.8063 218.818 84.8063 219.297 84.5288L233.144 76.538C233.384 76.3945 233.508 76.2126 233.508 76.0308V24.7081Z" fill="url(#paint19_linear)"/>
</mask>
<g mask="url(#mask1)">
<path opacity="0.4" d="M233.508 24.7081C233.508 24.5262 233.384 24.3444 233.144 24.2009L219.393 16.2101C218.905 15.9326 218.12 15.9326 217.641 16.2101L203.794 24.2009C203.555 24.3444 203.43 24.5262 203.43 24.7081V24.7176V76.0212V76.0308C203.43 76.2126 203.555 76.3945 203.794 76.538L217.546 84.5288C218.034 84.8063 218.818 84.8063 219.297 84.5288L233.144 76.538C233.384 76.3945 233.508 76.2126 233.508 76.0308V24.7081Z" fill="url(#paint20_linear)"/>
</g>
<g opacity="0.33" filter="url(#filter1_f)">
<path d="M268.364 111.003C269.196 110.524 270.536 110.524 271.369 111.003L294.872 124.659C295.695 125.137 295.695 125.913 294.863 126.401L271.206 140.057C270.374 140.535 269.034 140.535 268.201 140.057L244.698 126.401C243.875 125.922 243.875 125.147 244.707 124.659L268.364 111.003Z" fill="#020E14"/>
</g>
<g opacity="0.33" filter="url(#filter2_f)">
<path d="M305.062 130.318C305.895 129.839 307.235 129.839 308.067 130.318L331.571 143.974C332.394 144.452 332.394 145.228 331.561 145.716L307.905 159.372C307.072 159.85 305.732 159.85 304.9 159.372L281.396 145.716C280.573 145.237 280.573 144.462 281.406 143.974L305.062 130.318Z" fill="#020E14"/>
</g>
<g opacity="0.33" filter="url(#filter3_f)">
<path d="M343.693 151.564C344.525 151.086 345.865 151.086 346.698 151.564L370.201 165.221C371.024 165.699 371.024 166.474 370.192 166.962L346.535 180.618C345.702 181.097 344.363 181.097 343.53 180.618L320.027 166.962C319.204 166.484 319.204 165.709 320.036 165.221L343.693 151.564Z" fill="#020E14"/>
</g>
<g opacity="0.33" filter="url(#filter4_f)">
<path d="M384.254 174.743C385.087 174.264 386.427 174.264 387.259 174.743L410.763 188.399C411.586 188.877 411.586 189.652 410.753 190.14L387.096 203.797C386.264 204.275 384.924 204.275 384.092 203.797L360.588 190.14C359.765 189.662 359.765 188.887 360.598 188.399L384.254 174.743Z" fill="#020E14"/>
</g>
<path d="M300.193 61.2124C300.193 61.7866 299.81 62.3703 299.054 62.8106L274.804 76.8111C273.283 77.6916 270.833 77.682 269.321 76.8111L245.233 62.8106C244.487 62.3703 244.104 61.8057 244.104 61.2315L244.276 121.11C244.276 121.684 244.65 122.248 245.406 122.689L269.493 136.689C270.995 137.56 273.455 137.57 274.976 136.689L299.226 122.689C299.992 122.248 300.375 121.665 300.365 121.091L300.193 61.2124Z" fill="url(#paint21_linear)"/>
<path d="M269.503 45.633C271.025 44.7526 273.474 44.7526 274.986 45.633L299.074 59.6336C300.576 60.5044 300.576 61.9303 299.054 62.8107L274.805 76.8113C273.283 77.6917 270.833 77.6822 269.321 76.8113L245.234 62.8107C243.722 61.9303 243.732 60.514 245.253 59.6336L269.503 45.633Z" fill="#F2F4F8"/>
<path d="M296.537 70.3041L276.555 81.8453C275.943 82.1994 275.445 81.9888 275.445 81.3764C275.445 80.7639 275.943 79.9792 276.555 79.6347L296.537 68.1031C297.149 67.749 297.647 67.9595 297.647 68.572C297.637 69.1749 297.14 69.95 296.537 70.3041Z" fill="url(#paint22_linear)"/>
<path d="M275.78 81.4436C275.78 80.8311 276.278 80.0464 276.89 79.7019L296.872 68.1703C297.054 68.065 297.216 68.0267 297.369 68.0172C297.168 67.8928 296.872 67.9023 296.537 68.1033L276.555 79.6253C275.943 79.9794 275.445 80.7641 275.445 81.367C275.445 81.7977 275.694 82.0082 276.058 81.989C275.895 81.8934 275.78 81.7211 275.78 81.4436Z" fill="url(#paint23_linear)"/>
<path d="M296.537 75.9404L276.555 87.4815C275.943 87.8356 275.445 87.6251 275.445 87.0126C275.445 86.4001 275.943 85.6154 276.555 85.2709L296.537 73.7393C297.149 73.3852 297.647 73.5958 297.647 74.2082C297.637 74.8111 297.14 75.5863 296.537 75.9404Z" fill="url(#paint24_linear)"/>
<path d="M275.78 87.0798C275.78 86.4673 276.278 85.6826 276.89 85.3381L296.872 73.8065C297.054 73.7012 297.216 73.663 297.369 73.6534C297.168 73.529 296.872 73.5386 296.537 73.7395L276.555 85.2615C275.943 85.6156 275.445 86.4003 275.445 87.0032C275.445 87.4339 275.694 87.6444 276.058 87.6253C275.895 87.5296 275.78 87.3573 275.78 87.0798Z" fill="url(#paint25_linear)"/>
<path d="M296.537 81.5771L276.555 93.1182C275.943 93.4723 275.445 93.2618 275.445 92.6493C275.445 92.0369 275.943 91.2521 276.555 90.9076L296.537 79.376C297.149 79.0219 297.647 79.2325 297.647 79.8449C297.637 80.4478 297.14 81.223 296.537 81.5771Z" fill="url(#paint26_linear)"/>
<path d="M275.78 92.7165C275.78 92.1041 276.278 91.3193 276.89 90.9748L296.872 79.4432C297.054 79.338 297.216 79.2997 297.369 79.2901C297.168 79.1657 296.872 79.1753 296.537 79.3762L276.555 90.8983C275.943 91.2523 275.445 92.0371 275.445 92.64C275.445 93.0706 275.694 93.2811 276.058 93.262C275.895 93.1663 275.78 92.9941 275.78 92.7165Z" fill="url(#paint27_linear)"/>
<path d="M296.537 87.2138L276.555 98.755C275.943 99.109 275.445 98.8985 275.445 98.286C275.445 97.6736 275.943 96.8889 276.555 96.5443L296.537 85.0127C297.149 84.6587 297.647 84.8692 297.647 85.4817C297.637 86.0846 297.14 86.8597 296.537 87.2138Z" fill="url(#paint28_linear)"/>
<path d="M275.78 98.3532C275.78 97.7408 276.278 96.956 276.89 96.6115L296.872 85.0799C297.054 84.9747 297.216 84.9364 297.369 84.9268C297.168 84.8024 296.872 84.812 296.537 85.013L276.555 96.535C275.943 96.8891 275.445 97.6738 275.445 98.2767C275.445 98.7073 275.694 98.9179 276.058 98.8987C275.895 98.803 275.78 98.6308 275.78 98.3532Z" fill="url(#paint29_linear)"/>
<path d="M296.537 92.85L276.555 104.391C275.943 104.745 275.445 104.535 275.445 103.922C275.445 103.31 275.943 102.525 276.555 102.181L296.537 90.649C297.149 90.2949 297.647 90.5054 297.647 91.1179C297.637 91.7208 297.14 92.4959 296.537 92.85Z" fill="url(#paint30_linear)"/>
<path d="M275.78 103.989C275.78 103.377 276.278 102.592 276.89 102.248L296.872 90.7162C297.054 90.6109 297.216 90.5726 297.369 90.5631C297.168 90.4387 296.872 90.4482 296.537 90.6492L276.555 102.171C275.943 102.525 275.445 103.31 275.445 103.913C275.445 104.344 275.694 104.554 276.058 104.535C275.895 104.439 275.78 104.267 275.78 103.989Z" fill="url(#paint31_linear)"/>
<path d="M296.537 98.4867L276.555 110.028C275.943 110.382 275.445 110.171 275.445 109.559C275.445 108.947 275.943 108.162 276.555 107.817L296.537 96.2857C297.149 95.9316 297.647 96.1422 297.647 96.7546C297.637 97.3575 297.14 98.1327 296.537 98.4867Z" fill="url(#paint32_linear)"/>
<path d="M275.78 109.626C275.78 109.014 276.278 108.229 276.89 107.884L296.872 96.3529C297.054 96.2476 297.216 96.2093 297.369 96.1998C297.168 96.0754 296.872 96.0849 296.537 96.2859L276.555 107.808C275.943 108.162 275.445 108.947 275.445 109.55C275.445 109.98 275.694 110.191 276.058 110.172C275.895 110.076 275.78 109.904 275.78 109.626Z" fill="url(#paint33_linear)"/>
<path d="M296.537 104.123L276.555 115.655C275.943 116.009 275.445 115.798 275.445 115.186C275.445 114.573 275.943 113.789 276.555 113.444L296.537 101.913C297.149 101.559 297.647 101.769 297.647 102.382C297.637 102.994 297.14 103.769 296.537 104.123Z" fill="url(#paint34_linear)"/>
<path d="M275.78 115.264C275.78 114.652 276.278 113.867 276.89 113.523L296.872 101.991C297.054 101.886 297.216 101.848 297.369 101.838C297.168 101.714 296.872 101.723 296.537 101.924L276.555 113.456C275.943 113.81 275.445 114.594 275.445 115.197C275.445 115.628 275.694 115.839 276.058 115.819C275.895 115.714 275.78 115.542 275.78 115.264Z" fill="url(#paint35_linear)"/>
<path d="M296.537 109.76L276.555 121.292C275.943 121.646 275.445 121.435 275.445 120.823C275.445 120.21 275.943 119.425 276.555 119.081L296.537 107.549C297.149 107.195 297.647 107.406 297.647 108.018C297.637 108.631 297.14 109.406 296.537 109.76Z" fill="url(#paint36_linear)"/>
<path d="M275.78 120.901C275.78 120.289 276.278 119.504 276.89 119.159L296.872 107.628C297.054 107.523 297.216 107.484 297.369 107.475C297.168 107.35 296.872 107.36 296.537 107.561L276.555 119.083C275.943 119.437 275.445 120.222 275.445 120.825C275.445 121.255 275.694 121.466 276.058 121.447C275.895 121.351 275.78 121.179 275.78 120.901Z" fill="url(#paint37_linear)"/>
<path d="M296.537 115.397L276.555 126.928C275.943 127.282 275.445 127.072 275.445 126.459C275.445 125.847 275.943 125.062 276.555 124.718L296.537 113.186C297.149 112.832 297.647 113.043 297.647 113.655C297.637 114.267 297.14 115.043 296.537 115.397Z" fill="url(#paint38_linear)"/>
<path d="M275.78 126.538C275.78 125.925 276.278 125.141 276.89 124.796L296.872 113.265C297.054 113.159 297.216 113.121 297.369 113.111C297.168 112.987 296.872 112.997 296.537 113.198L276.555 124.729C275.943 125.083 275.445 125.868 275.445 126.471C275.445 126.901 275.694 127.112 276.058 127.093C275.895 126.988 275.78 126.815 275.78 126.538Z" fill="url(#paint39_linear)"/>
<path d="M296.537 121.033L276.555 132.574C275.943 132.928 275.445 132.718 275.445 132.105C275.445 131.493 275.943 130.708 276.555 130.364L296.537 118.832C297.149 118.478 297.647 118.689 297.647 119.301C297.637 119.904 297.14 120.679 296.537 121.033Z" fill="url(#paint40_linear)"/>
<path d="M275.78 132.173C275.78 131.56 276.278 130.775 276.89 130.431L296.872 118.899C297.054 118.794 297.216 118.756 297.369 118.746C297.168 118.622 296.872 118.631 296.537 118.832L276.555 130.364C275.943 130.718 275.445 131.503 275.445 132.106C275.445 132.536 275.694 132.747 276.058 132.728C275.895 132.622 275.78 132.45 275.78 132.173Z" fill="url(#paint41_linear)"/>
<path d="M267.282 124.363L250.238 114.516V77.4619L267.282 87.3092V124.363Z" fill="url(#paint42_linear)"/>
<path d="M250.899 78.7443L267.282 88.2088V87.3092L250.238 77.4619V114.516L250.899 114.899V78.7443Z" fill="url(#paint43_linear)"/>
<path d="M299.073 59.6333C299.073 59.6333 299.13 59.6716 299.245 59.7386C299.36 59.8056 299.523 59.9204 299.705 60.1022C299.886 60.284 300.097 60.5424 300.183 60.9061C300.288 61.2697 300.202 61.7387 299.906 62.131C299.628 62.5329 299.15 62.8296 298.661 63.1071C298.164 63.4038 297.638 63.7196 297.063 64.0545C295.915 64.7244 294.633 65.49 293.226 66.3226C290.403 67.9686 287.111 69.8921 283.58 71.9496C281.819 72.9832 279.991 74.0454 278.134 75.1268C277.206 75.6627 276.278 76.2082 275.34 76.7632C274.9 77.0408 274.364 77.3278 273.818 77.4618C273.273 77.6149 272.708 77.6915 272.144 77.7011C271.024 77.7202 269.856 77.4427 268.919 76.8302C267.981 76.2847 267.053 75.7297 266.124 75.1938C264.277 74.1124 262.459 73.0406 260.689 72.007C257.167 69.94 253.875 68.0069 251.061 66.3513C249.655 65.5187 248.372 64.7531 247.224 64.0737C246.65 63.7292 246.123 63.4134 245.626 63.1167C245.138 62.8392 244.659 62.5425 244.382 62.131C244.095 61.7387 244.018 61.2602 244.133 60.9061C244.229 60.5424 244.449 60.284 244.621 60.1118C244.803 59.93 244.966 59.8247 245.08 59.7481C245.195 59.6811 245.253 59.6429 245.253 59.6429C245.253 59.6429 245.195 59.6811 245.09 59.7481C244.985 59.8151 244.822 59.93 244.64 60.1214C244.468 60.3032 244.267 60.5616 244.181 60.9156C244.085 61.2697 244.171 61.7195 244.449 62.0832C244.726 62.466 245.186 62.7339 245.693 63.0114C246.19 63.289 246.736 63.5952 247.31 63.9206C248.468 64.5809 249.77 65.3178 251.186 66.1216C254.019 67.7485 257.33 69.6529 260.87 71.6912C262.641 72.7056 264.469 73.7583 266.335 74.8301C267.263 75.366 268.201 75.9019 269.139 76.4474C270.029 77.0216 271.081 77.2513 272.134 77.2321C272.66 77.2321 273.187 77.1652 273.694 77.0216C274.201 76.8972 274.641 76.6675 275.12 76.3804C276.058 75.8445 277.005 75.3086 277.933 74.7727C279.799 73.7105 281.627 72.6578 283.398 71.6434C286.948 69.6146 290.259 67.7198 293.092 66.1025C294.518 65.2986 295.819 64.5617 296.977 63.911C297.561 63.5856 298.097 63.2794 298.604 63.0019C299.111 62.7339 299.571 62.466 299.848 62.0832C300.135 61.7195 300.231 61.2697 300.135 60.9156C300.059 60.5616 299.858 60.2936 299.685 60.1118C299.513 59.93 299.351 59.8151 299.236 59.7386C299.13 59.6716 299.073 59.6333 299.073 59.6333Z" fill="#F1F2F2"/>
<path d="M338.476 83.7593C338.476 84.3335 338.094 84.9172 337.338 85.3574L313.088 99.358C311.566 100.238 309.116 100.229 307.604 99.358L283.517 85.3574C282.771 84.9172 282.388 84.3526 282.388 83.7784L282.56 143.657C282.56 144.231 282.933 144.795 283.689 145.236L307.777 159.236C309.279 160.107 311.738 160.117 313.26 159.236L337.51 145.236C338.275 144.795 338.658 144.212 338.649 143.637L338.476 83.7593Z" fill="url(#paint44_linear)"/>
<path d="M307.786 68.1891C309.308 67.3087 311.758 67.3087 313.27 68.1891L337.357 82.1897C338.859 83.0606 338.859 84.4865 337.338 85.3669L313.088 99.3675C311.566 100.248 309.116 100.238 307.604 99.3675L283.517 85.3669C282.005 84.4865 282.015 83.0701 283.536 82.1897L307.786 68.1891Z" fill="#F2F4F8"/>
<path d="M334.82 92.8601L314.839 104.392C314.226 104.746 313.729 104.535 313.729 103.923C313.729 103.31 314.226 102.526 314.839 102.181L334.82 90.6495C335.433 90.2954 335.93 90.5059 335.93 91.1184C335.921 91.7213 335.423 92.506 334.82 92.8601Z" fill="url(#paint45_linear)"/>
<path d="M314.063 104.001C314.063 103.389 314.561 102.604 315.174 102.259L335.155 90.7279C335.337 90.6226 335.5 90.5843 335.653 90.5748C335.452 90.4504 335.155 90.4599 334.82 90.6609L314.839 102.192C314.226 102.547 313.729 103.331 313.729 103.934C313.729 104.365 313.977 104.575 314.341 104.556C314.178 104.451 314.063 104.269 314.063 104.001Z" fill="url(#paint46_linear)"/>
<path d="M334.82 98.4968L314.839 110.028C314.226 110.382 313.729 110.172 313.729 109.559C313.729 108.947 314.226 108.162 314.839 107.818L334.82 96.2862C335.433 95.9321 335.93 96.1426 335.93 96.7551C335.921 97.358 335.423 98.1427 334.82 98.4968Z" fill="url(#paint47_linear)"/>
<path d="M314.063 109.638C314.063 109.025 314.561 108.241 315.174 107.896L335.155 96.3646C335.337 96.2593 335.5 96.2211 335.653 96.2115C335.452 96.0871 335.155 96.0967 334.82 96.2976L314.839 107.829C314.226 108.183 313.729 108.968 313.729 109.571C313.729 110.002 313.977 110.212 314.341 110.193C314.178 110.088 314.063 109.906 314.063 109.638Z" fill="url(#paint48_linear)"/>
<path d="M334.82 104.134L314.839 115.665C314.226 116.019 313.729 115.809 313.729 115.196C313.729 114.584 314.226 113.799 314.839 113.455L334.82 101.923C335.433 101.569 335.93 101.779 335.93 102.392C335.921 102.995 335.423 103.779 334.82 104.134Z" fill="url(#paint49_linear)"/>
<path d="M314.063 115.275C314.063 114.662 314.561 113.877 315.174 113.533L335.155 102.001C335.337 101.896 335.5 101.858 335.653 101.848C335.452 101.724 335.155 101.733 334.82 101.934L314.839 113.466C314.226 113.82 313.729 114.605 313.729 115.208C313.729 115.638 313.977 115.849 314.341 115.83C314.178 115.724 314.063 115.543 314.063 115.275Z" fill="url(#paint50_linear)"/>
<path d="M334.82 109.77L314.839 121.301C314.226 121.655 313.729 121.445 313.729 120.832C313.729 120.22 314.226 119.435 314.839 119.091L334.82 107.559C335.433 107.205 335.93 107.416 335.93 108.028C335.921 108.631 335.423 109.416 334.82 109.77Z" fill="url(#paint51_linear)"/>
<path d="M314.063 120.911C314.063 120.298 314.561 119.514 315.174 119.169L335.155 107.638C335.337 107.532 335.5 107.494 335.653 107.484C335.452 107.36 335.155 107.37 334.82 107.571L314.839 119.102C314.226 119.456 313.729 120.241 313.729 120.844C313.729 121.275 313.977 121.485 314.341 121.466C314.178 121.361 314.063 121.179 314.063 120.911Z" fill="url(#paint52_linear)"/>
<path d="M334.82 115.406L314.839 126.938C314.226 127.292 313.729 127.082 313.729 126.469C313.729 125.857 314.226 125.072 314.839 124.727L334.82 113.196C335.433 112.842 335.93 113.052 335.93 113.665C335.921 114.268 335.423 115.052 334.82 115.406Z" fill="url(#paint53_linear)"/>
<path d="M314.063 126.548C314.063 125.935 314.561 125.15 315.174 124.806L335.155 113.274C335.337 113.169 335.5 113.131 335.653 113.121C335.452 112.997 335.155 113.006 334.82 113.207L314.839 124.739C314.226 125.093 313.729 125.878 313.729 126.481C313.729 126.911 313.977 127.122 314.341 127.103C314.178 126.997 314.063 126.816 314.063 126.548Z" fill="url(#paint54_linear)"/>
<path d="M334.82 121.043L314.839 132.575C314.226 132.929 313.729 132.718 313.729 132.106C313.729 131.493 314.226 130.709 314.839 130.364L334.82 118.833C335.433 118.478 335.93 118.689 335.93 119.301C335.921 119.904 335.423 120.689 334.82 121.043Z" fill="url(#paint55_linear)"/>
<path d="M314.063 132.184C314.063 131.572 314.561 130.787 315.174 130.443L335.155 118.911C335.337 118.806 335.5 118.767 335.653 118.758C335.452 118.633 335.155 118.643 334.82 118.844L314.839 130.376C314.226 130.73 313.729 131.514 313.729 132.117C313.729 132.548 313.977 132.758 314.341 132.739C314.178 132.634 314.063 132.452 314.063 132.184Z" fill="url(#paint56_linear)"/>
<path d="M334.82 126.679L314.839 138.211C314.226 138.565 313.729 138.355 313.729 137.742C313.729 137.13 314.226 136.345 314.839 136L334.82 124.469C335.433 124.115 335.93 124.325 335.93 124.938C335.921 125.541 335.423 126.325 334.82 126.679Z" fill="url(#paint57_linear)"/>
<path d="M314.063 137.821C314.063 137.208 314.561 136.423 315.174 136.079L335.155 124.547C335.337 124.442 335.5 124.404 335.653 124.394C335.452 124.27 335.155 124.279 334.82 124.48L314.839 136.012C314.226 136.366 313.729 137.151 313.729 137.754C313.729 138.184 313.977 138.395 314.341 138.376C314.178 138.27 314.063 138.088 314.063 137.821Z" fill="url(#paint58_linear)"/>
<path d="M334.82 132.316L314.839 143.848C314.226 144.202 313.729 143.991 313.729 143.379C313.729 142.766 314.226 141.982 314.839 141.637L334.82 130.106C335.433 129.751 335.93 129.962 335.93 130.574C335.921 131.177 335.423 131.962 334.82 132.316Z" fill="url(#paint59_linear)"/>
<path d="M314.063 143.457C314.063 142.845 314.561 142.06 315.174 141.716L335.155 130.184C335.337 130.079 335.5 130.04 335.653 130.031C335.452 129.906 335.155 129.916 334.82 130.117L314.839 141.649C314.226 142.003 313.729 142.787 313.729 143.39C313.729 143.821 313.977 144.031 314.341 144.012C314.178 143.907 314.063 143.725 314.063 143.457Z" fill="url(#paint60_linear)"/>
<path d="M334.82 137.953L314.839 149.484C314.226 149.839 313.729 149.628 313.729 149.016C313.729 148.403 314.226 147.618 314.839 147.274L334.82 135.742C335.433 135.388 335.93 135.599 335.93 136.211C335.921 136.814 335.423 137.599 334.82 137.953Z" fill="url(#paint61_linear)"/>
<path d="M314.063 149.094C314.063 148.482 314.561 147.697 315.174 147.352L335.155 135.821C335.337 135.715 335.5 135.677 335.653 135.668C335.452 135.543 335.155 135.553 334.82 135.754L314.839 147.285C314.226 147.639 313.729 148.424 313.729 149.027C313.729 149.458 313.977 149.668 314.341 149.649C314.178 149.544 314.063 149.362 314.063 149.094Z" fill="url(#paint62_linear)"/>
<path d="M334.82 143.59L314.839 155.121C314.226 155.475 313.729 155.265 313.729 154.652C313.729 154.04 314.226 153.255 314.839 152.911L334.82 141.379C335.433 141.025 335.93 141.235 335.93 141.848C335.921 142.451 335.423 143.235 334.82 143.59Z" fill="url(#paint63_linear)"/>
<path d="M314.063 154.731C314.063 154.118 314.561 153.333 315.174 152.989L335.155 141.457C335.337 141.352 335.5 141.314 335.653 141.304C335.452 141.18 335.155 141.189 334.82 141.39L314.839 152.922C314.226 153.276 313.729 154.061 313.729 154.664C313.729 155.094 313.977 155.305 314.341 155.286C314.178 155.18 314.063 154.999 314.063 154.731Z" fill="url(#paint64_linear)"/>
<path d="M305.566 146.91L288.522 137.072V100.018L305.566 109.856V146.91Z" fill="url(#paint65_linear)"/>
<path d="M289.183 101.3L305.566 110.765V109.856L288.522 100.018V137.072L289.183 137.455V101.3Z" fill="url(#paint66_linear)"/>
<path d="M337.357 82.1895C337.357 82.1895 337.414 82.2277 337.529 82.2947C337.644 82.3617 337.807 82.4765 337.988 82.6584C338.17 82.8402 338.381 83.0986 338.467 83.4622C338.572 83.8259 338.486 84.2948 338.189 84.6872C337.912 85.0891 337.433 85.3858 336.936 85.6633C336.438 85.9599 335.912 86.2757 335.338 86.6107C334.189 87.2806 332.907 88.0462 331.5 88.8787C328.677 90.5247 325.385 92.4483 321.854 94.5058C320.093 95.5393 318.265 96.6015 316.409 97.6829C315.48 98.2188 314.552 98.7643 313.614 99.3194C313.174 99.5969 312.638 99.884 312.093 100.018C311.547 100.171 310.983 100.248 310.418 100.257C309.298 100.276 308.131 99.9988 307.193 99.3864C306.255 98.8409 305.327 98.2858 304.398 97.7499C302.552 96.6685 300.724 95.5967 298.963 94.5632C295.441 92.4961 292.149 90.563 289.336 88.9074C287.929 88.0749 286.647 87.3093 285.498 86.6298C284.924 86.2853 284.398 85.9695 283.9 85.6729C283.412 85.3953 282.933 85.0987 282.656 84.6872C282.369 84.2948 282.292 83.8163 282.407 83.4622C282.503 83.0986 282.723 82.8402 282.895 82.6679C283.077 82.4861 283.24 82.3808 283.355 82.3043C283.469 82.2373 283.527 82.199 283.527 82.199C283.527 82.199 283.469 82.2373 283.364 82.3043C283.259 82.3713 283.096 82.4861 282.914 82.6775C282.742 82.8593 282.541 83.1177 282.455 83.4718C282.359 83.8259 282.445 84.2757 282.723 84.6393C283 85.0221 283.46 85.2901 283.967 85.5676C284.465 85.8451 285.01 86.1513 285.584 86.4767C286.742 87.137 288.044 87.8739 289.46 88.6778C292.293 90.3046 295.594 92.209 299.145 94.2474C300.915 95.2618 302.743 96.3145 304.609 97.3863C305.537 97.9222 306.475 98.4581 307.413 99.0036C308.303 99.5778 309.356 99.8074 310.408 99.7883C310.935 99.7883 311.461 99.7213 311.968 99.5778C312.475 99.4533 312.916 99.2237 313.394 98.9366C314.332 98.4007 315.279 97.8648 316.208 97.3289C318.074 96.2666 319.902 95.2139 321.672 94.1995C325.222 92.1707 328.534 90.2759 331.366 88.6586C332.792 87.8548 334.094 87.1179 335.252 86.4671C335.835 86.1418 336.371 85.8355 336.878 85.558C337.386 85.2901 337.845 85.0221 338.122 84.6393C338.41 84.2757 338.505 83.8259 338.41 83.4718C338.333 83.1177 338.132 82.8498 337.96 82.6679C337.787 82.4861 337.625 82.3713 337.51 82.2947C337.414 82.2277 337.357 82.1895 337.357 82.1895Z" fill="#F1F2F2"/>
<path d="M376.191 105.243C376.191 105.817 375.808 106.401 375.052 106.841L350.802 120.842C349.281 121.722 346.831 121.713 345.319 120.842L321.232 106.841C320.485 106.401 320.103 105.836 320.103 105.262L320.275 165.14C320.275 165.715 320.648 166.279 321.404 166.719L345.491 180.72C346.994 181.591 349.453 181.6 350.975 180.72L375.225 166.719C375.99 166.279 376.373 165.695 376.363 165.121L376.191 105.243Z" fill="url(#paint67_linear)"/>
<path d="M345.491 89.6637C347.013 88.7833 349.463 88.7833 350.975 89.6637L375.062 103.664C376.564 104.535 376.564 105.961 375.043 106.842L350.793 120.842C349.271 121.723 346.821 121.713 345.309 120.842L321.232 106.842C319.72 105.961 319.729 104.545 321.251 103.664L345.491 89.6637Z" fill="#F2F4F8"/>
<path d="M372.526 114.344L352.545 125.876C351.932 126.23 351.435 126.02 351.435 125.407C351.435 124.795 351.932 124.01 352.545 123.665L372.526 112.134C373.139 111.78 373.636 111.99 373.636 112.603C373.636 113.206 373.139 113.99 372.526 114.344Z" fill="url(#paint68_linear)"/>
<path d="M351.78 125.486C351.78 124.873 352.278 124.088 352.89 123.744L372.872 112.212C373.054 112.107 373.217 112.069 373.37 112.059C373.169 111.935 372.872 111.944 372.537 112.145L352.555 123.677C351.943 124.031 351.445 124.816 351.445 125.419C351.445 125.849 351.694 126.06 352.058 126.041C351.886 125.935 351.78 125.753 351.78 125.486Z" fill="url(#paint69_linear)"/>
<path d="M372.526 119.981L352.545 131.512C351.932 131.866 351.435 131.656 351.435 131.043C351.435 130.431 351.932 129.646 352.545 129.302L372.526 117.77C373.139 117.416 373.636 117.627 373.636 118.239C373.636 118.842 373.139 119.627 372.526 119.981Z" fill="url(#paint70_linear)"/>
<path d="M351.78 131.122C351.78 130.509 352.278 129.725 352.89 129.38L372.872 117.849C373.054 117.743 373.217 117.705 373.37 117.695C373.169 117.571 372.872 117.581 372.537 117.782L352.555 129.313C351.943 129.667 351.445 130.452 351.445 131.055C351.445 131.485 351.694 131.696 352.058 131.677C351.886 131.572 351.78 131.39 351.78 131.122Z" fill="url(#paint71_linear)"/>
<path d="M372.526 125.617L352.545 137.149C351.932 137.503 351.435 137.293 351.435 136.68C351.435 136.068 351.932 135.283 352.545 134.938L372.526 123.407C373.139 123.053 373.636 123.263 373.636 123.876C373.636 124.479 373.139 125.263 372.526 125.617Z" fill="url(#paint72_linear)"/>
<path d="M351.78 136.759C351.78 136.146 352.278 135.361 352.89 135.017L372.872 123.485C373.054 123.38 373.217 123.342 373.37 123.332C373.169 123.208 372.872 123.217 372.537 123.418L352.555 134.95C351.943 135.304 351.445 136.089 351.445 136.692C351.445 137.122 351.694 137.333 352.058 137.314C351.886 137.208 351.78 137.026 351.78 136.759Z" fill="url(#paint73_linear)"/>
<path d="M372.526 131.254L352.545 142.786C351.932 143.14 351.435 142.929 351.435 142.317C351.435 141.704 351.932 140.92 352.545 140.575L372.526 129.044C373.139 128.689 373.636 128.9 373.636 129.512C373.636 130.115 373.139 130.9 372.526 131.254Z" fill="url(#paint74_linear)"/>
<path d="M351.78 142.395C351.78 141.783 352.278 140.998 352.89 140.654L372.872 129.122C373.054 129.017 373.217 128.978 373.37 128.969C373.169 128.844 372.872 128.854 372.537 129.055L352.555 140.587C351.943 140.941 351.445 141.725 351.445 142.328C351.445 142.759 351.694 142.969 352.058 142.95C351.886 142.845 351.78 142.663 351.78 142.395Z" fill="url(#paint75_linear)"/>
<path d="M372.526 136.89L352.545 148.422C351.932 148.776 351.435 148.566 351.435 147.953C351.435 147.341 351.932 146.556 352.545 146.211L372.526 134.68C373.139 134.326 373.636 134.536 373.636 135.149C373.636 135.752 373.139 136.536 372.526 136.89Z" fill="url(#paint76_linear)"/>
<path d="M351.78 148.031C351.78 147.419 352.278 146.634 352.89 146.29L372.872 134.758C373.054 134.653 373.217 134.615 373.37 134.605C373.169 134.481 372.872 134.49 372.537 134.691L352.555 146.223C351.943 146.577 351.445 147.362 351.445 147.964C351.445 148.395 351.694 148.606 352.058 148.586C351.886 148.481 351.78 148.299 351.78 148.031Z" fill="url(#paint77_linear)"/>
<path d="M372.526 142.527L352.545 154.059C351.932 154.413 351.435 154.202 351.435 153.59C351.435 152.977 351.932 152.193 352.545 151.848L372.526 140.316C373.139 139.962 373.636 140.173 373.636 140.785C373.636 141.388 373.139 142.173 372.526 142.527Z" fill="url(#paint78_linear)"/>
<path d="M351.78 153.668C351.78 153.056 352.278 152.271 352.89 151.926L372.872 140.395C373.054 140.29 373.217 140.251 373.37 140.242C373.169 140.117 372.872 140.127 372.537 140.328L352.555 151.859C351.943 152.214 351.445 152.998 351.445 153.601C351.445 154.032 351.694 154.242 352.058 154.223C351.886 154.118 351.78 153.936 351.78 153.668Z" fill="url(#paint79_linear)"/>
<path d="M372.526 148.164L352.545 159.695C351.932 160.049 351.435 159.839 351.435 159.226C351.435 158.614 351.932 157.829 352.545 157.485L372.526 145.953C373.139 145.599 373.636 145.81 373.636 146.422C373.636 147.025 373.139 147.81 372.526 148.164Z" fill="url(#paint80_linear)"/>
<path d="M351.78 159.305C351.78 158.692 352.278 157.908 352.89 157.563L372.872 146.032C373.054 145.926 373.217 145.888 373.37 145.878C373.169 145.754 372.872 145.764 372.537 145.965L352.555 157.496C351.943 157.85 351.445 158.635 351.445 159.238C351.445 159.669 351.694 159.879 352.058 159.86C351.886 159.755 351.78 159.573 351.78 159.305Z" fill="url(#paint81_linear)"/>
<path d="M372.526 153.801L352.545 165.332C351.932 165.686 351.435 165.476 351.435 164.863C351.435 164.251 351.932 163.466 352.545 163.121L372.526 151.59C373.139 151.236 373.636 151.446 373.636 152.059C373.636 152.662 373.139 153.446 372.526 153.801Z" fill="url(#paint82_linear)"/>
<path d="M351.78 164.942C351.78 164.329 352.278 163.544 352.89 163.2L372.872 151.668C373.054 151.563 373.217 151.525 373.37 151.515C373.169 151.391 372.872 151.4 372.537 151.601L352.555 163.133C351.943 163.487 351.445 164.272 351.445 164.875C351.445 165.305 351.694 165.516 352.058 165.497C351.886 165.391 351.78 165.21 351.78 164.942Z" fill="url(#paint83_linear)"/>
<path d="M372.526 159.437L352.545 170.968C351.932 171.322 351.435 171.112 351.435 170.499C351.435 169.887 351.932 169.102 352.545 168.758L372.526 157.226C373.139 156.872 373.636 157.083 373.636 157.695C373.636 158.298 373.139 159.083 372.526 159.437Z" fill="url(#paint84_linear)"/>
<path d="M351.78 170.578C351.78 169.965 352.278 169.181 352.89 168.836L372.872 157.305C373.054 157.199 373.217 157.161 373.37 157.151C373.169 157.027 372.872 157.037 372.537 157.238L352.555 168.769C351.943 169.123 351.445 169.908 351.445 170.511C351.445 170.941 351.694 171.152 352.058 171.133C351.886 171.028 351.78 170.846 351.78 170.578Z" fill="url(#paint85_linear)"/>
<path d="M372.526 165.073L352.545 176.605C351.932 176.959 351.435 176.749 351.435 176.136C351.435 175.524 351.932 174.739 352.545 174.394L372.526 162.863C373.139 162.509 373.636 162.719 373.636 163.332C373.636 163.935 373.139 164.719 372.526 165.073Z" fill="url(#paint86_linear)"/>
<path d="M351.78 176.215C351.78 175.602 352.278 174.817 352.89 174.473L372.872 162.941C373.054 162.836 373.217 162.798 373.37 162.788C373.169 162.664 372.872 162.673 372.537 162.874L352.555 174.406C351.943 174.76 351.445 175.545 351.445 176.148C351.445 176.578 351.694 176.789 352.058 176.77C351.886 176.664 351.78 176.483 351.78 176.215Z" fill="url(#paint87_linear)"/>
<path d="M343.28 168.394L326.237 158.557V121.502L343.28 131.34V168.394Z" fill="url(#paint88_linear)"/>
<path d="M326.897 122.785L343.28 132.24V131.34L326.237 121.502V158.557L326.897 158.93V122.785Z" fill="url(#paint89_linear)"/>
<path d="M375.062 103.588C375.062 103.588 375.119 103.626 375.234 103.693C375.349 103.76 375.511 103.875 375.693 104.057C375.875 104.239 376.086 104.497 376.172 104.861C376.277 105.224 376.191 105.693 375.894 106.086C375.617 106.488 375.138 106.784 374.65 107.062C374.153 107.358 373.626 107.674 373.052 108.009C371.904 108.679 370.621 109.445 369.215 110.277C366.391 111.923 363.099 113.847 359.568 115.904C357.807 116.938 355.98 118 354.123 119.081C353.195 119.617 352.266 120.163 351.329 120.718C350.888 120.995 350.352 121.282 349.807 121.416C349.262 121.57 348.697 121.646 348.132 121.656C347.013 121.675 345.845 121.397 344.907 120.785C343.969 120.239 343.041 119.684 342.113 119.148C340.266 118.067 338.438 116.995 336.677 115.962C333.156 113.895 329.864 111.961 327.05 110.306C325.643 109.473 324.361 108.708 323.213 108.028C322.638 107.684 322.112 107.368 321.614 107.071C321.126 106.794 320.648 106.497 320.37 106.086C320.083 105.693 320.007 105.215 320.121 104.861C320.217 104.497 320.437 104.239 320.61 104.066C320.791 103.885 320.954 103.779 321.069 103.703C321.184 103.636 321.241 103.597 321.241 103.597C321.241 103.597 321.184 103.636 321.078 103.703C320.973 103.77 320.811 103.885 320.629 104.076C320.456 104.258 320.255 104.516 320.169 104.87C320.074 105.224 320.16 105.674 320.437 106.038C320.715 106.421 321.174 106.689 321.681 106.966C322.179 107.244 322.724 107.55 323.299 107.875C324.457 108.535 325.758 109.272 327.174 110.076C330.007 111.703 333.309 113.607 336.859 115.646C338.629 116.66 340.457 117.713 342.323 118.785C343.252 119.321 344.19 119.857 345.127 120.402C346.017 120.976 347.07 121.206 348.123 121.187C348.649 121.187 349.175 121.12 349.683 120.976C350.19 120.852 350.63 120.622 351.108 120.335C352.046 119.799 352.994 119.263 353.922 118.727C355.788 117.665 357.616 116.612 359.386 115.598C362.937 113.569 366.248 111.674 369.081 110.057C370.506 109.253 371.808 108.516 372.966 107.866C373.55 107.54 374.086 107.234 374.593 106.956C375.1 106.688 375.559 106.421 375.837 106.038C376.124 105.674 376.22 105.224 376.124 104.87C376.047 104.516 375.846 104.258 375.674 104.066C375.502 103.885 375.339 103.77 375.224 103.693C375.119 103.626 375.062 103.588 375.062 103.588Z" fill="#F1F2F2"/>
<g opacity="0.33" filter="url(#filter5_f)">
<path d="M-19.4303 221.099C-18.5977 220.62 -17.2579 220.62 -16.4254 221.099L7.07803 234.755C7.90103 235.233 7.90102 236.008 7.06845 236.496L-16.5881 250.152C-17.4206 250.631 -18.7604 250.631 -19.5929 250.152L-43.0963 236.496C-43.9193 236.018 -43.9194 235.243 -43.0868 234.755L-19.4303 221.099Z" fill="#020E14"/>
</g>
<mask id="mask2" mask-type="alpha" maskUnits="userSpaceOnUse" x="79" y="170" width="62" height="37">
<path d="M110.096 206.812C126.903 206.812 140.528 198.628 140.528 188.534C140.528 178.439 126.903 170.255 110.096 170.255C93.2891 170.255 79.6643 178.439 79.6643 188.534C79.6643 198.628 93.2891 206.812 110.096 206.812Z" fill="url(#paint90_radial)"/>
</mask>
<g mask="url(#mask2)">
<path d="M133.753 183.988L133.763 187.73C133.772 191.405 131.351 195.089 126.49 197.893C116.834 203.463 101.225 203.472 91.6365 197.893C86.8708 195.128 84.4879 191.501 84.4783 187.864L84.4688 184.122C84.4783 187.749 86.8612 191.376 91.627 194.151C101.216 199.721 116.824 199.721 126.48 194.151C131.332 191.347 133.763 187.663 133.753 183.988Z" fill="url(#paint91_linear)"/>
<path d="M91.7326 173.959C101.389 168.389 116.987 168.389 126.586 173.959C136.175 179.529 136.127 188.572 126.471 194.142C116.815 199.711 101.207 199.721 91.6178 194.142C82.0288 188.572 82.0767 179.529 91.7326 173.959Z" fill="#F2F4F8"/>
<path d="M126.585 173.959C126.585 173.959 126.872 174.141 127.427 174.485C127.695 174.667 128.049 174.858 128.422 175.136C128.796 175.423 129.217 175.758 129.695 176.122C130.135 176.533 130.633 176.983 131.121 177.519C131.58 178.083 132.107 178.677 132.509 179.423C133.37 180.859 134.011 182.773 133.791 184.878C133.59 186.964 132.557 189.127 130.911 190.859C129.293 192.61 127.15 194.084 124.834 195.185C120.125 197.433 114.565 198.505 109.034 198.553C103.503 198.515 97.9331 197.453 93.2343 195.194C90.8993 194.074 88.794 192.61 87.1671 190.84C85.5402 189.079 84.5354 186.916 84.3727 184.821C84.1909 182.715 84.8608 180.811 85.7412 179.385C86.1527 178.638 86.6886 178.055 87.1479 177.49C87.6551 176.964 88.1432 176.504 88.593 176.102C89.0715 175.739 89.5021 175.404 89.8753 175.117C90.2581 174.839 90.6026 174.648 90.8802 174.476C91.4256 174.131 91.7223 173.949 91.7223 173.949C91.7223 173.949 91.4352 174.141 90.8897 174.495C90.6218 174.677 90.2773 174.877 89.9041 175.155C89.5404 175.452 89.1193 175.787 88.6504 176.16C88.2198 176.571 87.7317 177.04 87.2437 177.567C86.8034 178.141 86.2771 178.725 85.8847 179.471C85.0522 180.897 84.4397 182.753 84.6215 184.792C84.7938 186.821 85.7795 188.926 87.3872 190.629C88.9758 192.342 91.062 193.778 93.3875 194.869C98.0384 197.06 103.56 198.075 109.034 198.084C114.508 198.075 120.03 197.051 124.671 194.869C127.016 193.768 129.073 192.361 130.69 190.649C132.317 188.955 133.332 186.868 133.533 184.84C133.753 182.801 133.169 180.935 132.356 179.5C131.973 178.753 131.466 178.16 131.016 177.586C130.537 177.05 130.049 176.59 129.628 176.169C129.159 175.787 128.738 175.452 128.384 175.165C128.011 174.877 127.666 174.677 127.398 174.495C126.872 174.15 126.585 173.959 126.585 173.959Z" fill="#F1F2F2"/>
<path d="M103.847 177.605C104.421 177.28 105.139 177.021 105.972 176.897C108.498 176.504 111.092 177.375 111.761 178.839C112.096 179.576 111.886 180.313 111.273 180.926C109.809 182.38 110.048 182.821 110.604 183.337C111.493 183.663 112.25 183.797 114.766 182.954C115.819 182.6 117.111 182.486 118.374 182.677C120.901 183.069 122.394 184.572 121.704 186.036C121.475 186.514 121.044 186.936 120.47 187.27C119.312 187.94 117.58 188.247 115.886 187.979C114.623 187.778 113.618 187.309 113.015 186.696C111.57 185.242 110.795 185.136 109.752 185.156C109.484 185.242 109.254 185.318 109.044 185.443C108.536 185.739 108.23 186.237 108.23 187.443C108.23 188.151 107.761 188.849 106.833 189.385C104.976 190.457 101.972 190.457 100.134 189.385C98.2872 188.314 98.2967 186.572 100.153 185.5C101.082 184.964 102.297 184.696 103.512 184.696C105.589 184.696 106.45 184.524 106.967 184.227C107.168 184.112 107.321 183.969 107.455 183.816C107.493 183.213 107.321 182.763 104.814 181.921C103.761 181.567 102.948 180.983 102.613 180.256C102.153 179.27 102.68 178.275 103.847 177.605Z" fill="url(#paint92_linear)"/>
</g>
<g opacity="0.33" filter="url(#filter6_f)">
<path d="M167.079 189.178C170.417 183.565 205.444 197.032 245.304 219.267C285.165 241.495 314.767 264.067 311.428 269.686C308.089 275.299 273.063 261.832 233.202 239.597C193.342 217.362 163.74 194.79 167.079 189.178Z" fill="#020E14"/>
</g>
<path d="M295.138 175.346C298.516 177.298 301.244 182.016 301.234 185.902L301.014 262.288C301.004 266.173 298.258 267.742 294.88 265.79L173.659 195.806C170.281 193.854 167.554 189.127 167.563 185.241L167.783 108.855C167.793 104.97 170.539 103.41 173.918 105.362L295.138 175.346ZM173.516 181.854C173.506 185.739 176.233 190.466 179.612 192.419L288.966 255.55C292.344 257.503 295.09 255.933 295.1 252.048L295.282 189.299C295.291 185.423 292.564 180.696 289.186 178.743L179.832 115.612C176.454 113.659 173.707 115.229 173.697 119.105L173.516 181.854Z" fill="#EBF2FF"/>
<path d="M176.119 101.123C177.229 100.473 178.769 100.568 180.473 101.554L301.693 171.538C305.071 173.49 307.799 178.208 307.789 182.093L307.569 258.479C307.559 260.412 306.88 261.771 305.779 262.403L299.224 266.212C300.325 265.57 301.004 264.211 301.014 262.288L301.234 185.902C301.243 182.017 298.516 177.299 295.138 175.346L173.917 105.363C172.214 104.377 170.683 104.291 169.563 104.932L176.119 101.123Z" fill="#C7D7F0"/>
<path d="M301.119 262.144C301.119 262.144 301.081 247.828 301.024 226.353C301.033 215.616 301.043 203.089 301.052 189.672C301.052 188.83 301.052 187.988 301.052 187.146C301.043 186.304 301.091 185.443 300.976 184.639C300.775 183.002 300.153 181.395 299.32 179.93C298.469 178.476 297.378 177.126 296.028 176.102C295.368 175.595 294.593 175.193 293.827 174.744C293.071 174.303 292.306 173.873 291.54 173.432C285.434 169.92 279.224 166.36 273.022 162.791C248.256 148.427 223.499 134.053 204.924 123.277C186.387 112.435 174.033 105.209 174.033 105.209C174.033 105.209 186.473 112.301 205.125 122.933C223.748 133.632 248.572 147.891 273.396 162.15C279.587 165.738 285.779 169.337 291.875 172.868C292.641 173.308 293.397 173.748 294.153 174.188C294.899 174.629 295.693 175.04 296.411 175.595C297.846 176.686 298.966 178.103 299.856 179.624C300.717 181.155 301.359 182.82 301.569 184.572C301.684 185.452 301.636 186.304 301.636 187.146C301.636 187.988 301.627 188.83 301.627 189.672C301.56 203.089 301.493 215.616 301.445 226.353C301.234 247.828 301.119 262.144 301.119 262.144Z" fill="#F1F2F2"/>
<path d="M179.841 115.612C176.463 113.659 173.716 115.229 173.707 119.105L173.525 181.854C173.515 185.739 176.243 190.466 179.621 192.419L288.975 255.551C292.353 257.503 295.099 255.933 295.109 252.048L295.291 189.299C295.3 185.423 292.573 180.696 289.195 178.743L179.841 115.612Z" fill="url(#paint93_linear)"/>
<path d="M179.841 115.612C176.463 113.659 173.716 115.229 173.707 119.105L173.525 181.854C173.515 185.739 176.243 190.466 179.621 192.419L288.975 255.551C292.353 257.503 295.099 255.933 295.109 252.048L295.291 189.299C295.3 185.423 292.573 180.696 289.195 178.743L179.841 115.612Z" fill="url(#paint94_linear)"/>
<path d="M185.726 165.786V193.912" stroke="white" stroke-width="0.7501" stroke-miterlimit="10" stroke-linecap="round"/>
<path d="M204.388 163.729V206.706" stroke="white" stroke-width="0.3504" stroke-miterlimit="10"/>
<path d="M248.236 178.993V232.028" stroke="white" stroke-width="0.3893" stroke-miterlimit="10"/>
<path d="M223.115 187.778V215.511" stroke="white" stroke-width="0.7501" stroke-miterlimit="10" stroke-linecap="round"/>
<mask id="mask3" mask-type="alpha" maskUnits="userSpaceOnUse" x="173" y="161" width="123" height="96">
<path d="M283.616 215.099C277.223 216.726 260.361 223.281 249.289 216.889C239.538 211.262 232.504 201.271 228.446 194.754C228.035 194.074 227.652 193.443 227.288 192.849C226.216 191.079 224.628 188.39 222.704 185.337C217.776 177.547 210.608 167.336 204.158 163.614C192.722 157.011 178.109 167.633 173.573 169.978L173.535 181.863C173.516 185.749 176.243 190.476 179.631 192.428L288.975 255.56C292.363 257.513 295.09 255.943 295.109 252.058L295.215 214.104C291.042 213.664 287.166 214.19 283.616 215.099Z" fill="url(#paint95_linear)"/>
</mask>
<g mask="url(#mask3)">
<path d="M283.616 215.099C277.223 216.726 260.361 223.281 249.289 216.889C239.538 211.262 232.504 201.271 228.446 194.754C228.035 194.074 227.652 193.443 227.288 192.849C226.216 191.079 224.628 188.39 222.704 185.337C217.776 177.547 210.608 167.336 204.158 163.614C192.722 157.011 178.109 167.633 173.573 169.978L173.535 181.863C173.516 185.749 176.243 190.476 179.631 192.428L288.975 255.56C292.363 257.513 295.09 255.943 295.109 252.058L295.215 214.104C291.042 213.664 287.166 214.19 283.616 215.099Z" fill="url(#paint96_linear)"/>
</g>
<mask id="mask4" mask-type="alpha" maskUnits="userSpaceOnUse" x="173" y="146" width="123" height="111">
<path d="M295.157 234.976L295.109 252.048C295.09 255.933 292.353 257.503 288.975 255.551L179.631 192.419C176.243 190.467 173.516 185.739 173.535 181.854L173.63 146.79C175.985 148.216 179.315 153.489 183.344 159.843C183.506 160.102 183.669 160.36 183.832 160.618C190.033 170.427 197.785 182.524 206.005 187.261C218.714 194.601 238.542 173.365 247.653 178.619C251.002 180.552 253.988 184.304 256.84 188.849C261.108 195.663 265.06 204.247 269.395 211.109C271.415 214.324 273.52 217.157 275.788 219.252C281.98 225.033 288.65 230.918 295.157 234.976Z" fill="url(#paint97_linear)"/>
</mask>
<g mask="url(#mask4)">
<path d="M295.157 234.976L295.109 252.048C295.09 255.933 292.353 257.503 288.975 255.551L179.631 192.419C176.243 190.467 173.516 185.739 173.535 181.854L173.63 146.79C175.985 148.216 179.315 153.489 183.344 159.843C183.506 160.102 183.669 160.36 183.832 160.618C190.033 170.427 197.785 182.524 206.005 187.261C218.714 194.601 238.542 173.365 247.653 178.619C251.002 180.552 253.988 184.304 256.84 188.849C261.108 195.663 265.06 204.247 269.395 211.109C271.415 214.324 273.52 217.157 275.788 219.252C281.98 225.033 288.65 230.918 295.157 234.976Z" fill="url(#paint98_linear)"/>
<path d="M173.525 146.742C179.496 150.139 192.081 179.251 205.986 187.28C218.694 194.62 238.523 173.394 247.633 178.648C258.323 184.82 265.433 209.663 275.768 219.281C281.97 225.061 288.64 230.928 295.147 234.995" stroke="#09BDFF" stroke-width="0.9377" stroke-miterlimit="10"/>
<path d="M173.563 169.968C178.09 167.633 192.722 157.001 204.158 163.604C213.134 168.782 223.489 186.533 227.278 192.84C231.068 199.156 238.513 210.668 249.279 216.889C260.342 223.281 277.213 216.717 283.606 215.09C287.166 214.19 291.042 213.664 295.205 214.085" stroke="#EC82FF" stroke-width="0.9377" stroke-miterlimit="10"/>
<path d="M187.354 164.341C187.354 165.241 186.626 165.547 185.727 165.03C184.827 164.513 184.1 163.365 184.1 162.465C184.1 161.566 184.827 161.26 185.727 161.776C186.626 162.293 187.354 163.442 187.354 164.341Z" fill="#66A6FF"/>
<path d="M224.742 187.079C224.742 187.979 224.015 188.285 223.116 187.768C222.216 187.252 221.489 186.103 221.489 185.204C221.489 184.304 222.216 183.998 223.116 184.515C224.015 185.041 224.742 186.189 224.742 187.079Z" fill="#66A6FF"/>
<path d="M249.863 179.93C249.863 180.83 249.136 181.136 248.236 180.619C247.337 180.103 246.609 178.954 246.609 178.055C246.609 177.155 247.337 176.849 248.236 177.366C249.136 177.892 249.863 179.031 249.863 179.93Z" fill="#BB4FFF"/>
<path d="M206.091 164.666C206.091 165.566 205.364 165.872 204.464 165.355C203.565 164.839 202.837 163.69 202.837 162.791C202.837 161.891 203.565 161.585 204.464 162.102C205.364 162.618 206.091 163.767 206.091 164.666Z" fill="#BB4FFF"/>
</g>
<path d="M271.865 208.421L268.873 206.693V205.966L269.948 205.333C270.266 205.14 270.474 205 270.571 204.912C270.669 204.822 270.739 204.727 270.782 204.628C270.825 204.529 270.846 204.413 270.846 204.28C270.846 204.081 270.798 203.906 270.703 203.754C270.609 203.603 270.483 203.482 270.325 203.391C270.159 203.295 269.998 203.246 269.842 203.244C269.686 203.241 269.523 203.272 269.353 203.336L268.861 202.38C269.072 202.294 269.247 202.248 269.385 202.243C269.524 202.237 269.675 202.259 269.839 202.309C270.003 202.356 270.187 202.438 270.39 202.556C270.657 202.71 270.893 202.903 271.098 203.134C271.303 203.365 271.462 203.614 271.575 203.882C271.688 204.151 271.745 204.415 271.745 204.677C271.745 204.905 271.71 205.098 271.64 205.258C271.571 205.417 271.464 205.559 271.318 205.684C271.173 205.811 270.918 205.961 270.551 206.137L270 206.418V206.465L271.865 207.542V208.421ZM275.267 207.914C275.267 208.777 275.144 209.345 274.898 209.618C274.654 209.891 274.277 209.881 273.768 209.587C273.274 209.302 272.901 208.873 272.65 208.299C272.4 207.727 272.275 207.022 272.275 206.186C272.275 205.314 272.397 204.742 272.641 204.471C272.885 204.197 273.261 204.207 273.768 204.5C274.262 204.785 274.635 205.216 274.886 205.794C275.14 206.374 275.267 207.08 275.267 207.914ZM273.174 206.705C273.174 207.312 273.219 207.772 273.308 208.088C273.4 208.402 273.553 208.621 273.768 208.745C273.979 208.867 274.131 208.822 274.225 208.61C274.318 208.398 274.365 207.993 274.365 207.393C274.365 206.787 274.317 206.324 274.222 206.006C274.128 205.686 273.977 205.465 273.768 205.345C273.555 205.222 273.403 205.267 273.311 205.48C273.22 205.691 273.174 206.099 273.174 206.705ZM277.96 211.94L277.056 211.418V208.558L277.064 208.093L277.079 207.588C276.929 207.675 276.824 207.728 276.766 207.748L276.274 207.921L275.838 207.04L277.217 206.569L277.96 206.998V211.94ZM270.349 211.539C270.758 211.775 271.088 212.074 271.338 212.435C271.59 212.794 271.716 213.156 271.716 213.521C271.716 213.774 271.655 213.964 271.534 214.093C271.413 214.219 271.218 214.282 270.949 214.282C271.269 214.665 271.498 215.005 271.637 215.301C271.777 215.596 271.848 215.873 271.848 216.129C271.848 216.535 271.71 216.782 271.435 216.872C271.16 216.958 270.797 216.872 270.349 216.613C269.88 216.342 269.512 216.015 269.245 215.631C268.978 215.247 268.844 214.844 268.844 214.422C268.844 214.141 268.908 213.928 269.037 213.783C269.168 213.64 269.377 213.568 269.664 213.567C269.42 213.248 269.244 212.956 269.137 212.691C269.029 212.427 268.976 212.174 268.976 211.932C268.976 211.579 269.102 211.366 269.356 211.294C269.61 211.221 269.941 211.303 270.349 211.539ZM269.681 214.845C269.681 215.039 269.74 215.223 269.857 215.399C269.974 215.575 270.134 215.722 270.337 215.839C270.561 215.968 270.729 216.01 270.84 215.964C270.952 215.915 271.007 215.8 271.007 215.617C271.007 215.466 270.952 215.293 270.84 215.098C270.731 214.902 270.553 214.658 270.305 214.366C269.889 214.347 269.681 214.507 269.681 214.845ZM270.343 212.299C270.189 212.21 270.064 212.184 269.968 212.222C269.874 212.258 269.827 212.352 269.827 212.505C269.827 212.641 269.865 212.784 269.939 212.935C270.015 213.085 270.151 213.273 270.349 213.499C270.54 213.506 270.674 213.477 270.75 213.413C270.826 213.349 270.864 213.246 270.864 213.104C270.864 212.948 270.815 212.797 270.717 212.651C270.62 212.504 270.495 212.387 270.343 212.299Z" fill="white"/>
<path d="M183.19 150.952L180.198 149.225V148.498L181.272 147.864C181.59 147.671 181.798 147.531 181.896 147.443C181.993 147.353 182.063 147.258 182.106 147.159C182.149 147.06 182.171 146.944 182.171 146.811C182.171 146.613 182.123 146.437 182.027 146.285C181.934 146.134 181.808 146.013 181.65 145.922C181.484 145.826 181.323 145.777 181.167 145.775C181.01 145.772 180.847 145.803 180.678 145.868L180.186 144.911C180.397 144.825 180.571 144.78 180.71 144.774C180.848 144.768 181 144.79 181.164 144.84C181.328 144.887 181.511 144.97 181.714 145.087C181.981 145.241 182.218 145.434 182.423 145.665C182.627 145.896 182.787 146.146 182.9 146.414C183.013 146.682 183.07 146.947 183.07 147.208C183.07 147.436 183.034 147.63 182.964 147.79C182.896 147.949 182.788 148.09 182.642 148.216C182.498 148.342 182.242 148.493 181.875 148.669L181.325 148.949V148.996L183.19 150.073V150.952ZM186.591 150.445C186.591 151.308 186.468 151.876 186.222 152.149C185.979 152.423 185.602 152.413 185.092 152.118C184.599 151.833 184.226 151.404 183.974 150.83C183.724 150.258 183.599 149.554 183.599 148.718C183.599 147.845 183.721 147.274 183.965 147.002C184.209 146.728 184.585 146.738 185.092 147.031C185.586 147.316 185.959 147.747 186.211 148.326C186.465 148.905 186.591 149.611 186.591 150.445ZM184.498 149.237C184.498 149.843 184.543 150.304 184.633 150.619C184.725 150.934 184.878 151.153 185.092 151.277C185.303 151.398 185.455 151.353 185.549 151.142C185.643 150.93 185.69 150.524 185.69 149.925C185.69 149.318 185.642 148.856 185.546 148.537C185.453 148.217 185.301 147.996 185.092 147.876C184.88 147.753 184.727 147.798 184.636 148.011C184.544 148.222 184.498 148.63 184.498 149.237ZM189.285 154.471L188.38 153.949V151.089L188.389 150.624L188.404 150.119C188.253 150.206 188.149 150.259 188.09 150.28L187.598 150.452L187.162 149.571L188.541 149.1L189.285 149.529V154.471ZM183.166 157.467C183.166 158.331 183.043 158.899 182.797 159.171C182.553 159.445 182.177 159.435 181.667 159.141C181.173 158.856 180.801 158.426 180.549 157.853C180.299 157.28 180.174 156.576 180.174 155.74C180.174 154.868 180.296 154.296 180.54 154.024C180.784 153.75 181.16 153.76 181.667 154.053C182.161 154.338 182.534 154.77 182.786 155.348C183.039 155.927 183.166 156.634 183.166 157.467ZM181.073 156.259C181.073 156.865 181.118 157.326 181.208 157.641C181.299 157.956 181.453 158.175 181.667 158.299C181.878 158.421 182.03 158.376 182.124 158.164C182.218 157.952 182.264 157.546 182.264 156.947C182.264 156.341 182.217 155.878 182.121 155.559C182.027 155.239 181.876 155.019 181.667 154.898C181.454 154.775 181.302 154.82 181.211 155.033C181.119 155.244 181.073 155.653 181.073 156.259Z" fill="white"/>
<path d="M213.277 161.946L210.285 160.219V159.492L211.359 158.858C211.677 158.665 211.885 158.525 211.983 158.437C212.08 158.347 212.151 158.252 212.194 158.153C212.236 158.054 212.258 157.938 212.258 157.805C212.258 157.607 212.21 157.432 212.114 157.279C212.021 157.128 211.895 157.007 211.737 156.916C211.571 156.82 211.41 156.771 211.254 156.769C211.098 156.767 210.935 156.798 210.765 156.862L210.273 155.905C210.484 155.82 210.658 155.774 210.797 155.768C210.936 155.763 211.087 155.785 211.251 155.834C211.415 155.882 211.598 155.964 211.801 156.081C212.069 156.235 212.305 156.428 212.51 156.659C212.715 156.89 212.874 157.14 212.987 157.408C213.1 157.676 213.157 157.941 213.157 158.202C213.157 158.43 213.122 158.624 213.051 158.784C212.983 158.943 212.876 159.085 212.729 159.21C212.585 159.336 212.329 159.487 211.962 159.663L211.412 159.943V159.991L213.277 161.067V161.946ZM216.679 161.439C216.679 162.302 216.556 162.87 216.31 163.143C216.066 163.417 215.689 163.407 215.18 163.113C214.686 162.827 214.313 162.398 214.061 161.825C213.811 161.252 213.687 160.548 213.687 159.712C213.687 158.84 213.809 158.268 214.053 157.996C214.296 157.722 214.672 157.732 215.18 158.025C215.673 158.31 216.046 158.742 216.298 159.32C216.552 159.899 216.679 160.605 216.679 161.439ZM214.585 160.231C214.585 160.837 214.63 161.298 214.72 161.613C214.812 161.928 214.965 162.147 215.18 162.271C215.39 162.393 215.543 162.347 215.636 162.136C215.73 161.924 215.777 161.518 215.777 160.919C215.777 160.312 215.729 159.85 215.633 159.531C215.54 159.211 215.388 158.991 215.18 158.87C214.967 158.747 214.815 158.792 214.723 159.005C214.631 159.216 214.585 159.624 214.585 160.231ZM219.372 165.466L218.467 164.943V162.083L218.476 161.619L218.491 161.113C218.34 161.2 218.236 161.253 218.177 161.274L217.686 161.446L217.249 160.565L218.628 160.094L219.372 160.523V165.466ZM213.11 167.013C213.11 167.322 213.029 167.538 212.867 167.66C212.705 167.783 212.477 167.801 212.185 167.713V167.733C212.53 167.982 212.792 168.255 212.969 168.551C213.147 168.845 213.236 169.156 213.236 169.482C213.236 169.958 213.086 170.243 212.788 170.336C212.489 170.427 212.063 170.313 211.508 169.993C211.044 169.725 210.632 169.398 210.273 169.012V168.123C210.439 168.316 210.621 168.5 210.82 168.676C211.02 168.852 211.217 168.996 211.412 169.109C211.71 169.281 211.931 169.35 212.073 169.315C212.216 169.28 212.287 169.133 212.287 168.874C212.287 168.642 212.205 168.43 212.041 168.238C211.877 168.047 211.616 167.847 211.257 167.64L210.932 167.452V166.651L211.263 166.842C211.594 167.034 211.836 167.124 211.989 167.113C212.143 167.1 212.22 166.972 212.22 166.729C212.22 166.355 212.017 166.051 211.611 165.816C211.47 165.735 211.327 165.679 211.181 165.649C211.036 165.62 210.875 165.62 210.698 165.651L210.279 164.689C210.669 164.59 211.135 164.696 211.675 165.008C212.118 165.264 212.468 165.569 212.723 165.924C212.981 166.281 213.11 166.643 213.11 167.013Z" fill="white"/>
<path d="M245.528 173.843L242.536 172.115V171.388L243.61 170.755C243.928 170.562 244.136 170.422 244.234 170.334C244.332 170.244 244.402 170.149 244.445 170.05C244.488 169.951 244.509 169.835 244.509 169.702C244.509 169.503 244.461 169.328 244.366 169.176C244.272 169.025 244.146 168.904 243.988 168.812C243.822 168.717 243.661 168.668 243.505 168.665C243.349 168.663 243.186 168.694 243.016 168.758L242.524 167.802C242.735 167.716 242.91 167.67 243.048 167.665C243.187 167.659 243.338 167.681 243.502 167.731C243.666 167.778 243.849 167.86 244.052 167.977C244.32 168.132 244.556 168.325 244.761 168.556C244.966 168.787 245.125 169.036 245.238 169.304C245.351 169.573 245.408 169.837 245.408 170.099C245.408 170.326 245.373 170.52 245.302 170.68C245.234 170.839 245.127 170.981 244.98 171.106C244.836 171.232 244.58 171.383 244.213 171.559L243.663 171.84V171.887L245.528 172.964V173.843ZM248.93 173.336C248.93 174.199 248.807 174.767 248.561 175.04C248.317 175.313 247.94 175.303 247.431 175.009C246.937 174.724 246.564 174.295 246.313 173.721C246.063 173.149 245.938 172.444 245.938 171.608C245.938 170.736 246.06 170.164 246.304 169.893C246.548 169.619 246.923 169.628 247.431 169.921C247.925 170.207 248.297 170.638 248.549 171.216C248.803 171.795 248.93 172.502 248.93 173.336ZM246.837 172.127C246.837 172.733 246.881 173.194 246.971 173.51C247.063 173.824 247.216 174.043 247.431 174.167C247.642 174.289 247.794 174.244 247.888 174.032C247.981 173.82 248.028 173.415 248.028 172.815C248.028 172.209 247.98 171.746 247.885 171.427C247.791 171.107 247.64 170.887 247.431 170.767C247.218 170.644 247.066 170.689 246.974 170.902C246.882 171.112 246.837 171.521 246.837 172.127ZM251.623 177.362L250.718 176.84V173.98L250.727 173.515L250.742 173.01C250.592 173.096 250.487 173.15 250.429 173.17L249.937 173.343L249.501 172.462L250.879 171.99L251.623 172.42V177.362ZM242.507 178.999C242.507 178.021 242.685 177.396 243.042 177.124C243.402 176.854 243.938 176.925 244.653 177.338C244.897 177.478 245.088 177.606 245.226 177.72V178.555C245.053 178.409 244.881 178.287 244.711 178.189C244.401 178.01 244.147 177.918 243.95 177.912C243.755 177.908 243.608 177.983 243.511 178.139C243.413 178.294 243.356 178.562 243.338 178.942L243.376 178.964C243.569 178.692 243.879 178.679 244.304 178.925C244.687 179.146 244.986 179.457 245.203 179.859C245.42 180.262 245.528 180.707 245.528 181.196C245.528 181.724 245.399 182.067 245.141 182.227C244.884 182.385 244.527 182.332 244.07 182.069C243.754 181.886 243.478 181.642 243.241 181.337C243.007 181.032 242.826 180.681 242.697 180.282C242.57 179.884 242.507 179.456 242.507 178.999ZM244.052 181.223C244.246 181.335 244.394 181.346 244.497 181.257C244.601 181.166 244.653 180.982 244.653 180.705C244.653 180.463 244.604 180.246 244.506 180.052C244.411 179.857 244.265 179.703 244.07 179.591C243.887 179.485 243.729 179.463 243.599 179.525C243.47 179.588 243.405 179.711 243.405 179.893C243.405 180.161 243.466 180.423 243.587 180.677C243.71 180.933 243.865 181.115 244.052 181.223Z" fill="white"/>
<path d="M322.795 217.546C323.787 218.119 324.364 218.637 324.525 219.1C324.689 219.562 324.443 219.982 323.787 220.361C323.151 220.728 322.421 220.863 321.595 220.765C320.77 220.667 319.876 220.341 318.915 219.786C317.908 219.204 317.324 218.684 317.165 218.225C317.006 217.764 317.254 217.344 317.908 216.967C318.546 216.598 319.279 216.464 320.107 216.563C320.935 216.662 321.831 216.99 322.795 217.546ZM319.845 219.249C320.624 219.699 321.259 219.974 321.752 220.075C322.246 220.174 322.67 220.122 323.021 219.919C323.373 219.716 323.46 219.47 323.283 219.182C323.108 218.891 322.637 218.524 321.869 218.081C321.103 217.639 320.468 217.367 319.962 217.264C319.457 217.159 319.029 217.208 318.677 217.411C318.326 217.614 318.237 217.859 318.412 218.146C318.589 218.432 319.066 218.8 319.845 219.249ZM329.045 217.235L328.127 217.765L324.439 215.636C323.999 215.382 323.661 215.174 323.424 215.013C323.426 215.084 323.421 215.167 323.408 215.262C323.398 215.355 323.345 215.662 323.252 216.182L322.209 216.112L322.568 214.38L323.334 213.938L329.045 217.235ZM331.936 212.268C332.928 212.841 333.505 213.359 333.666 213.823C333.831 214.284 333.584 214.704 332.928 215.083C332.293 215.45 331.562 215.585 330.737 215.487C329.911 215.389 329.018 215.063 328.057 214.508C327.049 213.926 326.465 213.406 326.307 212.947C326.148 212.486 326.395 212.066 327.049 211.689C327.687 211.32 328.42 211.186 329.248 211.285C330.076 211.384 330.972 211.712 331.936 212.268ZM328.986 213.971C329.765 214.421 330.401 214.696 330.893 214.797C331.388 214.896 331.811 214.844 332.162 214.641C332.514 214.438 332.601 214.192 332.424 213.904C332.25 213.614 331.778 213.247 331.01 212.803C330.244 212.361 329.609 212.089 329.104 211.987C328.598 211.881 328.17 211.93 327.818 212.133C327.467 212.336 327.378 212.581 327.553 212.868C327.73 213.154 328.208 213.522 328.986 213.971ZM338.186 211.957L337.268 212.487L333.581 210.358C333.14 210.104 332.802 209.896 332.565 209.736C332.567 209.806 332.562 209.889 332.549 209.984C332.539 210.077 332.487 210.384 332.393 210.904L331.35 210.834L331.709 209.102L332.475 208.66L338.186 211.957ZM342.757 209.318L341.839 209.848L338.151 207.719C337.711 207.465 337.372 207.258 337.135 207.097C337.138 207.167 337.133 207.25 337.12 207.345C337.109 207.438 337.057 207.745 336.964 208.265L335.921 208.195L336.28 206.463L337.046 206.021L342.757 209.318ZM345.648 204.352C346.64 204.925 347.217 205.443 347.378 205.906C347.542 206.367 347.296 206.788 346.64 207.167C346.005 207.533 345.274 207.668 344.448 207.57C343.623 207.473 342.73 207.146 341.769 206.591C340.761 206.01 340.177 205.489 340.018 205.031C339.86 204.569 340.107 204.149 340.761 203.772C341.399 203.404 342.132 203.269 342.96 203.368C343.788 203.468 344.684 203.795 345.648 204.352ZM342.698 206.055C343.477 206.504 344.112 206.779 344.605 206.88C345.1 206.979 345.523 206.927 345.874 206.725C346.226 206.522 346.313 206.276 346.136 205.987C345.962 205.697 345.49 205.33 344.722 204.886C343.956 204.444 343.321 204.172 342.816 204.07C342.31 203.965 341.882 204.013 341.53 204.216C341.179 204.419 341.09 204.664 341.265 204.952C341.442 205.237 341.92 205.605 342.698 206.055ZM335.732 226.374L334.814 226.904L331.127 224.775C330.687 224.521 330.348 224.313 330.111 224.152C330.114 224.223 330.108 224.306 330.095 224.4C330.085 224.494 330.033 224.8 329.939 225.321L328.896 225.251L329.255 223.519L330.021 223.076L335.732 226.374Z" fill="#E6E7E8"/>
</g>
<defs>
<filter id="filter0_f" x="168.863" y="52.8081" width="101.406" height="79.7716" filterUnits="userSpaceOnUse" color-interpolation-filters="sRGB">
<feFlood flood-opacity="0" result="BackgroundImageFix"/>
<feBlend mode="normal" in="SourceGraphic" in2="BackgroundImageFix" result="shape"/>
<feGaussianBlur stdDeviation="12.5" result="effect1_foregroundBlur"/>
</filter>
<filter id="filter1_f" x="219.082" y="85.644" width="101.406" height="79.7716" filterUnits="userSpaceOnUse" color-interpolation-filters="sRGB">
<feFlood flood-opacity="0" result="BackgroundImageFix"/>
<feBlend mode="normal" in="SourceGraphic" in2="BackgroundImageFix" result="shape"/>
<feGaussianBlur stdDeviation="12.5" result="effect1_foregroundBlur"/>
</filter>
<filter id="filter2_f" x="255.78" y="104.959" width="101.406" height="79.7716" filterUnits="userSpaceOnUse" color-interpolation-filters="sRGB">
<feFlood flood-opacity="0" result="BackgroundImageFix"/>
<feBlend mode="normal" in="SourceGraphic" in2="BackgroundImageFix" result="shape"/>
<feGaussianBlur stdDeviation="12.5" result="effect1_foregroundBlur"/>
</filter>
<filter id="filter3_f" x="294.411" y="126.206" width="101.407" height="79.7716" filterUnits="userSpaceOnUse" color-interpolation-filters="sRGB">
<feFlood flood-opacity="0" result="BackgroundImageFix"/>
<feBlend mode="normal" in="SourceGraphic" in2="BackgroundImageFix" result="shape"/>
<feGaussianBlur stdDeviation="12.5" result="effect1_foregroundBlur"/>
</filter>
<filter id="filter4_f" x="334.972" y="149.384" width="101.406" height="79.7716" filterUnits="userSpaceOnUse" color-interpolation-filters="sRGB">
<feFlood flood-opacity="0" result="BackgroundImageFix"/>
<feBlend mode="normal" in="SourceGraphic" in2="BackgroundImageFix" result="shape"/>
<feGaussianBlur stdDeviation="12.5" result="effect1_foregroundBlur"/>
</filter>
<filter id="filter5_f" x="-68.7124" y="195.74" width="101.406" height="79.7716" filterUnits="userSpaceOnUse" color-interpolation-filters="sRGB">
<feFlood flood-opacity="0" result="BackgroundImageFix"/>
<feBlend mode="normal" in="SourceGraphic" in2="BackgroundImageFix" result="shape"/>
<feGaussianBlur stdDeviation="12.5" result="effect1_foregroundBlur"/>
</filter>
<filter id="filter6_f" x="141.822" y="162.904" width="194.863" height="133.055" filterUnits="userSpaceOnUse" color-interpolation-filters="sRGB">
<feFlood flood-opacity="0" result="BackgroundImageFix"/>
<feBlend mode="normal" in="SourceGraphic" in2="BackgroundImageFix" result="shape"/>
<feGaussianBlur stdDeviation="12.5" result="effect1_foregroundBlur"/>
</filter>
<linearGradient id="paint0_linear" x1="187" y1="0" x2="187" y2="215" gradientUnits="userSpaceOnUse">
<stop stop-color="#B570EB"/>
<stop offset="1" stop-color="#8845F4"/>
</linearGradient>
<radialGradient id="paint1_radial" cx="0" cy="0" r="1" gradientUnits="userSpaceOnUse" gradientTransform="rotate(29.8931) scale(431.394 259.03)">
<stop stop-color="white" stop-opacity="0.4"/>
<stop offset="1" stop-color="white" stop-opacity="0"/>
</radialGradient>
<linearGradient id="paint2_linear" x1="0" y1="0" x2="26.9902" y2="245.011" gradientUnits="userSpaceOnUse">
<stop stop-color="white"/>
<stop offset="1" stop-color="#EEEDED" stop-opacity="0.5"/>
</linearGradient>
<radialGradient id="paint3_radial" cx="0" cy="0" r="1" gradientUnits="userSpaceOnUse" gradientTransform="translate(16) rotate(32.0804) scale(404.814 253.158)">
<stop stop-color="white"/>
<stop offset="1" stop-color="white"/>
</radialGradient>
<linearGradient id="paint4_linear" x1="16" y1="0" x2="45.363" y2="244.457" gradientUnits="userSpaceOnUse">
<stop stop-color="white"/>
<stop offset="1" stop-color="#EEEDED" stop-opacity="0.5"/>
</linearGradient>
<linearGradient id="paint5_linear" x1="192.764" y1="97.9229" x2="244.181" y2="97.9229" gradientUnits="userSpaceOnUse">
<stop stop-color="#F5F7FA"/>
<stop offset="1" stop-color="#B5C6E2"/>
</linearGradient>
<linearGradient id="paint6_linear" x1="192.762" y1="89.4438" x2="244.173" y2="89.4438" gradientUnits="userSpaceOnUse">
<stop stop-color="#F5F7FA"/>
<stop offset="1" stop-color="#CFDCF0"/>
</linearGradient>
<linearGradient id="paint7_linear" x1="192.764" y1="91.2188" x2="244.181" y2="91.2188" gradientUnits="userSpaceOnUse">
<stop stop-color="#F5F7FA"/>
<stop offset="1" stop-color="#B5C6E2"/>
</linearGradient>
<linearGradient id="paint8_linear" x1="192.763" y1="82.7389" x2="244.174" y2="82.7389" gradientUnits="userSpaceOnUse">
<stop stop-color="#F5F7FA"/>
<stop offset="1" stop-color="#CFDCF0"/>
</linearGradient>
<linearGradient id="paint9_linear" x1="192.764" y1="84.5135" x2="244.181" y2="84.5135" gradientUnits="userSpaceOnUse">
<stop stop-color="#F5F7FA"/>
<stop offset="1" stop-color="#B5C6E2"/>
</linearGradient>
<linearGradient id="paint10_linear" x1="192.763" y1="76.0339" x2="244.174" y2="76.0339" gradientUnits="userSpaceOnUse">
<stop stop-color="#F5F7FA"/>
<stop offset="1" stop-color="#CFDCF0"/>
</linearGradient>
<linearGradient id="paint11_linear" x1="212.829" y1="70.9386" x2="223.459" y2="82.6829" gradientUnits="userSpaceOnUse">
<stop stop-color="#F5F7FA"/>
<stop offset="1" stop-color="#B5C6E2"/>
</linearGradient>
<linearGradient id="paint12_linear" x1="212.829" y1="72.0845" x2="223.459" y2="83.8287" gradientUnits="userSpaceOnUse">
<stop stop-color="#F5F7FA"/>
<stop offset="1" stop-color="#B5C6E2"/>
</linearGradient>
<linearGradient id="paint13_linear" x1="212.829" y1="73.2303" x2="223.459" y2="84.9746" gradientUnits="userSpaceOnUse">
<stop stop-color="#F5F7FA"/>
<stop offset="1" stop-color="#B5C6E2"/>
</linearGradient>
<linearGradient id="paint14_linear" x1="212.829" y1="74.376" x2="223.459" y2="86.1202" gradientUnits="userSpaceOnUse">
<stop stop-color="#F5F7FA"/>
<stop offset="1" stop-color="#B5C6E2"/>
</linearGradient>
<linearGradient id="paint15_linear" x1="212.829" y1="75.5218" x2="223.459" y2="87.2661" gradientUnits="userSpaceOnUse">
<stop stop-color="#F5F7FA"/>
<stop offset="1" stop-color="#B5C6E2"/>
</linearGradient>
<linearGradient id="paint16_linear" x1="212.829" y1="76.6677" x2="223.459" y2="88.412" gradientUnits="userSpaceOnUse">
<stop stop-color="#F5F7FA"/>
<stop offset="1" stop-color="#B5C6E2"/>
</linearGradient>
<linearGradient id="paint17_linear" x1="212.829" y1="77.8128" x2="223.459" y2="89.5571" gradientUnits="userSpaceOnUse">
<stop stop-color="#F5F7FA"/>
<stop offset="1" stop-color="#B5C6E2"/>
</linearGradient>
<linearGradient id="paint18_linear" x1="212.829" y1="78.9592" x2="223.459" y2="90.7035" gradientUnits="userSpaceOnUse">
<stop stop-color="#F5F7FA"/>
<stop offset="1" stop-color="#B5C6E2"/>
</linearGradient>
<linearGradient id="paint19_linear" x1="218.473" y1="84.4189" x2="218.473" y2="15.9641" gradientUnits="userSpaceOnUse">
<stop stop-color="white"/>
<stop offset="1"/>
</linearGradient>
<linearGradient id="paint20_linear" x1="218.473" y1="84.4189" x2="218.473" y2="15.9641" gradientUnits="userSpaceOnUse">
<stop stop-color="#B5C6E2"/>
<stop offset="1" stop-color="#F5F7FA"/>
</linearGradient>
<linearGradient id="paint21_linear" x1="244.105" y1="99.2734" x2="300.365" y2="99.2734" gradientUnits="userSpaceOnUse">
<stop stop-color="#F5F7FA"/>
<stop offset="1" stop-color="#C3CFE2"/>
</linearGradient>
<linearGradient id="paint22_linear" x1="275.447" y1="74.9661" x2="297.64" y2="74.9661" gradientUnits="userSpaceOnUse">
<stop stop-color="#667EEA"/>
<stop offset="1" stop-color="#064BA2"/>
</linearGradient>
<linearGradient id="paint23_linear" x1="275.447" y1="74.9636" x2="297.366" y2="74.9636" gradientUnits="userSpaceOnUse">
<stop stop-color="#667EEA"/>
<stop offset="1" stop-color="#064BA2"/>
</linearGradient>
<linearGradient id="paint24_linear" x1="275.447" y1="80.6024" x2="297.64" y2="80.6024" gradientUnits="userSpaceOnUse">
<stop stop-color="#667EEA"/>
<stop offset="1" stop-color="#064BA2"/>
</linearGradient>
<linearGradient id="paint25_linear" x1="275.447" y1="80.5998" x2="297.366" y2="80.5998" gradientUnits="userSpaceOnUse">
<stop stop-color="#667EEA"/>
<stop offset="1" stop-color="#064BA2"/>
</linearGradient>
<linearGradient id="paint26_linear" x1="275.447" y1="86.2391" x2="297.64" y2="86.2391" gradientUnits="userSpaceOnUse">
<stop stop-color="#667EEA"/>
<stop offset="1" stop-color="#064BA2"/>
</linearGradient>
<linearGradient id="paint27_linear" x1="275.447" y1="86.2365" x2="297.366" y2="86.2365" gradientUnits="userSpaceOnUse">
<stop stop-color="#667EEA"/>
<stop offset="1" stop-color="#064BA2"/>
</linearGradient>
<linearGradient id="paint28_linear" x1="275.447" y1="91.8758" x2="297.64" y2="91.8758" gradientUnits="userSpaceOnUse">
<stop stop-color="#667EEA"/>
<stop offset="1" stop-color="#064BA2"/>
</linearGradient>
<linearGradient id="paint29_linear" x1="275.447" y1="91.8732" x2="297.366" y2="91.8732" gradientUnits="userSpaceOnUse">
<stop stop-color="#667EEA"/>
<stop offset="1" stop-color="#064BA2"/>
</linearGradient>
<linearGradient id="paint30_linear" x1="275.447" y1="97.5121" x2="297.64" y2="97.5121" gradientUnits="userSpaceOnUse">
<stop stop-color="#667EEA"/>
<stop offset="1" stop-color="#064BA2"/>
</linearGradient>
<linearGradient id="paint31_linear" x1="275.447" y1="97.5096" x2="297.366" y2="97.5096" gradientUnits="userSpaceOnUse">
<stop stop-color="#667EEA"/>
<stop offset="1" stop-color="#064BA2"/>
</linearGradient>
<linearGradient id="paint32_linear" x1="275.447" y1="103.149" x2="297.64" y2="103.149" gradientUnits="userSpaceOnUse">
<stop stop-color="#667EEA"/>
<stop offset="1" stop-color="#064BA2"/>
</linearGradient>
<linearGradient id="paint33_linear" x1="275.447" y1="103.146" x2="297.366" y2="103.146" gradientUnits="userSpaceOnUse">
<stop stop-color="#667EEA"/>
<stop offset="1" stop-color="#064BA2"/>
</linearGradient>
<linearGradient id="paint34_linear" x1="275.447" y1="108.785" x2="297.64" y2="108.785" gradientUnits="userSpaceOnUse">
<stop stop-color="#667EEA"/>
<stop offset="1" stop-color="#064BA2"/>
</linearGradient>
<linearGradient id="paint35_linear" x1="275.447" y1="108.784" x2="297.366" y2="108.784" gradientUnits="userSpaceOnUse">
<stop stop-color="#667EEA"/>
<stop offset="1" stop-color="#064BA2"/>
</linearGradient>
<linearGradient id="paint36_linear" x1="275.447" y1="114.422" x2="297.64" y2="114.422" gradientUnits="userSpaceOnUse">
<stop stop-color="#667EEA"/>
<stop offset="1" stop-color="#064BA2"/>
</linearGradient>
<linearGradient id="paint37_linear" x1="275.447" y1="114.421" x2="297.366" y2="114.421" gradientUnits="userSpaceOnUse">
<stop stop-color="#667EEA"/>
<stop offset="1" stop-color="#064BA2"/>
</linearGradient>
<linearGradient id="paint38_linear" x1="275.447" y1="120.059" x2="297.64" y2="120.059" gradientUnits="userSpaceOnUse">
<stop stop-color="#667EEA"/>
<stop offset="1" stop-color="#064BA2"/>
</linearGradient>
<linearGradient id="paint39_linear" x1="275.447" y1="120.058" x2="297.366" y2="120.058" gradientUnits="userSpaceOnUse">
<stop stop-color="#667EEA"/>
<stop offset="1" stop-color="#064BA2"/>
</linearGradient>
<linearGradient id="paint40_linear" x1="275.447" y1="125.695" x2="297.64" y2="125.695" gradientUnits="userSpaceOnUse">
<stop stop-color="#667EEA"/>
<stop offset="1" stop-color="#064BA2"/>
</linearGradient>
<linearGradient id="paint41_linear" x1="275.447" y1="125.693" x2="297.366" y2="125.693" gradientUnits="userSpaceOnUse">
<stop stop-color="#667EEA"/>
<stop offset="1" stop-color="#064BA2"/>
</linearGradient>
<linearGradient id="paint42_linear" x1="250.239" y1="95.9909" x2="267.285" y2="95.9909" gradientUnits="userSpaceOnUse">
<stop stop-color="#064BA2"/>
<stop offset="1" stop-color="#667EEA"/>
</linearGradient>
<linearGradient id="paint43_linear" x1="250.239" y1="96.1815" x2="267.285" y2="96.1815" gradientUnits="userSpaceOnUse">
<stop stop-color="#064BA2"/>
<stop offset="1" stop-color="#667EEA"/>
</linearGradient>
<linearGradient id="paint44_linear" x1="282.388" y1="121.827" x2="338.648" y2="121.827" gradientUnits="userSpaceOnUse">
<stop stop-color="#F5F7FA"/>
<stop offset="1" stop-color="#C3CFE2"/>
</linearGradient>
<linearGradient id="paint45_linear" x1="313.73" y1="97.5187" x2="335.923" y2="97.5187" gradientUnits="userSpaceOnUse">
<stop stop-color="#667EEA"/>
<stop offset="1" stop-color="#064BA2"/>
</linearGradient>
<linearGradient id="paint46_linear" x1="313.73" y1="97.5178" x2="335.648" y2="97.5178" gradientUnits="userSpaceOnUse">
<stop stop-color="#667EEA"/>
<stop offset="1" stop-color="#064BA2"/>
</linearGradient>
<linearGradient id="paint47_linear" x1="313.73" y1="103.156" x2="335.923" y2="103.156" gradientUnits="userSpaceOnUse">
<stop stop-color="#667EEA"/>
<stop offset="1" stop-color="#064BA2"/>
</linearGradient>
<linearGradient id="paint48_linear" x1="313.73" y1="103.155" x2="335.648" y2="103.155" gradientUnits="userSpaceOnUse">
<stop stop-color="#667EEA"/>
<stop offset="1" stop-color="#064BA2"/>
</linearGradient>
<linearGradient id="paint49_linear" x1="313.73" y1="108.792" x2="335.923" y2="108.792" gradientUnits="userSpaceOnUse">
<stop stop-color="#667EEA"/>
<stop offset="1" stop-color="#064BA2"/>
</linearGradient>
<linearGradient id="paint50_linear" x1="313.73" y1="108.791" x2="335.648" y2="108.791" gradientUnits="userSpaceOnUse">
<stop stop-color="#667EEA"/>
<stop offset="1" stop-color="#064BA2"/>
</linearGradient>
<linearGradient id="paint51_linear" x1="313.73" y1="114.429" x2="335.923" y2="114.429" gradientUnits="userSpaceOnUse">
<stop stop-color="#667EEA"/>
<stop offset="1" stop-color="#064BA2"/>
</linearGradient>
<linearGradient id="paint52_linear" x1="313.73" y1="114.428" x2="335.648" y2="114.428" gradientUnits="userSpaceOnUse">
<stop stop-color="#667EEA"/>
<stop offset="1" stop-color="#064BA2"/>
</linearGradient>
<linearGradient id="paint53_linear" x1="313.73" y1="120.065" x2="335.923" y2="120.065" gradientUnits="userSpaceOnUse">
<stop stop-color="#667EEA"/>
<stop offset="1" stop-color="#064BA2"/>
</linearGradient>
<linearGradient id="paint54_linear" x1="313.73" y1="120.064" x2="335.648" y2="120.064" gradientUnits="userSpaceOnUse">
<stop stop-color="#667EEA"/>
<stop offset="1" stop-color="#064BA2"/>
</linearGradient>
<linearGradient id="paint55_linear" x1="313.73" y1="125.702" x2="335.923" y2="125.702" gradientUnits="userSpaceOnUse">
<stop stop-color="#667EEA"/>
<stop offset="1" stop-color="#064BA2"/>
</linearGradient>
<linearGradient id="paint56_linear" x1="313.73" y1="125.701" x2="335.648" y2="125.701" gradientUnits="userSpaceOnUse">
<stop stop-color="#667EEA"/>
<stop offset="1" stop-color="#064BA2"/>
</linearGradient>
<linearGradient id="paint57_linear" x1="313.73" y1="131.338" x2="335.923" y2="131.338" gradientUnits="userSpaceOnUse">
<stop stop-color="#667EEA"/>
<stop offset="1" stop-color="#064BA2"/>
</linearGradient>
<linearGradient id="paint58_linear" x1="313.73" y1="131.337" x2="335.648" y2="131.337" gradientUnits="userSpaceOnUse">
<stop stop-color="#667EEA"/>
<stop offset="1" stop-color="#064BA2"/>
</linearGradient>
<linearGradient id="paint59_linear" x1="313.73" y1="136.975" x2="335.923" y2="136.975" gradientUnits="userSpaceOnUse">
<stop stop-color="#667EEA"/>
<stop offset="1" stop-color="#064BA2"/>
</linearGradient>
<linearGradient id="paint60_linear" x1="313.73" y1="136.974" x2="335.648" y2="136.974" gradientUnits="userSpaceOnUse">
<stop stop-color="#667EEA"/>
<stop offset="1" stop-color="#064BA2"/>
</linearGradient>
<linearGradient id="paint61_linear" x1="313.73" y1="142.612" x2="335.923" y2="142.612" gradientUnits="userSpaceOnUse">
<stop stop-color="#667EEA"/>
<stop offset="1" stop-color="#064BA2"/>
</linearGradient>
<linearGradient id="paint62_linear" x1="313.73" y1="142.611" x2="335.648" y2="142.611" gradientUnits="userSpaceOnUse">
<stop stop-color="#667EEA"/>
<stop offset="1" stop-color="#064BA2"/>
</linearGradient>
<linearGradient id="paint63_linear" x1="313.73" y1="148.248" x2="335.923" y2="148.248" gradientUnits="userSpaceOnUse">
<stop stop-color="#667EEA"/>
<stop offset="1" stop-color="#064BA2"/>
</linearGradient>
<linearGradient id="paint64_linear" x1="313.73" y1="148.248" x2="335.648" y2="148.248" gradientUnits="userSpaceOnUse">
<stop stop-color="#667EEA"/>
<stop offset="1" stop-color="#064BA2"/>
</linearGradient>
<linearGradient id="paint65_linear" x1="288.523" y1="118.544" x2="305.568" y2="118.544" gradientUnits="userSpaceOnUse">
<stop stop-color="#064BA2"/>
<stop offset="1" stop-color="#667EEA"/>
</linearGradient>
<linearGradient id="paint66_linear" x1="288.523" y1="118.734" x2="305.568" y2="118.734" gradientUnits="userSpaceOnUse">
<stop stop-color="#064BA2"/>
<stop offset="1" stop-color="#667EEA"/>
</linearGradient>
<linearGradient id="paint67_linear" x1="320.1" y1="143.308" x2="376.36" y2="143.308" gradientUnits="userSpaceOnUse">
<stop stop-color="#F5F7FA"/>
<stop offset="1" stop-color="#C3CFE2"/>
</linearGradient>
<linearGradient id="paint68_linear" x1="351.443" y1="119.001" x2="373.636" y2="119.001" gradientUnits="userSpaceOnUse">
<stop stop-color="#667EEA"/>
<stop offset="1" stop-color="#064BA2"/>
</linearGradient>
<linearGradient id="paint69_linear" x1="351.444" y1="119" x2="373.363" y2="119" gradientUnits="userSpaceOnUse">
<stop stop-color="#667EEA"/>
<stop offset="1" stop-color="#064BA2"/>
</linearGradient>
<linearGradient id="paint70_linear" x1="351.443" y1="124.637" x2="373.636" y2="124.637" gradientUnits="userSpaceOnUse">
<stop stop-color="#667EEA"/>
<stop offset="1" stop-color="#064BA2"/>
</linearGradient>
<linearGradient id="paint71_linear" x1="351.444" y1="124.636" x2="373.363" y2="124.636" gradientUnits="userSpaceOnUse">
<stop stop-color="#667EEA"/>
<stop offset="1" stop-color="#064BA2"/>
</linearGradient>
<linearGradient id="paint72_linear" x1="351.443" y1="130.274" x2="373.636" y2="130.274" gradientUnits="userSpaceOnUse">
<stop stop-color="#667EEA"/>
<stop offset="1" stop-color="#064BA2"/>
</linearGradient>
<linearGradient id="paint73_linear" x1="351.444" y1="130.273" x2="373.363" y2="130.273" gradientUnits="userSpaceOnUse">
<stop stop-color="#667EEA"/>
<stop offset="1" stop-color="#064BA2"/>
</linearGradient>
<linearGradient id="paint74_linear" x1="351.443" y1="135.91" x2="373.636" y2="135.91" gradientUnits="userSpaceOnUse">
<stop stop-color="#667EEA"/>
<stop offset="1" stop-color="#064BA2"/>
</linearGradient>
<linearGradient id="paint75_linear" x1="351.444" y1="135.91" x2="373.363" y2="135.91" gradientUnits="userSpaceOnUse">
<stop stop-color="#667EEA"/>
<stop offset="1" stop-color="#064BA2"/>
</linearGradient>
<linearGradient id="paint76_linear" x1="351.443" y1="141.547" x2="373.636" y2="141.547" gradientUnits="userSpaceOnUse">
<stop stop-color="#667EEA"/>
<stop offset="1" stop-color="#064BA2"/>
</linearGradient>
<linearGradient id="paint77_linear" x1="351.444" y1="141.546" x2="373.363" y2="141.546" gradientUnits="userSpaceOnUse">
<stop stop-color="#667EEA"/>
<stop offset="1" stop-color="#064BA2"/>
</linearGradient>
<linearGradient id="paint78_linear" x1="351.443" y1="147.183" x2="373.636" y2="147.183" gradientUnits="userSpaceOnUse">
<stop stop-color="#667EEA"/>
<stop offset="1" stop-color="#064BA2"/>
</linearGradient>
<linearGradient id="paint79_linear" x1="351.444" y1="147.183" x2="373.363" y2="147.183" gradientUnits="userSpaceOnUse">
<stop stop-color="#667EEA"/>
<stop offset="1" stop-color="#064BA2"/>
</linearGradient>
<linearGradient id="paint80_linear" x1="351.443" y1="152.82" x2="373.636" y2="152.82" gradientUnits="userSpaceOnUse">
<stop stop-color="#667EEA"/>
<stop offset="1" stop-color="#064BA2"/>
</linearGradient>
<linearGradient id="paint81_linear" x1="351.444" y1="152.819" x2="373.363" y2="152.819" gradientUnits="userSpaceOnUse">
<stop stop-color="#667EEA"/>
<stop offset="1" stop-color="#064BA2"/>
</linearGradient>
<linearGradient id="paint82_linear" x1="351.443" y1="158.457" x2="373.636" y2="158.457" gradientUnits="userSpaceOnUse">
<stop stop-color="#667EEA"/>
<stop offset="1" stop-color="#064BA2"/>
</linearGradient>
<linearGradient id="paint83_linear" x1="351.444" y1="158.456" x2="373.363" y2="158.456" gradientUnits="userSpaceOnUse">
<stop stop-color="#667EEA"/>
<stop offset="1" stop-color="#064BA2"/>
</linearGradient>
<linearGradient id="paint84_linear" x1="351.443" y1="164.093" x2="373.636" y2="164.093" gradientUnits="userSpaceOnUse">
<stop stop-color="#667EEA"/>
<stop offset="1" stop-color="#064BA2"/>
</linearGradient>
<linearGradient id="paint85_linear" x1="351.444" y1="164.092" x2="373.363" y2="164.092" gradientUnits="userSpaceOnUse">
<stop stop-color="#667EEA"/>
<stop offset="1" stop-color="#064BA2"/>
</linearGradient>
<linearGradient id="paint86_linear" x1="351.443" y1="169.73" x2="373.636" y2="169.73" gradientUnits="userSpaceOnUse">
<stop stop-color="#667EEA"/>
<stop offset="1" stop-color="#064BA2"/>
</linearGradient>
<linearGradient id="paint87_linear" x1="351.444" y1="169.729" x2="373.363" y2="169.729" gradientUnits="userSpaceOnUse">
<stop stop-color="#667EEA"/>
<stop offset="1" stop-color="#064BA2"/>
</linearGradient>
<linearGradient id="paint88_linear" x1="326.235" y1="140.026" x2="343.28" y2="140.026" gradientUnits="userSpaceOnUse">
<stop stop-color="#064BA2"/>
<stop offset="1" stop-color="#667EEA"/>
</linearGradient>
<linearGradient id="paint89_linear" x1="326.235" y1="140.216" x2="343.28" y2="140.216" gradientUnits="userSpaceOnUse">
<stop stop-color="#064BA2"/>
<stop offset="1" stop-color="#667EEA"/>
</linearGradient>
<radialGradient id="paint90_radial" cx="0" cy="0" r="1" gradientUnits="userSpaceOnUse" gradientTransform="translate(110.1 188.532) scale(30.4322 18.2806)">
<stop stop-color="white"/>
<stop offset="0.3695" stop-color="#FDFDFD"/>
<stop offset="0.504" stop-color="#F6F6F6"/>
<stop offset="0.6" stop-color="#EAEAEA"/>
<stop offset="0.6779" stop-color="#D9D9D9"/>
<stop offset="0.7446" stop-color="#C3C3C3"/>
<stop offset="0.8038" stop-color="#A8A8A8"/>
<stop offset="0.8573" stop-color="#888888"/>
<stop offset="0.9066" stop-color="#626262"/>
<stop offset="0.9524" stop-color="#373737"/>
<stop offset="0.9931" stop-color="#090909"/>
<stop offset="1"/>
</radialGradient>
<linearGradient id="paint91_linear" x1="84.4597" y1="193.026" x2="133.76" y2="193.026" gradientUnits="userSpaceOnUse">
<stop stop-color="#F5F7FA"/>
<stop offset="1" stop-color="#C3CFE2"/>
</linearGradient>
<linearGradient id="paint92_linear" x1="98.7482" y1="183.492" x2="121.869" y2="183.492" gradientUnits="userSpaceOnUse">
<stop stop-color="#B999F7"/>
<stop offset="1" stop-color="#5522CC"/>
</linearGradient>
<linearGradient id="paint93_linear" x1="295.283" y1="185.578" x2="173.527" y2="185.578" gradientUnits="userSpaceOnUse">
<stop stop-color="#66A6FF"/>
<stop offset="1" stop-color="#89F7FE"/>
</linearGradient>
<linearGradient id="paint94_linear" x1="295.283" y1="185.578" x2="173.527" y2="185.578" gradientUnits="userSpaceOnUse">
<stop stop-color="#66A6FF"/>
<stop offset="1" stop-color="#89F7FE"/>
</linearGradient>
<linearGradient id="paint95_linear" x1="234.373" y1="181.674" x2="215.784" y2="213.868" gradientUnits="userSpaceOnUse">
<stop stop-color="white"/>
<stop offset="0.11" stop-color="#FAFAFA"/>
<stop offset="0.2339" stop-color="#EDEDED"/>
<stop offset="0.3646" stop-color="#D6D6D6"/>
<stop offset="0.5" stop-color="#B7B7B7"/>
<stop offset="0.639" stop-color="#8E8E8E"/>
<stop offset="0.7811" stop-color="#5C5C5C"/>
<stop offset="0.9229" stop-color="#232323"/>
<stop offset="1"/>
</linearGradient>
<linearGradient id="paint96_linear" x1="234.373" y1="181.674" x2="215.784" y2="213.868" gradientUnits="userSpaceOnUse">
<stop stop-color="#D51CFF"/>
<stop offset="0.1215" stop-color="#D01FFF"/>
<stop offset="0.2582" stop-color="#C328FE"/>
<stop offset="0.4024" stop-color="#AC38FC"/>
<stop offset="0.5518" stop-color="#8D4EFA"/>
<stop offset="0.7052" stop-color="#6469F7"/>
<stop offset="0.8596" stop-color="#338BF3"/>
<stop offset="1" stop-color="#00AEEF"/>
</linearGradient>
<linearGradient id="paint97_linear" x1="234.342" y1="175.302" x2="217.341" y2="204.746" gradientUnits="userSpaceOnUse">
<stop stop-color="white"/>
<stop offset="0.3348" stop-color="#ADADAD"/>
<stop offset="1"/>
</linearGradient>
<linearGradient id="paint98_linear" x1="234.342" y1="175.302" x2="217.341" y2="204.746" gradientUnits="userSpaceOnUse">
<stop stop-color="#064BA2"/>
<stop offset="0.851" stop-color="#5776DF"/>
<stop offset="1" stop-color="#667EEA"/>
</linearGradient>
</defs>
</svg>
