<svg width="343" height="215" viewBox="0 0 343 215" fill="none" xmlns="http://www.w3.org/2000/svg">
<mask id="mask0" mask-type="alpha" maskUnits="userSpaceOnUse" x="0" y="0" width="343" height="215">
<path d="M0 24C0 10.7452 10.7452 0 24 0H319C332.255 0 343 10.7452 343 24V191C343 204.255 332.255 215 319 215H24C10.7452 215 0 204.255 0 191V24Z" fill="url(#paint0_radial)"/>
<path d="M0.5 24C0.5 11.0213 11.0213 0.5 24 0.5H319C331.979 0.5 342.5 11.0213 342.5 24V191C342.5 203.979 331.979 214.5 319 214.5H24C11.0213 214.5 0.5 203.979 0.5 191V24Z" stroke="url(#paint1_linear)" stroke-opacity="0.4"/>
</mask>
<g mask="url(#mask0)">
<path d="M41.559 49.2182C42.9722 49.2182 44.1179 48.05 44.1179 46.6091C44.1179 45.1681 42.9722 44 41.559 44C40.1457 44 39 45.1681 39 46.6091C39 48.05 40.1457 49.2182 41.559 49.2182Z" fill="white"/>
<path d="M44.559 33.2182C45.9722 33.2182 47.1179 32.05 47.1179 30.6091C47.1179 29.1681 45.9722 28 44.559 28C43.1457 28 42 29.1681 42 30.6091C42 32.05 43.1457 33.2182 44.559 33.2182Z" fill="white"/>
<path d="M56.559 69.2182C57.9722 69.2182 59.1179 68.05 59.1179 66.6091C59.1179 65.1681 57.9722 64 56.559 64C55.1457 64 54 65.1681 54 66.6091C54 68.05 55.1457 69.2182 56.559 69.2182Z" fill="white"/>
<path d="M66.559 48.2182C67.9722 48.2182 69.1179 47.05 69.1179 45.6091C69.1179 44.1681 67.9722 43 66.559 43C65.1457 43 64 44.1681 64 45.6091C64 47.05 65.1457 48.2182 66.559 48.2182Z" fill="white"/>
<path d="M78.559 73.2182C79.9722 73.2182 81.1179 72.05 81.1179 70.6091C81.1179 69.1681 79.9722 68 78.559 68C77.1457 68 76 69.1681 76 70.6091C76 72.05 77.1457 73.2182 78.559 73.2182Z" fill="white"/>
<path d="M94.559 40.2182C95.9722 40.2182 97.1179 39.05 97.1179 37.6091C97.1179 36.1681 95.9722 35 94.559 35C93.1457 35 92 36.1681 92 37.6091C92 39.05 93.1457 40.2182 94.559 40.2182Z" fill="white"/>
<path d="M74.559 31.2182C75.9722 31.2182 77.1179 30.05 77.1179 28.6091C77.1179 27.1681 75.9722 26 74.559 26C73.1457 26 72 27.1681 72 28.6091C72 30.05 73.1457 31.2182 74.559 31.2182Z" fill="white"/>
<path d="M119.894 244.019L199.734 197.969" stroke="#E6E7E8" stroke-width="0.9715" stroke-linecap="round"/>
<path d="M-2.11914 205.701L179.448 102.338" stroke="#E6E7E8" stroke-width="0.9715" stroke-linecap="round"/>
<path d="M243.794 114.406L222.961 102.338" stroke="#E6E7E8" stroke-width="0.9715" stroke-linecap="round"/>
<path d="M170.786 196.448L140.89 213.463L119.923 201.051" stroke="#E6E7E8" stroke-width="0.9715" stroke-linecap="round"/>
<path d="M307.558 176.743L218.406 227.224" stroke="#E6E7E8" stroke-width="0.9715" stroke-linecap="round"/>
<path d="M348.21 200.438L260.503 250.058" stroke="#E6E7E8" stroke-width="0.9715" stroke-linecap="round"/>
<path d="M268.619 154.255L189.965 198.792" stroke="#E6E7E8" stroke-width="0.9715" stroke-linecap="round"/>
<path d="M230.053 131.746L161.523 170.351" stroke="#E6E7E8" stroke-width="0.9715" stroke-linecap="round"/>
<path d="M-4.40832 204.486C-3.24081 203.816 -1.35556 203.816 -0.197617 204.486C0.960326 205.156 0.950754 206.247 -0.207189 206.926C-1.3747 207.596 -3.25995 207.596 -4.41789 206.926C-5.57584 206.247 -5.57583 205.156 -4.40832 204.486Z" fill="#E6E7E8"/>
<path d="M117.665 199.577C118.832 198.907 120.717 198.907 121.875 199.577C123.033 200.247 123.024 201.338 121.866 202.017C120.698 202.687 118.813 202.687 117.655 202.017C116.488 201.338 116.497 200.247 117.665 199.577Z" fill="#E6E7E8"/>
<path d="M177.275 101.219C178.442 100.549 180.327 100.549 181.485 101.219C182.643 101.889 182.634 102.98 181.476 103.659C180.308 104.329 178.423 104.329 177.265 103.659C176.107 102.989 176.117 101.898 177.275 101.219Z" fill="#E6E7E8"/>
<path d="M220.865 101.123C222.032 100.453 223.918 100.453 225.075 101.123C226.233 101.793 226.224 102.884 225.066 103.563C223.898 104.233 222.013 104.233 220.855 103.563C219.688 102.884 219.697 101.793 220.865 101.123Z" fill="#E6E7E8"/>
<path d="M227.956 130.474C229.123 129.804 231.009 129.804 232.167 130.474C233.325 131.143 233.315 132.234 232.157 132.914C230.99 133.584 229.104 133.584 227.946 132.914C226.788 132.234 226.788 131.143 227.956 130.474Z" fill="#E6E7E8"/>
<path d="M266.484 153.097C267.651 152.427 269.537 152.427 270.695 153.097C271.853 153.767 271.843 154.857 270.685 155.537C269.518 156.207 267.632 156.207 266.474 155.537C265.307 154.857 265.316 153.767 266.484 153.097Z" fill="#E6E7E8"/>
<path d="M305.395 175.538C306.563 174.868 308.448 174.868 309.606 175.538C310.764 176.208 310.754 177.299 309.597 177.978C308.429 178.648 306.544 178.648 305.386 177.978C304.228 177.308 304.228 176.217 305.395 175.538Z" fill="#E6E7E8"/>
<g opacity="0.33" filter="url(#filter0_f)">
<path d="M202.144 78.1672C202.977 77.6887 204.317 77.6887 205.149 78.1672L228.653 91.8233C229.476 92.3018 229.476 93.0769 228.643 93.565L204.987 107.221C204.154 107.7 202.814 107.7 201.982 107.221L178.478 93.565C177.655 93.0865 177.655 92.3114 178.488 91.8233L202.144 78.1672Z" fill="#020E14"/>
</g>
<path d="M228.177 89.4382C228.177 89.754 227.967 90.0698 227.546 90.3091L203.889 103.965C203.057 104.444 201.717 104.444 200.884 103.965L177.381 90.3091C176.969 90.0698 176.768 89.754 176.759 89.4478L176.768 91.5244C176.768 91.8402 176.979 92.1465 177.39 92.3857L200.894 106.042C201.717 106.52 203.066 106.52 203.899 106.042L227.555 92.3857C227.976 92.1465 228.187 91.8307 228.187 91.5149L228.177 89.4382Z" fill="url(#paint2_linear)"/>
<path d="M201.045 74.9116C201.877 74.4331 203.217 74.4331 204.05 74.9116L227.553 88.5677C228.376 89.0462 228.376 89.8213 227.544 90.3094L203.887 103.965C203.055 104.444 201.715 104.444 200.882 103.965L177.379 90.3094C176.556 89.8309 176.556 89.0557 177.388 88.5677L201.045 74.9116Z" fill="url(#paint3_linear)"/>
<path d="M227.545 90.3093C227.545 90.3093 224.454 92.1563 219.813 94.922C217.488 96.2904 214.77 97.8886 211.851 99.6016C210.387 100.453 208.884 101.324 207.353 102.214C206.588 102.664 205.812 103.104 205.037 103.563L203.86 104.243C203.401 104.463 202.932 104.559 202.453 104.568C201.975 104.578 201.497 104.501 201.037 104.31C200.578 104.09 200.243 103.86 199.841 103.63C199.066 103.181 198.3 102.731 197.535 102.281C196.003 101.382 194.501 100.501 193.037 99.6494C190.128 97.9269 187.419 96.3287 185.094 94.9507C180.462 92.1659 177.371 90.3093 177.371 90.3093C177.371 90.3093 180.51 92.0702 185.218 94.721C187.563 96.0608 190.3 97.6206 193.238 99.2953C194.702 100.137 196.214 101.008 197.745 101.898C198.511 102.339 199.286 102.788 200.061 103.238C200.444 103.449 200.855 103.717 201.209 103.879C201.583 104.042 202.013 104.099 202.434 104.09C202.855 104.09 203.286 103.994 203.64 103.831L204.808 103.171C205.583 102.721 206.358 102.281 207.133 101.841C208.674 100.96 210.186 100.09 211.65 99.2475C214.588 97.5824 217.325 96.0225 219.679 94.6923C224.407 92.0702 227.545 90.3093 227.545 90.3093Z" fill="#F1F2F2"/>
<path d="M228.177 82.7302C228.177 83.046 227.967 83.3618 227.546 83.6011L203.889 97.2571C203.057 97.7356 201.717 97.7356 200.884 97.2571L177.381 83.6011C176.969 83.3618 176.768 83.046 176.759 82.7398L176.768 84.8164C176.768 85.1322 176.979 85.4385 177.39 85.6777L200.894 99.3338C201.717 99.8123 203.066 99.8123 203.899 99.3338L227.555 85.6777C227.976 85.4385 228.187 85.1227 228.187 84.8069L228.177 82.7302Z" fill="url(#paint4_linear)"/>
<path d="M201.046 68.2126C201.878 67.7341 203.218 67.7341 204.051 68.2126L227.554 81.8687C228.377 82.3472 228.377 83.1223 227.544 83.6104L203.888 97.2665C203.055 97.745 201.716 97.745 200.883 97.2665L177.38 83.6104C176.557 83.1319 176.557 82.3568 177.389 81.8687L201.046 68.2126Z" fill="url(#paint5_linear)"/>
<path d="M227.546 83.6104C227.546 83.6104 224.455 85.4573 219.814 88.223C217.489 89.5915 214.771 91.1896 211.852 92.9026C210.388 93.7543 208.885 94.6252 207.354 95.5152C206.589 95.9649 205.813 96.4052 205.038 96.8645L203.861 97.544C203.402 97.7641 202.933 97.8598 202.454 97.8693C201.976 97.8789 201.497 97.8023 201.038 97.6109C200.579 97.3908 200.244 97.1612 199.842 96.9315C199.067 96.4817 198.301 96.0319 197.536 95.5822C196.004 94.6826 194.502 93.8022 193.038 92.9505C190.129 91.2279 187.42 89.6297 185.095 88.2517C180.463 85.4669 177.372 83.6104 177.372 83.6104C177.372 83.6104 180.511 85.3712 185.219 88.022C187.564 89.3618 190.301 90.9217 193.239 92.5964C194.703 93.4385 196.215 94.3094 197.746 95.1994C198.512 95.6396 199.287 96.0894 200.062 96.5391C200.445 96.7497 200.856 97.0176 201.21 97.1803C201.584 97.343 202.014 97.4004 202.435 97.3908C202.856 97.3908 203.287 97.2951 203.641 97.1325L204.809 96.4721C205.584 96.0224 206.359 95.5821 207.134 95.1419C208.675 94.2615 210.187 93.3907 211.651 92.5485C214.589 90.8834 217.326 89.3235 219.68 87.9933C224.408 85.3616 227.546 83.6104 227.546 83.6104Z" fill="#F1F2F2"/>
<path d="M228.177 76.0315C228.177 76.3473 227.967 76.6631 227.546 76.9023L203.889 90.5584C203.057 91.0369 201.717 91.0369 200.884 90.5584L177.381 76.9023C176.969 76.6631 176.768 76.3473 176.759 76.0411L176.768 78.1177C176.768 78.4335 176.979 78.7397 177.39 78.979L200.894 92.6351C201.717 93.1136 203.066 93.1136 203.899 92.6351L227.555 78.979C227.976 78.7397 228.187 78.4239 228.187 78.1081L228.177 76.0315Z" fill="url(#paint6_linear)"/>
<path d="M201.046 61.5044C201.878 61.0259 203.218 61.0259 204.051 61.5044L227.554 75.1605C228.377 75.6389 228.377 76.4141 227.544 76.9022L203.888 90.5582C203.055 91.0367 201.716 91.0367 200.883 90.5582L177.38 76.9022C176.557 76.4237 176.557 75.6485 177.389 75.1605L201.046 61.5044Z" fill="url(#paint7_linear)"/>
<path d="M227.546 76.9021C227.546 76.9021 224.455 78.7491 219.814 81.5147C217.489 82.8832 214.771 84.4814 211.852 86.1944C210.388 87.0461 208.885 87.9169 207.354 88.8069C206.589 89.2567 205.813 89.6969 205.038 90.1563L203.861 90.8357C203.402 91.0558 202.933 91.1515 202.454 91.1611C201.976 91.1707 201.497 91.0941 201.038 90.9027C200.579 90.6826 200.244 90.4529 199.842 90.2232C199.067 89.7735 198.301 89.3237 197.536 88.8739C196.004 87.9743 194.502 87.0939 193.038 86.2422C190.129 84.5197 187.42 82.9215 185.095 81.5434C180.463 78.7586 177.372 76.9021 177.372 76.9021C177.372 76.9021 180.511 78.6629 185.219 81.3138C187.564 82.6535 190.301 84.2134 193.239 85.8881C194.703 86.7303 196.215 87.6011 197.746 88.4911C198.512 88.9313 199.287 89.3811 200.062 89.8309C200.445 90.0414 200.856 90.3094 201.21 90.4721C201.584 90.6347 202.014 90.6922 202.435 90.6826C202.856 90.6826 203.287 90.5869 203.641 90.4242L204.809 89.7639C205.584 89.3141 206.359 88.8739 207.134 88.4337C208.675 87.5533 210.187 86.6824 211.651 85.8403C214.589 84.1751 217.326 82.6153 219.68 81.2851C224.408 78.6629 227.546 76.9021 227.546 76.9021Z" fill="#F1F2F2"/>
<g opacity="0.5">
<g opacity="0.5">
<path opacity="0.5" d="M201.64 68.672C202.128 68.3945 202.913 68.3945 203.391 68.672L217.143 76.6628C217.631 76.9403 217.622 77.3996 217.134 77.6772L203.286 85.6679C202.798 85.9455 202.013 85.9455 201.535 85.6679L187.783 77.6772C187.295 77.3996 187.305 76.9403 187.793 76.6628L201.64 68.672Z" fill="url(#paint8_linear)"/>
</g>
<g opacity="0.5">
<path opacity="0.5" d="M201.64 69.8204C202.128 69.5429 202.913 69.5429 203.391 69.8204L217.143 77.8112C217.631 78.0887 217.622 78.5481 217.134 78.8256L203.286 86.8164C202.798 87.0939 202.013 87.0939 201.535 86.8164L187.783 78.8256C187.295 78.5481 187.305 78.0887 187.793 77.8112L201.64 69.8204Z" fill="url(#paint9_linear)"/>
</g>
<g opacity="0.5">
<path opacity="0.5" d="M201.64 70.9689C202.128 70.6914 202.913 70.6914 203.391 70.9689L217.143 78.9597C217.631 79.2372 217.622 79.6965 217.134 79.9741L203.286 87.9648C202.798 88.2423 202.013 88.2423 201.535 87.9648L187.783 79.9741C187.295 79.6965 187.305 79.2372 187.793 78.9597L201.64 70.9689Z" fill="url(#paint10_linear)"/>
</g>
<g opacity="0.5">
<path opacity="0.5" d="M201.64 72.1078C202.128 71.8303 202.913 71.8303 203.391 72.1078L217.143 80.0986C217.631 80.3761 217.622 80.8354 217.134 81.113L203.286 89.1037C202.798 89.3813 202.013 89.3813 201.535 89.1037L187.783 81.113C187.295 80.8354 187.305 80.3761 187.793 80.0986L201.64 72.1078Z" fill="url(#paint11_linear)"/>
</g>
<g opacity="0.5">
<path opacity="0.5" d="M201.64 73.256C202.128 72.9785 202.913 72.9785 203.391 73.256L217.143 81.2468C217.631 81.5243 217.622 81.9836 217.134 82.2612L203.286 90.2519C202.798 90.5294 202.013 90.5294 201.535 90.2519L187.783 82.2612C187.295 81.9836 187.305 81.5243 187.793 81.2468L201.64 73.256Z" fill="url(#paint12_linear)"/>
</g>
<g opacity="0.5">
<path opacity="0.5" d="M201.64 74.4044C202.128 74.1269 202.913 74.1269 203.391 74.4044L217.143 82.3952C217.631 82.6727 217.622 83.1321 217.134 83.4096L203.286 91.4004C202.798 91.6779 202.013 91.6779 201.535 91.4004L187.783 83.4096C187.295 83.1321 187.305 82.6727 187.793 82.3952L201.64 74.4044Z" fill="url(#paint13_linear)"/>
</g>
<g opacity="0.5">
<path opacity="0.5" d="M201.64 75.5429C202.128 75.2653 202.913 75.2653 203.391 75.5429L217.143 83.5336C217.631 83.8111 217.622 84.2705 217.134 84.548L203.286 92.5388C202.798 92.8163 202.013 92.8163 201.535 92.5388L187.783 84.548C187.295 84.2705 187.305 83.8111 187.793 83.5336L201.64 75.5429Z" fill="url(#paint14_linear)"/>
</g>
<g opacity="0.5">
<path opacity="0.5" d="M201.64 76.6915C202.128 76.414 202.913 76.414 203.391 76.6915L217.143 84.6823C217.631 84.9598 217.622 85.4192 217.134 85.6967L203.286 93.6875C202.798 93.965 202.013 93.965 201.535 93.6875L187.783 85.6967C187.295 85.4192 187.305 84.9598 187.793 84.6823L201.64 76.6915Z" fill="url(#paint15_linear)"/>
</g>
</g>
<mask id="mask1" mask-type="alpha" maskUnits="userSpaceOnUse" x="187" y="16" width="31" height="69">
<path d="M217.507 24.7083C217.507 24.5265 217.382 24.3447 217.143 24.2011L203.391 16.2103C202.903 15.9328 202.118 15.9328 201.64 16.2103L187.792 24.2011C187.553 24.3447 187.429 24.5265 187.429 24.7083V24.7179V76.0215V76.0311C187.429 76.2129 187.553 76.3947 187.792 76.5382L201.544 84.529C202.032 84.8065 202.817 84.8065 203.295 84.529L217.143 76.5382C217.382 76.3947 217.507 76.2129 217.507 76.0311V24.7083Z" fill="url(#paint16_linear)"/>
</mask>
<g mask="url(#mask1)">
<path opacity="0.4" d="M217.507 24.7083C217.507 24.5265 217.382 24.3447 217.143 24.2011L203.391 16.2103C202.903 15.9328 202.118 15.9328 201.64 16.2103L187.792 24.2011C187.553 24.3447 187.429 24.5265 187.429 24.7083V24.7179V76.0215V76.0311C187.429 76.2129 187.553 76.3947 187.792 76.5382L201.544 84.529C202.032 84.8065 202.817 84.8065 203.295 84.529L217.143 76.5382C217.382 76.3947 217.507 76.2129 217.507 76.0311V24.7083Z" fill="url(#paint17_linear)"/>
</g>
<g opacity="0.33" filter="url(#filter1_f)">
<path d="M252.363 111.003C253.196 110.524 254.536 110.524 255.368 111.003L278.871 124.659C279.694 125.137 279.694 125.912 278.862 126.4L255.205 140.057C254.373 140.535 253.033 140.535 252.2 140.057L228.697 126.4C227.874 125.922 227.874 125.147 228.707 124.659L252.363 111.003Z" fill="#020E14"/>
</g>
<g opacity="0.33" filter="url(#filter2_f)">
<path d="M289.061 130.318C289.894 129.839 291.234 129.839 292.066 130.318L315.57 143.974C316.393 144.452 316.393 145.228 315.56 145.716L291.904 159.372C291.071 159.85 289.731 159.85 288.899 159.372L265.395 145.716C264.572 145.237 264.572 144.462 265.405 143.974L289.061 130.318Z" fill="#020E14"/>
</g>
<g opacity="0.33" filter="url(#filter3_f)">
<path d="M327.692 151.564C328.525 151.086 329.865 151.086 330.697 151.564L354.201 165.221C355.024 165.699 355.024 166.474 354.191 166.962L330.535 180.618C329.702 181.097 328.362 181.097 327.53 180.618L304.026 166.962C303.203 166.484 303.203 165.709 304.036 165.221L327.692 151.564Z" fill="#020E14"/>
</g>
<g opacity="0.33" filter="url(#filter4_f)">
<path d="M368.254 174.743C369.086 174.264 370.426 174.264 371.259 174.743L394.762 188.399C395.585 188.877 395.585 189.652 394.752 190.14L371.096 203.797C370.263 204.275 368.924 204.275 368.091 203.797L344.588 190.14C343.765 189.662 343.765 188.887 344.597 188.399L368.254 174.743Z" fill="#020E14"/>
</g>
<path d="M284.192 61.2124C284.192 61.7866 283.809 62.3703 283.053 62.8106L258.803 76.8111C257.282 77.6916 254.832 77.682 253.32 76.8111L229.233 62.8106C228.486 62.3703 228.104 61.8057 228.104 61.2315L228.276 121.11C228.276 121.684 228.649 122.248 229.405 122.689L253.492 136.689C254.995 137.56 257.454 137.57 258.976 136.689L283.226 122.689C283.991 122.248 284.374 121.665 284.364 121.091L284.192 61.2124Z" fill="url(#paint18_linear)"/>
<path d="M253.502 45.633C255.024 44.7526 257.474 44.7526 258.986 45.633L283.073 59.6336C284.576 60.5044 284.576 61.9303 283.054 62.8107L258.804 76.8113C257.283 77.6917 254.833 77.6822 253.321 76.8113L229.234 62.8107C227.722 61.9303 227.731 60.514 229.253 59.6336L253.502 45.633Z" fill="#F2F4F8"/>
<path d="M280.536 70.3039L260.554 81.845C259.942 82.1991 259.444 81.9886 259.444 81.3761C259.444 80.7637 259.942 79.9789 260.554 79.6344L280.536 68.1028C281.149 67.7488 281.646 67.9593 281.646 68.5718C281.637 69.1746 281.139 69.9498 280.536 70.3039Z" fill="url(#paint19_linear)"/>
<path d="M259.779 81.4431C259.779 80.8306 260.277 80.0459 260.889 79.7014L280.871 68.1698C281.053 68.0645 281.216 68.0262 281.369 68.0167C281.168 67.8923 280.871 67.9018 280.536 68.1028L260.554 79.6248C259.942 79.9789 259.444 80.7636 259.444 81.3665C259.444 81.7972 259.693 82.0077 260.057 81.9886C259.894 81.8929 259.779 81.7206 259.779 81.4431Z" fill="url(#paint20_linear)"/>
<path d="M280.536 75.9404L260.554 87.4815C259.942 87.8356 259.444 87.6251 259.444 87.0126C259.444 86.4001 259.942 85.6154 260.554 85.2709L280.536 73.7393C281.149 73.3852 281.646 73.5958 281.646 74.2082C281.637 74.8111 281.139 75.5863 280.536 75.9404Z" fill="url(#paint21_linear)"/>
<path d="M259.779 87.0796C259.779 86.4671 260.277 85.6824 260.889 85.3379L280.871 73.8063C281.053 73.701 281.216 73.6627 281.369 73.6531C281.168 73.5287 280.871 73.5383 280.536 73.7393L260.554 85.2613C259.942 85.6154 259.444 86.4001 259.444 87.003C259.444 87.4336 259.693 87.6442 260.057 87.625C259.894 87.5293 259.779 87.3571 259.779 87.0796Z" fill="url(#paint22_linear)"/>
<path d="M280.536 81.5771L260.554 93.1182C259.942 93.4723 259.444 93.2618 259.444 92.6493C259.444 92.0369 259.942 91.2521 260.554 90.9076L280.536 79.376C281.149 79.0219 281.646 79.2325 281.646 79.8449C281.637 80.4478 281.139 81.223 280.536 81.5771Z" fill="url(#paint23_linear)"/>
<path d="M259.779 92.7163C259.779 92.1038 260.277 91.3191 260.889 90.9746L280.871 79.443C281.053 79.3377 281.216 79.2994 281.369 79.2899C281.168 79.1655 280.871 79.175 280.536 79.376L260.554 90.898C259.942 91.2521 259.444 92.0368 259.444 92.6397C259.444 93.0704 259.693 93.2809 260.057 93.2618C259.894 93.1661 259.779 92.9938 259.779 92.7163Z" fill="url(#paint24_linear)"/>
<path d="M280.536 87.2138L260.554 98.755C259.942 99.109 259.444 98.8985 259.444 98.286C259.444 97.6736 259.942 96.8889 260.554 96.5443L280.536 85.0127C281.149 84.6587 281.646 84.8692 281.646 85.4817C281.637 86.0846 281.139 86.8597 280.536 87.2138Z" fill="url(#paint25_linear)"/>
<path d="M259.779 98.353C259.779 97.7405 260.277 96.9558 260.889 96.6113L280.871 85.0797C281.053 84.9744 281.216 84.9362 281.369 84.9266C281.168 84.8022 280.871 84.8117 280.536 85.0127L260.554 96.5347C259.942 96.8888 259.444 97.6735 259.444 98.2764C259.444 98.7071 259.693 98.9176 260.057 98.8985C259.894 98.8028 259.779 98.6305 259.779 98.353Z" fill="url(#paint26_linear)"/>
<path d="M280.536 92.8503L260.554 104.391C259.942 104.745 259.444 104.535 259.444 103.923C259.444 103.31 259.942 102.525 260.554 102.181L280.536 90.6492C281.149 90.2951 281.646 90.5057 281.646 91.1181C281.637 91.721 281.139 92.4962 280.536 92.8503Z" fill="url(#paint27_linear)"/>
<path d="M259.779 103.989C259.779 103.377 260.277 102.592 260.889 102.248L280.871 90.7162C281.053 90.6109 281.216 90.5726 281.369 90.5631C281.168 90.4387 280.871 90.4482 280.536 90.6492L260.554 102.171C259.942 102.525 259.444 103.31 259.444 103.913C259.444 104.344 259.693 104.554 260.057 104.535C259.894 104.439 259.779 104.267 259.779 103.989Z" fill="url(#paint28_linear)"/>
<path d="M280.536 98.487L260.554 110.028C259.942 110.382 259.444 110.172 259.444 109.559C259.444 108.947 259.942 108.162 260.554 107.818L280.536 96.2859C281.149 95.9319 281.646 96.1424 281.646 96.7549C281.637 97.3578 281.139 98.1329 280.536 98.487Z" fill="url(#paint29_linear)"/>
<path d="M259.779 109.626C259.779 109.014 260.277 108.229 260.889 107.884L280.871 96.3529C281.053 96.2476 281.216 96.2093 281.369 96.1998C281.168 96.0754 280.871 96.0849 280.536 96.2859L260.554 107.808C259.942 108.162 259.444 108.947 259.444 109.55C259.444 109.98 259.693 110.191 260.057 110.172C259.894 110.076 259.779 109.904 259.779 109.626Z" fill="url(#paint30_linear)"/>
<path d="M280.536 104.123L260.554 115.655C259.942 116.009 259.444 115.798 259.444 115.186C259.444 114.573 259.942 113.789 260.554 113.444L280.536 101.913C281.149 101.559 281.646 101.769 281.646 102.382C281.637 102.994 281.139 103.769 280.536 104.123Z" fill="url(#paint31_linear)"/>
<path d="M259.779 115.264C259.779 114.652 260.277 113.867 260.889 113.522L280.871 101.991C281.053 101.886 281.216 101.847 281.369 101.838C281.168 101.713 280.871 101.723 280.536 101.924L260.554 113.455C259.942 113.81 259.444 114.594 259.444 115.197C259.444 115.628 259.693 115.838 260.057 115.819C259.894 115.714 259.779 115.542 259.779 115.264Z" fill="url(#paint32_linear)"/>
<path d="M280.536 109.76L260.554 121.292C259.942 121.646 259.444 121.435 259.444 120.823C259.444 120.21 259.942 119.426 260.554 119.081L280.536 107.55C281.149 107.196 281.646 107.406 281.646 108.019C281.637 108.631 281.139 109.406 280.536 109.76Z" fill="url(#paint33_linear)"/>
<path d="M259.779 120.901C259.779 120.289 260.277 119.504 260.889 119.159L280.871 107.628C281.053 107.523 281.216 107.484 281.369 107.475C281.168 107.35 280.871 107.36 280.536 107.561L260.554 119.083C259.942 119.437 259.444 120.222 259.444 120.825C259.444 121.255 259.693 121.466 260.057 121.447C259.894 121.351 259.779 121.179 259.779 120.901Z" fill="url(#paint34_linear)"/>
<path d="M280.536 115.397L260.554 126.928C259.942 127.282 259.444 127.072 259.444 126.459C259.444 125.847 259.942 125.062 260.554 124.718L280.536 113.186C281.149 112.832 281.646 113.043 281.646 113.655C281.637 114.267 281.139 115.043 280.536 115.397Z" fill="url(#paint35_linear)"/>
<path d="M259.779 126.538C259.779 125.925 260.277 125.14 260.889 124.796L280.871 113.264C281.053 113.159 281.216 113.121 281.369 113.111C281.168 112.987 280.871 112.996 280.536 113.197L260.554 124.729C259.942 125.083 259.444 125.868 259.444 126.471C259.444 126.901 259.693 127.112 260.057 127.093C259.894 126.987 259.779 126.815 259.779 126.538Z" fill="url(#paint36_linear)"/>
<path d="M280.536 121.033L260.554 132.575C259.942 132.929 259.444 132.718 259.444 132.106C259.444 131.493 259.942 130.708 260.554 130.364L280.536 118.832C281.149 118.478 281.646 118.689 281.646 119.301C281.637 119.904 281.139 120.679 280.536 121.033Z" fill="url(#paint37_linear)"/>
<path d="M259.779 132.173C259.779 131.56 260.277 130.775 260.889 130.431L280.871 118.899C281.053 118.794 281.216 118.756 281.369 118.746C281.168 118.622 280.871 118.631 280.536 118.832L260.554 130.364C259.942 130.718 259.444 131.503 259.444 132.106C259.444 132.536 259.693 132.747 260.057 132.728C259.894 132.622 259.779 132.45 259.779 132.173Z" fill="url(#paint38_linear)"/>
<path d="M251.281 124.363L234.237 114.516V77.4619L251.281 87.3092V124.363Z" fill="url(#paint39_linear)"/>
<path d="M234.898 78.7443L251.281 88.2088V87.3092L234.237 77.4619V114.516L234.898 114.899V78.7443Z" fill="url(#paint40_linear)"/>
<path d="M283.072 59.6335C283.072 59.6335 283.13 59.6718 283.245 59.7388C283.359 59.8058 283.522 59.9206 283.704 60.1025C283.886 60.2843 284.096 60.5427 284.182 60.9063C284.288 61.27 284.201 61.7389 283.905 62.1313C283.627 62.5332 283.149 62.8299 282.661 63.1074C282.163 63.404 281.637 63.7198 281.063 64.0548C279.914 64.7247 278.632 65.4903 277.225 66.3228C274.402 67.9688 271.11 69.8924 267.579 71.9499C265.818 72.9834 263.99 74.0457 262.134 75.127C261.205 75.6629 260.277 76.2084 259.339 76.7635C258.899 77.041 258.363 77.3281 257.818 77.4621C257.272 77.6152 256.708 77.6917 256.143 77.7013C255.023 77.7205 253.856 77.4429 252.918 76.8305C251.98 76.285 251.052 75.7299 250.124 75.194C248.277 74.1126 246.458 73.0408 244.688 72.0073C241.166 69.9402 237.874 68.0071 235.061 66.3515C233.654 65.519 232.372 64.7534 231.223 64.0739C230.649 63.7294 230.123 63.4136 229.625 63.1169C229.137 62.8394 228.659 62.5428 228.381 62.1313C228.094 61.7389 228.017 61.2604 228.132 60.9063C228.228 60.5427 228.448 60.2843 228.62 60.112C228.802 59.9302 228.965 59.8249 229.08 59.7484C229.194 59.6814 229.252 59.6431 229.252 59.6431C229.252 59.6431 229.194 59.6814 229.089 59.7484C228.984 59.8154 228.821 59.9302 228.639 60.1216C228.467 60.3034 228.266 60.5618 228.18 60.9159C228.084 61.27 228.17 61.7198 228.448 62.0834C228.726 62.4662 229.185 62.7342 229.692 63.0117C230.19 63.2892 230.735 63.5954 231.309 63.9208C232.467 64.5811 233.769 65.318 235.185 66.1219C238.018 67.7487 241.329 69.6531 244.87 71.6915C246.64 72.7059 248.468 73.7586 250.334 74.8304C251.262 75.3663 252.2 75.9022 253.138 76.4477C254.028 77.0219 255.081 77.2515 256.133 77.2324C256.66 77.2324 257.186 77.1654 257.693 77.0219C258.2 76.8974 258.641 76.6678 259.119 76.3807C260.057 75.8448 261.004 75.3089 261.933 74.773C263.799 73.7107 265.627 72.658 267.397 71.6436C270.947 69.6148 274.259 67.72 277.091 66.1027C278.517 65.2989 279.819 64.562 280.976 63.9112C281.56 63.5859 282.096 63.2796 282.603 63.0021C283.111 62.7342 283.57 62.4662 283.847 62.0834C284.135 61.7198 284.23 61.27 284.135 60.9159C284.058 60.5618 283.857 60.2939 283.685 60.112C283.512 59.9302 283.35 59.8154 283.235 59.7388C283.13 59.6718 283.072 59.6335 283.072 59.6335Z" fill="#F1F2F2"/>
<path d="M322.476 83.7595C322.476 84.3337 322.093 84.9175 321.337 85.3577L297.088 99.3583C295.566 100.239 293.116 100.229 291.604 99.3583L267.517 85.3577C266.771 84.9175 266.388 84.3528 266.388 83.7787L266.56 143.657C266.56 144.231 266.933 144.796 267.689 145.236L291.776 159.236C293.279 160.107 295.738 160.117 297.26 159.236L321.51 145.236C322.275 144.796 322.658 144.212 322.648 143.638L322.476 83.7595Z" fill="url(#paint41_linear)"/>
<path d="M291.786 68.1894C293.307 67.3089 295.757 67.3089 297.269 68.1894L321.356 82.19C322.859 83.0608 322.859 84.4867 321.337 85.3671L297.087 99.3677C295.566 100.248 293.116 100.239 291.604 99.3677L267.517 85.3671C266.005 84.4867 266.014 83.0704 267.536 82.19L291.786 68.1894Z" fill="#F2F4F8"/>
<path d="M318.82 92.8603L298.839 104.392C298.226 104.746 297.729 104.535 297.729 103.923C297.729 103.311 298.226 102.526 298.839 102.181L318.82 90.6497C319.433 90.2956 319.93 90.5062 319.93 91.1186C319.921 91.7215 319.423 92.5063 318.82 92.8603Z" fill="url(#paint42_linear)"/>
<path d="M298.063 104.001C298.063 103.389 298.561 102.604 299.174 102.259L319.155 90.7279C319.337 90.6226 319.5 90.5843 319.653 90.5748C319.452 90.4504 319.155 90.4599 318.82 90.6609L298.839 102.192C298.226 102.547 297.729 103.331 297.729 103.934C297.729 104.365 297.977 104.575 298.341 104.556C298.178 104.451 298.063 104.269 298.063 104.001Z" fill="url(#paint43_linear)"/>
<path d="M318.82 98.4968L298.839 110.028C298.226 110.382 297.729 110.172 297.729 109.559C297.729 108.947 298.226 108.162 298.839 107.818L318.82 96.2862C319.433 95.9321 319.93 96.1426 319.93 96.7551C319.921 97.358 319.423 98.1427 318.82 98.4968Z" fill="url(#paint44_linear)"/>
<path d="M298.063 109.638C298.063 109.025 298.561 108.24 299.174 107.896L319.155 96.3644C319.337 96.2591 319.5 96.2208 319.653 96.2113C319.452 96.0868 319.155 96.0964 318.82 96.2974L298.839 107.829C298.226 108.183 297.729 108.968 297.729 109.571C297.729 110.001 297.977 110.212 298.341 110.193C298.178 110.087 298.063 109.906 298.063 109.638Z" fill="url(#paint45_linear)"/>
<path d="M318.82 104.134L298.839 115.665C298.226 116.019 297.729 115.809 297.729 115.196C297.729 114.584 298.226 113.799 298.839 113.455L318.82 101.923C319.433 101.569 319.93 101.78 319.93 102.392C319.921 102.995 319.423 103.78 318.82 104.134Z" fill="url(#paint46_linear)"/>
<path d="M298.063 115.275C298.063 114.662 298.561 113.877 299.174 113.533L319.155 102.001C319.337 101.896 319.5 101.858 319.653 101.848C319.452 101.724 319.155 101.733 318.82 101.934L298.839 113.466C298.226 113.82 297.729 114.605 297.729 115.208C297.729 115.638 297.977 115.849 298.341 115.83C298.178 115.724 298.063 115.543 298.063 115.275Z" fill="url(#paint47_linear)"/>
<path d="M318.82 109.77L298.839 121.302C298.226 121.656 297.729 121.445 297.729 120.833C297.729 120.22 298.226 119.435 298.839 119.091L318.82 107.559C319.433 107.205 319.93 107.416 319.93 108.028C319.921 108.631 319.423 109.416 318.82 109.77Z" fill="url(#paint48_linear)"/>
<path d="M298.063 120.911C298.063 120.298 298.561 119.514 299.174 119.169L319.155 107.638C319.337 107.532 319.5 107.494 319.653 107.484C319.452 107.36 319.155 107.37 318.82 107.571L298.839 119.102C298.226 119.456 297.729 120.241 297.729 120.844C297.729 121.275 297.977 121.485 298.341 121.466C298.178 121.361 298.063 121.179 298.063 120.911Z" fill="url(#paint49_linear)"/>
<path d="M318.82 115.407L298.839 126.938C298.226 127.292 297.729 127.082 297.729 126.469C297.729 125.857 298.226 125.072 298.839 124.728L318.82 113.196C319.433 112.842 319.93 113.053 319.93 113.665C319.921 114.268 319.423 115.053 318.82 115.407Z" fill="url(#paint50_linear)"/>
<path d="M298.063 126.548C298.063 125.935 298.561 125.15 299.174 124.806L319.155 113.274C319.337 113.169 319.5 113.131 319.653 113.121C319.452 112.997 319.155 113.006 318.82 113.207L298.839 124.739C298.226 125.093 297.729 125.878 297.729 126.481C297.729 126.911 297.977 127.122 298.341 127.103C298.178 126.997 298.063 126.816 298.063 126.548Z" fill="url(#paint51_linear)"/>
<path d="M318.82 121.043L298.839 132.575C298.226 132.929 297.729 132.719 297.729 132.106C297.729 131.494 298.226 130.709 298.839 130.364L318.82 118.833C319.433 118.479 319.93 118.689 319.93 119.302C319.921 119.905 319.423 120.689 318.82 121.043Z" fill="url(#paint52_linear)"/>
<path d="M298.063 132.184C298.063 131.572 298.561 130.787 299.174 130.443L319.155 118.911C319.337 118.806 319.5 118.767 319.653 118.758C319.452 118.633 319.155 118.643 318.82 118.844L298.839 130.376C298.226 130.73 297.729 131.514 297.729 132.117C297.729 132.548 297.977 132.758 298.341 132.739C298.178 132.634 298.063 132.452 298.063 132.184Z" fill="url(#paint53_linear)"/>
<path d="M318.82 126.68L298.839 138.211C298.226 138.565 297.729 138.355 297.729 137.742C297.729 137.13 298.226 136.345 298.839 136.001L318.82 124.469C319.433 124.115 319.93 124.325 319.93 124.938C319.921 125.541 319.423 126.326 318.82 126.68Z" fill="url(#paint54_linear)"/>
<path d="M298.063 137.821C298.063 137.208 298.561 136.423 299.174 136.079L319.155 124.547C319.337 124.442 319.5 124.404 319.653 124.394C319.452 124.27 319.155 124.279 318.82 124.48L298.839 136.012C298.226 136.366 297.729 137.151 297.729 137.754C297.729 138.184 297.977 138.395 298.341 138.376C298.178 138.27 298.063 138.088 298.063 137.821Z" fill="url(#paint55_linear)"/>
<path d="M318.82 132.317L298.839 143.848C298.226 144.202 297.729 143.992 297.729 143.379C297.729 142.767 298.226 141.982 298.839 141.638L318.82 130.106C319.433 129.752 319.93 129.962 319.93 130.575C319.921 131.178 319.423 131.963 318.82 132.317Z" fill="url(#paint56_linear)"/>
<path d="M298.063 143.457C298.063 142.845 298.561 142.06 299.174 141.716L319.155 130.184C319.337 130.079 319.5 130.041 319.653 130.031C319.452 129.907 319.155 129.916 318.82 130.117L298.839 141.649C298.226 142.003 297.729 142.788 297.729 143.391C297.729 143.821 297.977 144.032 298.341 144.013C298.178 143.907 298.063 143.725 298.063 143.457Z" fill="url(#paint57_linear)"/>
<path d="M318.82 137.953L298.839 149.485C298.226 149.839 297.729 149.628 297.729 149.016C297.729 148.403 298.226 147.619 298.839 147.274L318.82 135.742C319.433 135.388 319.93 135.599 319.93 136.211C319.921 136.814 319.423 137.599 318.82 137.953Z" fill="url(#paint58_linear)"/>
<path d="M298.063 149.094C298.063 148.482 298.561 147.697 299.174 147.352L319.155 135.821C319.337 135.715 319.5 135.677 319.653 135.668C319.452 135.543 319.155 135.553 318.82 135.754L298.839 147.285C298.226 147.639 297.729 148.424 297.729 149.027C297.729 149.458 297.977 149.668 298.341 149.649C298.178 149.544 298.063 149.362 298.063 149.094Z" fill="url(#paint59_linear)"/>
<path d="M318.82 143.59L298.839 155.121C298.226 155.476 297.729 155.265 297.729 154.652C297.729 154.04 298.226 153.255 298.839 152.911L318.82 141.379C319.433 141.025 319.93 141.236 319.93 141.848C319.921 142.451 319.423 143.236 318.82 143.59Z" fill="url(#paint60_linear)"/>
<path d="M298.063 154.731C298.063 154.118 298.561 153.333 299.174 152.989L319.155 141.457C319.337 141.352 319.5 141.314 319.653 141.304C319.452 141.18 319.155 141.189 318.82 141.39L298.839 152.922C298.226 153.276 297.729 154.061 297.729 154.664C297.729 155.094 297.977 155.305 298.341 155.286C298.178 155.18 298.063 154.999 298.063 154.731Z" fill="url(#paint61_linear)"/>
<path d="M289.565 146.91L272.521 137.072V100.018L289.565 109.856V146.91Z" fill="url(#paint62_linear)"/>
<path d="M273.182 101.301L289.565 110.765V109.856L272.521 100.018V137.072L273.182 137.455V101.301Z" fill="url(#paint63_linear)"/>
<path d="M321.356 82.1899C321.356 82.1899 321.414 82.2282 321.529 82.2952C321.643 82.3622 321.806 82.477 321.988 82.6589C322.17 82.8407 322.38 83.0991 322.466 83.4627C322.572 83.8264 322.486 84.2953 322.189 84.6877C321.911 85.0896 321.433 85.3862 320.935 85.6638C320.438 85.9604 319.911 86.2762 319.337 86.6112C318.189 87.2811 316.906 88.0466 315.5 88.8792C312.677 90.5252 309.385 92.4487 305.853 94.5063C304.092 95.5398 302.265 96.602 300.408 97.6834C299.48 98.2193 298.552 98.7648 297.614 99.3199C297.173 99.5974 296.638 99.8845 296.092 100.018C295.547 100.172 294.982 100.248 294.417 100.258C293.298 100.277 292.13 99.9993 291.192 99.3869C290.255 98.8414 289.326 98.2863 288.398 97.7504C286.551 96.669 284.723 95.5972 282.962 94.5637C279.441 92.4966 276.149 90.5635 273.335 88.9079C271.928 88.0754 270.646 87.3098 269.498 86.6303C268.923 86.2858 268.397 85.97 267.9 85.6733C267.411 85.3958 266.933 85.0992 266.655 84.6877C266.368 84.2953 266.292 83.8168 266.407 83.4627C266.502 83.0991 266.722 82.8407 266.895 82.6684C267.077 82.4866 267.239 82.3813 267.354 82.3048C267.469 82.2378 267.526 82.1995 267.526 82.1995C267.526 82.1995 267.469 82.2378 267.364 82.3048C267.258 82.3718 267.096 82.4866 266.914 82.678C266.742 82.8598 266.541 83.1182 266.454 83.4723C266.359 83.8264 266.445 84.2762 266.722 84.6398C267 85.0226 267.459 85.2906 267.967 85.5681C268.464 85.8456 269.01 86.1518 269.584 86.4772C270.742 87.1375 272.043 87.8744 273.46 88.6783C276.292 90.3051 279.594 92.2095 283.144 94.2479C284.915 95.2623 286.742 96.3149 288.609 97.3868C289.537 97.9227 290.475 98.4586 291.413 99.0041C292.302 99.5782 293.355 99.8079 294.408 99.7888C294.934 99.7888 295.461 99.7218 295.968 99.5782C296.475 99.4538 296.915 99.2242 297.394 98.9371C298.331 98.4012 299.279 97.8653 300.207 97.3293C302.073 96.2671 303.901 95.2144 305.671 94.2C309.222 92.1712 312.533 90.2764 315.366 88.6591C316.792 87.8553 318.093 87.1184 319.251 86.4676C319.835 86.1423 320.371 85.836 320.878 85.5585C321.385 85.2905 321.844 85.0226 322.122 84.6398C322.409 84.2762 322.505 83.8264 322.409 83.4723C322.332 83.1182 322.132 82.8503 321.959 82.6684C321.787 82.4866 321.624 82.3718 321.509 82.2952C321.414 82.2282 321.356 82.1899 321.356 82.1899Z" fill="#F1F2F2"/>
<path d="M360.19 105.243C360.19 105.817 359.807 106.401 359.051 106.841L334.801 120.842C333.28 121.722 330.83 121.713 329.318 120.842L305.231 106.841C304.484 106.401 304.102 105.836 304.102 105.262L304.274 165.14C304.274 165.714 304.647 166.279 305.403 166.719L329.49 180.72C330.993 181.591 333.452 181.6 334.974 180.72L359.224 166.719C359.989 166.279 360.372 165.695 360.362 165.121L360.19 105.243Z" fill="url(#paint64_linear)"/>
<path d="M329.49 89.6635C331.012 88.7831 333.461 88.7831 334.973 89.6635L359.061 103.664C360.563 104.535 360.563 105.961 359.042 106.841L334.792 120.842C333.27 121.722 330.82 121.713 329.308 120.842L305.231 106.841C303.719 105.961 303.728 104.545 305.25 103.664L329.49 89.6635Z" fill="#F2F4F8"/>
<path d="M356.525 114.344L336.544 125.876C335.931 126.23 335.434 126.019 335.434 125.407C335.434 124.794 335.931 124.009 336.544 123.665L356.525 112.133C357.138 111.779 357.635 111.99 357.635 112.602C357.635 113.205 357.138 113.99 356.525 114.344Z" fill="url(#paint65_linear)"/>
<path d="M335.779 125.485C335.779 124.872 336.277 124.088 336.889 123.743L356.871 112.212C357.053 112.106 357.216 112.068 357.369 112.058C357.168 111.934 356.871 111.944 356.536 112.145L336.554 123.676C335.942 124.03 335.444 124.815 335.444 125.418C335.444 125.848 335.693 126.059 336.057 126.04C335.885 125.935 335.779 125.753 335.779 125.485Z" fill="url(#paint66_linear)"/>
<path d="M356.525 119.98L336.544 131.512C335.931 131.866 335.434 131.656 335.434 131.043C335.434 130.431 335.931 129.646 336.544 129.301L356.525 117.77C357.138 117.416 357.635 117.626 357.635 118.239C357.635 118.842 357.138 119.626 356.525 119.98Z" fill="url(#paint67_linear)"/>
<path d="M335.779 131.121C335.779 130.509 336.277 129.724 336.889 129.38L356.871 117.848C357.053 117.743 357.216 117.704 357.369 117.695C357.168 117.57 356.871 117.58 356.536 117.781L336.554 129.313C335.942 129.667 335.444 130.451 335.444 131.054C335.444 131.485 335.693 131.696 336.057 131.676C335.885 131.571 335.779 131.389 335.779 131.121Z" fill="url(#paint68_linear)"/>
<path d="M356.525 125.617L336.544 137.149C335.931 137.503 335.434 137.292 335.434 136.68C335.434 136.067 335.931 135.283 336.544 134.938L356.525 123.407C357.138 123.052 357.635 123.263 357.635 123.875C357.635 124.478 357.138 125.263 356.525 125.617Z" fill="url(#paint69_linear)"/>
<path d="M335.779 136.758C335.779 136.146 336.277 135.361 336.889 135.016L356.871 123.485C357.053 123.379 357.216 123.341 357.369 123.332C357.168 123.207 356.871 123.217 356.536 123.418L336.554 134.949C335.942 135.303 335.444 136.088 335.444 136.691C335.444 137.122 335.693 137.332 336.057 137.313C335.885 137.208 335.779 137.026 335.779 136.758Z" fill="url(#paint70_linear)"/>
<path d="M356.525 131.254L336.544 142.785C335.931 143.14 335.434 142.929 335.434 142.317C335.434 141.704 335.931 140.919 336.544 140.575L356.525 129.043C357.138 128.689 357.635 128.9 357.635 129.512C357.635 130.115 357.138 130.9 356.525 131.254Z" fill="url(#paint71_linear)"/>
<path d="M335.779 142.395C335.779 141.782 336.277 140.998 336.889 140.653L356.871 129.121C357.053 129.016 357.216 128.978 357.369 128.968C357.168 128.844 356.871 128.853 356.536 129.054L336.554 140.586C335.942 140.94 335.444 141.725 335.444 142.328C335.444 142.758 335.693 142.969 336.057 142.95C335.885 142.845 335.779 142.663 335.779 142.395Z" fill="url(#paint72_linear)"/>
<path d="M356.525 136.89L336.544 148.422C335.931 148.776 335.434 148.566 335.434 147.953C335.434 147.341 335.931 146.556 336.544 146.211L356.525 134.68C357.138 134.326 357.635 134.536 357.635 135.149C357.635 135.752 357.138 136.536 356.525 136.89Z" fill="url(#paint73_linear)"/>
<path d="M335.779 148.031C335.779 147.419 336.277 146.634 336.889 146.289L356.871 134.758C357.053 134.653 357.216 134.614 357.369 134.605C357.168 134.48 356.871 134.49 356.536 134.691L336.554 146.223C335.942 146.577 335.444 147.361 335.444 147.964C335.444 148.395 335.693 148.605 336.057 148.586C335.885 148.481 335.779 148.299 335.779 148.031Z" fill="url(#paint74_linear)"/>
<path d="M356.525 142.527L336.544 154.059C335.931 154.413 335.434 154.202 335.434 153.59C335.434 152.977 335.931 152.193 336.544 151.848L356.525 140.316C357.138 139.962 357.635 140.173 357.635 140.785C357.635 141.388 357.138 142.173 356.525 142.527Z" fill="url(#paint75_linear)"/>
<path d="M335.779 153.668C335.779 153.055 336.277 152.271 336.889 151.926L356.871 140.395C357.053 140.289 357.216 140.251 357.369 140.242C357.168 140.117 356.871 140.127 356.536 140.328L336.554 151.859C335.942 152.213 335.444 152.998 335.444 153.601C335.444 154.032 335.693 154.242 336.057 154.223C335.885 154.118 335.779 153.936 335.779 153.668Z" fill="url(#paint76_linear)"/>
<path d="M356.525 148.164L336.544 159.695C335.931 160.049 335.434 159.839 335.434 159.226C335.434 158.614 335.931 157.829 336.544 157.485L356.525 145.953C357.138 145.599 357.635 145.809 357.635 146.422C357.635 147.025 357.138 147.809 356.525 148.164Z" fill="url(#paint77_linear)"/>
<path d="M335.779 159.304C335.779 158.692 336.277 157.907 336.889 157.563L356.871 146.031C357.053 145.926 357.216 145.888 357.369 145.878C357.168 145.754 356.871 145.763 356.536 145.964L336.554 157.496C335.942 157.85 335.444 158.635 335.444 159.237C335.444 159.668 335.693 159.879 336.057 159.859C335.885 159.754 335.779 159.572 335.779 159.304Z" fill="url(#paint78_linear)"/>
<path d="M356.525 153.8L336.544 165.332C335.931 165.686 335.434 165.475 335.434 164.863C335.434 164.25 335.931 163.466 336.544 163.121L356.525 151.59C357.138 151.236 357.635 151.446 357.635 152.059C357.635 152.661 357.138 153.446 356.525 153.8Z" fill="url(#paint79_linear)"/>
<path d="M335.779 164.941C335.779 164.329 336.277 163.544 336.889 163.199L356.871 151.668C357.053 151.563 357.216 151.524 357.369 151.515C357.168 151.39 356.871 151.4 356.536 151.601L336.554 163.132C335.942 163.487 335.444 164.271 335.444 164.874C335.444 165.305 335.693 165.515 336.057 165.496C335.885 165.391 335.779 165.209 335.779 164.941Z" fill="url(#paint80_linear)"/>
<path d="M356.525 159.437L336.544 170.968C335.931 171.322 335.434 171.112 335.434 170.499C335.434 169.887 335.931 169.102 336.544 168.758L356.525 157.226C357.138 156.872 357.635 157.083 357.635 157.695C357.635 158.298 357.138 159.083 356.525 159.437Z" fill="url(#paint81_linear)"/>
<path d="M335.779 170.578C335.779 169.965 336.277 169.18 336.889 168.836L356.871 157.304C357.053 157.199 357.216 157.161 357.369 157.151C357.168 157.027 356.871 157.036 356.536 157.237L336.554 168.769C335.942 169.123 335.444 169.908 335.444 170.511C335.444 170.941 335.693 171.152 336.057 171.133C335.885 171.027 335.779 170.846 335.779 170.578Z" fill="url(#paint82_linear)"/>
<path d="M356.525 165.073L336.544 176.605C335.931 176.959 335.434 176.749 335.434 176.136C335.434 175.524 335.931 174.739 336.544 174.394L356.525 162.863C357.138 162.509 357.635 162.719 357.635 163.332C357.635 163.935 357.138 164.719 356.525 165.073Z" fill="url(#paint83_linear)"/>
<path d="M335.779 176.214C335.779 175.602 336.277 174.817 336.889 174.473L356.871 162.941C357.053 162.836 357.216 162.797 357.369 162.788C357.168 162.664 356.871 162.673 356.536 162.874L336.554 174.406C335.942 174.76 335.444 175.544 335.444 176.147C335.444 176.578 335.693 176.788 336.057 176.769C335.885 176.664 335.779 176.482 335.779 176.214Z" fill="url(#paint84_linear)"/>
<path d="M327.279 168.394L310.235 158.556V121.502L327.279 131.34V168.394Z" fill="url(#paint85_linear)"/>
<path d="M310.896 122.785L327.279 132.24V131.34L310.235 121.502V158.556L310.896 158.93V122.785Z" fill="url(#paint86_linear)"/>
<path d="M359.061 103.588C359.061 103.588 359.118 103.626 359.233 103.693C359.348 103.76 359.51 103.875 359.692 104.057C359.874 104.238 360.085 104.497 360.171 104.86C360.276 105.224 360.19 105.693 359.893 106.085C359.616 106.487 359.137 106.784 358.649 107.061C358.152 107.358 357.625 107.674 357.051 108.009C355.903 108.679 354.62 109.444 353.214 110.277C350.39 111.923 347.098 113.846 343.567 115.904C341.806 116.937 339.979 118 338.122 119.081C337.194 119.617 336.265 120.163 335.328 120.718C334.887 120.995 334.351 121.282 333.806 121.416C333.261 121.569 332.696 121.646 332.131 121.655C331.012 121.675 329.844 121.397 328.906 120.785C327.968 120.239 327.04 119.684 326.112 119.148C324.265 118.067 322.437 116.995 320.676 115.961C317.155 113.894 313.863 111.961 311.049 110.306C309.642 109.473 308.36 108.707 307.212 108.028C306.637 107.684 306.111 107.368 305.613 107.071C305.125 106.794 304.647 106.497 304.369 106.085C304.082 105.693 304.006 105.215 304.121 104.86C304.216 104.497 304.436 104.238 304.609 104.066C304.79 103.884 304.953 103.779 305.068 103.702C305.183 103.635 305.24 103.597 305.24 103.597C305.24 103.597 305.183 103.635 305.077 103.702C304.972 103.769 304.81 103.884 304.628 104.076C304.455 104.258 304.254 104.516 304.168 104.87C304.073 105.224 304.159 105.674 304.436 106.038C304.714 106.42 305.173 106.688 305.68 106.966C306.178 107.243 306.723 107.55 307.298 107.875C308.456 108.535 309.757 109.272 311.173 110.076C314.006 111.703 317.308 113.607 320.858 115.646C322.628 116.66 324.456 117.713 326.322 118.784C327.251 119.32 328.189 119.856 329.126 120.402C330.016 120.976 331.069 121.206 332.122 121.186C332.648 121.186 333.174 121.12 333.682 120.976C334.189 120.852 334.629 120.622 335.108 120.335C336.045 119.799 336.993 119.263 337.921 118.727C339.787 117.665 341.615 116.612 343.385 115.598C346.936 113.569 350.247 111.674 353.08 110.057C354.506 109.253 355.807 108.516 356.965 107.865C357.549 107.54 358.085 107.234 358.592 106.956C359.099 106.688 359.558 106.42 359.836 106.038C360.123 105.674 360.219 105.224 360.123 104.87C360.046 104.516 359.845 104.258 359.673 104.066C359.501 103.884 359.338 103.769 359.223 103.693C359.118 103.626 359.061 103.588 359.061 103.588Z" fill="#F1F2F2"/>
<g opacity="0.33" filter="url(#filter5_f)">
<path d="M-35.4308 221.099C-34.5982 220.62 -33.2584 220.62 -32.4258 221.099L-8.92246 234.755C-8.09946 235.233 -8.09947 236.008 -8.93204 236.496L-32.5885 250.152C-33.4211 250.631 -34.7609 250.631 -35.5934 250.152L-59.0968 236.496C-59.9198 236.018 -59.9198 235.243 -59.0873 234.755L-35.4308 221.099Z" fill="#020E14"/>
</g>
<mask id="mask2" mask-type="alpha" maskUnits="userSpaceOnUse" x="63" y="170" width="62" height="37">
<path d="M94.095 206.812C110.902 206.812 124.527 198.628 124.527 188.534C124.527 178.439 110.902 170.255 94.095 170.255C77.2879 170.255 63.6631 178.439 63.6631 188.534C63.6631 198.628 77.2879 206.812 94.095 206.812Z" fill="url(#paint87_radial)"/>
</mask>
<g mask="url(#mask2)">
<path d="M117.752 183.988L117.762 187.73C117.771 191.405 115.35 195.089 110.489 197.893C100.833 203.463 85.2245 203.472 75.6355 197.893C70.8698 195.127 68.4869 191.5 68.4774 187.864L68.4678 184.122C68.4773 187.749 70.8602 191.376 75.626 194.151C85.2149 199.721 100.823 199.721 110.479 194.151C115.331 191.347 117.762 187.663 117.752 183.988Z" fill="url(#paint88_linear)"/>
<path d="M75.7314 173.959C85.3873 168.389 100.986 168.389 110.585 173.959C120.173 179.529 120.126 188.572 110.47 194.142C100.814 199.711 85.2055 199.721 75.6165 194.142C66.0276 188.572 66.0755 179.529 75.7314 173.959Z" fill="#F2F4F8"/>
<path d="M110.584 173.959C110.584 173.959 110.871 174.141 111.426 174.485C111.694 174.667 112.048 174.859 112.421 175.136C112.795 175.423 113.216 175.758 113.694 176.122C114.134 176.533 114.632 176.983 115.12 177.519C115.579 178.084 116.106 178.677 116.508 179.423C117.369 180.859 118.01 182.773 117.79 184.878C117.589 186.964 116.556 189.127 114.91 190.859C113.292 192.611 111.149 194.084 108.833 195.185C104.124 197.434 98.5644 198.506 93.0331 198.553C87.5017 198.515 81.9321 197.453 77.2334 195.194C74.8983 194.075 72.793 192.611 71.1661 190.84C69.5393 189.079 68.5344 186.917 68.3717 184.821C68.1899 182.715 68.8598 180.811 69.7402 179.385C70.1517 178.639 70.6876 178.055 71.147 177.49C71.6542 176.964 72.1422 176.505 72.592 176.103C73.0705 175.739 73.5011 175.404 73.8744 175.117C74.2572 174.839 74.6017 174.648 74.8792 174.476C75.4247 174.131 75.7213 173.949 75.7213 173.949C75.7213 173.949 75.4342 174.141 74.8888 174.495C74.6208 174.677 74.2763 174.878 73.9031 175.155C73.5394 175.452 73.1184 175.787 72.6494 176.16C72.2188 176.572 71.7307 177.041 71.2427 177.567C70.8025 178.141 70.2761 178.725 69.8838 179.471C69.0512 180.897 68.4387 182.754 68.6205 184.792C68.7928 186.821 69.7785 188.926 71.3862 190.63C72.9748 192.343 75.061 193.778 77.3865 194.869C82.0374 197.061 87.5591 198.075 93.0331 198.084C98.507 198.075 104.029 197.051 108.67 194.869C111.015 193.769 113.072 192.362 114.689 190.649C116.316 188.955 117.331 186.869 117.532 184.84C117.752 182.802 117.168 180.935 116.355 179.5C115.972 178.754 115.465 178.16 115.015 177.586C114.536 177.05 114.048 176.591 113.627 176.17C113.158 175.787 112.737 175.452 112.383 175.165C112.01 174.878 111.665 174.677 111.397 174.495C110.871 174.15 110.584 173.959 110.584 173.959Z" fill="#F1F2F2"/>
<path d="M87.8463 177.605C88.4204 177.28 89.1382 177.021 89.9707 176.897C92.4972 176.504 95.0906 177.375 95.7605 178.839C96.0954 179.576 95.8849 180.313 95.2724 180.926C93.8082 182.38 94.0475 182.821 94.6025 183.337C95.4925 183.663 96.2485 183.797 98.7654 182.954C99.8181 182.6 101.11 182.486 102.373 182.677C104.9 183.069 106.393 184.572 105.704 186.036C105.474 186.514 105.043 186.936 104.469 187.27C103.311 187.94 101.579 188.247 99.8851 187.979C98.6218 187.778 97.617 187.309 97.0141 186.696C95.5691 185.242 94.7939 185.136 93.7508 185.156C93.4829 185.242 93.2532 185.318 93.0427 185.443C92.5355 185.739 92.2292 186.237 92.2292 187.443C92.2292 188.151 91.7603 188.849 90.832 189.385C88.9755 190.457 85.9706 190.457 84.1332 189.385C82.2862 188.314 82.2958 186.572 84.1523 185.5C85.0806 184.964 86.296 184.696 87.5113 184.696C89.588 184.696 90.4492 184.524 90.966 184.227C91.167 184.112 91.3201 183.969 91.4541 183.816C91.4923 183.213 91.3201 182.763 88.8128 181.921C87.7601 181.567 86.9467 180.983 86.6118 180.256C86.1524 179.27 86.6787 178.275 87.8463 177.605Z" fill="url(#paint89_linear)"/>
</g>
<g opacity="0.33" filter="url(#filter6_f)">
<path d="M151.078 189.178C154.417 183.565 189.443 197.032 229.304 219.267C269.164 241.495 298.766 264.067 295.428 269.686C292.089 275.299 257.062 261.832 217.202 239.597C177.341 217.362 147.739 194.79 151.078 189.178Z" fill="#020E14"/>
</g>
<path d="M279.137 175.346C282.515 177.299 285.243 182.017 285.233 185.902L285.013 262.288C285.004 266.173 282.257 267.743 278.879 265.79L157.658 195.807C154.28 193.854 151.553 189.127 151.563 185.242L151.783 108.856C151.792 104.97 154.539 103.41 157.917 105.363L279.137 175.346ZM157.515 181.854C157.505 185.739 160.233 190.467 163.611 192.419L272.965 255.551C276.343 257.503 279.089 255.934 279.099 252.048L279.281 189.299C279.29 185.423 276.563 180.696 273.185 178.744L163.831 115.612C160.453 113.66 157.706 115.229 157.697 119.105L157.515 181.854Z" fill="#EBF2FF"/>
<path d="M160.118 101.123C161.228 100.473 162.769 100.568 164.472 101.554L285.692 171.538C289.071 173.49 291.798 178.208 291.788 182.093L291.568 258.479C291.559 260.412 290.879 261.771 289.779 262.403L283.223 266.212C284.324 265.57 285.003 264.211 285.013 262.288L285.233 185.902C285.243 182.017 282.515 177.299 279.137 175.346L157.917 105.363C156.213 104.377 154.682 104.291 153.562 104.932L160.118 101.123Z" fill="#C7D7F0"/>
<path d="M285.119 262.144C285.119 262.144 285.081 247.828 285.023 226.353C285.033 215.616 285.042 203.089 285.052 189.672C285.052 188.83 285.052 187.988 285.052 187.146C285.042 186.304 285.09 185.443 284.975 184.639C284.774 183.002 284.152 181.395 283.32 179.93C282.468 178.476 281.377 177.126 280.028 176.102C279.367 175.595 278.592 175.193 277.827 174.744C277.071 174.303 276.305 173.873 275.539 173.432C269.434 169.92 263.223 166.36 257.022 162.791C232.255 148.427 207.498 134.053 188.923 123.277C170.387 112.435 158.032 105.209 158.032 105.209C158.032 105.209 170.473 112.301 189.124 122.933C207.747 133.632 232.571 147.891 257.395 162.15C263.587 165.738 269.778 169.337 275.874 172.868C276.64 173.308 277.396 173.748 278.152 174.188C278.898 174.629 279.693 175.04 280.411 175.595C281.846 176.686 282.966 178.103 283.856 179.624C284.717 181.155 285.358 182.82 285.569 184.572C285.683 185.452 285.636 186.304 285.636 187.146C285.636 187.988 285.626 188.83 285.626 189.672C285.559 203.089 285.492 215.616 285.444 226.353C285.234 247.828 285.119 262.144 285.119 262.144Z" fill="#F1F2F2"/>
<path d="M163.841 115.612C160.462 113.659 157.716 115.229 157.706 119.105L157.524 181.854C157.515 185.739 160.242 190.466 163.62 192.419L272.974 255.551C276.352 257.503 279.099 255.933 279.109 252.048L279.29 189.299C279.3 185.423 276.573 180.696 273.194 178.743L163.841 115.612Z" fill="url(#paint90_linear)"/>
<path d="M163.841 115.612C160.462 113.659 157.716 115.229 157.706 119.105L157.524 181.854C157.515 185.739 160.242 190.466 163.62 192.419L272.974 255.551C276.352 257.503 279.099 255.933 279.109 252.048L279.29 189.299C279.3 185.423 276.573 180.696 273.194 178.743L163.841 115.612Z" fill="url(#paint91_linear)"/>
<path d="M169.726 165.786V193.912" stroke="white" stroke-width="0.7501" stroke-miterlimit="10" stroke-linecap="round"/>
<path d="M188.387 163.729V206.706" stroke="white" stroke-width="0.3504" stroke-miterlimit="10"/>
<path d="M232.235 178.992V232.028" stroke="white" stroke-width="0.3893" stroke-miterlimit="10"/>
<path d="M207.114 187.778V215.511" stroke="white" stroke-width="0.7501" stroke-miterlimit="10" stroke-linecap="round"/>
<mask id="mask3" mask-type="alpha" maskUnits="userSpaceOnUse" x="157" y="161" width="123" height="96">
<path d="M267.616 215.099C261.223 216.726 244.361 223.281 233.289 216.889C223.537 211.261 216.503 201.271 212.446 194.754C212.034 194.074 211.651 193.443 211.288 192.849C210.216 191.079 208.627 188.39 206.704 185.337C201.775 177.547 194.608 167.336 188.158 163.614C176.722 157.01 162.109 167.633 157.573 169.977L157.534 181.863C157.515 185.748 160.243 190.476 163.63 192.428L272.975 255.56C276.362 257.512 279.09 255.943 279.109 252.057L279.214 214.104C275.042 213.664 271.166 214.19 267.616 215.099Z" fill="url(#paint92_linear)"/>
</mask>
<g mask="url(#mask3)">
<path d="M267.616 215.099C261.223 216.726 244.361 223.281 233.289 216.889C223.537 211.261 216.503 201.271 212.446 194.754C212.034 194.074 211.651 193.443 211.288 192.849C210.216 191.079 208.627 188.39 206.704 185.337C201.775 177.547 194.608 167.336 188.158 163.614C176.722 157.01 162.109 167.633 157.573 169.977L157.534 181.863C157.515 185.748 160.243 190.476 163.63 192.428L272.975 255.56C276.362 257.512 279.09 255.943 279.109 252.057L279.214 214.104C275.042 213.664 271.166 214.19 267.616 215.099Z" fill="url(#paint93_linear)"/>
</g>
<mask id="mask4" mask-type="alpha" maskUnits="userSpaceOnUse" x="157" y="146" width="123" height="111">
<path d="M279.157 234.976L279.109 252.048C279.09 255.933 276.353 257.503 272.975 255.551L163.63 192.419C160.243 190.467 157.515 185.739 157.534 181.854L157.63 146.79C159.984 148.216 163.314 153.489 167.343 159.843C167.506 160.102 167.669 160.36 167.831 160.618C174.033 170.427 181.784 182.524 190.005 187.261C202.713 194.601 222.542 173.365 231.652 178.619C235.002 180.552 237.987 184.304 240.839 188.849C245.107 195.663 249.06 204.247 253.395 211.109C255.414 214.324 257.519 217.157 259.787 219.252C265.979 225.033 272.649 230.918 279.157 234.976Z" fill="url(#paint94_linear)"/>
</mask>
<g mask="url(#mask4)">
<path d="M279.157 234.976L279.109 252.048C279.09 255.933 276.353 257.503 272.975 255.551L163.63 192.419C160.243 190.467 157.515 185.739 157.534 181.854L157.63 146.79C159.984 148.216 163.314 153.489 167.343 159.843C167.506 160.102 167.669 160.36 167.831 160.618C174.033 170.427 181.784 182.524 190.005 187.261C202.713 194.601 222.542 173.365 231.652 178.619C235.002 180.552 237.987 184.304 240.839 188.849C245.107 195.663 249.06 204.247 253.395 211.109C255.414 214.324 257.519 217.157 259.787 219.252C265.979 225.033 272.649 230.918 279.157 234.976Z" fill="url(#paint95_linear)"/>
<path d="M157.524 146.742C163.496 150.14 176.08 179.251 189.985 187.28C202.694 194.62 222.522 173.394 231.633 178.648C242.322 184.821 249.433 209.664 259.768 219.281C265.969 225.061 272.639 230.928 279.147 234.995" stroke="#09BDFF" stroke-width="0.9377" stroke-miterlimit="10"/>
<path d="M157.562 169.968C162.089 167.633 176.721 157.001 188.157 163.604C197.134 168.782 207.488 186.533 211.278 192.84C215.067 199.156 222.513 210.668 233.279 216.889C244.341 223.281 261.213 216.717 267.605 215.09C271.165 214.19 275.041 213.664 279.204 214.085" stroke="#EC82FF" stroke-width="0.9377" stroke-miterlimit="10"/>
<path d="M171.352 164.341C171.352 165.241 170.625 165.547 169.725 165.03C168.826 164.513 168.099 163.365 168.099 162.465C168.099 161.566 168.826 161.26 169.725 161.776C170.625 162.293 171.352 163.442 171.352 164.341Z" fill="#66A6FF"/>
<path d="M208.742 187.079C208.742 187.979 208.015 188.285 207.115 187.768C206.216 187.251 205.488 186.103 205.488 185.203C205.488 184.304 206.216 183.998 207.115 184.514C208.015 185.041 208.742 186.189 208.742 187.079Z" fill="#66A6FF"/>
<path d="M233.862 179.93C233.862 180.83 233.135 181.136 232.235 180.619C231.336 180.103 230.608 178.954 230.608 178.055C230.608 177.155 231.336 176.849 232.235 177.366C233.135 177.892 233.862 179.031 233.862 179.93Z" fill="#BB4FFF"/>
<path d="M190.091 164.666C190.091 165.566 189.363 165.872 188.464 165.355C187.564 164.839 186.837 163.69 186.837 162.791C186.837 161.891 187.564 161.585 188.464 162.102C189.363 162.618 190.091 163.767 190.091 164.666Z" fill="#BB4FFF"/>
</g>
<path d="M255.865 208.421L252.873 206.693V205.966L253.947 205.332C254.265 205.14 254.473 204.999 254.571 204.912C254.668 204.821 254.739 204.727 254.782 204.628C254.825 204.528 254.846 204.412 254.846 204.279C254.846 204.081 254.798 203.906 254.703 203.754C254.609 203.603 254.483 203.482 254.325 203.39C254.159 203.295 253.998 203.246 253.842 203.243C253.686 203.241 253.523 203.272 253.353 203.336L252.861 202.38C253.072 202.294 253.247 202.248 253.385 202.243C253.524 202.237 253.675 202.259 253.839 202.309C254.003 202.356 254.186 202.438 254.389 202.555C254.657 202.71 254.893 202.902 255.098 203.133C255.303 203.364 255.462 203.614 255.575 203.882C255.688 204.15 255.745 204.415 255.745 204.677C255.745 204.904 255.71 205.098 255.639 205.258C255.571 205.417 255.464 205.559 255.317 205.684C255.173 205.81 254.917 205.961 254.55 206.137L254 206.418V206.465L255.865 207.542V208.421ZM259.267 207.914C259.267 208.777 259.144 209.345 258.898 209.617C258.654 209.891 258.277 209.881 257.768 209.587C257.274 209.302 256.901 208.873 256.649 208.299C256.4 207.726 256.275 207.022 256.275 206.186C256.275 205.314 256.397 204.742 256.641 204.47C256.885 204.197 257.26 204.206 257.768 204.499C258.262 204.784 258.634 205.216 258.886 205.794C259.14 206.373 259.267 207.08 259.267 207.914ZM257.173 206.705C257.173 207.311 257.218 207.772 257.308 208.088C257.4 208.402 257.553 208.621 257.768 208.745C257.979 208.867 258.131 208.822 258.224 208.61C258.318 208.398 258.365 207.993 258.365 207.393C258.365 206.787 258.317 206.324 258.222 206.005C258.128 205.685 257.977 205.465 257.768 205.344C257.555 205.222 257.403 205.267 257.311 205.48C257.219 205.69 257.173 206.099 257.173 206.705ZM261.96 211.94L261.055 211.418V208.558L261.064 208.093L261.079 207.588C260.929 207.674 260.824 207.728 260.766 207.748L260.274 207.92L259.838 207.04L261.216 206.568L261.96 206.998V211.94ZM254.348 211.538C254.758 211.775 255.088 212.074 255.338 212.434C255.59 212.794 255.716 213.156 255.716 213.521C255.716 213.774 255.655 213.964 255.534 214.092C255.413 214.219 255.218 214.282 254.949 214.282C255.269 214.665 255.498 215.005 255.636 215.301C255.777 215.596 255.847 215.872 255.847 216.129C255.847 216.535 255.71 216.782 255.434 216.871C255.159 216.958 254.797 216.872 254.348 216.613C253.88 216.342 253.512 216.015 253.245 215.631C252.977 215.246 252.844 214.843 252.844 214.422C252.844 214.14 252.908 213.927 253.037 213.783C253.168 213.64 253.376 213.568 253.663 213.567C253.419 213.248 253.244 212.956 253.136 212.691C253.029 212.426 252.975 212.173 252.975 211.932C252.975 211.578 253.102 211.365 253.356 211.293C253.61 211.221 253.94 211.303 254.348 211.538ZM253.681 214.845C253.681 215.038 253.739 215.223 253.857 215.399C253.974 215.575 254.134 215.721 254.337 215.838C254.561 215.968 254.729 216.01 254.84 215.964C254.951 215.915 255.007 215.8 255.007 215.617C255.007 215.466 254.951 215.293 254.84 215.098C254.731 214.902 254.552 214.658 254.304 214.366C253.889 214.347 253.681 214.507 253.681 214.845ZM254.343 212.299C254.188 212.21 254.063 212.184 253.968 212.221C253.874 212.257 253.827 212.352 253.827 212.505C253.827 212.64 253.864 212.784 253.939 212.935C254.015 213.084 254.151 213.273 254.348 213.499C254.54 213.506 254.673 213.477 254.749 213.413C254.826 213.349 254.864 213.246 254.864 213.104C254.864 212.948 254.815 212.797 254.717 212.651C254.62 212.504 254.495 212.387 254.343 212.299Z" fill="white"/>
<path d="M167.189 150.952L164.197 149.225V148.498L165.272 147.864C165.59 147.671 165.797 147.531 165.895 147.443C165.993 147.353 166.063 147.258 166.106 147.159C166.149 147.06 166.17 146.944 166.17 146.811C166.17 146.613 166.122 146.437 166.027 146.285C165.933 146.134 165.807 146.013 165.649 145.922C165.483 145.826 165.322 145.777 165.166 145.775C165.01 145.772 164.847 145.803 164.677 145.868L164.185 144.911C164.396 144.825 164.571 144.78 164.709 144.774C164.848 144.768 164.999 144.79 165.163 144.84C165.327 144.887 165.511 144.97 165.714 145.087C165.981 145.241 166.217 145.434 166.422 145.665C166.627 145.896 166.786 146.146 166.899 146.414C167.012 146.682 167.069 146.947 167.069 147.208C167.069 147.436 167.034 147.63 166.964 147.79C166.895 147.949 166.788 148.09 166.642 148.216C166.497 148.342 166.242 148.493 165.875 148.669L165.324 148.949V148.996L167.189 150.073V150.952ZM170.591 150.445C170.591 151.308 170.468 151.876 170.222 152.149C169.978 152.423 169.601 152.413 169.092 152.118C168.598 151.833 168.225 151.404 167.974 150.83C167.724 150.258 167.599 149.554 167.599 148.718C167.599 147.845 167.721 147.274 167.965 147.002C168.209 146.728 168.585 146.738 169.092 147.031C169.586 147.316 169.959 147.747 170.21 148.326C170.464 148.905 170.591 149.611 170.591 150.445ZM168.498 149.237C168.498 149.843 168.543 150.304 168.632 150.619C168.724 150.934 168.877 151.153 169.092 151.277C169.303 151.398 169.455 151.353 169.549 151.142C169.642 150.93 169.689 150.524 169.689 149.925C169.689 149.318 169.641 148.856 169.546 148.537C169.452 148.217 169.301 147.996 169.092 147.876C168.879 147.753 168.727 147.798 168.635 148.011C168.544 148.222 168.498 148.63 168.498 149.237ZM173.284 154.471L172.38 153.949V151.089L172.388 150.624L172.403 150.119C172.253 150.206 172.148 150.259 172.09 150.28L171.598 150.452L171.162 149.571L172.541 149.1L173.284 149.529V154.471ZM167.166 157.467C167.166 158.331 167.043 158.899 166.797 159.171C166.553 159.445 166.176 159.435 165.667 159.141C165.173 158.856 164.8 158.426 164.548 157.853C164.299 157.28 164.174 156.576 164.174 155.74C164.174 154.868 164.296 154.296 164.54 154.024C164.784 153.75 165.159 153.76 165.667 154.053C166.161 154.338 166.533 154.77 166.785 155.348C167.039 155.927 167.166 156.634 167.166 157.467ZM165.072 156.259C165.072 156.865 165.117 157.326 165.207 157.641C165.299 157.956 165.452 158.175 165.667 158.299C165.878 158.421 166.03 158.376 166.123 158.164C166.217 157.952 166.264 157.546 166.264 156.947C166.264 156.341 166.216 155.878 166.12 155.559C166.027 155.239 165.876 155.019 165.667 154.898C165.454 154.775 165.302 154.82 165.21 155.033C165.118 155.244 165.072 155.653 165.072 156.259Z" fill="white"/>
<path d="M197.276 161.946L194.284 160.219V159.492L195.358 158.858C195.677 158.665 195.884 158.525 195.982 158.437C196.08 158.347 196.15 158.252 196.193 158.153C196.236 158.054 196.257 157.938 196.257 157.805C196.257 157.607 196.209 157.432 196.114 157.279C196.02 157.128 195.894 157.007 195.736 156.916C195.57 156.82 195.409 156.771 195.253 156.769C195.097 156.767 194.934 156.798 194.764 156.862L194.272 155.905C194.483 155.82 194.658 155.774 194.796 155.768C194.935 155.763 195.086 155.785 195.25 155.834C195.414 155.882 195.598 155.964 195.8 156.081C196.068 156.235 196.304 156.428 196.509 156.659C196.714 156.89 196.873 157.14 196.986 157.408C197.099 157.676 197.156 157.941 197.156 158.202C197.156 158.43 197.121 158.624 197.051 158.784C196.982 158.943 196.875 159.085 196.729 159.21C196.584 159.336 196.328 159.487 195.961 159.663L195.411 159.943V159.991L197.276 161.067V161.946ZM200.678 161.439C200.678 162.302 200.555 162.87 200.309 163.143C200.065 163.417 199.688 163.407 199.179 163.113C198.685 162.827 198.312 162.398 198.061 161.825C197.811 161.252 197.686 160.548 197.686 159.712C197.686 158.84 197.808 158.268 198.052 157.996C198.296 157.722 198.671 157.732 199.179 158.025C199.673 158.31 200.045 158.742 200.297 159.32C200.551 159.899 200.678 160.605 200.678 161.439ZM198.585 160.231C198.585 160.837 198.629 161.298 198.719 161.613C198.811 161.928 198.964 162.147 199.179 162.271C199.39 162.393 199.542 162.347 199.636 162.136C199.729 161.924 199.776 161.518 199.776 160.919C199.776 160.312 199.728 159.85 199.633 159.531C199.539 159.211 199.388 158.991 199.179 158.87C198.966 158.747 198.814 158.792 198.722 159.005C198.63 159.216 198.585 159.624 198.585 160.231ZM203.371 165.466L202.467 164.943V162.083L202.475 161.619L202.49 161.113C202.34 161.2 202.235 161.253 202.177 161.274L201.685 161.446L201.249 160.565L202.628 160.094L203.371 160.523V165.466ZM197.109 167.013C197.109 167.322 197.028 167.538 196.866 167.66C196.704 167.783 196.477 167.801 196.184 167.713V167.733C196.529 167.982 196.791 168.255 196.969 168.551C197.146 168.845 197.235 169.156 197.235 169.482C197.235 169.958 197.086 170.243 196.787 170.336C196.488 170.427 196.062 170.313 195.508 169.993C195.043 169.725 194.631 169.398 194.272 169.012V168.123C194.438 168.316 194.621 168.5 194.82 168.676C195.019 168.852 195.216 168.996 195.411 169.109C195.71 169.281 195.93 169.35 196.073 169.315C196.215 169.28 196.286 169.133 196.286 168.874C196.286 168.642 196.204 168.43 196.041 168.238C195.877 168.047 195.615 167.847 195.256 167.64L194.931 167.452V166.651L195.262 166.842C195.594 167.034 195.836 167.124 195.988 167.113C196.142 167.1 196.219 166.972 196.219 166.729C196.219 166.355 196.016 166.051 195.61 165.816C195.47 165.735 195.326 165.679 195.18 165.649C195.035 165.62 194.874 165.62 194.697 165.651L194.278 164.689C194.668 164.59 195.134 164.696 195.675 165.008C196.118 165.264 196.467 165.569 196.723 165.924C196.98 166.281 197.109 166.643 197.109 167.013Z" fill="white"/>
<path d="M229.528 173.843L226.536 172.115V171.388L227.61 170.755C227.928 170.562 228.136 170.422 228.234 170.334C228.332 170.244 228.402 170.149 228.445 170.05C228.488 169.951 228.509 169.835 228.509 169.702C228.509 169.503 228.461 169.328 228.366 169.176C228.272 169.025 228.146 168.904 227.988 168.812C227.822 168.717 227.661 168.668 227.505 168.665C227.349 168.663 227.186 168.694 227.016 168.758L226.524 167.802C226.735 167.716 226.91 167.67 227.048 167.665C227.187 167.659 227.338 167.681 227.502 167.731C227.666 167.778 227.849 167.86 228.052 167.977C228.32 168.132 228.556 168.325 228.761 168.556C228.966 168.787 229.125 169.036 229.238 169.304C229.351 169.573 229.408 169.837 229.408 170.099C229.408 170.326 229.373 170.52 229.302 170.68C229.234 170.839 229.127 170.981 228.98 171.106C228.836 171.232 228.58 171.383 228.213 171.559L227.663 171.84V171.887L229.528 172.964V173.843ZM232.93 173.336C232.93 174.199 232.807 174.767 232.561 175.04C232.317 175.313 231.94 175.303 231.431 175.009C230.937 174.724 230.564 174.295 230.313 173.721C230.063 173.149 229.938 172.444 229.938 171.608C229.938 170.736 230.06 170.164 230.304 169.893C230.548 169.619 230.923 169.628 231.431 169.921C231.925 170.207 232.297 170.638 232.549 171.216C232.803 171.795 232.93 172.502 232.93 173.336ZM230.837 172.127C230.837 172.733 230.881 173.194 230.971 173.51C231.063 173.824 231.216 174.043 231.431 174.167C231.642 174.289 231.794 174.244 231.888 174.032C231.981 173.82 232.028 173.415 232.028 172.815C232.028 172.209 231.98 171.746 231.885 171.427C231.791 171.107 231.64 170.887 231.431 170.767C231.218 170.644 231.066 170.689 230.974 170.902C230.882 171.112 230.837 171.521 230.837 172.127ZM235.623 177.362L234.718 176.84V173.98L234.727 173.515L234.742 173.01C234.592 173.096 234.487 173.15 234.429 173.17L233.937 173.343L233.501 172.462L234.879 171.99L235.623 172.42V177.362ZM226.507 178.999C226.507 178.021 226.685 177.396 227.042 177.124C227.402 176.854 227.938 176.925 228.653 177.338C228.897 177.478 229.088 177.606 229.226 177.72V178.555C229.053 178.409 228.881 178.287 228.711 178.189C228.401 178.01 228.147 177.918 227.95 177.912C227.755 177.908 227.608 177.983 227.511 178.139C227.413 178.294 227.356 178.562 227.338 178.942L227.376 178.964C227.569 178.692 227.879 178.679 228.304 178.925C228.687 179.146 228.986 179.457 229.203 179.859C229.42 180.262 229.528 180.707 229.528 181.196C229.528 181.724 229.399 182.067 229.141 182.227C228.884 182.385 228.527 182.332 228.07 182.069C227.754 181.886 227.478 181.642 227.241 181.337C227.007 181.032 226.826 180.681 226.697 180.282C226.57 179.884 226.507 179.456 226.507 178.999ZM228.052 181.223C228.246 181.335 228.394 181.346 228.497 181.257C228.601 181.166 228.653 180.982 228.653 180.705C228.653 180.463 228.604 180.246 228.506 180.052C228.411 179.857 228.265 179.703 228.07 179.591C227.887 179.485 227.729 179.463 227.599 179.525C227.47 179.588 227.405 179.711 227.405 179.893C227.405 180.161 227.466 180.423 227.587 180.677C227.71 180.933 227.865 181.115 228.052 181.223Z" fill="white"/>
<path d="M306.794 217.546C307.786 218.119 308.363 218.637 308.524 219.1C308.689 219.562 308.442 219.982 307.786 220.361C307.151 220.728 306.42 220.862 305.595 220.765C304.769 220.667 303.876 220.341 302.915 219.786C301.907 219.204 301.323 218.684 301.165 218.225C301.006 217.763 301.253 217.344 301.907 216.966C302.545 216.598 303.278 216.463 304.106 216.563C304.934 216.662 305.83 216.99 306.794 217.546ZM303.844 219.249C304.623 219.699 305.259 219.974 305.751 220.075C306.246 220.174 306.669 220.122 307.02 219.919C307.372 219.716 307.459 219.47 307.282 219.181C307.108 218.891 306.636 218.524 305.868 218.081C305.102 217.639 304.467 217.366 303.962 217.264C303.456 217.159 303.028 217.208 302.676 217.411C302.325 217.614 302.236 217.859 302.411 218.146C302.588 218.432 303.066 218.799 303.844 219.249ZM313.044 217.235L312.126 217.765L308.439 215.636C307.998 215.382 307.66 215.174 307.423 215.013C307.425 215.084 307.42 215.167 307.407 215.261C307.397 215.355 307.345 215.661 307.251 216.182L306.208 216.112L306.567 214.379L307.333 213.937L313.044 217.235ZM315.935 212.268C316.927 212.841 317.504 213.359 317.666 213.822C317.83 214.284 317.584 214.704 316.927 215.083C316.292 215.45 315.561 215.585 314.736 215.487C313.91 215.389 313.017 215.063 312.056 214.508C311.048 213.926 310.465 213.406 310.306 212.947C310.147 212.486 310.394 212.066 311.048 211.689C311.686 211.32 312.419 211.186 313.247 211.285C314.076 211.384 314.972 211.712 315.935 212.268ZM312.986 213.971C313.764 214.421 314.4 214.696 314.892 214.797C315.387 214.896 315.81 214.844 316.162 214.641C316.513 214.438 316.601 214.192 316.423 213.903C316.249 213.613 315.778 213.246 315.009 212.803C314.244 212.361 313.608 212.089 313.103 211.986C312.598 211.881 312.169 211.93 311.818 212.133C311.466 212.336 311.378 212.581 311.552 212.868C311.729 213.154 312.207 213.522 312.986 213.971ZM322.186 211.957L321.268 212.487L317.58 210.358C317.14 210.104 316.801 209.896 316.564 209.735C316.567 209.806 316.561 209.889 316.548 209.983C316.538 210.077 316.486 210.383 316.392 210.904L315.349 210.834L315.709 209.102L316.474 208.659L322.186 211.957ZM326.756 209.318L325.838 209.848L322.15 207.719C321.71 207.465 321.372 207.257 321.135 207.096C321.137 207.167 321.132 207.25 321.119 207.345C321.109 207.438 321.057 207.744 320.963 208.265L319.92 208.195L320.279 206.463L321.045 206.021L326.756 209.318ZM329.647 204.351C330.639 204.924 331.216 205.442 331.378 205.906C331.542 206.367 331.296 206.787 330.639 207.166C330.004 207.533 329.273 207.668 328.448 207.57C327.622 207.472 326.729 207.146 325.768 206.591C324.76 206.009 324.177 205.489 324.018 205.03C323.859 204.569 324.106 204.149 324.76 203.772C325.398 203.403 326.131 203.269 326.959 203.368C327.788 203.467 328.683 203.795 329.647 204.351ZM326.698 206.054C327.476 206.504 328.112 206.779 328.604 206.88C329.099 206.979 329.522 206.927 329.874 206.724C330.225 206.521 330.312 206.275 330.135 205.987C329.961 205.697 329.489 205.33 328.721 204.886C327.955 204.444 327.32 204.172 326.815 204.07C326.31 203.964 325.881 204.013 325.53 204.216C325.178 204.419 325.089 204.664 325.264 204.951C325.441 205.237 325.919 205.605 326.698 206.054ZM319.732 226.374L318.814 226.904L315.126 224.775C314.686 224.52 314.347 224.313 314.11 224.152C314.113 224.223 314.108 224.305 314.095 224.4C314.084 224.493 314.032 224.8 313.938 225.32L312.895 225.251L313.255 223.518L314.02 223.076L319.732 226.374Z" fill="#E6E7E8"/>
</g>
<defs>
<filter id="filter0_f" x="152.862" y="52.8083" width="101.406" height="79.7716" filterUnits="userSpaceOnUse" color-interpolation-filters="sRGB">
<feFlood flood-opacity="0" result="BackgroundImageFix"/>
<feBlend mode="normal" in="SourceGraphic" in2="BackgroundImageFix" result="shape"/>
<feGaussianBlur stdDeviation="12.5" result="effect1_foregroundBlur"/>
</filter>
<filter id="filter1_f" x="203.081" y="85.6438" width="101.406" height="79.7716" filterUnits="userSpaceOnUse" color-interpolation-filters="sRGB">
<feFlood flood-opacity="0" result="BackgroundImageFix"/>
<feBlend mode="normal" in="SourceGraphic" in2="BackgroundImageFix" result="shape"/>
<feGaussianBlur stdDeviation="12.5" result="effect1_foregroundBlur"/>
</filter>
<filter id="filter2_f" x="239.779" y="104.959" width="101.406" height="79.7716" filterUnits="userSpaceOnUse" color-interpolation-filters="sRGB">
<feFlood flood-opacity="0" result="BackgroundImageFix"/>
<feBlend mode="normal" in="SourceGraphic" in2="BackgroundImageFix" result="shape"/>
<feGaussianBlur stdDeviation="12.5" result="effect1_foregroundBlur"/>
</filter>
<filter id="filter3_f" x="278.41" y="126.206" width="101.407" height="79.7716" filterUnits="userSpaceOnUse" color-interpolation-filters="sRGB">
<feFlood flood-opacity="0" result="BackgroundImageFix"/>
<feBlend mode="normal" in="SourceGraphic" in2="BackgroundImageFix" result="shape"/>
<feGaussianBlur stdDeviation="12.5" result="effect1_foregroundBlur"/>
</filter>
<filter id="filter4_f" x="318.972" y="149.384" width="101.406" height="79.7716" filterUnits="userSpaceOnUse" color-interpolation-filters="sRGB">
<feFlood flood-opacity="0" result="BackgroundImageFix"/>
<feBlend mode="normal" in="SourceGraphic" in2="BackgroundImageFix" result="shape"/>
<feGaussianBlur stdDeviation="12.5" result="effect1_foregroundBlur"/>
</filter>
<filter id="filter5_f" x="-84.7129" y="195.74" width="101.406" height="79.7716" filterUnits="userSpaceOnUse" color-interpolation-filters="sRGB">
<feFlood flood-opacity="0" result="BackgroundImageFix"/>
<feBlend mode="normal" in="SourceGraphic" in2="BackgroundImageFix" result="shape"/>
<feGaussianBlur stdDeviation="12.5" result="effect1_foregroundBlur"/>
</filter>
<filter id="filter6_f" x="125.821" y="162.904" width="194.863" height="133.055" filterUnits="userSpaceOnUse" color-interpolation-filters="sRGB">
<feFlood flood-opacity="0" result="BackgroundImageFix"/>
<feBlend mode="normal" in="SourceGraphic" in2="BackgroundImageFix" result="shape"/>
<feGaussianBlur stdDeviation="12.5" result="effect1_foregroundBlur"/>
</filter>
<radialGradient id="paint0_radial" cx="0" cy="0" r="1" gradientUnits="userSpaceOnUse" gradientTransform="rotate(32.0804) scale(404.814 253.158)">
<stop stop-color="white"/>
<stop offset="1" stop-color="white"/>
</radialGradient>
<linearGradient id="paint1_linear" x1="0" y1="0" x2="29.363" y2="244.457" gradientUnits="userSpaceOnUse">
<stop stop-color="white"/>
<stop offset="1" stop-color="#EEEDED" stop-opacity="0.5"/>
</linearGradient>
<linearGradient id="paint2_linear" x1="176.763" y1="97.9237" x2="228.18" y2="97.9237" gradientUnits="userSpaceOnUse">
<stop stop-color="#F5F7FA"/>
<stop offset="1" stop-color="#B5C6E2"/>
</linearGradient>
<linearGradient id="paint3_linear" x1="176.761" y1="89.4443" x2="228.172" y2="89.4443" gradientUnits="userSpaceOnUse">
<stop stop-color="#F5F7FA"/>
<stop offset="1" stop-color="#CFDCF0"/>
</linearGradient>
<linearGradient id="paint4_linear" x1="176.763" y1="91.2191" x2="228.18" y2="91.2191" gradientUnits="userSpaceOnUse">
<stop stop-color="#F5F7FA"/>
<stop offset="1" stop-color="#B5C6E2"/>
</linearGradient>
<linearGradient id="paint5_linear" x1="176.762" y1="82.7392" x2="228.173" y2="82.7392" gradientUnits="userSpaceOnUse">
<stop stop-color="#F5F7FA"/>
<stop offset="1" stop-color="#CFDCF0"/>
</linearGradient>
<linearGradient id="paint6_linear" x1="176.763" y1="84.5143" x2="228.18" y2="84.5143" gradientUnits="userSpaceOnUse">
<stop stop-color="#F5F7FA"/>
<stop offset="1" stop-color="#B5C6E2"/>
</linearGradient>
<linearGradient id="paint7_linear" x1="176.762" y1="76.0344" x2="228.173" y2="76.0344" gradientUnits="userSpaceOnUse">
<stop stop-color="#F5F7FA"/>
<stop offset="1" stop-color="#CFDCF0"/>
</linearGradient>
<linearGradient id="paint8_linear" x1="196.828" y1="70.9391" x2="207.458" y2="82.6834" gradientUnits="userSpaceOnUse">
<stop stop-color="#F5F7FA"/>
<stop offset="1" stop-color="#B5C6E2"/>
</linearGradient>
<linearGradient id="paint9_linear" x1="196.828" y1="72.0849" x2="207.458" y2="83.8292" gradientUnits="userSpaceOnUse">
<stop stop-color="#F5F7FA"/>
<stop offset="1" stop-color="#B5C6E2"/>
</linearGradient>
<linearGradient id="paint10_linear" x1="196.828" y1="73.2308" x2="207.458" y2="84.9751" gradientUnits="userSpaceOnUse">
<stop stop-color="#F5F7FA"/>
<stop offset="1" stop-color="#B5C6E2"/>
</linearGradient>
<linearGradient id="paint11_linear" x1="196.828" y1="74.3767" x2="207.458" y2="86.121" gradientUnits="userSpaceOnUse">
<stop stop-color="#F5F7FA"/>
<stop offset="1" stop-color="#B5C6E2"/>
</linearGradient>
<linearGradient id="paint12_linear" x1="196.828" y1="75.5223" x2="207.458" y2="87.2666" gradientUnits="userSpaceOnUse">
<stop stop-color="#F5F7FA"/>
<stop offset="1" stop-color="#B5C6E2"/>
</linearGradient>
<linearGradient id="paint13_linear" x1="196.828" y1="76.6682" x2="207.458" y2="88.4124" gradientUnits="userSpaceOnUse">
<stop stop-color="#F5F7FA"/>
<stop offset="1" stop-color="#B5C6E2"/>
</linearGradient>
<linearGradient id="paint14_linear" x1="196.828" y1="77.8136" x2="207.458" y2="89.5579" gradientUnits="userSpaceOnUse">
<stop stop-color="#F5F7FA"/>
<stop offset="1" stop-color="#B5C6E2"/>
</linearGradient>
<linearGradient id="paint15_linear" x1="196.828" y1="78.9597" x2="207.458" y2="90.704" gradientUnits="userSpaceOnUse">
<stop stop-color="#F5F7FA"/>
<stop offset="1" stop-color="#B5C6E2"/>
</linearGradient>
<linearGradient id="paint16_linear" x1="202.471" y1="84.4192" x2="202.471" y2="15.9643" gradientUnits="userSpaceOnUse">
<stop stop-color="white"/>
<stop offset="1"/>
</linearGradient>
<linearGradient id="paint17_linear" x1="202.471" y1="84.4192" x2="202.471" y2="15.9643" gradientUnits="userSpaceOnUse">
<stop stop-color="#B5C6E2"/>
<stop offset="1" stop-color="#F5F7FA"/>
</linearGradient>
<linearGradient id="paint18_linear" x1="228.104" y1="99.2734" x2="284.364" y2="99.2734" gradientUnits="userSpaceOnUse">
<stop stop-color="#F5F7FA"/>
<stop offset="1" stop-color="#C3CFE2"/>
</linearGradient>
<linearGradient id="paint19_linear" x1="259.446" y1="74.9659" x2="281.639" y2="74.9659" gradientUnits="userSpaceOnUse">
<stop stop-color="#667EEA"/>
<stop offset="1" stop-color="#064BA2"/>
</linearGradient>
<linearGradient id="paint20_linear" x1="259.446" y1="74.9631" x2="281.365" y2="74.9631" gradientUnits="userSpaceOnUse">
<stop stop-color="#667EEA"/>
<stop offset="1" stop-color="#064BA2"/>
</linearGradient>
<linearGradient id="paint21_linear" x1="259.446" y1="80.6024" x2="281.639" y2="80.6024" gradientUnits="userSpaceOnUse">
<stop stop-color="#667EEA"/>
<stop offset="1" stop-color="#064BA2"/>
</linearGradient>
<linearGradient id="paint22_linear" x1="259.446" y1="80.5996" x2="281.365" y2="80.5996" gradientUnits="userSpaceOnUse">
<stop stop-color="#667EEA"/>
<stop offset="1" stop-color="#064BA2"/>
</linearGradient>
<linearGradient id="paint23_linear" x1="259.446" y1="86.2391" x2="281.639" y2="86.2391" gradientUnits="userSpaceOnUse">
<stop stop-color="#667EEA"/>
<stop offset="1" stop-color="#064BA2"/>
</linearGradient>
<linearGradient id="paint24_linear" x1="259.446" y1="86.2363" x2="281.365" y2="86.2363" gradientUnits="userSpaceOnUse">
<stop stop-color="#667EEA"/>
<stop offset="1" stop-color="#064BA2"/>
</linearGradient>
<linearGradient id="paint25_linear" x1="259.446" y1="91.8758" x2="281.639" y2="91.8758" gradientUnits="userSpaceOnUse">
<stop stop-color="#667EEA"/>
<stop offset="1" stop-color="#064BA2"/>
</linearGradient>
<linearGradient id="paint26_linear" x1="259.446" y1="91.873" x2="281.365" y2="91.873" gradientUnits="userSpaceOnUse">
<stop stop-color="#667EEA"/>
<stop offset="1" stop-color="#064BA2"/>
</linearGradient>
<linearGradient id="paint27_linear" x1="259.446" y1="97.5124" x2="281.639" y2="97.5124" gradientUnits="userSpaceOnUse">
<stop stop-color="#667EEA"/>
<stop offset="1" stop-color="#064BA2"/>
</linearGradient>
<linearGradient id="paint28_linear" x1="259.446" y1="97.5096" x2="281.365" y2="97.5096" gradientUnits="userSpaceOnUse">
<stop stop-color="#667EEA"/>
<stop offset="1" stop-color="#064BA2"/>
</linearGradient>
<linearGradient id="paint29_linear" x1="259.446" y1="103.149" x2="281.639" y2="103.149" gradientUnits="userSpaceOnUse">
<stop stop-color="#667EEA"/>
<stop offset="1" stop-color="#064BA2"/>
</linearGradient>
<linearGradient id="paint30_linear" x1="259.446" y1="103.146" x2="281.365" y2="103.146" gradientUnits="userSpaceOnUse">
<stop stop-color="#667EEA"/>
<stop offset="1" stop-color="#064BA2"/>
</linearGradient>
<linearGradient id="paint31_linear" x1="259.446" y1="108.785" x2="281.639" y2="108.785" gradientUnits="userSpaceOnUse">
<stop stop-color="#667EEA"/>
<stop offset="1" stop-color="#064BA2"/>
</linearGradient>
<linearGradient id="paint32_linear" x1="259.446" y1="108.784" x2="281.365" y2="108.784" gradientUnits="userSpaceOnUse">
<stop stop-color="#667EEA"/>
<stop offset="1" stop-color="#064BA2"/>
</linearGradient>
<linearGradient id="paint33_linear" x1="259.446" y1="114.422" x2="281.639" y2="114.422" gradientUnits="userSpaceOnUse">
<stop stop-color="#667EEA"/>
<stop offset="1" stop-color="#064BA2"/>
</linearGradient>
<linearGradient id="paint34_linear" x1="259.446" y1="114.421" x2="281.365" y2="114.421" gradientUnits="userSpaceOnUse">
<stop stop-color="#667EEA"/>
<stop offset="1" stop-color="#064BA2"/>
</linearGradient>
<linearGradient id="paint35_linear" x1="259.446" y1="120.059" x2="281.639" y2="120.059" gradientUnits="userSpaceOnUse">
<stop stop-color="#667EEA"/>
<stop offset="1" stop-color="#064BA2"/>
</linearGradient>
<linearGradient id="paint36_linear" x1="259.446" y1="120.058" x2="281.365" y2="120.058" gradientUnits="userSpaceOnUse">
<stop stop-color="#667EEA"/>
<stop offset="1" stop-color="#064BA2"/>
</linearGradient>
<linearGradient id="paint37_linear" x1="259.446" y1="125.696" x2="281.639" y2="125.696" gradientUnits="userSpaceOnUse">
<stop stop-color="#667EEA"/>
<stop offset="1" stop-color="#064BA2"/>
</linearGradient>
<linearGradient id="paint38_linear" x1="259.446" y1="125.693" x2="281.365" y2="125.693" gradientUnits="userSpaceOnUse">
<stop stop-color="#667EEA"/>
<stop offset="1" stop-color="#064BA2"/>
</linearGradient>
<linearGradient id="paint39_linear" x1="234.238" y1="95.9909" x2="251.284" y2="95.9909" gradientUnits="userSpaceOnUse">
<stop stop-color="#064BA2"/>
<stop offset="1" stop-color="#667EEA"/>
</linearGradient>
<linearGradient id="paint40_linear" x1="234.238" y1="96.1815" x2="251.284" y2="96.1815" gradientUnits="userSpaceOnUse">
<stop stop-color="#064BA2"/>
<stop offset="1" stop-color="#667EEA"/>
</linearGradient>
<linearGradient id="paint41_linear" x1="266.388" y1="121.827" x2="322.647" y2="121.827" gradientUnits="userSpaceOnUse">
<stop stop-color="#F5F7FA"/>
<stop offset="1" stop-color="#C3CFE2"/>
</linearGradient>
<linearGradient id="paint42_linear" x1="297.73" y1="97.519" x2="319.923" y2="97.519" gradientUnits="userSpaceOnUse">
<stop stop-color="#667EEA"/>
<stop offset="1" stop-color="#064BA2"/>
</linearGradient>
<linearGradient id="paint43_linear" x1="297.73" y1="97.5178" x2="319.648" y2="97.5178" gradientUnits="userSpaceOnUse">
<stop stop-color="#667EEA"/>
<stop offset="1" stop-color="#064BA2"/>
</linearGradient>
<linearGradient id="paint44_linear" x1="297.73" y1="103.156" x2="319.923" y2="103.156" gradientUnits="userSpaceOnUse">
<stop stop-color="#667EEA"/>
<stop offset="1" stop-color="#064BA2"/>
</linearGradient>
<linearGradient id="paint45_linear" x1="297.73" y1="103.154" x2="319.648" y2="103.154" gradientUnits="userSpaceOnUse">
<stop stop-color="#667EEA"/>
<stop offset="1" stop-color="#064BA2"/>
</linearGradient>
<linearGradient id="paint46_linear" x1="297.73" y1="108.793" x2="319.923" y2="108.793" gradientUnits="userSpaceOnUse">
<stop stop-color="#667EEA"/>
<stop offset="1" stop-color="#064BA2"/>
</linearGradient>
<linearGradient id="paint47_linear" x1="297.73" y1="108.791" x2="319.648" y2="108.791" gradientUnits="userSpaceOnUse">
<stop stop-color="#667EEA"/>
<stop offset="1" stop-color="#064BA2"/>
</linearGradient>
<linearGradient id="paint48_linear" x1="297.73" y1="114.429" x2="319.923" y2="114.429" gradientUnits="userSpaceOnUse">
<stop stop-color="#667EEA"/>
<stop offset="1" stop-color="#064BA2"/>
</linearGradient>
<linearGradient id="paint49_linear" x1="297.73" y1="114.428" x2="319.648" y2="114.428" gradientUnits="userSpaceOnUse">
<stop stop-color="#667EEA"/>
<stop offset="1" stop-color="#064BA2"/>
</linearGradient>
<linearGradient id="paint50_linear" x1="297.73" y1="120.065" x2="319.923" y2="120.065" gradientUnits="userSpaceOnUse">
<stop stop-color="#667EEA"/>
<stop offset="1" stop-color="#064BA2"/>
</linearGradient>
<linearGradient id="paint51_linear" x1="297.73" y1="120.064" x2="319.648" y2="120.064" gradientUnits="userSpaceOnUse">
<stop stop-color="#667EEA"/>
<stop offset="1" stop-color="#064BA2"/>
</linearGradient>
<linearGradient id="paint52_linear" x1="297.73" y1="125.702" x2="319.923" y2="125.702" gradientUnits="userSpaceOnUse">
<stop stop-color="#667EEA"/>
<stop offset="1" stop-color="#064BA2"/>
</linearGradient>
<linearGradient id="paint53_linear" x1="297.73" y1="125.701" x2="319.648" y2="125.701" gradientUnits="userSpaceOnUse">
<stop stop-color="#667EEA"/>
<stop offset="1" stop-color="#064BA2"/>
</linearGradient>
<linearGradient id="paint54_linear" x1="297.73" y1="131.339" x2="319.923" y2="131.339" gradientUnits="userSpaceOnUse">
<stop stop-color="#667EEA"/>
<stop offset="1" stop-color="#064BA2"/>
</linearGradient>
<linearGradient id="paint55_linear" x1="297.73" y1="131.337" x2="319.648" y2="131.337" gradientUnits="userSpaceOnUse">
<stop stop-color="#667EEA"/>
<stop offset="1" stop-color="#064BA2"/>
</linearGradient>
<linearGradient id="paint56_linear" x1="297.73" y1="136.976" x2="319.923" y2="136.976" gradientUnits="userSpaceOnUse">
<stop stop-color="#667EEA"/>
<stop offset="1" stop-color="#064BA2"/>
</linearGradient>
<linearGradient id="paint57_linear" x1="297.73" y1="136.974" x2="319.648" y2="136.974" gradientUnits="userSpaceOnUse">
<stop stop-color="#667EEA"/>
<stop offset="1" stop-color="#064BA2"/>
</linearGradient>
<linearGradient id="paint58_linear" x1="297.73" y1="142.612" x2="319.923" y2="142.612" gradientUnits="userSpaceOnUse">
<stop stop-color="#667EEA"/>
<stop offset="1" stop-color="#064BA2"/>
</linearGradient>
<linearGradient id="paint59_linear" x1="297.73" y1="142.611" x2="319.648" y2="142.611" gradientUnits="userSpaceOnUse">
<stop stop-color="#667EEA"/>
<stop offset="1" stop-color="#064BA2"/>
</linearGradient>
<linearGradient id="paint60_linear" x1="297.73" y1="148.249" x2="319.923" y2="148.249" gradientUnits="userSpaceOnUse">
<stop stop-color="#667EEA"/>
<stop offset="1" stop-color="#064BA2"/>
</linearGradient>
<linearGradient id="paint61_linear" x1="297.73" y1="148.248" x2="319.648" y2="148.248" gradientUnits="userSpaceOnUse">
<stop stop-color="#667EEA"/>
<stop offset="1" stop-color="#064BA2"/>
</linearGradient>
<linearGradient id="paint62_linear" x1="272.522" y1="118.544" x2="289.568" y2="118.544" gradientUnits="userSpaceOnUse">
<stop stop-color="#064BA2"/>
<stop offset="1" stop-color="#667EEA"/>
</linearGradient>
<linearGradient id="paint63_linear" x1="272.522" y1="118.735" x2="289.568" y2="118.735" gradientUnits="userSpaceOnUse">
<stop stop-color="#064BA2"/>
<stop offset="1" stop-color="#667EEA"/>
</linearGradient>
<linearGradient id="paint64_linear" x1="304.099" y1="143.308" x2="360.359" y2="143.308" gradientUnits="userSpaceOnUse">
<stop stop-color="#F5F7FA"/>
<stop offset="1" stop-color="#C3CFE2"/>
</linearGradient>
<linearGradient id="paint65_linear" x1="335.442" y1="119" x2="357.635" y2="119" gradientUnits="userSpaceOnUse">
<stop stop-color="#667EEA"/>
<stop offset="1" stop-color="#064BA2"/>
</linearGradient>
<linearGradient id="paint66_linear" x1="335.443" y1="118.999" x2="357.362" y2="118.999" gradientUnits="userSpaceOnUse">
<stop stop-color="#667EEA"/>
<stop offset="1" stop-color="#064BA2"/>
</linearGradient>
<linearGradient id="paint67_linear" x1="335.442" y1="124.637" x2="357.635" y2="124.637" gradientUnits="userSpaceOnUse">
<stop stop-color="#667EEA"/>
<stop offset="1" stop-color="#064BA2"/>
</linearGradient>
<linearGradient id="paint68_linear" x1="335.443" y1="124.636" x2="357.362" y2="124.636" gradientUnits="userSpaceOnUse">
<stop stop-color="#667EEA"/>
<stop offset="1" stop-color="#064BA2"/>
</linearGradient>
<linearGradient id="paint69_linear" x1="335.442" y1="130.273" x2="357.635" y2="130.273" gradientUnits="userSpaceOnUse">
<stop stop-color="#667EEA"/>
<stop offset="1" stop-color="#064BA2"/>
</linearGradient>
<linearGradient id="paint70_linear" x1="335.443" y1="130.272" x2="357.362" y2="130.272" gradientUnits="userSpaceOnUse">
<stop stop-color="#667EEA"/>
<stop offset="1" stop-color="#064BA2"/>
</linearGradient>
<linearGradient id="paint71_linear" x1="335.442" y1="135.91" x2="357.635" y2="135.91" gradientUnits="userSpaceOnUse">
<stop stop-color="#667EEA"/>
<stop offset="1" stop-color="#064BA2"/>
</linearGradient>
<linearGradient id="paint72_linear" x1="335.443" y1="135.909" x2="357.362" y2="135.909" gradientUnits="userSpaceOnUse">
<stop stop-color="#667EEA"/>
<stop offset="1" stop-color="#064BA2"/>
</linearGradient>
<linearGradient id="paint73_linear" x1="335.442" y1="141.547" x2="357.635" y2="141.547" gradientUnits="userSpaceOnUse">
<stop stop-color="#667EEA"/>
<stop offset="1" stop-color="#064BA2"/>
</linearGradient>
<linearGradient id="paint74_linear" x1="335.443" y1="141.546" x2="357.362" y2="141.546" gradientUnits="userSpaceOnUse">
<stop stop-color="#667EEA"/>
<stop offset="1" stop-color="#064BA2"/>
</linearGradient>
<linearGradient id="paint75_linear" x1="335.442" y1="147.183" x2="357.635" y2="147.183" gradientUnits="userSpaceOnUse">
<stop stop-color="#667EEA"/>
<stop offset="1" stop-color="#064BA2"/>
</linearGradient>
<linearGradient id="paint76_linear" x1="335.443" y1="147.182" x2="357.362" y2="147.182" gradientUnits="userSpaceOnUse">
<stop stop-color="#667EEA"/>
<stop offset="1" stop-color="#064BA2"/>
</linearGradient>
<linearGradient id="paint77_linear" x1="335.442" y1="152.82" x2="357.635" y2="152.82" gradientUnits="userSpaceOnUse">
<stop stop-color="#667EEA"/>
<stop offset="1" stop-color="#064BA2"/>
</linearGradient>
<linearGradient id="paint78_linear" x1="335.443" y1="152.819" x2="357.362" y2="152.819" gradientUnits="userSpaceOnUse">
<stop stop-color="#667EEA"/>
<stop offset="1" stop-color="#064BA2"/>
</linearGradient>
<linearGradient id="paint79_linear" x1="335.442" y1="158.457" x2="357.635" y2="158.457" gradientUnits="userSpaceOnUse">
<stop stop-color="#667EEA"/>
<stop offset="1" stop-color="#064BA2"/>
</linearGradient>
<linearGradient id="paint80_linear" x1="335.443" y1="158.456" x2="357.362" y2="158.456" gradientUnits="userSpaceOnUse">
<stop stop-color="#667EEA"/>
<stop offset="1" stop-color="#064BA2"/>
</linearGradient>
<linearGradient id="paint81_linear" x1="335.442" y1="164.093" x2="357.635" y2="164.093" gradientUnits="userSpaceOnUse">
<stop stop-color="#667EEA"/>
<stop offset="1" stop-color="#064BA2"/>
</linearGradient>
<linearGradient id="paint82_linear" x1="335.443" y1="164.092" x2="357.362" y2="164.092" gradientUnits="userSpaceOnUse">
<stop stop-color="#667EEA"/>
<stop offset="1" stop-color="#064BA2"/>
</linearGradient>
<linearGradient id="paint83_linear" x1="335.442" y1="169.73" x2="357.635" y2="169.73" gradientUnits="userSpaceOnUse">
<stop stop-color="#667EEA"/>
<stop offset="1" stop-color="#064BA2"/>
</linearGradient>
<linearGradient id="paint84_linear" x1="335.443" y1="169.729" x2="357.362" y2="169.729" gradientUnits="userSpaceOnUse">
<stop stop-color="#667EEA"/>
<stop offset="1" stop-color="#064BA2"/>
</linearGradient>
<linearGradient id="paint85_linear" x1="310.233" y1="140.026" x2="327.279" y2="140.026" gradientUnits="userSpaceOnUse">
<stop stop-color="#064BA2"/>
<stop offset="1" stop-color="#667EEA"/>
</linearGradient>
<linearGradient id="paint86_linear" x1="310.233" y1="140.216" x2="327.279" y2="140.216" gradientUnits="userSpaceOnUse">
<stop stop-color="#064BA2"/>
<stop offset="1" stop-color="#667EEA"/>
</linearGradient>
<radialGradient id="paint87_radial" cx="0" cy="0" r="1" gradientUnits="userSpaceOnUse" gradientTransform="translate(94.0983 188.532) scale(30.4322 18.2806)">
<stop stop-color="white"/>
<stop offset="0.3695" stop-color="#FDFDFD"/>
<stop offset="0.504" stop-color="#F6F6F6"/>
<stop offset="0.6" stop-color="#EAEAEA"/>
<stop offset="0.6779" stop-color="#D9D9D9"/>
<stop offset="0.7446" stop-color="#C3C3C3"/>
<stop offset="0.8038" stop-color="#A8A8A8"/>
<stop offset="0.8573" stop-color="#888888"/>
<stop offset="0.9066" stop-color="#626262"/>
<stop offset="0.9524" stop-color="#373737"/>
<stop offset="0.9931" stop-color="#090909"/>
<stop offset="1"/>
</radialGradient>
<linearGradient id="paint88_linear" x1="68.4587" y1="193.026" x2="117.759" y2="193.026" gradientUnits="userSpaceOnUse">
<stop stop-color="#F5F7FA"/>
<stop offset="1" stop-color="#C3CFE2"/>
</linearGradient>
<linearGradient id="paint89_linear" x1="82.7472" y1="183.492" x2="105.868" y2="183.492" gradientUnits="userSpaceOnUse">
<stop stop-color="#B999F7"/>
<stop offset="1" stop-color="#5522CC"/>
</linearGradient>
<linearGradient id="paint90_linear" x1="279.283" y1="185.578" x2="157.526" y2="185.578" gradientUnits="userSpaceOnUse">
<stop stop-color="#66A6FF"/>
<stop offset="1" stop-color="#89F7FE"/>
</linearGradient>
<linearGradient id="paint91_linear" x1="279.283" y1="185.578" x2="157.526" y2="185.578" gradientUnits="userSpaceOnUse">
<stop stop-color="#66A6FF"/>
<stop offset="1" stop-color="#89F7FE"/>
</linearGradient>
<linearGradient id="paint92_linear" x1="218.372" y1="181.673" x2="199.784" y2="213.867" gradientUnits="userSpaceOnUse">
<stop stop-color="white"/>
<stop offset="0.11" stop-color="#FAFAFA"/>
<stop offset="0.2339" stop-color="#EDEDED"/>
<stop offset="0.3646" stop-color="#D6D6D6"/>
<stop offset="0.5" stop-color="#B7B7B7"/>
<stop offset="0.639" stop-color="#8E8E8E"/>
<stop offset="0.7811" stop-color="#5C5C5C"/>
<stop offset="0.9229" stop-color="#232323"/>
<stop offset="1"/>
</linearGradient>
<linearGradient id="paint93_linear" x1="218.372" y1="181.673" x2="199.784" y2="213.867" gradientUnits="userSpaceOnUse">
<stop stop-color="#D51CFF"/>
<stop offset="0.1215" stop-color="#D01FFF"/>
<stop offset="0.2582" stop-color="#C328FE"/>
<stop offset="0.4024" stop-color="#AC38FC"/>
<stop offset="0.5518" stop-color="#8D4EFA"/>
<stop offset="0.7052" stop-color="#6469F7"/>
<stop offset="0.8596" stop-color="#338BF3"/>
<stop offset="1" stop-color="#00AEEF"/>
</linearGradient>
<linearGradient id="paint94_linear" x1="218.341" y1="175.302" x2="201.34" y2="204.746" gradientUnits="userSpaceOnUse">
<stop stop-color="white"/>
<stop offset="0.3348" stop-color="#ADADAD"/>
<stop offset="1"/>
</linearGradient>
<linearGradient id="paint95_linear" x1="218.341" y1="175.302" x2="201.34" y2="204.746" gradientUnits="userSpaceOnUse">
<stop stop-color="#064BA2"/>
<stop offset="0.851" stop-color="#5776DF"/>
<stop offset="1" stop-color="#667EEA"/>
</linearGradient>
</defs>
</svg>
