<svg width="84" height="26" viewBox="0 0 84 26" fill="none" xmlns="http://www.w3.org/2000/svg">
<path d="M23.1081 3.05446C24.443 1.5949 26.3732 0.74808 28.3369 0.526048C30.2801 0.341115 32.2398 0.629647 34.0417 1.36598C35.6225 1.97528 37.0065 2.95463 38.2869 4.02693C37.2577 5.35052 36.2196 6.6655 35.1851 7.98565C34.5353 7.49339 33.9451 6.92024 33.2373 6.50543C32.057 5.78598 30.7256 5.19217 29.3047 5.2352C28.5828 5.27995 27.8188 5.40732 27.2444 5.8772C26.9115 6.13124 26.6695 6.48232 26.5534 6.87982C26.4372 7.27732 26.4528 7.7007 26.5981 8.08892C26.7737 8.51405 27.1601 8.80837 27.55 9.04073C28.5251 9.5831 29.5501 10.0343 30.6114 10.3884C32.4153 11.0614 34.256 11.7223 35.8455 12.817C36.801 13.5192 37.6511 14.4298 38.0568 15.5485C38.7067 17.2393 38.7029 19.1047 38.0463 20.793C37.3771 22.6122 35.7981 24.0012 34.0259 24.7775C31.2789 25.9496 28.0752 25.8687 25.2931 24.8498C24.1274 24.4004 23.0383 23.78 22.063 23.0098C21.3352 22.4245 20.66 21.779 20.0449 21.0804C21.1515 19.7671 22.272 18.4642 23.3821 17.1561C23.7053 17.5399 24.0126 17.9358 24.3341 18.3213C25.7585 20.0081 28.0225 21.0047 30.2654 20.8257C31.0558 20.7585 31.8796 20.5847 32.5242 20.1096C33.5903 19.3592 33.5903 17.5606 32.4996 16.8394C31.1823 15.953 29.6296 15.5175 28.156 14.9564C26.7772 14.4298 25.4002 13.8497 24.1918 13.0012C23.392 12.4399 22.7109 11.7321 22.186 10.9168C21.614 9.93696 21.3063 8.83041 21.292 7.70165C21.2523 5.97918 21.9045 4.31033 23.1081 3.05446Z" fill="black"/>
<path d="M0.472896 0.667249C2.16607 0.667249 3.85983 0.667249 5.55417 0.667249C5.55417 4.1492 5.55417 7.62943 5.55417 11.1114C8.5102 7.63459 11.4381 4.13715 14.4029 0.665527C16.6019 0.665527 18.7939 0.665527 21 0.665527C15.965 6.47624 10.9299 12.2841 5.89491 18.089C5.77372 18.2612 5.55241 18.392 5.56647 18.6175C5.56647 20.8877 5.56647 23.1562 5.56647 25.4264C3.87329 25.4264 2.17953 25.4264 0.48519 25.4264C0.473481 17.174 0.469383 8.92089 0.472896 0.667249Z" fill="black"/>
<path d="M39.8496 5.39557C39.8496 3.82069 39.8496 2.24408 39.8496 0.66748C46.1551 0.66748 52.4606 0.66748 58.7661 0.66748C58.7661 2.24408 58.7661 3.82011 58.7661 5.39557C56.4459 5.39557 54.1239 5.39557 51.8055 5.39557C51.7984 12.0737 51.7984 18.7502 51.8055 25.425C50.1111 25.425 48.4168 25.425 46.7224 25.425C46.7154 18.7491 46.7154 12.0726 46.7224 5.39557C44.4268 5.39385 42.1382 5.40245 39.8496 5.39557Z" fill="black"/>
<path d="M60.3886 0.725632C62.3862 0.725632 64.3838 0.725632 66.3814 0.725632C68.2942 3.47952 70.1963 6.23341 72.1126 8.9873C74.013 6.23341 75.9093 3.47952 77.8016 0.725632C79.7494 0.703256 81.6973 0.725632 83.6469 0.717026C77.8706 8.9787 72.0821 17.2318 66.2813 25.4762C64.279 25.4848 62.2767 25.4762 60.2744 25.4762C63.1292 21.3454 65.9874 17.2146 68.8492 13.0837C66.0407 8.97353 63.2023 4.85475 60.3886 0.725632Z" fill="black"/>
<path d="M10.1455 19.3301C12.2532 19.3301 14.3609 19.3301 16.4686 19.3301C17.9779 21.3657 19.489 23.399 21.0018 25.4299C18.8942 25.4299 16.7759 25.4386 14.6647 25.4299C13.1601 23.3944 11.6537 21.3611 10.1455 19.3301Z" fill="#0029FF"/>
<path d="M73.5938 19.3867C75.6242 19.3867 77.6563 19.3867 79.6867 19.3867C81.1094 21.4143 82.5251 23.4487 83.9337 25.49H77.8583C76.4286 23.4579 75.0071 21.4234 73.5938 19.3867Z" fill="#0029FF"/>
</svg>
