<svg width="359" height="537" viewBox="0 0 359 537" fill="none" xmlns="http://www.w3.org/2000/svg">
<path d="M224.814 396.112C347.985 347.887 407.167 200.682 309.942 110.993C307.641 108.87 305.324 106.768 302.992 104.686C241.074 49.398 170.603 10.5081 98.4562 -8.18872C26.3095 -26.8855 -45.0476 -24.7503 -108.651 -1.99162C-172.255 20.7671 -225.931 63.3718 -264.443 121.665C-302.955 179.957 -324.986 251.947 -328.386 330.606C-331.785 409.266 -316.438 491.91 -283.841 570.471C-251.245 649.032 -202.512 720.826 -142.4 778.848C-55.1012 863.112 66.7222 785.036 74.6066 663.96L79.0676 595.454C84.8693 506.361 141.677 428.663 224.814 396.112Z" fill="url(#paint0_radial)"/>
<defs>
<radialGradient id="paint0_radial" cx="0" cy="0" r="1" gradientUnits="userSpaceOnUse" gradientTransform="translate(88.5749 449.454) rotate(60) scale(494.547 388.327)">
<stop stop-color="#A06BFF"/>
<stop offset="1" stop-color="#B184FF" stop-opacity="0.23"/>
</radialGradient>
</defs>
</svg>
